%TF.GenerationSoftware,Altium Limited,Altium Designer,19.1.6 (110)*%
G04 Layer_Physical_Order=1*
G04 Layer_Color=255*
%FSLAX43Y43*%
%MOMM*%
%TF.FileFunction,Copper,L1,Top,Signal*%
%TF.Part,Single*%
G01*
G75*
%TA.AperFunction,SMDPad,CuDef*%
%ADD10R,1.450X1.200*%
%ADD11O,1.750X0.600*%
%ADD12R,1.300X1.550*%
%ADD13R,1.000X1.350*%
%ADD14R,0.850X1.300*%
%ADD15R,1.400X1.050*%
%ADD16R,0.900X0.800*%
%ADD17R,1.400X1.000*%
%ADD18R,0.500X0.450*%
%ADD19R,1.900X1.500*%
%ADD20R,1.500X1.400*%
%ADD21R,1.500X1.550*%
%ADD22R,0.750X1.450*%
%ADD23O,1.400X0.450*%
%ADD24R,3.100X3.100*%
%ADD25R,1.300X0.450*%
%ADD26R,1.100X0.800*%
%ADD27R,0.800X0.900*%
%ADD28R,1.350X1.000*%
%ADD29R,1.200X1.450*%
%ADD30R,1.450X0.750*%
%TA.AperFunction,Conductor*%
%ADD31C,0.500*%
%ADD32C,1.000*%
%TA.AperFunction,ComponentPad*%
%ADD33C,1.600*%
%ADD34R,1.600X1.600*%
%ADD35R,1.550X1.550*%
%ADD36C,1.550*%
%ADD37C,1.200*%
%ADD38C,1.400*%
%ADD39C,1.500*%
%ADD40O,1.800X1.150*%
%ADD41C,0.800*%
%ADD42O,2.000X1.400*%
%ADD43C,1.900*%
%TA.AperFunction,WasherPad*%
%ADD44C,1.000*%
%TA.AperFunction,ViaPad*%
%ADD45C,0.850*%
%ADD46C,0.650*%
G36*
X91000Y91000D02*
X100075Y91000D01*
Y9000D01*
X91000Y9000D01*
X86901Y9000D01*
X86863Y9127D01*
X86880Y9139D01*
X86963Y9263D01*
X86989Y9393D01*
X88105D01*
X88220Y9441D01*
X91875Y13096D01*
X94268D01*
X94327Y12984D01*
X94308Y12955D01*
X94265Y12740D01*
X94308Y12525D01*
X94322Y12504D01*
X94284Y12435D01*
X94243Y12394D01*
X94026Y12423D01*
X93826D01*
Y11615D01*
X94921D01*
X94903Y11750D01*
X94812Y11969D01*
X94736Y12068D01*
X94808Y12183D01*
X94826Y12179D01*
X95041Y12222D01*
X95223Y12343D01*
X95344Y12525D01*
X95387Y12740D01*
X95344Y12955D01*
X95223Y13137D01*
X95189Y13159D01*
X95115Y13251D01*
X95136Y13302D01*
X95162Y13350D01*
X95159Y13358D01*
X95162Y13366D01*
X95162Y14226D01*
X95162Y14226D01*
X95162Y14226D01*
X95138Y14284D01*
X95115Y14341D01*
X95115Y14341D01*
X95115Y14341D01*
X95025Y14430D01*
X95025Y14430D01*
X95025Y14430D01*
X94968Y14454D01*
X94910Y14478D01*
X94910Y14478D01*
X94910Y14478D01*
X94653Y14478D01*
X94526Y14584D01*
Y16115D01*
X94576D01*
Y16440D01*
X93726D01*
Y16540D01*
D01*
Y16440D01*
X92876D01*
Y16115D01*
X92926D01*
Y15515D01*
Y14555D01*
X92901Y14523D01*
X92799Y14470D01*
X92786Y14476D01*
X92786Y14476D01*
X92786Y14476D01*
X90971Y14474D01*
X90866Y14601D01*
Y15328D01*
X88966D01*
Y14572D01*
X88889Y14486D01*
X88862Y14472D01*
X88300Y14471D01*
X88243Y14447D01*
X88185Y14424D01*
X87501Y13739D01*
X87083D01*
X87060Y13730D01*
X87030Y13756D01*
X86968Y13834D01*
X86992Y13959D01*
X86963Y14105D01*
X86880Y14229D01*
X86756Y14312D01*
X86610Y14341D01*
X85660D01*
X85514Y14312D01*
X85390Y14229D01*
X85307Y14105D01*
X85278Y13959D01*
X85307Y13813D01*
X85370Y13719D01*
X85382Y13634D01*
X85370Y13549D01*
X85307Y13455D01*
X85278Y13309D01*
X85307Y13163D01*
X85370Y13069D01*
X85382Y12984D01*
X85370Y12899D01*
X85307Y12805D01*
X85278Y12659D01*
X85307Y12513D01*
X85370Y12419D01*
X85382Y12334D01*
X85370Y12249D01*
X85307Y12155D01*
X85278Y12009D01*
X85307Y11863D01*
X85390Y11739D01*
Y11629D01*
X85307Y11505D01*
X85278Y11359D01*
X85307Y11213D01*
X85370Y11119D01*
X85382Y11034D01*
X85370Y10949D01*
X85307Y10855D01*
X85278Y10709D01*
X85307Y10563D01*
X85390Y10439D01*
Y10329D01*
X85307Y10205D01*
X85278Y10059D01*
X85307Y9913D01*
X85370Y9819D01*
X85382Y9734D01*
X85370Y9649D01*
X85307Y9555D01*
X85278Y9409D01*
X85307Y9263D01*
X85390Y9139D01*
X85407Y9127D01*
X85369Y9000D01*
X81001Y9000D01*
X80963Y9127D01*
X80980Y9139D01*
X81063Y9263D01*
X81092Y9409D01*
X81063Y9555D01*
X81000Y9649D01*
X80988Y9734D01*
X81000Y9819D01*
X81063Y9913D01*
X81092Y10059D01*
X81063Y10205D01*
X81000Y10299D01*
X80988Y10384D01*
X81000Y10469D01*
X81063Y10563D01*
X81092Y10709D01*
X81063Y10855D01*
X81000Y10949D01*
X80988Y11034D01*
X81000Y11119D01*
X81063Y11213D01*
X81092Y11359D01*
X81063Y11505D01*
X81000Y11599D01*
X80988Y11684D01*
X81000Y11769D01*
X81063Y11863D01*
X81092Y12009D01*
X81063Y12155D01*
X80980Y12279D01*
X81042Y12391D01*
X81110Y12493D01*
X81123Y12559D01*
X80235D01*
X79274D01*
X79228Y12506D01*
X77174D01*
X77150Y12623D01*
X77150Y12633D01*
Y13423D01*
X75250D01*
Y12633D01*
X75250Y12623D01*
X75226Y12506D01*
X71395D01*
Y21826D01*
X71895Y22326D01*
X72557D01*
Y21657D01*
X73357D01*
Y22407D01*
X73411Y22511D01*
X73421Y22518D01*
X73525Y22654D01*
X73590Y22812D01*
X73613Y22982D01*
X73590Y23152D01*
X73570Y23202D01*
Y25273D01*
X73547Y25443D01*
X73482Y25601D01*
X73378Y25737D01*
X73364Y25747D01*
Y26148D01*
X72314D01*
Y25929D01*
X70442D01*
X70399Y25923D01*
X69592D01*
Y24623D01*
X70399D01*
X70442Y24617D01*
X72258D01*
Y23638D01*
X71623D01*
X71453Y23615D01*
X71295Y23550D01*
X71159Y23446D01*
X70275Y22562D01*
X70171Y22426D01*
X70106Y22268D01*
X70083Y22098D01*
Y12841D01*
X69988Y12757D01*
X69931Y12765D01*
X67165D01*
X58900Y21030D01*
Y22623D01*
X58974Y22803D01*
X62629Y26457D01*
X62733Y26593D01*
X62746Y26624D01*
X62873Y26599D01*
Y21816D01*
X62117D01*
Y20316D01*
X63867D01*
Y20658D01*
X65583D01*
Y20466D01*
X66783D01*
Y21566D01*
X65583D01*
Y21474D01*
X63867D01*
Y21816D01*
X63688D01*
X63688Y66042D01*
X63657Y66198D01*
X63569Y66330D01*
X63569Y66330D01*
X61539Y68360D01*
X61406Y68449D01*
X61250Y68480D01*
X61250Y68480D01*
X59347D01*
X59343Y68487D01*
X59152Y68614D01*
X58928Y68658D01*
X58704Y68614D01*
X58513Y68487D01*
X58386Y68296D01*
X58342Y68072D01*
X58386Y67848D01*
X58513Y67657D01*
X58704Y67530D01*
X58928Y67486D01*
X59152Y67530D01*
X59343Y67657D01*
X59347Y67664D01*
X61081D01*
X61496Y67250D01*
X61437Y67129D01*
X61340Y67142D01*
X61170Y67120D01*
X61012Y67054D01*
X60876Y66950D01*
X60772Y66814D01*
X60707Y66656D01*
X60684Y66486D01*
X60707Y66317D01*
X60772Y66159D01*
X60876Y66023D01*
X61509Y65390D01*
Y27193D01*
X59095Y24779D01*
X58980Y24843D01*
X59000Y25000D01*
X58975Y25196D01*
X58899Y25378D01*
X58779Y25535D01*
X58622Y25655D01*
X58440Y25731D01*
X58244Y25756D01*
X58048Y25731D01*
X57866Y25655D01*
X57709Y25535D01*
X57589Y25378D01*
X57513Y25196D01*
X57488Y25000D01*
X57513Y24804D01*
X57589Y24622D01*
X57709Y24465D01*
X57866Y24345D01*
X58048Y24269D01*
X58244Y24244D01*
X58401Y24264D01*
X58465Y24149D01*
X58047Y23730D01*
X57866Y23655D01*
X57709Y23535D01*
X57589Y23378D01*
X57513Y23196D01*
X57488Y23000D01*
X57513Y22804D01*
X57588Y22623D01*
Y20758D01*
X57611Y20589D01*
X57617Y20574D01*
X57548Y20447D01*
X36240Y20447D01*
X36182Y20568D01*
X46205Y30592D01*
X51116D01*
X51116Y30592D01*
X51116Y30592D01*
X57612D01*
X57709Y30465D01*
X57866Y30345D01*
X58048Y30269D01*
X58244Y30244D01*
X58440Y30269D01*
X58622Y30345D01*
X58779Y30465D01*
X58899Y30622D01*
X58975Y30804D01*
X59000Y31000D01*
X58975Y31196D01*
X58899Y31378D01*
X58779Y31535D01*
X58622Y31655D01*
X58440Y31731D01*
X58244Y31756D01*
X58048Y31731D01*
X57866Y31655D01*
X57709Y31535D01*
X57612Y31408D01*
X51519D01*
Y49996D01*
X51646Y50035D01*
X51773Y49868D01*
X51972Y49716D01*
X52043Y49687D01*
Y44793D01*
X52043Y44793D01*
X52074Y44637D01*
X52163Y44505D01*
X57508Y39159D01*
X57488Y39000D01*
X57513Y38804D01*
X57589Y38622D01*
X57709Y38465D01*
X57866Y38345D01*
X58048Y38269D01*
X58244Y38244D01*
X58440Y38269D01*
X58622Y38345D01*
X58779Y38465D01*
X58899Y38622D01*
X58975Y38804D01*
X59000Y39000D01*
X58975Y39196D01*
X58899Y39378D01*
X58779Y39535D01*
X58622Y39655D01*
X58440Y39731D01*
X58244Y39756D01*
X58085Y39736D01*
X52859Y44962D01*
Y49687D01*
X52930Y49716D01*
X53129Y49868D01*
X53281Y50067D01*
X53377Y50298D01*
X53409Y50546D01*
X53377Y50794D01*
X53281Y51025D01*
X53129Y51224D01*
X52930Y51376D01*
X52859Y51405D01*
Y51774D01*
X52859Y51774D01*
X52828Y51930D01*
X52781Y51999D01*
X52880Y52080D01*
X54095Y50865D01*
X54065Y50794D01*
X54033Y50546D01*
X54065Y50298D01*
X54161Y50067D01*
X54313Y49868D01*
X54512Y49716D01*
X54743Y49620D01*
X54991Y49588D01*
X55239Y49620D01*
X55288Y49641D01*
X60044Y44884D01*
Y31377D01*
X58403Y29736D01*
X58244Y29756D01*
X58048Y29731D01*
X57866Y29655D01*
X57709Y29535D01*
X57589Y29378D01*
X57513Y29196D01*
X57488Y29000D01*
X57513Y28804D01*
X57589Y28622D01*
X57709Y28465D01*
X57866Y28345D01*
X58048Y28269D01*
X58244Y28244D01*
X58440Y28269D01*
X58622Y28345D01*
X58779Y28465D01*
X58899Y28622D01*
X58975Y28804D01*
X59000Y29000D01*
X58980Y29159D01*
X60740Y30920D01*
X60829Y31052D01*
X60860Y31208D01*
Y45053D01*
X60829Y45209D01*
X60740Y45342D01*
X60740Y45342D01*
X55878Y50204D01*
X55917Y50298D01*
X55949Y50546D01*
X55917Y50794D01*
X55821Y51025D01*
X55669Y51224D01*
X55470Y51376D01*
X55239Y51472D01*
X54991Y51504D01*
X54743Y51472D01*
X54672Y51442D01*
X52551Y53563D01*
Y64075D01*
X54771Y66296D01*
X54771Y66296D01*
X54860Y66428D01*
X54891Y66584D01*
Y77431D01*
X55265Y77805D01*
X55733D01*
X55893Y77773D01*
X57043D01*
X57219Y77808D01*
X57367Y77908D01*
X57467Y78056D01*
X57502Y78232D01*
X57467Y78408D01*
X57367Y78556D01*
X57219Y78656D01*
X57043Y78691D01*
X55893D01*
X55717Y78656D01*
X55665Y78621D01*
X55220D01*
X55168Y78748D01*
X55514Y79094D01*
X55693D01*
X55717Y79078D01*
X55893Y79043D01*
X57043D01*
X57219Y79078D01*
X57367Y79178D01*
X57467Y79326D01*
X57502Y79502D01*
X57467Y79678D01*
X57367Y79826D01*
X57219Y79926D01*
X57043Y79961D01*
X55893D01*
X55717Y79926D01*
X55693Y79910D01*
X55345D01*
X55189Y79879D01*
X55057Y79790D01*
X55057Y79790D01*
X53475Y78208D01*
X53386Y78076D01*
X53355Y77920D01*
X53355Y77920D01*
Y67166D01*
X51204Y65015D01*
X51116Y64883D01*
X51085Y64727D01*
X51085Y64727D01*
Y52732D01*
X51085Y52732D01*
X51116Y52576D01*
X51204Y52443D01*
X52043Y51605D01*
Y51405D01*
X51972Y51376D01*
X51773Y51224D01*
X51646Y51057D01*
X51519Y51096D01*
Y51365D01*
X51519Y51365D01*
X51488Y51521D01*
X51399Y51653D01*
X51399Y51653D01*
X50736Y52316D01*
X50604Y52405D01*
X50448Y52436D01*
X50448Y52436D01*
X47108D01*
X45704Y53840D01*
X45706Y53848D01*
X45661Y54072D01*
X45534Y54263D01*
X45344Y54390D01*
X45119Y54434D01*
X44895Y54390D01*
X44705Y54263D01*
X44578Y54072D01*
X44533Y53848D01*
X44578Y53624D01*
X44705Y53433D01*
X44895Y53306D01*
X45119Y53262D01*
X45127Y53263D01*
X46651Y51740D01*
X46651Y51740D01*
X46783Y51651D01*
X46939Y51620D01*
X47279D01*
X47288Y51493D01*
X47123Y51472D01*
X46892Y51376D01*
X46693Y51224D01*
X46541Y51025D01*
X46445Y50794D01*
X46413Y50546D01*
X46445Y50298D01*
X46541Y50067D01*
X46693Y49868D01*
X46892Y49716D01*
X46963Y49687D01*
Y49460D01*
X41892Y44388D01*
X41803Y44256D01*
X41772Y44100D01*
X41772Y44100D01*
Y31105D01*
X36403Y25736D01*
X36244Y25756D01*
X36048Y25731D01*
X35866Y25655D01*
X35709Y25535D01*
X35589Y25378D01*
X35513Y25196D01*
X35488Y25000D01*
X35513Y24804D01*
X35589Y24622D01*
X35709Y24465D01*
X35866Y24345D01*
X36048Y24269D01*
X36244Y24244D01*
X36440Y24269D01*
X36622Y24345D01*
X36779Y24465D01*
X36899Y24622D01*
X36975Y24804D01*
X37000Y25000D01*
X36980Y25159D01*
X42468Y30648D01*
X42504Y30702D01*
X42631Y30663D01*
Y29964D01*
X36403Y23736D01*
X36244Y23756D01*
X36048Y23731D01*
X35866Y23655D01*
X35709Y23535D01*
X35589Y23378D01*
X35513Y23196D01*
X35488Y23000D01*
X35513Y22804D01*
X35589Y22622D01*
X35709Y22465D01*
X35866Y22345D01*
X36048Y22269D01*
X36244Y22244D01*
X36440Y22269D01*
X36622Y22345D01*
X36634Y22354D01*
X36718Y22258D01*
X30446Y15986D01*
X30357Y15854D01*
X30326Y15698D01*
X30326Y15698D01*
Y14578D01*
X29140Y13392D01*
X29023Y13441D01*
Y19202D01*
X36085Y26264D01*
X36244Y26244D01*
X36440Y26269D01*
X36622Y26345D01*
X36779Y26465D01*
X36899Y26622D01*
X36975Y26804D01*
X37000Y27000D01*
X36975Y27196D01*
X36899Y27378D01*
X36779Y27535D01*
X36622Y27655D01*
X36440Y27731D01*
X36244Y27756D01*
X36048Y27731D01*
X35866Y27655D01*
X35709Y27535D01*
X35589Y27378D01*
X35513Y27196D01*
X35488Y27000D01*
X35508Y26841D01*
X28327Y19660D01*
X28238Y19527D01*
X28221Y19439D01*
X28094Y19452D01*
Y20273D01*
X36085Y28264D01*
X36244Y28244D01*
X36440Y28269D01*
X36622Y28345D01*
X36779Y28465D01*
X36899Y28622D01*
X36975Y28804D01*
X37000Y29000D01*
X36975Y29196D01*
X36899Y29378D01*
X36779Y29535D01*
X36622Y29655D01*
X36440Y29731D01*
X36244Y29756D01*
X36048Y29731D01*
X35866Y29655D01*
X35709Y29535D01*
X35589Y29378D01*
X35513Y29196D01*
X35488Y29000D01*
X35508Y28841D01*
X27398Y20730D01*
X27309Y20598D01*
X27278Y20442D01*
X27278Y20442D01*
Y11773D01*
X24505Y9000D01*
X15576Y9000D01*
Y18902D01*
X20475D01*
Y18683D01*
X20569D01*
Y18272D01*
X20592Y18102D01*
X20657Y17944D01*
X20761Y17808D01*
X21293Y17276D01*
X21429Y17172D01*
X21587Y17107D01*
X21757Y17084D01*
X26123D01*
X26293Y17107D01*
X26451Y17172D01*
X26586Y17276D01*
X26691Y17412D01*
X26756Y17570D01*
X26778Y17740D01*
X26756Y17910D01*
X26691Y18068D01*
X26586Y18204D01*
X26451Y18308D01*
X26293Y18373D01*
X26123Y18396D01*
X22029D01*
X21881Y18544D01*
Y18683D01*
X21975D01*
Y20433D01*
X20475D01*
Y20214D01*
X12337D01*
X9713Y22838D01*
Y23588D01*
X9799Y23701D01*
X9885Y23908D01*
X9914Y24130D01*
X9885Y24352D01*
X9799Y24559D01*
X9713Y24672D01*
Y27962D01*
X16528Y34777D01*
X22860D01*
X23030Y34800D01*
X23188Y34865D01*
X23324Y34969D01*
X25483Y37128D01*
X25587Y37264D01*
X25652Y37422D01*
X25675Y37592D01*
Y39581D01*
X25869D01*
Y40931D01*
X24169D01*
Y40881D01*
X23420D01*
X22246Y42055D01*
Y49131D01*
X25483Y52368D01*
X25587Y52504D01*
X25652Y52662D01*
X25675Y52832D01*
Y54509D01*
X25869D01*
Y55859D01*
X24169D01*
Y55840D01*
X23066D01*
X22500Y56406D01*
Y62847D01*
X25483Y65830D01*
X25587Y65966D01*
X25652Y66124D01*
X25675Y66294D01*
Y69872D01*
X34614D01*
X34784Y69895D01*
X34942Y69960D01*
X35078Y70064D01*
X35162Y70148D01*
X35266Y70284D01*
X35331Y70442D01*
X35354Y70612D01*
X35331Y70782D01*
X35266Y70940D01*
X35162Y71076D01*
X35026Y71180D01*
X34868Y71245D01*
X34698Y71268D01*
X34528Y71245D01*
X34379Y71184D01*
X25869D01*
Y71353D01*
X24169D01*
Y70003D01*
X24363D01*
Y66566D01*
X21380Y63583D01*
X21276Y63447D01*
X21211Y63289D01*
X21188Y63119D01*
Y56134D01*
X21211Y55964D01*
X21276Y55806D01*
X21380Y55670D01*
X22330Y54720D01*
X22466Y54616D01*
X22624Y54551D01*
X22794Y54528D01*
X24169D01*
Y54509D01*
X24363D01*
Y53104D01*
X21126Y49867D01*
X21022Y49731D01*
X20957Y49573D01*
X20934Y49403D01*
Y41783D01*
X20957Y41613D01*
X21022Y41455D01*
X21126Y41319D01*
X22684Y39761D01*
X22820Y39657D01*
X22978Y39592D01*
X23148Y39569D01*
X24363D01*
Y37864D01*
X22588Y36089D01*
X16256D01*
X16086Y36066D01*
X15928Y36001D01*
X15792Y35897D01*
X9057Y29161D01*
X3312Y34907D01*
Y49149D01*
Y57404D01*
Y73660D01*
X3306Y73703D01*
Y74485D01*
X2006D01*
Y73703D01*
X2000Y73660D01*
Y57404D01*
Y49149D01*
Y34635D01*
X2023Y34465D01*
X2088Y34307D01*
X2192Y34171D01*
X8401Y27962D01*
Y24672D01*
X8315Y24559D01*
X8229Y24352D01*
X8200Y24130D01*
X8229Y23908D01*
X8315Y23701D01*
X8401Y23588D01*
Y22566D01*
X8424Y22396D01*
X8489Y22238D01*
X8593Y22102D01*
X11601Y19094D01*
X11737Y18990D01*
X11895Y18925D01*
X12065Y18902D01*
X14264D01*
Y9000D01*
X9000Y9000D01*
X255Y9000D01*
Y91000D01*
X9000Y91000D01*
X9000Y100075D01*
X91000D01*
X91000Y91000D01*
D02*
G37*
G36*
X50682Y49837D02*
X50703Y49830D01*
Y31408D01*
X46036D01*
X45880Y31377D01*
X45748Y31288D01*
X45748Y31288D01*
X36986Y22526D01*
X36890Y22610D01*
X36899Y22622D01*
X36975Y22804D01*
X37000Y23000D01*
X36980Y23159D01*
X43328Y29507D01*
X43328Y29507D01*
X43416Y29639D01*
X43447Y29795D01*
X43447Y29795D01*
Y43505D01*
X49592Y49650D01*
X49663Y49620D01*
X49911Y49588D01*
X50159Y49620D01*
X50390Y49716D01*
X50576Y49859D01*
X50682Y49837D01*
D02*
G37*
G36*
X95000Y14226D02*
X95000Y13366D01*
X94902Y13286D01*
X94826Y13301D01*
X94611Y13258D01*
X91808D01*
X88105Y9555D01*
X86963D01*
X86880Y9679D01*
X86942Y9791D01*
X87010Y9893D01*
X87023Y9959D01*
X86135D01*
Y10159D01*
X87023D01*
X87010Y10225D01*
X86916Y10365D01*
Y10403D01*
X87010Y10543D01*
X87023Y10609D01*
X86135D01*
Y10809D01*
X87023D01*
X87010Y10875D01*
X86970Y10936D01*
X86925Y11034D01*
X86970Y11132D01*
X87010Y11193D01*
X87023Y11259D01*
X86135D01*
Y11459D01*
X87023D01*
X87010Y11525D01*
X86916Y11665D01*
Y11703D01*
X87010Y11843D01*
X87023Y11909D01*
X86135D01*
Y12109D01*
X87023D01*
X87010Y12175D01*
X86942Y12277D01*
X86880Y12389D01*
X86963Y12513D01*
X86992Y12659D01*
X86963Y12805D01*
X86880Y12929D01*
X86942Y13041D01*
X87010Y13143D01*
X87023Y13209D01*
X86135D01*
Y13409D01*
X87023D01*
X87015Y13450D01*
X87083Y13577D01*
X87568D01*
X88300Y14309D01*
X88876Y14309D01*
X88966Y14220D01*
Y13628D01*
X90866D01*
Y14311D01*
X92786Y14313D01*
X92876Y14224D01*
Y14040D01*
X93726D01*
Y13940D01*
D01*
Y14040D01*
X94576D01*
Y14315D01*
X94910Y14316D01*
X95000Y14226D01*
D02*
G37*
G36*
X79387Y12216D02*
X79360Y12175D01*
X79347Y12109D01*
X80235D01*
Y11909D01*
X79347D01*
X79360Y11843D01*
X79454Y11703D01*
Y11665D01*
X79360Y11525D01*
X79347Y11459D01*
X80235D01*
Y11259D01*
X79347D01*
X79360Y11193D01*
X79400Y11132D01*
X79445Y11034D01*
X79400Y10936D01*
X79360Y10875D01*
X79347Y10809D01*
X80235D01*
Y10609D01*
X79347D01*
X79360Y10543D01*
X79454Y10403D01*
Y10365D01*
X79360Y10225D01*
X79347Y10159D01*
X80235D01*
Y9959D01*
X79347D01*
X79360Y9893D01*
X79370Y9878D01*
X79310Y9766D01*
X69697Y9766D01*
X69697Y12343D01*
X75250D01*
Y11723D01*
X77150D01*
Y12343D01*
X79320D01*
X79387Y12216D01*
D02*
G37*
%LPC*%
G36*
X71172Y97279D02*
X70422D01*
Y96404D01*
X71172D01*
Y97279D01*
D02*
G37*
G36*
X70222D02*
X69472D01*
Y96404D01*
X70222D01*
Y97279D01*
D02*
G37*
G36*
X46709Y97261D02*
Y96366D01*
X47604D01*
X47583Y96527D01*
X47482Y96770D01*
X47322Y96979D01*
X47113Y97140D01*
X46870Y97240D01*
X46709Y97261D01*
D02*
G37*
G36*
X46509D02*
X46348Y97240D01*
X46105Y97140D01*
X45896Y96979D01*
X45736Y96770D01*
X45635Y96527D01*
X45614Y96366D01*
X46509D01*
Y97261D01*
D02*
G37*
G36*
X65024Y98706D02*
X65024Y98706D01*
X58166D01*
X58010Y98675D01*
X57878Y98586D01*
X57878Y98586D01*
X56873Y97581D01*
X56784Y97449D01*
X56753Y97293D01*
X56753Y97293D01*
Y97091D01*
X56511D01*
Y95441D01*
X57811D01*
Y97091D01*
X57715D01*
X57663Y97218D01*
X58335Y97890D01*
X64855D01*
X65389Y97356D01*
X65354Y97229D01*
X65022D01*
Y95379D01*
X66622D01*
Y97229D01*
X66230D01*
Y97500D01*
X66230Y97500D01*
X66199Y97656D01*
X66110Y97788D01*
X66110Y97788D01*
X65312Y98586D01*
X65180Y98675D01*
X65154Y98680D01*
X65024Y98706D01*
D02*
G37*
G36*
X71172Y96204D02*
X70422D01*
Y95329D01*
X71172D01*
Y96204D01*
D02*
G37*
G36*
X70222D02*
X69472D01*
Y95329D01*
X70222D01*
Y96204D01*
D02*
G37*
G36*
X44069Y97224D02*
X43821Y97192D01*
X43590Y97096D01*
X43391Y96944D01*
X43239Y96745D01*
X43143Y96514D01*
X43111Y96266D01*
X43143Y96018D01*
X43239Y95787D01*
X43391Y95588D01*
X43590Y95436D01*
X43821Y95340D01*
X44069Y95308D01*
X44317Y95340D01*
X44548Y95436D01*
X44747Y95588D01*
X44899Y95787D01*
X44995Y96018D01*
X45027Y96266D01*
X44995Y96514D01*
X44899Y96745D01*
X44747Y96944D01*
X44548Y97096D01*
X44317Y97192D01*
X44069Y97224D01*
D02*
G37*
G36*
X41529D02*
X41281Y97192D01*
X41050Y97096D01*
X40851Y96944D01*
X40699Y96745D01*
X40603Y96514D01*
X40571Y96266D01*
X40603Y96018D01*
X40699Y95787D01*
X40851Y95588D01*
X41050Y95436D01*
X41281Y95340D01*
X41529Y95308D01*
X41777Y95340D01*
X42008Y95436D01*
X42207Y95588D01*
X42359Y95787D01*
X42455Y96018D01*
X42487Y96266D01*
X42455Y96514D01*
X42359Y96745D01*
X42207Y96944D01*
X42008Y97096D01*
X41777Y97192D01*
X41529Y97224D01*
D02*
G37*
G36*
X38989D02*
X38741Y97192D01*
X38510Y97096D01*
X38311Y96944D01*
X38159Y96745D01*
X38063Y96514D01*
X38031Y96266D01*
X38063Y96018D01*
X38159Y95787D01*
X38311Y95588D01*
X38510Y95436D01*
X38741Y95340D01*
X38989Y95308D01*
X39237Y95340D01*
X39468Y95436D01*
X39667Y95588D01*
X39819Y95787D01*
X39915Y96018D01*
X39947Y96266D01*
X39915Y96514D01*
X39819Y96745D01*
X39667Y96944D01*
X39468Y97096D01*
X39237Y97192D01*
X38989Y97224D01*
D02*
G37*
G36*
X36449D02*
X36201Y97192D01*
X35970Y97096D01*
X35771Y96944D01*
X35619Y96745D01*
X35523Y96514D01*
X35491Y96266D01*
X35523Y96018D01*
X35619Y95787D01*
X35771Y95588D01*
X35970Y95436D01*
X36201Y95340D01*
X36449Y95308D01*
X36697Y95340D01*
X36928Y95436D01*
X37127Y95588D01*
X37279Y95787D01*
X37375Y96018D01*
X37407Y96266D01*
X37375Y96514D01*
X37279Y96745D01*
X37127Y96944D01*
X36928Y97096D01*
X36697Y97192D01*
X36449Y97224D01*
D02*
G37*
G36*
X47604Y96166D02*
X46709D01*
Y95271D01*
X46870Y95292D01*
X47113Y95393D01*
X47322Y95553D01*
X47482Y95762D01*
X47583Y96005D01*
X47604Y96166D01*
D02*
G37*
G36*
X46509D02*
X45614D01*
X45635Y96005D01*
X45736Y95762D01*
X45896Y95553D01*
X46105Y95393D01*
X46348Y95292D01*
X46509Y95271D01*
Y96166D01*
D02*
G37*
G36*
X45022Y93181D02*
X45022Y93181D01*
X42106D01*
X42106Y93181D01*
X41950Y93150D01*
X41818Y93061D01*
X41818Y93061D01*
X41289Y92533D01*
X41281Y92534D01*
X41057Y92490D01*
X40866Y92363D01*
X40739Y92172D01*
X40695Y91948D01*
X40739Y91724D01*
X40866Y91533D01*
X41057Y91406D01*
X41281Y91362D01*
X41505Y91406D01*
X41696Y91533D01*
X41823Y91724D01*
X41867Y91948D01*
X41866Y91956D01*
X42275Y92365D01*
X43557D01*
X43624Y92238D01*
X43580Y92172D01*
X43536Y91948D01*
X43580Y91724D01*
X43708Y91533D01*
X43898Y91406D01*
X44122Y91362D01*
X44346Y91406D01*
X44537Y91533D01*
X44647Y91473D01*
X49503Y86617D01*
Y77766D01*
X49107Y77370D01*
X48193D01*
X48169Y77386D01*
X47993Y77421D01*
X46843D01*
X46667Y77386D01*
X46519Y77286D01*
X46419Y77138D01*
X46384Y76962D01*
X46419Y76786D01*
X46519Y76638D01*
X46667Y76538D01*
X46843Y76503D01*
X47993D01*
X48169Y76538D01*
X48193Y76554D01*
X49124D01*
X49177Y76427D01*
X48849Y76100D01*
X48193D01*
X48169Y76116D01*
X47993Y76151D01*
X46843D01*
X46667Y76116D01*
X46519Y76016D01*
X46419Y75868D01*
X46384Y75692D01*
X46419Y75516D01*
X46519Y75368D01*
X46667Y75268D01*
X46843Y75233D01*
X47993D01*
X48169Y75268D01*
X48193Y75284D01*
X49018D01*
X49018Y75284D01*
X49174Y75315D01*
X49307Y75404D01*
X51027Y77124D01*
X51116Y77257D01*
X51147Y77413D01*
X51147Y77413D01*
Y87056D01*
X51147Y87056D01*
X51116Y87212D01*
X51027Y87344D01*
X45310Y93061D01*
X45178Y93150D01*
X45152Y93155D01*
X45022Y93181D01*
D02*
G37*
G36*
X71172Y89329D02*
X70422D01*
Y88454D01*
X71172D01*
Y89329D01*
D02*
G37*
G36*
X70222D02*
X69472D01*
Y88454D01*
X70222D01*
Y89329D01*
D02*
G37*
G36*
X71172Y88254D02*
X70422D01*
Y87379D01*
X71172D01*
Y88254D01*
D02*
G37*
G36*
X70222D02*
X69472D01*
Y87379D01*
X70222D01*
Y88254D01*
D02*
G37*
G36*
X26641Y85803D02*
X26417Y85759D01*
X26226Y85632D01*
X26222Y85625D01*
X8001D01*
X8001Y85625D01*
X7845Y85594D01*
X7713Y85505D01*
X4168Y81960D01*
X4079Y81828D01*
X4048Y81672D01*
X4048Y81672D01*
Y74485D01*
X3806D01*
Y72835D01*
X4048D01*
Y71998D01*
X4048Y71998D01*
X4079Y71842D01*
X4168Y71710D01*
X4976Y70902D01*
X4976Y70902D01*
X5108Y70813D01*
X5264Y70782D01*
X7831D01*
X7860Y70711D01*
X8012Y70512D01*
X8211Y70360D01*
X8442Y70264D01*
X8690Y70232D01*
X8938Y70264D01*
X9169Y70360D01*
X9368Y70512D01*
X9520Y70711D01*
X9616Y70942D01*
X9648Y71190D01*
X9616Y71438D01*
X9520Y71669D01*
X9368Y71868D01*
X9169Y72020D01*
X8938Y72116D01*
X8690Y72148D01*
X8442Y72116D01*
X8211Y72020D01*
X8012Y71868D01*
X7860Y71669D01*
X7831Y71598D01*
X5433D01*
X4864Y72167D01*
Y72835D01*
X5106D01*
Y74485D01*
X4864D01*
Y81503D01*
X8170Y84809D01*
X26222D01*
X26226Y84802D01*
X26417Y84675D01*
X26641Y84631D01*
X26865Y84675D01*
X27055Y84802D01*
X27183Y84993D01*
X27227Y85217D01*
X27183Y85441D01*
X27055Y85632D01*
X26865Y85759D01*
X26641Y85803D01*
D02*
G37*
G36*
X56468Y87247D02*
X56244Y87203D01*
X56053Y87076D01*
X55926Y86885D01*
X55882Y86661D01*
X55926Y86437D01*
X56053Y86246D01*
X56060Y86242D01*
Y85041D01*
X55893D01*
X55717Y85006D01*
X55569Y84906D01*
X55469Y84758D01*
X55434Y84582D01*
X55469Y84406D01*
X55569Y84258D01*
X55717Y84158D01*
X55893Y84123D01*
X57043D01*
X57219Y84158D01*
X57367Y84258D01*
X57467Y84406D01*
X57502Y84582D01*
X57467Y84758D01*
X57367Y84906D01*
X57219Y85006D01*
X57043Y85041D01*
X56876D01*
Y86242D01*
X56883Y86246D01*
X57010Y86437D01*
X57054Y86661D01*
X57010Y86885D01*
X56883Y87076D01*
X56692Y87203D01*
X56468Y87247D01*
D02*
G37*
G36*
X47993Y85041D02*
X46843D01*
X46667Y85006D01*
X46643Y84990D01*
X28702D01*
X28546Y84959D01*
X28414Y84870D01*
X28414Y84870D01*
X25681Y82137D01*
X25592Y82005D01*
X25561Y81849D01*
X25561Y81849D01*
Y80721D01*
X25419D01*
Y79521D01*
X26519D01*
Y80721D01*
X26377D01*
Y81680D01*
X28871Y84174D01*
X46643D01*
X46667Y84158D01*
X46843Y84123D01*
X47993D01*
X48169Y84158D01*
X48317Y84258D01*
X48417Y84406D01*
X48452Y84582D01*
X48417Y84758D01*
X48317Y84906D01*
X48169Y85006D01*
X47993Y85041D01*
D02*
G37*
G36*
Y83771D02*
X46843D01*
X46667Y83736D01*
X46643Y83720D01*
X36322D01*
X36322Y83720D01*
X36166Y83689D01*
X36034Y83600D01*
X36034Y83600D01*
X28329Y75896D01*
X28321Y75897D01*
X28097Y75853D01*
X27906Y75726D01*
X27779Y75535D01*
X27735Y75311D01*
X27779Y75087D01*
X27906Y74896D01*
X28097Y74769D01*
X28321Y74725D01*
X28545Y74769D01*
X28736Y74896D01*
X28863Y75087D01*
X28907Y75311D01*
X28906Y75319D01*
X36491Y82904D01*
X46643D01*
X46667Y82888D01*
X46843Y82853D01*
X47993D01*
X48169Y82888D01*
X48317Y82988D01*
X48417Y83136D01*
X48452Y83312D01*
X48417Y83488D01*
X48317Y83636D01*
X48169Y83736D01*
X47993Y83771D01*
D02*
G37*
G36*
Y82501D02*
X46843D01*
X46667Y82466D01*
X46643Y82450D01*
X37387D01*
X37387Y82450D01*
X37231Y82419D01*
X37098Y82330D01*
X37098Y82330D01*
X27292Y72524D01*
X27284Y72526D01*
X27060Y72481D01*
X26869Y72354D01*
X26742Y72164D01*
X26698Y71939D01*
X26742Y71715D01*
X26869Y71525D01*
X27060Y71398D01*
X27284Y71353D01*
X27508Y71398D01*
X27699Y71525D01*
X27826Y71715D01*
X27870Y71939D01*
X27869Y71947D01*
X36781Y80860D01*
X36898Y80797D01*
X36894Y80778D01*
X36939Y80554D01*
X37066Y80363D01*
X37256Y80236D01*
X37481Y80192D01*
X37705Y80236D01*
X37895Y80363D01*
X37900Y80370D01*
X46634D01*
X46667Y80348D01*
X46843Y80313D01*
X47993D01*
X48169Y80348D01*
X48317Y80448D01*
X48417Y80596D01*
X48452Y80772D01*
X48417Y80948D01*
X48317Y81096D01*
X48169Y81196D01*
X47993Y81231D01*
X46843D01*
X46667Y81196D01*
X46652Y81186D01*
X37900D01*
X37895Y81193D01*
X37705Y81320D01*
X37481Y81364D01*
X37462Y81360D01*
X37399Y81478D01*
X37556Y81634D01*
X46643D01*
X46667Y81618D01*
X46843Y81583D01*
X47993D01*
X48169Y81618D01*
X48317Y81718D01*
X48417Y81866D01*
X48452Y82042D01*
X48417Y82218D01*
X48317Y82366D01*
X48169Y82466D01*
X47993Y82501D01*
D02*
G37*
G36*
X57043D02*
X55893D01*
X55717Y82466D01*
X55693Y82450D01*
X52959D01*
X52803Y82419D01*
X52671Y82330D01*
X51924Y81583D01*
X51835Y81451D01*
X51804Y81295D01*
X51804Y81295D01*
Y69054D01*
X50436Y67686D01*
X50319Y67734D01*
Y73817D01*
X50319Y73817D01*
X50288Y73973D01*
X50199Y74105D01*
X50199Y74105D01*
X49594Y74710D01*
X49462Y74799D01*
X49306Y74830D01*
X49306Y74830D01*
X48193D01*
X48169Y74846D01*
X47993Y74881D01*
X46843D01*
X46667Y74846D01*
X46519Y74746D01*
X46419Y74598D01*
X46384Y74422D01*
X46419Y74246D01*
X46519Y74098D01*
X46667Y73998D01*
X46843Y73963D01*
X47993D01*
X48169Y73998D01*
X48193Y74014D01*
X49137D01*
X49503Y73648D01*
Y67672D01*
X48119Y66287D01*
X45769D01*
X45613Y66256D01*
X45480Y66168D01*
X45480Y66168D01*
X43355Y64042D01*
X43324Y63995D01*
X43067Y63738D01*
X42978Y63606D01*
X42947Y63450D01*
X42947Y63450D01*
Y62850D01*
X42480D01*
Y61350D01*
X44230D01*
Y62850D01*
X43763D01*
Y63281D01*
X43932Y63450D01*
X43932Y63450D01*
X43963Y63497D01*
X45938Y65472D01*
X48056D01*
X48105Y65354D01*
X47880Y65129D01*
X47791Y64997D01*
X47760Y64841D01*
X47760Y64841D01*
Y59132D01*
X40070Y51442D01*
X39999Y51472D01*
X39751Y51504D01*
X39503Y51472D01*
X39272Y51376D01*
X39073Y51224D01*
X38921Y51025D01*
X38825Y50794D01*
X38793Y50546D01*
X38825Y50298D01*
X38921Y50067D01*
X39073Y49868D01*
X39272Y49716D01*
X39503Y49620D01*
X39751Y49588D01*
X39999Y49620D01*
X40230Y49716D01*
X40429Y49868D01*
X40581Y50067D01*
X40677Y50298D01*
X40709Y50546D01*
X40677Y50794D01*
X40647Y50865D01*
X48456Y58675D01*
X48456Y58675D01*
X48545Y58807D01*
X48576Y58963D01*
Y64672D01*
X52500Y68596D01*
X52589Y68729D01*
X52620Y68885D01*
X52620Y68885D01*
Y80396D01*
X52747Y80435D01*
X52798Y80357D01*
X52989Y80230D01*
X53213Y80186D01*
X53437Y80230D01*
X53628Y80357D01*
X53632Y80364D01*
X55693D01*
X55717Y80348D01*
X55893Y80313D01*
X57043D01*
X57219Y80348D01*
X57367Y80448D01*
X57467Y80596D01*
X57502Y80772D01*
X57467Y80948D01*
X57367Y81096D01*
X57219Y81196D01*
X57043Y81231D01*
X55893D01*
X55717Y81196D01*
X55693Y81180D01*
X53632D01*
X53628Y81187D01*
X53437Y81314D01*
X53213Y81358D01*
X52989Y81314D01*
X52984Y81310D01*
X52903Y81409D01*
X53128Y81634D01*
X55693D01*
X55717Y81618D01*
X55893Y81583D01*
X57043D01*
X57219Y81618D01*
X57367Y81718D01*
X57467Y81866D01*
X57502Y82042D01*
X57467Y82218D01*
X57367Y82366D01*
X57219Y82466D01*
X57043Y82501D01*
D02*
G37*
G36*
X60488Y81796D02*
X59663D01*
Y81321D01*
X60488D01*
Y81796D01*
D02*
G37*
G36*
X59463D02*
X58638D01*
Y81321D01*
X59463D01*
Y81796D01*
D02*
G37*
G36*
X60488Y81121D02*
X59663D01*
Y80646D01*
X60488D01*
Y81121D01*
D02*
G37*
G36*
X59463D02*
X58638D01*
Y80646D01*
X59463D01*
Y81121D01*
D02*
G37*
G36*
X24669Y80771D02*
X24169D01*
Y80221D01*
X24669D01*
Y80771D01*
D02*
G37*
G36*
X23969D02*
X23469D01*
Y80221D01*
X23969D01*
Y80771D01*
D02*
G37*
G36*
X47993Y80012D02*
X47518D01*
Y79602D01*
X48483D01*
X48464Y79697D01*
X48353Y79862D01*
X48188Y79973D01*
X47993Y80012D01*
D02*
G37*
G36*
X47318D02*
X46843D01*
X46648Y79973D01*
X46483Y79862D01*
X46372Y79697D01*
X46353Y79602D01*
X47318D01*
Y80012D01*
D02*
G37*
G36*
X24669Y80021D02*
X24169D01*
Y79471D01*
X24669D01*
Y80021D01*
D02*
G37*
G36*
X23969D02*
X23469D01*
Y79471D01*
X23969D01*
Y80021D01*
D02*
G37*
G36*
X48483Y79402D02*
X47518D01*
Y78992D01*
X47993D01*
X48188Y79031D01*
X48353Y79142D01*
X48464Y79307D01*
X48483Y79402D01*
D02*
G37*
G36*
X47318D02*
X46353D01*
X46372Y79307D01*
X46483Y79142D01*
X46648Y79031D01*
X46843Y78992D01*
X47318D01*
Y79402D01*
D02*
G37*
G36*
X43822Y79539D02*
X42772D01*
Y78689D01*
X43822D01*
Y79539D01*
D02*
G37*
G36*
X42572D02*
X41522D01*
Y78689D01*
X42572D01*
Y79539D01*
D02*
G37*
G36*
X47993Y78691D02*
X46843D01*
X46667Y78656D01*
X46643Y78640D01*
X45847D01*
X45691Y78609D01*
X45559Y78520D01*
X45559Y78520D01*
X44543Y77504D01*
X44454Y77372D01*
X44423Y77216D01*
X44423Y77216D01*
Y76623D01*
X43899Y76099D01*
X43772Y76151D01*
Y76489D01*
X41572D01*
Y74689D01*
X43772D01*
Y75181D01*
X43966D01*
X43966Y75181D01*
X44122Y75212D01*
X44254Y75301D01*
X45119Y76166D01*
X45119Y76166D01*
X45208Y76298D01*
X45239Y76454D01*
X45239Y76454D01*
Y77047D01*
X46016Y77824D01*
X46643D01*
X46667Y77808D01*
X46843Y77773D01*
X47993D01*
X48169Y77808D01*
X48317Y77908D01*
X48417Y78056D01*
X48452Y78232D01*
X48417Y78408D01*
X48317Y78556D01*
X48169Y78656D01*
X47993Y78691D01*
D02*
G37*
G36*
X8690Y79919D02*
X8403Y79882D01*
X8135Y79771D01*
X7905Y79595D01*
X7729Y79365D01*
X7618Y79097D01*
X7581Y78810D01*
X7618Y78523D01*
X7729Y78255D01*
X7905Y78025D01*
X8135Y77849D01*
X8403Y77738D01*
X8690Y77701D01*
X8977Y77738D01*
X9245Y77849D01*
X9475Y78025D01*
X9651Y78255D01*
X9762Y78523D01*
X9799Y78810D01*
X9762Y79097D01*
X9651Y79365D01*
X9475Y79595D01*
X9245Y79771D01*
X8977Y79882D01*
X8690Y79919D01*
D02*
G37*
G36*
X43822Y78489D02*
X42772D01*
Y77639D01*
X43822D01*
Y78489D01*
D02*
G37*
G36*
X42572D02*
X41522D01*
Y77639D01*
X42572D01*
Y78489D01*
D02*
G37*
G36*
X70992Y78268D02*
X70517D01*
Y77443D01*
X70992D01*
Y78268D01*
D02*
G37*
G36*
X70317D02*
X69842D01*
Y77443D01*
X70317D01*
Y78268D01*
D02*
G37*
G36*
X57043Y77472D02*
X56568D01*
Y77062D01*
X57533D01*
X57514Y77157D01*
X57403Y77322D01*
X57238Y77433D01*
X57043Y77472D01*
D02*
G37*
G36*
X56368D02*
X55893D01*
X55698Y77433D01*
X55533Y77322D01*
X55422Y77157D01*
X55403Y77062D01*
X56368D01*
Y77472D01*
D02*
G37*
G36*
X60642Y96927D02*
X58992D01*
Y95627D01*
X60642D01*
Y95869D01*
X61923D01*
X65414Y92378D01*
Y89279D01*
X65022D01*
Y87429D01*
X65414D01*
Y85435D01*
X65414Y85435D01*
X65445Y85279D01*
X65534Y85147D01*
X67934Y82746D01*
Y78218D01*
X67742D01*
Y76468D01*
X68792D01*
Y78218D01*
X68750D01*
Y82915D01*
X68750Y82915D01*
X68719Y83071D01*
X68630Y83203D01*
X66230Y85604D01*
Y87429D01*
X66622D01*
Y89279D01*
X66230D01*
Y92547D01*
X66230Y92547D01*
X66199Y92703D01*
X66110Y92835D01*
X62380Y96565D01*
X62248Y96654D01*
X62092Y96685D01*
X62092Y96685D01*
X60642D01*
Y96927D01*
D02*
G37*
G36*
X57533Y76862D02*
X56568D01*
Y76452D01*
X57043D01*
X57238Y76491D01*
X57403Y76602D01*
X57514Y76767D01*
X57533Y76862D01*
D02*
G37*
G36*
X56368D02*
X55403D01*
X55422Y76767D01*
X55533Y76602D01*
X55698Y76491D01*
X55893Y76452D01*
X56368D01*
Y76862D01*
D02*
G37*
G36*
X70992Y77243D02*
X70517D01*
Y76418D01*
X70992D01*
Y77243D01*
D02*
G37*
G36*
X70317D02*
X69842D01*
Y76418D01*
X70317D01*
Y77243D01*
D02*
G37*
G36*
X60071Y76278D02*
X59847Y76234D01*
X59656Y76107D01*
X59652Y76100D01*
X57243D01*
X57219Y76116D01*
X57043Y76151D01*
X55893D01*
X55717Y76116D01*
X55569Y76016D01*
X55469Y75868D01*
X55434Y75692D01*
X55469Y75516D01*
X55569Y75368D01*
X55717Y75268D01*
X55893Y75233D01*
X57043D01*
X57219Y75268D01*
X57243Y75284D01*
X59652D01*
X59656Y75277D01*
X59847Y75150D01*
X59991Y75122D01*
Y74992D01*
X59847Y74964D01*
X59656Y74837D01*
X59652Y74830D01*
X57243D01*
X57219Y74846D01*
X57043Y74881D01*
X55893D01*
X55717Y74846D01*
X55569Y74746D01*
X55469Y74598D01*
X55434Y74422D01*
X55469Y74246D01*
X55569Y74098D01*
X55717Y73998D01*
X55893Y73963D01*
X57043D01*
X57219Y73998D01*
X57243Y74014D01*
X59652D01*
X59656Y74007D01*
X59847Y73880D01*
X59991Y73852D01*
Y73722D01*
X59847Y73694D01*
X59656Y73567D01*
X59652Y73560D01*
X57243D01*
X57219Y73576D01*
X57043Y73611D01*
X55893D01*
X55717Y73576D01*
X55569Y73476D01*
X55469Y73328D01*
X55434Y73152D01*
X55469Y72976D01*
X55569Y72828D01*
X55717Y72728D01*
X55893Y72693D01*
X57043D01*
X57219Y72728D01*
X57243Y72744D01*
X59652D01*
X59656Y72737D01*
X59847Y72610D01*
X60071Y72566D01*
X60295Y72610D01*
X60486Y72737D01*
X60613Y72928D01*
X60657Y73152D01*
X60613Y73376D01*
X60486Y73567D01*
X60295Y73694D01*
X60151Y73722D01*
Y73852D01*
X60295Y73880D01*
X60486Y74007D01*
X60613Y74198D01*
X60657Y74422D01*
X60613Y74646D01*
X60486Y74837D01*
X60295Y74964D01*
X60151Y74992D01*
Y75122D01*
X60295Y75150D01*
X60486Y75277D01*
X60613Y75468D01*
X60657Y75692D01*
X60613Y75916D01*
X60486Y76107D01*
X60295Y76234D01*
X60071Y76278D01*
D02*
G37*
G36*
X12600Y75995D02*
Y75100D01*
X13495D01*
X13474Y75261D01*
X13373Y75504D01*
X13213Y75713D01*
X13004Y75873D01*
X12761Y75974D01*
X12600Y75995D01*
D02*
G37*
G36*
X12400D02*
X12239Y75974D01*
X11996Y75873D01*
X11787Y75713D01*
X11627Y75504D01*
X11526Y75261D01*
X11505Y75100D01*
X12400D01*
Y75995D01*
D02*
G37*
G36*
X13495Y74900D02*
X12600D01*
Y74005D01*
X12761Y74026D01*
X13004Y74127D01*
X13213Y74287D01*
X13373Y74496D01*
X13474Y74739D01*
X13495Y74900D01*
D02*
G37*
G36*
X12400D02*
X11505D01*
X11526Y74739D01*
X11627Y74496D01*
X11787Y74287D01*
X11996Y74127D01*
X12239Y74026D01*
X12400Y74005D01*
Y74900D01*
D02*
G37*
G36*
X49149Y97224D02*
X48901Y97192D01*
X48670Y97096D01*
X48471Y96944D01*
X48319Y96745D01*
X48223Y96514D01*
X48191Y96266D01*
X48223Y96018D01*
X48319Y95787D01*
X48471Y95588D01*
X48493Y95572D01*
Y94869D01*
X48516Y94699D01*
X48581Y94541D01*
X48685Y94405D01*
X50209Y92881D01*
X50345Y92777D01*
X50503Y92712D01*
X50673Y92689D01*
X56116D01*
X57383Y91422D01*
Y89662D01*
X57406Y89492D01*
X57471Y89334D01*
X57575Y89198D01*
X58907Y87866D01*
Y83968D01*
X56468D01*
X56298Y83945D01*
X56140Y83880D01*
X56004Y83776D01*
X56001Y83771D01*
X55893D01*
X55717Y83736D01*
X55569Y83636D01*
X55469Y83488D01*
X55434Y83312D01*
X55469Y83136D01*
X55569Y82988D01*
X55717Y82888D01*
X55893Y82853D01*
X56001D01*
X56004Y82848D01*
X56140Y82744D01*
X56298Y82679D01*
X56468Y82656D01*
X59441D01*
X59563Y82640D01*
X59733Y82663D01*
X59756Y82672D01*
X62958D01*
X64114Y81516D01*
Y73971D01*
X63391Y73248D01*
X63080D01*
Y73253D01*
X61380D01*
Y71903D01*
X63080D01*
Y71937D01*
X63663D01*
X63833Y71959D01*
X63991Y72025D01*
X64127Y72129D01*
X64141Y72144D01*
X64141Y72144D01*
X65234Y73236D01*
X65338Y73372D01*
X65403Y73530D01*
X65426Y73700D01*
Y81788D01*
X65403Y81958D01*
X65338Y82116D01*
X65234Y82252D01*
X63694Y83792D01*
X63558Y83896D01*
X63400Y83961D01*
X63230Y83984D01*
X60219D01*
Y88138D01*
X60196Y88308D01*
X60131Y88466D01*
X60027Y88602D01*
X58695Y89934D01*
Y91295D01*
X60281Y92881D01*
X60385Y93017D01*
X60450Y93175D01*
X60473Y93345D01*
Y93827D01*
X60642D01*
Y95127D01*
X59860D01*
X59817Y95133D01*
X59774Y95127D01*
X58992D01*
Y93954D01*
X58992Y93937D01*
X58865Y93925D01*
X58862Y93939D01*
X58835Y94077D01*
X58708Y94268D01*
X58517Y94395D01*
X58293Y94439D01*
X58285Y94438D01*
X58073Y94649D01*
X57941Y94738D01*
X57785Y94769D01*
X57785Y94769D01*
X56303D01*
X55769Y95303D01*
Y95441D01*
X56011D01*
Y97091D01*
X54711D01*
Y96674D01*
X52639D01*
Y97216D01*
X50739D01*
Y95316D01*
X52639D01*
Y95858D01*
X54711D01*
Y95441D01*
X54953D01*
Y95134D01*
X54953Y95134D01*
X54984Y94978D01*
X55073Y94846D01*
X55791Y94128D01*
X55738Y94001D01*
X50945D01*
X49805Y95141D01*
Y95572D01*
X49827Y95588D01*
X49979Y95787D01*
X50075Y96018D01*
X50107Y96266D01*
X50075Y96514D01*
X49979Y96745D01*
X49827Y96944D01*
X49628Y97096D01*
X49397Y97192D01*
X49149Y97224D01*
D02*
G37*
G36*
X47993Y73611D02*
X46843D01*
X46667Y73576D01*
X46643Y73560D01*
X39038D01*
X38882Y73529D01*
X38750Y73440D01*
X38750Y73440D01*
X34410Y69100D01*
X34321Y68968D01*
X34290Y68812D01*
X34290Y68812D01*
Y52564D01*
X34163Y52496D01*
X34053Y52570D01*
X33829Y52614D01*
X33604Y52570D01*
X33414Y52443D01*
X33287Y52252D01*
X33242Y52028D01*
X33287Y51804D01*
X33414Y51614D01*
X33421Y51609D01*
Y33761D01*
X28446Y28786D01*
X26590D01*
Y29128D01*
X24840D01*
Y27628D01*
X25307D01*
Y26746D01*
X25165D01*
Y25546D01*
X26265D01*
Y26746D01*
X26123D01*
Y27628D01*
X26590D01*
Y27970D01*
X28615D01*
X28615Y27970D01*
X28771Y28001D01*
X28904Y28090D01*
X34117Y33303D01*
X34117Y33303D01*
X34205Y33436D01*
X34236Y33592D01*
Y38288D01*
X34363Y38327D01*
X34410Y38258D01*
X35508Y37159D01*
X35488Y37000D01*
X35513Y36804D01*
X35589Y36622D01*
X35709Y36465D01*
X35866Y36345D01*
X36048Y36269D01*
X36244Y36244D01*
X36440Y36269D01*
X36622Y36345D01*
X36779Y36465D01*
X36899Y36622D01*
X36975Y36804D01*
X37000Y37000D01*
X36975Y37196D01*
X36899Y37378D01*
X36779Y37535D01*
X36622Y37655D01*
X36440Y37731D01*
X36244Y37756D01*
X36085Y37736D01*
X35106Y38715D01*
Y48734D01*
X35223Y48782D01*
X38962Y45043D01*
Y36295D01*
X36403Y33736D01*
X36244Y33756D01*
X36048Y33731D01*
X35866Y33655D01*
X35709Y33535D01*
X35589Y33378D01*
X35513Y33196D01*
X35488Y33000D01*
X35513Y32804D01*
X35589Y32622D01*
X35709Y32465D01*
X35866Y32345D01*
X36048Y32269D01*
X36244Y32244D01*
X36440Y32269D01*
X36622Y32345D01*
X36779Y32465D01*
X36899Y32622D01*
X36975Y32804D01*
X37000Y33000D01*
X36980Y33159D01*
X39658Y35838D01*
X39658Y35838D01*
X39747Y35970D01*
X39778Y36126D01*
Y45043D01*
X44422Y49687D01*
X44583Y49620D01*
X44831Y49588D01*
X45079Y49620D01*
X45310Y49716D01*
X45509Y49868D01*
X45661Y50067D01*
X45757Y50298D01*
X45789Y50546D01*
X45757Y50794D01*
X45661Y51025D01*
X45509Y51224D01*
X45310Y51376D01*
X45079Y51472D01*
X44831Y51504D01*
X44583Y51472D01*
X44352Y51376D01*
X44153Y51224D01*
X44001Y51025D01*
X43905Y50794D01*
X43873Y50546D01*
X43902Y50321D01*
X39370Y45789D01*
X35756Y49403D01*
Y53932D01*
X35883Y54000D01*
X35971Y53941D01*
X36195Y53897D01*
X36419Y53941D01*
X36610Y54068D01*
X36737Y54259D01*
X36781Y54483D01*
X36737Y54707D01*
X36610Y54898D01*
X36603Y54902D01*
Y67751D01*
X36730Y67777D01*
X36743Y67744D01*
X36847Y67608D01*
X39641Y64815D01*
X39777Y64710D01*
X39935Y64645D01*
X40105Y64623D01*
X40874D01*
Y55137D01*
X37238Y51501D01*
X37211Y51504D01*
X36963Y51472D01*
X36732Y51376D01*
X36533Y51224D01*
X36381Y51025D01*
X36285Y50794D01*
X36253Y50546D01*
X36285Y50298D01*
X36381Y50067D01*
X36533Y49868D01*
X36732Y49716D01*
X36963Y49620D01*
X37211Y49588D01*
X37459Y49620D01*
X37690Y49716D01*
X37889Y49868D01*
X38041Y50067D01*
X38137Y50298D01*
X38169Y50546D01*
X38166Y50573D01*
X41994Y54401D01*
X42098Y54537D01*
X42163Y54695D01*
X42186Y54865D01*
Y64623D01*
X42572D01*
X42742Y64645D01*
X42900Y64710D01*
X43036Y64815D01*
X44644Y66423D01*
X44748Y66558D01*
X44813Y66716D01*
X44836Y66886D01*
Y67416D01*
X47418D01*
X47588Y67439D01*
X47746Y67504D01*
X47882Y67608D01*
X47885Y67613D01*
X47993D01*
X48169Y67648D01*
X48317Y67748D01*
X48417Y67896D01*
X48452Y68072D01*
X48417Y68248D01*
X48317Y68396D01*
X48169Y68496D01*
X47993Y68531D01*
X47885D01*
X47882Y68536D01*
X47746Y68640D01*
X47588Y68705D01*
X47596Y68832D01*
X47993D01*
X48188Y68871D01*
X48353Y68982D01*
X48464Y69147D01*
X48483Y69242D01*
X47418D01*
X46353D01*
X46372Y69147D01*
X46483Y68982D01*
X46648Y68871D01*
X46730Y68855D01*
X46718Y68728D01*
X44780D01*
Y68947D01*
X43730D01*
Y68546D01*
X43716Y68536D01*
X43612Y68400D01*
X43547Y68242D01*
X43524Y68072D01*
Y67158D01*
X42300Y65934D01*
X40376D01*
X37775Y68536D01*
X37639Y68640D01*
X37481Y68705D01*
X37311Y68728D01*
X37213Y68715D01*
X37154Y68835D01*
X38523Y70204D01*
X46643D01*
X46667Y70188D01*
X46843Y70153D01*
X47993D01*
X48169Y70188D01*
X48317Y70288D01*
X48417Y70436D01*
X48452Y70612D01*
X48417Y70788D01*
X48317Y70936D01*
X48169Y71036D01*
X47993Y71071D01*
X46843D01*
X46667Y71036D01*
X46643Y71020D01*
X38568D01*
X38519Y71137D01*
X38856Y71474D01*
X46643D01*
X46667Y71458D01*
X46843Y71423D01*
X47993D01*
X48169Y71458D01*
X48317Y71558D01*
X48417Y71706D01*
X48452Y71882D01*
X48417Y72058D01*
X48317Y72206D01*
X48169Y72306D01*
X47993Y72341D01*
X46843D01*
X46667Y72306D01*
X46643Y72290D01*
X38919D01*
X38870Y72407D01*
X39207Y72744D01*
X46643D01*
X46667Y72728D01*
X46843Y72693D01*
X47993D01*
X48169Y72728D01*
X48317Y72828D01*
X48417Y72976D01*
X48452Y73152D01*
X48417Y73328D01*
X48317Y73476D01*
X48169Y73576D01*
X47993Y73611D01*
D02*
G37*
G36*
X58928Y72468D02*
X58704Y72424D01*
X58513Y72297D01*
X58509Y72290D01*
X57243D01*
X57219Y72306D01*
X57043Y72341D01*
X55893D01*
X55717Y72306D01*
X55569Y72206D01*
X55469Y72058D01*
X55434Y71882D01*
X55469Y71706D01*
X55569Y71558D01*
X55717Y71458D01*
X55893Y71423D01*
X57043D01*
X57219Y71458D01*
X57243Y71474D01*
X58509D01*
X58513Y71467D01*
X58704Y71340D01*
X58928Y71296D01*
X59152Y71340D01*
X59343Y71467D01*
X59470Y71658D01*
X59514Y71882D01*
X59470Y72106D01*
X59343Y72297D01*
X59152Y72424D01*
X58928Y72468D01*
D02*
G37*
G36*
X25569Y78721D02*
X24469D01*
Y77521D01*
X24592D01*
Y76100D01*
X24300D01*
Y75000D01*
Y73900D01*
X24611D01*
Y73253D01*
X24169D01*
Y71903D01*
X25869D01*
Y73253D01*
X25427D01*
Y73900D01*
X25700D01*
Y75000D01*
Y76100D01*
X25408D01*
Y77521D01*
X25569D01*
Y78721D01*
D02*
G37*
G36*
X66273Y71539D02*
X65123D01*
Y71147D01*
X63080D01*
Y71353D01*
X61380D01*
Y71020D01*
X57243D01*
X57219Y71036D01*
X57043Y71071D01*
X55893D01*
X55717Y71036D01*
X55569Y70936D01*
X55469Y70788D01*
X55434Y70612D01*
X55469Y70436D01*
X55569Y70288D01*
X55717Y70188D01*
X55893Y70153D01*
X57043D01*
X57219Y70188D01*
X57243Y70204D01*
X61380D01*
Y70003D01*
X63080D01*
Y70331D01*
X65123D01*
Y69939D01*
X66273D01*
Y71539D01*
D02*
G37*
G36*
X68023Y71589D02*
X67498D01*
Y70839D01*
X68023D01*
Y71589D01*
D02*
G37*
G36*
X67298D02*
X66773D01*
Y70839D01*
X67298D01*
Y71589D01*
D02*
G37*
G36*
X16310Y72299D02*
X16023Y72262D01*
X15755Y72151D01*
X15525Y71975D01*
X15349Y71745D01*
X15238Y71477D01*
X15201Y71190D01*
X15238Y70903D01*
X15349Y70635D01*
X15525Y70405D01*
X15755Y70229D01*
X16023Y70118D01*
X16310Y70081D01*
X16597Y70118D01*
X16865Y70229D01*
X17095Y70405D01*
X17271Y70635D01*
X17382Y70903D01*
X17419Y71190D01*
X17382Y71477D01*
X17271Y71745D01*
X17095Y71975D01*
X16865Y72151D01*
X16597Y72262D01*
X16310Y72299D01*
D02*
G37*
G36*
X68023Y70639D02*
X67498D01*
Y69889D01*
X68023D01*
Y70639D01*
D02*
G37*
G36*
X67298D02*
X66773D01*
Y69889D01*
X67298D01*
Y70639D01*
D02*
G37*
G36*
X47993Y69852D02*
X47518D01*
Y69442D01*
X48483D01*
X48464Y69537D01*
X48353Y69702D01*
X48188Y69813D01*
X47993Y69852D01*
D02*
G37*
G36*
X47318D02*
X46843D01*
X46648Y69813D01*
X46483Y69702D01*
X46372Y69537D01*
X46353Y69442D01*
X47318D01*
Y69852D01*
D02*
G37*
G36*
X42680Y68997D02*
X42205D01*
Y68172D01*
X42680D01*
Y68997D01*
D02*
G37*
G36*
X42005D02*
X41530D01*
Y68172D01*
X42005D01*
Y68997D01*
D02*
G37*
G36*
X21971Y69293D02*
X21747Y69249D01*
X21556Y69122D01*
X21552Y69115D01*
X18288D01*
X18132Y69084D01*
X18000Y68995D01*
X18000Y68995D01*
X8402Y59397D01*
X8313Y59265D01*
X8282Y59109D01*
X8282Y59109D01*
Y57049D01*
X8211Y57020D01*
X8012Y56868D01*
X7860Y56669D01*
X7831Y56598D01*
X7225D01*
X6130Y57692D01*
X5998Y57781D01*
X5842Y57812D01*
X5842Y57812D01*
X5106D01*
Y58229D01*
X3806D01*
Y56579D01*
X5106D01*
Y56996D01*
X5673D01*
X6768Y55902D01*
X6768Y55902D01*
X6900Y55813D01*
X7056Y55782D01*
X7056Y55782D01*
X7831D01*
X7860Y55711D01*
X8012Y55512D01*
X8211Y55360D01*
X8442Y55264D01*
X8690Y55232D01*
X8938Y55264D01*
X9169Y55360D01*
X9368Y55512D01*
X9520Y55711D01*
X9616Y55942D01*
X9648Y56190D01*
X9616Y56438D01*
X9520Y56669D01*
X9368Y56868D01*
X9169Y57020D01*
X9098Y57049D01*
Y58940D01*
X18457Y68299D01*
X21552D01*
X21556Y68292D01*
X21747Y68165D01*
X21971Y68121D01*
X22195Y68165D01*
X22386Y68292D01*
X22513Y68483D01*
X22557Y68707D01*
X22513Y68931D01*
X22386Y69122D01*
X22195Y69249D01*
X21971Y69293D01*
D02*
G37*
G36*
X42680Y67972D02*
X42205D01*
Y67147D01*
X42680D01*
Y67972D01*
D02*
G37*
G36*
X42005D02*
X41530D01*
Y67147D01*
X42005D01*
Y67972D01*
D02*
G37*
G36*
X57043Y68531D02*
X55893D01*
X55717Y68496D01*
X55569Y68396D01*
X55469Y68248D01*
X55434Y68072D01*
X55469Y67896D01*
X55569Y67748D01*
X55717Y67648D01*
X55893Y67613D01*
X56060D01*
Y66976D01*
X56060Y66976D01*
X56091Y66820D01*
X56180Y66688D01*
X56862Y66006D01*
X56994Y65917D01*
X57150Y65886D01*
X57150Y65886D01*
X58509D01*
X58513Y65879D01*
X58704Y65752D01*
X58928Y65708D01*
X59152Y65752D01*
X59343Y65879D01*
X59470Y66070D01*
X59514Y66294D01*
X59470Y66518D01*
X59343Y66709D01*
X59152Y66836D01*
X58928Y66880D01*
X58704Y66836D01*
X58513Y66709D01*
X58509Y66702D01*
X57319D01*
X56876Y67145D01*
Y67613D01*
X57043D01*
X57219Y67648D01*
X57367Y67748D01*
X57467Y67896D01*
X57502Y68072D01*
X57467Y68248D01*
X57367Y68396D01*
X57219Y68496D01*
X57043Y68531D01*
D02*
G37*
G36*
X8690Y64919D02*
X8403Y64882D01*
X8135Y64771D01*
X7905Y64595D01*
X7729Y64365D01*
X7618Y64097D01*
X7581Y63810D01*
X7618Y63523D01*
X7729Y63255D01*
X7905Y63025D01*
X8135Y62849D01*
X8403Y62738D01*
X8690Y62701D01*
X8977Y62738D01*
X9245Y62849D01*
X9475Y63025D01*
X9651Y63255D01*
X9762Y63523D01*
X9799Y63810D01*
X9762Y64097D01*
X9651Y64365D01*
X9475Y64595D01*
X9245Y64771D01*
X8977Y64882D01*
X8690Y64919D01*
D02*
G37*
G36*
X28352Y63245D02*
X27852D01*
Y62695D01*
X28352D01*
Y63245D01*
D02*
G37*
G36*
X27652D02*
X27152D01*
Y62695D01*
X27652D01*
Y63245D01*
D02*
G37*
G36*
X29591Y69708D02*
X29367Y69663D01*
X29176Y69536D01*
X29049Y69346D01*
X29005Y69122D01*
X29049Y68897D01*
X29176Y68707D01*
X29183Y68703D01*
Y63195D01*
X29102D01*
Y61995D01*
X30202D01*
Y63195D01*
X29999D01*
Y68703D01*
X30006Y68707D01*
X30133Y68897D01*
X30177Y69122D01*
X30133Y69346D01*
X30006Y69536D01*
X29815Y69663D01*
X29591Y69708D01*
D02*
G37*
G36*
X28352Y62495D02*
X27852D01*
Y61945D01*
X28352D01*
Y62495D01*
D02*
G37*
G36*
X27652D02*
X27152D01*
Y61945D01*
X27652D01*
Y62495D01*
D02*
G37*
G36*
X29252Y61195D02*
X28152D01*
Y60958D01*
X25700D01*
Y61100D01*
X24300D01*
Y60000D01*
Y58900D01*
X24611D01*
Y57759D01*
X24169D01*
Y56409D01*
X25869D01*
Y57759D01*
X25427D01*
Y58900D01*
X25700D01*
Y60142D01*
X28152D01*
Y59995D01*
X29252D01*
Y61195D01*
D02*
G37*
G36*
X12600Y60995D02*
Y60100D01*
X13495D01*
X13474Y60261D01*
X13373Y60504D01*
X13213Y60713D01*
X13004Y60874D01*
X12761Y60974D01*
X12600Y60995D01*
D02*
G37*
G36*
X12400D02*
X12239Y60974D01*
X11996Y60874D01*
X11787Y60713D01*
X11627Y60504D01*
X11526Y60261D01*
X11505Y60100D01*
X12400D01*
Y60995D01*
D02*
G37*
G36*
X13495Y59900D02*
X12600D01*
Y59005D01*
X12761Y59026D01*
X13004Y59126D01*
X13213Y59287D01*
X13373Y59496D01*
X13474Y59739D01*
X13495Y59900D01*
D02*
G37*
G36*
X12400D02*
X11505D01*
X11526Y59739D01*
X11627Y59496D01*
X11787Y59287D01*
X11996Y59126D01*
X12239Y59026D01*
X12400Y59005D01*
Y59900D01*
D02*
G37*
G36*
X59689Y59379D02*
X58814D01*
Y58504D01*
X59689D01*
Y59379D01*
D02*
G37*
G36*
X58614D02*
X57739D01*
Y58504D01*
X58614D01*
Y59379D01*
D02*
G37*
G36*
X56174Y59337D02*
X55932Y59305D01*
X55707Y59212D01*
X55514Y59064D01*
X55366Y58870D01*
X55272Y58645D01*
X55241Y58404D01*
X55272Y58163D01*
X55366Y57938D01*
X55514Y57744D01*
X55707Y57596D01*
X55932Y57503D01*
X56174Y57471D01*
X56415Y57503D01*
X56640Y57596D01*
X56833Y57744D01*
X56982Y57938D01*
X57075Y58163D01*
X57107Y58404D01*
X57075Y58645D01*
X56982Y58870D01*
X56833Y59064D01*
X56640Y59212D01*
X56415Y59305D01*
X56174Y59337D01*
D02*
G37*
G36*
X53634D02*
X53392Y59305D01*
X53167Y59212D01*
X52974Y59064D01*
X52826Y58870D01*
X52732Y58645D01*
X52701Y58404D01*
X52732Y58163D01*
X52826Y57938D01*
X52974Y57744D01*
X53167Y57596D01*
X53392Y57503D01*
X53634Y57471D01*
X53875Y57503D01*
X54100Y57596D01*
X54293Y57744D01*
X54442Y57938D01*
X54535Y58163D01*
X54567Y58404D01*
X54535Y58645D01*
X54442Y58870D01*
X54293Y59064D01*
X54100Y59212D01*
X53875Y59305D01*
X53634Y59337D01*
D02*
G37*
G36*
X59689Y58304D02*
X58814D01*
Y57429D01*
X59689D01*
Y58304D01*
D02*
G37*
G36*
X58614D02*
X57739D01*
Y57429D01*
X58614D01*
Y58304D01*
D02*
G37*
G36*
X44230Y60850D02*
X42480D01*
Y59350D01*
X42947D01*
Y56397D01*
X42940Y56392D01*
X42813Y56202D01*
X42769Y55978D01*
X42813Y55754D01*
X42940Y55563D01*
X43131Y55436D01*
X43355Y55392D01*
X43579Y55436D01*
X43770Y55563D01*
X43897Y55754D01*
X43941Y55978D01*
X43897Y56202D01*
X43770Y56392D01*
X43763Y56397D01*
Y59223D01*
X43815Y59342D01*
X43854Y59350D01*
X44230D01*
Y60850D01*
D02*
G37*
G36*
X16310Y57299D02*
X16023Y57262D01*
X15755Y57151D01*
X15525Y56975D01*
X15349Y56745D01*
X15238Y56477D01*
X15201Y56190D01*
X15238Y55903D01*
X15349Y55635D01*
X15525Y55405D01*
X15755Y55229D01*
X16023Y55118D01*
X16310Y55081D01*
X16597Y55118D01*
X16865Y55229D01*
X17095Y55405D01*
X17271Y55635D01*
X17382Y55903D01*
X17419Y56190D01*
X17382Y56477D01*
X17271Y56745D01*
X17095Y56975D01*
X16865Y57151D01*
X16597Y57262D01*
X16310Y57299D01*
D02*
G37*
G36*
X22098Y54307D02*
X21874Y54263D01*
X21683Y54136D01*
X21556Y53945D01*
X21512Y53721D01*
X21513Y53713D01*
X20412Y52611D01*
X5976D01*
X5976Y52611D01*
X5820Y52580D01*
X5687Y52492D01*
X5687Y52492D01*
X4168Y50972D01*
X4079Y50840D01*
X4048Y50684D01*
X4048Y50684D01*
Y49974D01*
X3806D01*
Y48324D01*
X4048D01*
Y43042D01*
X4048Y43042D01*
X4079Y42886D01*
X4168Y42754D01*
X6020Y40902D01*
X6020Y40902D01*
X6152Y40813D01*
X6308Y40782D01*
X7831D01*
X7860Y40711D01*
X8012Y40512D01*
X8211Y40360D01*
X8442Y40264D01*
X8690Y40232D01*
X8938Y40264D01*
X9169Y40360D01*
X9368Y40512D01*
X9520Y40711D01*
X9616Y40942D01*
X9648Y41190D01*
X9616Y41438D01*
X9520Y41669D01*
X9368Y41868D01*
X9169Y42020D01*
X8938Y42116D01*
X8690Y42148D01*
X8442Y42116D01*
X8211Y42020D01*
X8012Y41868D01*
X7860Y41669D01*
X7831Y41598D01*
X6477D01*
X4864Y43211D01*
Y48324D01*
X5106D01*
Y49974D01*
X4864D01*
Y50515D01*
X6145Y51796D01*
X20581D01*
X20581Y51796D01*
X20737Y51827D01*
X20869Y51915D01*
X22090Y53136D01*
X22098Y53135D01*
X22322Y53179D01*
X22513Y53306D01*
X22640Y53497D01*
X22684Y53721D01*
X22640Y53945D01*
X22513Y54136D01*
X22322Y54263D01*
X22098Y54307D01*
D02*
G37*
G36*
X61071Y51546D02*
X60171D01*
Y50646D01*
X61071D01*
Y51546D01*
D02*
G37*
G36*
X57631Y51541D02*
Y50646D01*
X58526D01*
X58505Y50807D01*
X58404Y51050D01*
X58244Y51259D01*
X58035Y51419D01*
X57792Y51520D01*
X57631Y51541D01*
D02*
G37*
G36*
X57431D02*
X57270Y51520D01*
X57027Y51419D01*
X56818Y51259D01*
X56658Y51050D01*
X56557Y50807D01*
X56536Y50646D01*
X57431D01*
Y51541D01*
D02*
G37*
G36*
X59971Y51546D02*
X59071D01*
Y50646D01*
X59971D01*
Y51546D01*
D02*
G37*
G36*
X42291Y51504D02*
X42043Y51472D01*
X41812Y51376D01*
X41613Y51224D01*
X41461Y51025D01*
X41365Y50794D01*
X41333Y50546D01*
X41365Y50298D01*
X41461Y50067D01*
X41613Y49868D01*
X41812Y49716D01*
X42043Y49620D01*
X42291Y49588D01*
X42539Y49620D01*
X42770Y49716D01*
X42969Y49868D01*
X43121Y50067D01*
X43217Y50298D01*
X43249Y50546D01*
X43217Y50794D01*
X43121Y51025D01*
X42969Y51224D01*
X42770Y51376D01*
X42539Y51472D01*
X42291Y51504D01*
D02*
G37*
G36*
X58526Y50446D02*
X57631D01*
Y49551D01*
X57792Y49572D01*
X58035Y49673D01*
X58244Y49833D01*
X58404Y50042D01*
X58505Y50285D01*
X58526Y50446D01*
D02*
G37*
G36*
X57431D02*
X56536D01*
X56557Y50285D01*
X56658Y50042D01*
X56818Y49833D01*
X57027Y49673D01*
X57270Y49572D01*
X57431Y49551D01*
Y50446D01*
D02*
G37*
G36*
X61071D02*
X60171D01*
Y49546D01*
X61071D01*
Y50446D01*
D02*
G37*
G36*
X59971D02*
X59071D01*
Y49546D01*
X59971D01*
Y50446D01*
D02*
G37*
G36*
X28479Y48259D02*
X27979D01*
Y47709D01*
X28479D01*
Y48259D01*
D02*
G37*
G36*
X27779D02*
X27279D01*
Y47709D01*
X27779D01*
Y48259D01*
D02*
G37*
G36*
X8690Y49919D02*
X8403Y49882D01*
X8135Y49771D01*
X7905Y49595D01*
X7729Y49365D01*
X7618Y49097D01*
X7581Y48810D01*
X7618Y48523D01*
X7729Y48255D01*
X7905Y48025D01*
X8135Y47849D01*
X8403Y47738D01*
X8690Y47701D01*
X8977Y47738D01*
X9245Y47849D01*
X9475Y48025D01*
X9651Y48255D01*
X9762Y48523D01*
X9799Y48810D01*
X9762Y49097D01*
X9651Y49365D01*
X9475Y49595D01*
X9245Y49771D01*
X8977Y49882D01*
X8690Y49919D01*
D02*
G37*
G36*
X33421Y60036D02*
X33196Y59992D01*
X33006Y59865D01*
X32879Y59674D01*
X32834Y59450D01*
X32879Y59226D01*
X33006Y59035D01*
X33013Y59031D01*
Y57979D01*
X29491Y54456D01*
X29402Y54324D01*
X29371Y54168D01*
X29371Y54168D01*
Y48209D01*
X29229D01*
Y47009D01*
X30329D01*
Y48209D01*
X30187D01*
Y53999D01*
X33709Y57521D01*
X33798Y57654D01*
X33829Y57810D01*
X33829Y57810D01*
Y59031D01*
X33835Y59035D01*
X33962Y59226D01*
X34007Y59450D01*
X33962Y59674D01*
X33835Y59865D01*
X33645Y59992D01*
X33421Y60036D01*
D02*
G37*
G36*
X28479Y47509D02*
X27979D01*
Y46959D01*
X28479D01*
Y47509D01*
D02*
G37*
G36*
X27779D02*
X27279D01*
Y46959D01*
X27779D01*
Y47509D01*
D02*
G37*
G36*
X29379Y46209D02*
X28279D01*
Y45958D01*
X25700D01*
Y46100D01*
X24300D01*
Y45000D01*
Y43900D01*
X24611D01*
Y42831D01*
X24169D01*
Y41481D01*
X25869D01*
Y42831D01*
X25427D01*
Y43900D01*
X25700D01*
Y45142D01*
X28279D01*
Y45009D01*
X29379D01*
Y46209D01*
D02*
G37*
G36*
X12600Y45995D02*
Y45100D01*
X13495D01*
X13474Y45261D01*
X13373Y45504D01*
X13213Y45713D01*
X13004Y45873D01*
X12761Y45974D01*
X12600Y45995D01*
D02*
G37*
G36*
X12400D02*
X12239Y45974D01*
X11996Y45873D01*
X11787Y45713D01*
X11627Y45504D01*
X11526Y45261D01*
X11505Y45100D01*
X12400D01*
Y45995D01*
D02*
G37*
G36*
X13495Y44900D02*
X12600D01*
Y44005D01*
X12761Y44026D01*
X13004Y44126D01*
X13213Y44287D01*
X13373Y44496D01*
X13474Y44739D01*
X13495Y44900D01*
D02*
G37*
G36*
X12400D02*
X11505D01*
X11526Y44739D01*
X11627Y44496D01*
X11787Y44287D01*
X11996Y44126D01*
X12239Y44026D01*
X12400Y44005D01*
Y44900D01*
D02*
G37*
G36*
X58344Y41794D02*
Y41100D01*
X59038D01*
X59023Y41209D01*
X58943Y41403D01*
X58815Y41571D01*
X58647Y41699D01*
X58453Y41779D01*
X58344Y41794D01*
D02*
G37*
G36*
X58144Y41794D02*
X58035Y41779D01*
X57841Y41699D01*
X57673Y41571D01*
X57545Y41403D01*
X57465Y41209D01*
X57450Y41100D01*
X58144D01*
Y41794D01*
D02*
G37*
G36*
X36244Y41756D02*
X36048Y41731D01*
X35866Y41655D01*
X35709Y41535D01*
X35589Y41378D01*
X35513Y41196D01*
X35488Y41000D01*
X35513Y40804D01*
X35589Y40622D01*
X35709Y40465D01*
X35866Y40345D01*
X36048Y40269D01*
X36244Y40244D01*
X36440Y40269D01*
X36622Y40345D01*
X36779Y40465D01*
X36899Y40622D01*
X36975Y40804D01*
X37000Y41000D01*
X36975Y41196D01*
X36899Y41378D01*
X36779Y41535D01*
X36622Y41655D01*
X36440Y41731D01*
X36244Y41756D01*
D02*
G37*
G36*
X58144Y40900D02*
X57450D01*
X57465Y40791D01*
X57545Y40597D01*
X57673Y40429D01*
X57841Y40301D01*
X58035Y40221D01*
X58144Y40206D01*
Y40900D01*
D02*
G37*
G36*
X59038D02*
X58344D01*
Y40206D01*
X58453Y40221D01*
X58647Y40301D01*
X58815Y40429D01*
X58943Y40597D01*
X59023Y40791D01*
X59038Y40900D01*
D02*
G37*
G36*
X16310Y42299D02*
X16023Y42262D01*
X15755Y42151D01*
X15525Y41975D01*
X15349Y41745D01*
X15238Y41477D01*
X15201Y41190D01*
X15238Y40903D01*
X15349Y40635D01*
X15525Y40405D01*
X15755Y40229D01*
X16023Y40118D01*
X16310Y40081D01*
X16597Y40118D01*
X16865Y40229D01*
X17095Y40405D01*
X17271Y40635D01*
X17382Y40903D01*
X17419Y41190D01*
X17382Y41477D01*
X17271Y41745D01*
X17095Y41975D01*
X16865Y42151D01*
X16597Y42262D01*
X16310Y42299D01*
D02*
G37*
G36*
X93472Y39556D02*
Y38711D01*
X94317D01*
X94298Y38859D01*
X94202Y39090D01*
X94050Y39289D01*
X93851Y39441D01*
X93620Y39537D01*
X93472Y39556D01*
D02*
G37*
G36*
X93272Y39556D02*
X93124Y39537D01*
X92893Y39441D01*
X92694Y39289D01*
X92542Y39090D01*
X92446Y38859D01*
X92427Y38711D01*
X93272D01*
Y39556D01*
D02*
G37*
G36*
X36244Y39756D02*
X36048Y39731D01*
X35866Y39655D01*
X35709Y39535D01*
X35589Y39378D01*
X35513Y39196D01*
X35488Y39000D01*
X35513Y38804D01*
X35589Y38622D01*
X35709Y38465D01*
X35866Y38345D01*
X36048Y38269D01*
X36244Y38244D01*
X36440Y38269D01*
X36622Y38345D01*
X36779Y38465D01*
X36899Y38622D01*
X36975Y38804D01*
X37000Y39000D01*
X36975Y39196D01*
X36899Y39378D01*
X36779Y39535D01*
X36622Y39655D01*
X36440Y39731D01*
X36244Y39756D01*
D02*
G37*
G36*
X94317Y38511D02*
X93472D01*
Y37666D01*
X93620Y37685D01*
X93851Y37781D01*
X94050Y37933D01*
X94202Y38132D01*
X94298Y38363D01*
X94317Y38511D01*
D02*
G37*
G36*
X93272D02*
X92427D01*
X92446Y38363D01*
X92542Y38132D01*
X92694Y37933D01*
X92893Y37781D01*
X93124Y37685D01*
X93272Y37666D01*
Y38511D01*
D02*
G37*
G36*
X57043Y69801D02*
X55893D01*
X55717Y69766D01*
X55569Y69666D01*
X55469Y69518D01*
X55434Y69342D01*
X55469Y69166D01*
X55569Y69018D01*
X55717Y68918D01*
X55893Y68883D01*
X57043D01*
X57219Y68918D01*
X57243Y68934D01*
X64855D01*
X72490Y61299D01*
Y37249D01*
X72483Y37245D01*
X72356Y37054D01*
X72312Y36830D01*
X72356Y36606D01*
X72483Y36415D01*
X72674Y36288D01*
X72898Y36244D01*
X73122Y36288D01*
X73313Y36415D01*
X73440Y36606D01*
X73484Y36830D01*
X73440Y37054D01*
X73313Y37245D01*
X73306Y37249D01*
Y61468D01*
X73306Y61468D01*
X73275Y61624D01*
X73186Y61756D01*
X65312Y69630D01*
X65180Y69719D01*
X65024Y69750D01*
X65024Y69750D01*
X57243D01*
X57219Y69766D01*
X57043Y69801D01*
D02*
G37*
G36*
X58244Y37756D02*
X58048Y37731D01*
X57866Y37655D01*
X57709Y37535D01*
X57589Y37378D01*
X57513Y37196D01*
X57488Y37000D01*
X57513Y36804D01*
X57589Y36622D01*
X57709Y36465D01*
X57866Y36345D01*
X58048Y36269D01*
X58244Y36244D01*
X58440Y36269D01*
X58622Y36345D01*
X58779Y36465D01*
X58899Y36622D01*
X58975Y36804D01*
X59000Y37000D01*
X58975Y37196D01*
X58899Y37378D01*
X58779Y37535D01*
X58622Y37655D01*
X58440Y37731D01*
X58244Y37756D01*
D02*
G37*
G36*
Y35756D02*
X58048Y35731D01*
X57866Y35655D01*
X57709Y35535D01*
X57589Y35378D01*
X57513Y35196D01*
X57488Y35000D01*
X57513Y34804D01*
X57589Y34622D01*
X57709Y34465D01*
X57866Y34345D01*
X58048Y34269D01*
X58244Y34244D01*
X58440Y34269D01*
X58622Y34345D01*
X58779Y34465D01*
X58899Y34622D01*
X58975Y34804D01*
X59000Y35000D01*
X58975Y35196D01*
X58899Y35378D01*
X58779Y35535D01*
X58622Y35655D01*
X58440Y35731D01*
X58244Y35756D01*
D02*
G37*
G36*
X36244D02*
X36048Y35731D01*
X35866Y35655D01*
X35709Y35535D01*
X35589Y35378D01*
X35513Y35196D01*
X35488Y35000D01*
X35513Y34804D01*
X35589Y34622D01*
X35709Y34465D01*
X35866Y34345D01*
X36048Y34269D01*
X36244Y34244D01*
X36440Y34269D01*
X36622Y34345D01*
X36779Y34465D01*
X36899Y34622D01*
X36975Y34804D01*
X37000Y35000D01*
X36975Y35196D01*
X36899Y35378D01*
X36779Y35535D01*
X36622Y35655D01*
X36440Y35731D01*
X36244Y35756D01*
D02*
G37*
G36*
X58244Y33756D02*
X58048Y33731D01*
X57866Y33655D01*
X57709Y33535D01*
X57589Y33378D01*
X57513Y33196D01*
X57488Y33000D01*
X57513Y32804D01*
X57589Y32622D01*
X57709Y32465D01*
X57866Y32345D01*
X58048Y32269D01*
X58244Y32244D01*
X58440Y32269D01*
X58622Y32345D01*
X58779Y32465D01*
X58899Y32622D01*
X58975Y32804D01*
X59000Y33000D01*
X58975Y33196D01*
X58899Y33378D01*
X58779Y33535D01*
X58622Y33655D01*
X58440Y33731D01*
X58244Y33756D01*
D02*
G37*
G36*
X80872Y39519D02*
X80637Y39488D01*
X80418Y39397D01*
X80230Y39253D01*
X80086Y39065D01*
X79995Y38846D01*
X79964Y38611D01*
X79995Y38376D01*
X80086Y38157D01*
X80216Y37987D01*
Y37075D01*
X78663Y35522D01*
X74236D01*
X74066Y35499D01*
X73908Y35434D01*
X73772Y35330D01*
X71851Y33409D01*
X71747Y33273D01*
X71682Y33115D01*
X71659Y32945D01*
Y32263D01*
X69201D01*
Y32357D01*
X67451D01*
Y32263D01*
X66532D01*
X66362Y32240D01*
X66204Y32175D01*
X66068Y32071D01*
X65322Y31325D01*
X65218Y31189D01*
X65153Y31031D01*
X65130Y30861D01*
Y25527D01*
X65153Y25357D01*
X65218Y25199D01*
X65322Y25063D01*
X66526Y23859D01*
X66662Y23755D01*
X66820Y23690D01*
X66990Y23667D01*
X68242D01*
X68285Y23673D01*
X69092D01*
Y24973D01*
X68285D01*
X68242Y24979D01*
X67262D01*
X66442Y25799D01*
Y30589D01*
X66804Y30951D01*
X67451D01*
Y30857D01*
X69201D01*
Y30951D01*
X71806D01*
Y30748D01*
X72856D01*
Y31244D01*
X72883Y31279D01*
X72948Y31437D01*
X72971Y31607D01*
Y32673D01*
X74508Y34210D01*
X78935D01*
X79105Y34233D01*
X79263Y34298D01*
X79399Y34402D01*
X80872Y35876D01*
X85320Y31428D01*
X85360Y31331D01*
X85512Y31132D01*
X85711Y30980D01*
X85942Y30884D01*
X86190Y30852D01*
X86438Y30884D01*
X86669Y30980D01*
X86868Y31132D01*
X87020Y31331D01*
X87116Y31562D01*
X87148Y31810D01*
X87116Y32058D01*
X87020Y32289D01*
X86868Y32488D01*
X86669Y32640D01*
X86438Y32736D01*
X86190Y32768D01*
X85942Y32736D01*
X85889Y32713D01*
X81528Y37075D01*
Y37987D01*
X81658Y38157D01*
X81749Y38376D01*
X81780Y38611D01*
X81749Y38846D01*
X81658Y39065D01*
X81514Y39253D01*
X81326Y39397D01*
X81107Y39488D01*
X80872Y39519D01*
D02*
G37*
G36*
X93810Y32919D02*
X93523Y32882D01*
X93255Y32771D01*
X93025Y32595D01*
X92849Y32365D01*
X92738Y32097D01*
X92701Y31810D01*
X92738Y31523D01*
X92849Y31255D01*
X93025Y31025D01*
X93255Y30849D01*
X93523Y30738D01*
X93810Y30701D01*
X94097Y30738D01*
X94365Y30849D01*
X94595Y31025D01*
X94771Y31255D01*
X94882Y31523D01*
X94919Y31810D01*
X94882Y32097D01*
X94771Y32365D01*
X94595Y32595D01*
X94365Y32771D01*
X94097Y32882D01*
X93810Y32919D01*
D02*
G37*
G36*
X26640Y31178D02*
X25815D01*
Y30478D01*
X26640D01*
Y31178D01*
D02*
G37*
G36*
X25615D02*
X24790D01*
Y30478D01*
X25615D01*
Y31178D01*
D02*
G37*
G36*
X36244Y31756D02*
X36048Y31731D01*
X35866Y31655D01*
X35709Y31535D01*
X35589Y31378D01*
X35513Y31196D01*
X35488Y31000D01*
X35513Y30804D01*
X35589Y30622D01*
X35709Y30465D01*
X35866Y30345D01*
X36048Y30269D01*
X36244Y30244D01*
X36440Y30269D01*
X36622Y30345D01*
X36779Y30465D01*
X36899Y30622D01*
X36975Y30804D01*
X37000Y31000D01*
X36975Y31196D01*
X36899Y31378D01*
X36779Y31535D01*
X36622Y31655D01*
X36440Y31731D01*
X36244Y31756D01*
D02*
G37*
G36*
X77501Y30257D02*
X76951D01*
Y29757D01*
X77501D01*
Y30257D01*
D02*
G37*
G36*
X76751D02*
X76201D01*
Y29757D01*
X76751D01*
Y30257D01*
D02*
G37*
G36*
X26640Y30278D02*
X25815D01*
Y29578D01*
X26640D01*
Y30278D01*
D02*
G37*
G36*
X25615D02*
X24790D01*
Y29578D01*
X25615D01*
Y30278D01*
D02*
G37*
G36*
X77501Y29557D02*
X76951D01*
Y29057D01*
X77501D01*
Y29557D01*
D02*
G37*
G36*
X76751D02*
X76201D01*
Y29057D01*
X76751D01*
Y29557D01*
D02*
G37*
G36*
X70739Y73738D02*
X70515Y73694D01*
X70324Y73567D01*
X70197Y73376D01*
X70153Y73152D01*
X70197Y72928D01*
X70324Y72737D01*
X70515Y72610D01*
X70739Y72566D01*
X70963Y72610D01*
X71154Y72737D01*
X71158Y72744D01*
X75650D01*
X89592Y58802D01*
Y28859D01*
X89521Y28830D01*
X89322Y28678D01*
X89170Y28479D01*
X89116Y28348D01*
X85386D01*
X80679Y33054D01*
X80547Y33143D01*
X80391Y33174D01*
X80391Y33174D01*
X77216D01*
X77216Y33174D01*
X77060Y33143D01*
X76928Y33054D01*
X76563Y32689D01*
X76474Y32557D01*
X76443Y32401D01*
X76443Y32401D01*
Y32107D01*
X76251D01*
Y32031D01*
X75006D01*
Y32498D01*
X73956D01*
Y30748D01*
X75006D01*
Y31215D01*
X76251D01*
Y31007D01*
X77451D01*
Y32107D01*
X77263D01*
X77261Y32234D01*
X77385Y32358D01*
X80222D01*
X84929Y27652D01*
X84929Y27652D01*
X85061Y27563D01*
X85217Y27532D01*
X85217Y27532D01*
X89166D01*
X89170Y27521D01*
X89322Y27322D01*
X89521Y27170D01*
X89752Y27074D01*
X90000Y27042D01*
X90248Y27074D01*
X90479Y27170D01*
X90678Y27322D01*
X90830Y27521D01*
X90880Y27643D01*
X97296D01*
Y27301D01*
X99046D01*
Y28801D01*
X97296D01*
Y28459D01*
X90838D01*
X90830Y28479D01*
X90678Y28678D01*
X90479Y28830D01*
X90408Y28859D01*
Y58971D01*
X90408Y58971D01*
X90377Y59127D01*
X90288Y59259D01*
X90288Y59259D01*
X76107Y73440D01*
X75975Y73529D01*
X75819Y73560D01*
X75819Y73560D01*
X71158D01*
X71154Y73567D01*
X70963Y73694D01*
X70739Y73738D01*
D02*
G37*
G36*
X79451Y31157D02*
X78251D01*
Y30057D01*
X78443D01*
Y28728D01*
X77936Y28221D01*
X72305D01*
X70630Y29895D01*
X70498Y29984D01*
X70342Y30015D01*
X70342Y30015D01*
X69201D01*
Y30357D01*
X67451D01*
Y28857D01*
X67834D01*
Y28382D01*
X67768Y28339D01*
X67641Y28148D01*
X67597Y27924D01*
X67641Y27700D01*
X67768Y27509D01*
X67834Y27466D01*
Y26873D01*
X67392D01*
Y25573D01*
X69092D01*
Y26873D01*
X68650D01*
Y27588D01*
X68725Y27700D01*
X68769Y27924D01*
X68725Y28148D01*
X68650Y28260D01*
Y28857D01*
X69201D01*
Y29199D01*
X70173D01*
X71848Y27525D01*
X71848Y27525D01*
X71980Y27436D01*
X72136Y27405D01*
X72136Y27405D01*
X78105D01*
X78105Y27405D01*
X78261Y27436D01*
X78393Y27525D01*
X79139Y28271D01*
X79228Y28403D01*
X79259Y28559D01*
X79259Y28559D01*
Y30057D01*
X79451D01*
Y31157D01*
D02*
G37*
G36*
X24415Y26796D02*
X23915D01*
Y26246D01*
X24415D01*
Y26796D01*
D02*
G37*
G36*
X23715D02*
X23215D01*
Y26246D01*
X23715D01*
Y26796D01*
D02*
G37*
G36*
X58244Y27756D02*
X58048Y27731D01*
X57866Y27655D01*
X57709Y27535D01*
X57589Y27378D01*
X57513Y27196D01*
X57488Y27000D01*
X57513Y26804D01*
X57589Y26622D01*
X57709Y26465D01*
X57866Y26345D01*
X58048Y26269D01*
X58244Y26244D01*
X58440Y26269D01*
X58622Y26345D01*
X58779Y26465D01*
X58899Y26622D01*
X58975Y26804D01*
X59000Y27000D01*
X58975Y27196D01*
X58899Y27378D01*
X58779Y27535D01*
X58622Y27655D01*
X58440Y27731D01*
X58244Y27756D01*
D02*
G37*
G36*
X99096Y26851D02*
X98271D01*
Y26151D01*
X99096D01*
Y26851D01*
D02*
G37*
G36*
X98071D02*
X97246D01*
Y26151D01*
X98071D01*
Y26851D01*
D02*
G37*
G36*
X24415Y26046D02*
X23915D01*
Y25496D01*
X24415D01*
Y26046D01*
D02*
G37*
G36*
X23715D02*
X23215D01*
Y25496D01*
X23715D01*
Y26046D01*
D02*
G37*
G36*
X75564Y26198D02*
X75089D01*
Y25373D01*
X75564D01*
Y26198D01*
D02*
G37*
G36*
X74889D02*
X74414D01*
Y25373D01*
X74889D01*
Y26198D01*
D02*
G37*
G36*
X99096Y25951D02*
X98271D01*
Y25251D01*
X99096D01*
Y25951D01*
D02*
G37*
G36*
X98071D02*
X97246D01*
Y25251D01*
X98071D01*
Y25951D01*
D02*
G37*
G36*
X20225Y25021D02*
X18725D01*
Y24538D01*
X14808D01*
X14799Y24559D01*
X14663Y24736D01*
X14486Y24872D01*
X14279Y24958D01*
X14057Y24987D01*
X13835Y24958D01*
X13628Y24872D01*
X13451Y24736D01*
X13315Y24559D01*
X13229Y24352D01*
X13200Y24130D01*
X13229Y23908D01*
X13315Y23701D01*
X13451Y23524D01*
X13628Y23388D01*
X13835Y23302D01*
X14057Y23273D01*
X14279Y23302D01*
X14486Y23388D01*
X14663Y23524D01*
X14799Y23701D01*
X14808Y23722D01*
X18725D01*
Y23271D01*
X19051D01*
Y22285D01*
X19051Y22285D01*
X19082Y22129D01*
X19171Y21997D01*
X19866Y21302D01*
X19866Y21302D01*
X19998Y21213D01*
X20154Y21182D01*
X20154Y21182D01*
X22522D01*
X22817Y20887D01*
Y20433D01*
X22475D01*
Y18683D01*
X23975D01*
Y20433D01*
X23633D01*
Y21056D01*
X23602Y21212D01*
X23513Y21344D01*
X23513Y21344D01*
X22979Y21878D01*
X22847Y21967D01*
X22691Y21998D01*
X22691Y21998D01*
X20323D01*
X19867Y22454D01*
Y23271D01*
X20225D01*
Y25021D01*
D02*
G37*
G36*
X75564Y25173D02*
X75089D01*
Y24348D01*
X75564D01*
Y25173D01*
D02*
G37*
G36*
X74889D02*
X74414D01*
Y24348D01*
X74889D01*
Y25173D01*
D02*
G37*
G36*
X22225Y25021D02*
X20725D01*
Y23271D01*
X22225D01*
Y23738D01*
X24215D01*
Y23546D01*
X25315D01*
Y24746D01*
X24215D01*
Y24554D01*
X22225D01*
Y25021D01*
D02*
G37*
G36*
X86190Y25299D02*
X85903Y25262D01*
X85635Y25151D01*
X85405Y24975D01*
X85229Y24745D01*
X85118Y24477D01*
X85081Y24190D01*
X85118Y23903D01*
X85229Y23635D01*
X85405Y23405D01*
X85635Y23229D01*
X85903Y23118D01*
X86190Y23081D01*
X86477Y23118D01*
X86745Y23229D01*
X86975Y23405D01*
X87151Y23635D01*
X87262Y23903D01*
X87299Y24190D01*
X87262Y24477D01*
X87151Y24745D01*
X86975Y24975D01*
X86745Y25151D01*
X86477Y25262D01*
X86190Y25299D01*
D02*
G37*
G36*
X75457Y23357D02*
X74657D01*
Y22607D01*
X75457D01*
Y23357D01*
D02*
G37*
G36*
X75507Y22457D02*
X75157D01*
Y22132D01*
X75507D01*
Y22457D01*
D02*
G37*
G36*
X74957D02*
X74607D01*
Y22132D01*
X74957D01*
Y22457D01*
D02*
G37*
G36*
X75507Y21932D02*
X75057D01*
X74607D01*
Y21634D01*
X74607Y21607D01*
Y21507D01*
X74607Y21480D01*
Y21182D01*
X75057D01*
X75507D01*
Y21480D01*
X75507Y21507D01*
Y21607D01*
X75507Y21634D01*
Y21932D01*
D02*
G37*
G36*
Y20982D02*
X75157D01*
Y20657D01*
X75507D01*
Y20982D01*
D02*
G37*
G36*
X74957D02*
X74607D01*
Y20657D01*
X74957D01*
Y20982D01*
D02*
G37*
G36*
X68183Y23303D02*
X67959Y23259D01*
X67768Y23132D01*
X67641Y22941D01*
X67597Y22717D01*
X67641Y22493D01*
X67768Y22302D01*
X67775Y22298D01*
Y20616D01*
X67583D01*
Y19516D01*
X68783D01*
Y20616D01*
X68591D01*
Y22298D01*
X68598Y22302D01*
X68725Y22493D01*
X68769Y22717D01*
X68725Y22941D01*
X68598Y23132D01*
X68407Y23259D01*
X68183Y23303D01*
D02*
G37*
G36*
X66833Y19716D02*
X66283D01*
Y19216D01*
X66833D01*
Y19716D01*
D02*
G37*
G36*
X66083D02*
X65533D01*
Y19216D01*
X66083D01*
Y19716D01*
D02*
G37*
G36*
X63917Y19866D02*
X63092D01*
Y19166D01*
X63917D01*
Y19866D01*
D02*
G37*
G36*
X62892D02*
X62067D01*
Y19166D01*
X62892D01*
Y19866D01*
D02*
G37*
G36*
X94026Y19873D02*
X93826D01*
Y19065D01*
X94921D01*
X94903Y19200D01*
X94812Y19419D01*
X94668Y19607D01*
X94480Y19751D01*
X94261Y19842D01*
X94026Y19873D01*
D02*
G37*
G36*
X93626D02*
X93426D01*
X93191Y19842D01*
X92972Y19751D01*
X92784Y19607D01*
X92640Y19419D01*
X92549Y19200D01*
X92531Y19065D01*
X93626D01*
Y19873D01*
D02*
G37*
G36*
X66833Y19016D02*
X66283D01*
Y18516D01*
X66833D01*
Y19016D01*
D02*
G37*
G36*
X66083D02*
X65533D01*
Y18516D01*
X66083D01*
Y19016D01*
D02*
G37*
G36*
X97851Y19846D02*
X97201D01*
X97012Y19821D01*
X96835Y19748D01*
X96684Y19632D01*
X96568Y19481D01*
X96495Y19304D01*
X96470Y19115D01*
X96495Y18926D01*
X96568Y18749D01*
X96684Y18598D01*
X96835Y18482D01*
X97012Y18409D01*
X97201Y18384D01*
X97851D01*
X98040Y18409D01*
X98217Y18482D01*
X98368Y18598D01*
X98484Y18749D01*
X98557Y18926D01*
X98582Y19115D01*
X98557Y19304D01*
X98484Y19481D01*
X98368Y19632D01*
X98217Y19748D01*
X98040Y19821D01*
X97851Y19846D01*
D02*
G37*
G36*
X63917Y18966D02*
X63092D01*
Y18266D01*
X63917D01*
Y18966D01*
D02*
G37*
G36*
X62892D02*
X62067D01*
Y18266D01*
X62892D01*
Y18966D01*
D02*
G37*
G36*
X93626Y18865D02*
X92531D01*
X92549Y18730D01*
X92640Y18511D01*
X92784Y18323D01*
X92972Y18179D01*
X93191Y18088D01*
X93426Y18057D01*
X93626D01*
Y18865D01*
D02*
G37*
G36*
X75764Y18374D02*
X74914D01*
Y17499D01*
X75764D01*
Y18374D01*
D02*
G37*
G36*
X94921Y18865D02*
X93826D01*
Y18057D01*
X94026D01*
X94243Y18086D01*
X94284Y18045D01*
X94322Y17976D01*
X94308Y17955D01*
X94265Y17740D01*
X94308Y17525D01*
X94429Y17343D01*
X94611Y17222D01*
X94826Y17179D01*
X95041Y17222D01*
X95223Y17343D01*
X95344Y17525D01*
X95387Y17740D01*
X95344Y17955D01*
X95223Y18137D01*
X95041Y18258D01*
X94826Y18301D01*
X94808Y18297D01*
X94736Y18412D01*
X94812Y18511D01*
X94903Y18730D01*
X94921Y18865D01*
D02*
G37*
G36*
X94576Y16965D02*
X93826D01*
Y16640D01*
X94576D01*
Y16965D01*
D02*
G37*
G36*
X93626D02*
X92876D01*
Y16640D01*
X93626D01*
Y16965D01*
D02*
G37*
G36*
X75764Y17299D02*
X74914D01*
Y16424D01*
X75764D01*
Y17299D01*
D02*
G37*
G36*
X72957Y21490D02*
X72801Y21459D01*
X72798Y21457D01*
X72557D01*
Y21121D01*
X72549Y21082D01*
Y19635D01*
X72483Y19592D01*
X72356Y19401D01*
X72312Y19177D01*
X72356Y18953D01*
X72483Y18762D01*
X72606Y18680D01*
Y18324D01*
X72114D01*
Y16474D01*
X73864D01*
Y16424D01*
X74714D01*
Y17399D01*
Y18374D01*
X73864D01*
Y18324D01*
X73422D01*
Y18926D01*
X73440Y18953D01*
X73484Y19177D01*
X73440Y19401D01*
X73365Y19513D01*
Y21082D01*
X73357Y21121D01*
Y21457D01*
X73116D01*
X73113Y21459D01*
X72957Y21490D01*
D02*
G37*
G36*
X90866Y16328D02*
X90016D01*
Y15528D01*
X90866D01*
Y16328D01*
D02*
G37*
G36*
X89816D02*
X88966D01*
Y15528D01*
X89816D01*
Y16328D01*
D02*
G37*
G36*
X77150Y14423D02*
X76300D01*
Y13623D01*
X77150D01*
Y14423D01*
D02*
G37*
G36*
X76100D02*
X75250D01*
Y13623D01*
X76100D01*
Y14423D01*
D02*
G37*
G36*
X80710Y14341D02*
X79760D01*
X79614Y14312D01*
X79490Y14229D01*
X79407Y14105D01*
X79378Y13959D01*
X79407Y13813D01*
X79490Y13689D01*
X79428Y13577D01*
X79360Y13475D01*
X79347Y13409D01*
X80235D01*
X81123D01*
X81110Y13475D01*
X81042Y13577D01*
X80980Y13689D01*
X81063Y13813D01*
X81092Y13959D01*
X81063Y14105D01*
X80980Y14229D01*
X80856Y14312D01*
X80710Y14341D01*
D02*
G37*
G36*
X81123Y13209D02*
X80235D01*
X79347D01*
X79360Y13143D01*
X79454Y13003D01*
Y12965D01*
X79360Y12825D01*
X79347Y12759D01*
X80235D01*
X81123D01*
X81110Y12825D01*
X81016Y12965D01*
Y13003D01*
X81110Y13143D01*
X81123Y13209D01*
D02*
G37*
G36*
X84935Y13434D02*
X83285D01*
Y11784D01*
X84935D01*
Y13434D01*
D02*
G37*
G36*
X83085D02*
X81435D01*
Y11784D01*
X83085D01*
Y13434D01*
D02*
G37*
G36*
X93626Y12423D02*
X93426D01*
X93191Y12392D01*
X92972Y12301D01*
X92784Y12157D01*
X92640Y11969D01*
X92549Y11750D01*
X92531Y11615D01*
X93626D01*
Y12423D01*
D02*
G37*
G36*
X97851Y12096D02*
X97201D01*
X97012Y12071D01*
X96835Y11998D01*
X96684Y11882D01*
X96568Y11731D01*
X96495Y11554D01*
X96470Y11365D01*
X96495Y11176D01*
X96568Y10999D01*
X96684Y10848D01*
X96835Y10732D01*
X97012Y10659D01*
X97201Y10634D01*
X97851D01*
X98040Y10659D01*
X98217Y10732D01*
X98368Y10848D01*
X98484Y10999D01*
X98557Y11176D01*
X98582Y11365D01*
X98557Y11554D01*
X98484Y11731D01*
X98368Y11882D01*
X98217Y11998D01*
X98040Y12071D01*
X97851Y12096D01*
D02*
G37*
G36*
X94921Y11415D02*
X93826D01*
Y10607D01*
X94026D01*
X94261Y10638D01*
X94480Y10729D01*
X94668Y10873D01*
X94812Y11061D01*
X94903Y11280D01*
X94921Y11415D01*
D02*
G37*
G36*
X93626D02*
X92531D01*
X92549Y11280D01*
X92640Y11061D01*
X92784Y10873D01*
X92972Y10729D01*
X93191Y10638D01*
X93426Y10607D01*
X93626D01*
Y11415D01*
D02*
G37*
G36*
X84935Y11584D02*
X83285D01*
Y9934D01*
X84935D01*
Y11584D01*
D02*
G37*
G36*
X83085D02*
X81435D01*
Y9934D01*
X83085D01*
Y11584D01*
D02*
G37*
G36*
X94576Y13840D02*
X93826D01*
Y13515D01*
X94576D01*
Y13840D01*
D02*
G37*
G36*
X93626D02*
X92876D01*
Y13515D01*
X93626D01*
Y13840D01*
D02*
G37*
G36*
X90866Y13428D02*
X90016D01*
Y12628D01*
X90866D01*
Y13428D01*
D02*
G37*
G36*
X89816D02*
X88966D01*
Y12628D01*
X89816D01*
Y13428D01*
D02*
G37*
G36*
X77150Y11523D02*
X76300D01*
Y10723D01*
X77150D01*
Y11523D01*
D02*
G37*
G36*
X76100D02*
X75250D01*
Y10723D01*
X76100D01*
Y11523D01*
D02*
G37*
%LPD*%
D10*
X43355Y62100D02*
D03*
Y60100D02*
D03*
X25715Y28378D02*
D03*
Y30378D02*
D03*
X62992Y21066D02*
D03*
Y19066D02*
D03*
X98171Y28051D02*
D03*
Y26051D02*
D03*
X68326Y31607D02*
D03*
Y29607D02*
D03*
D11*
X56468Y83312D02*
D03*
Y82042D02*
D03*
Y84582D02*
D03*
Y79502D02*
D03*
Y78232D02*
D03*
Y80772D02*
D03*
Y76962D02*
D03*
Y74422D02*
D03*
Y73152D02*
D03*
Y75692D02*
D03*
Y71882D02*
D03*
Y70612D02*
D03*
Y68072D02*
D03*
Y69342D02*
D03*
X47418Y83312D02*
D03*
Y82042D02*
D03*
Y84582D02*
D03*
Y79502D02*
D03*
Y78232D02*
D03*
Y80772D02*
D03*
Y75692D02*
D03*
Y74422D02*
D03*
Y76962D02*
D03*
Y71882D02*
D03*
Y70612D02*
D03*
Y73152D02*
D03*
Y68072D02*
D03*
Y69342D02*
D03*
D12*
X70322Y96304D02*
D03*
X65822D02*
D03*
X70322Y88354D02*
D03*
X65822D02*
D03*
D13*
X4456Y49149D02*
D03*
X2656D02*
D03*
X55361Y96266D02*
D03*
X57161D02*
D03*
X2656Y73660D02*
D03*
X4456D02*
D03*
X2656Y57404D02*
D03*
X4456D02*
D03*
D14*
X67398Y70739D02*
D03*
X65698D02*
D03*
D15*
X62230Y72578D02*
D03*
Y70678D02*
D03*
X25019Y72578D02*
D03*
Y70678D02*
D03*
X25019Y55184D02*
D03*
Y57084D02*
D03*
X25019Y40256D02*
D03*
Y42156D02*
D03*
D16*
X78851Y30607D02*
D03*
X76851Y29657D02*
D03*
Y31557D02*
D03*
X66183Y21016D02*
D03*
Y19116D02*
D03*
X68183Y20066D02*
D03*
D17*
X70442Y25273D02*
D03*
X68242Y26223D02*
D03*
Y24323D02*
D03*
D18*
X75057Y22982D02*
D03*
Y22032D02*
D03*
Y21082D02*
D03*
X72957Y22982D02*
D03*
Y22032D02*
D03*
Y21082D02*
D03*
D19*
X42672Y78589D02*
D03*
Y75589D02*
D03*
D20*
X76200Y13523D02*
D03*
Y11623D02*
D03*
X89916Y13528D02*
D03*
Y15428D02*
D03*
D21*
X74814Y17399D02*
D03*
X73014D02*
D03*
D22*
X74481Y31623D02*
D03*
X72331D02*
D03*
X68267Y77343D02*
D03*
X70417D02*
D03*
X44255Y68072D02*
D03*
X42105D02*
D03*
X72839Y25273D02*
D03*
X74989D02*
D03*
D23*
X86135Y13959D02*
D03*
Y13309D02*
D03*
Y12659D02*
D03*
Y12009D02*
D03*
Y11359D02*
D03*
Y10709D02*
D03*
Y9409D02*
D03*
Y10059D02*
D03*
X80235Y13959D02*
D03*
Y12659D02*
D03*
Y12009D02*
D03*
Y13309D02*
D03*
Y10709D02*
D03*
Y11359D02*
D03*
Y9409D02*
D03*
Y10059D02*
D03*
D24*
X83185Y11684D02*
D03*
D25*
X93726Y16540D02*
D03*
Y15240D02*
D03*
Y15890D02*
D03*
Y14590D02*
D03*
Y13940D02*
D03*
D26*
X25000Y45550D02*
D03*
Y44450D02*
D03*
Y74450D02*
D03*
Y75550D02*
D03*
Y59450D02*
D03*
Y60550D02*
D03*
D27*
X25715Y26146D02*
D03*
X23815D02*
D03*
X24765Y24146D02*
D03*
X25969Y80121D02*
D03*
X24069D02*
D03*
X25019Y78121D02*
D03*
X29652Y62595D02*
D03*
X27752D02*
D03*
X28702Y60595D02*
D03*
X29779Y47609D02*
D03*
X27879D02*
D03*
X28829Y45609D02*
D03*
D28*
X59817Y96277D02*
D03*
Y94477D02*
D03*
D29*
X21225Y19558D02*
D03*
X23225D02*
D03*
X19475Y24146D02*
D03*
X21475D02*
D03*
D30*
X59563Y83371D02*
D03*
Y81221D02*
D03*
D31*
X14478Y1778D02*
X29210D01*
X12717Y3539D02*
X14478Y1778D01*
X29210D02*
X30734Y3302D01*
X37481Y80778D02*
X47418D01*
X29591Y62656D02*
Y69122D01*
Y62656D02*
X29652Y62595D01*
X37387Y82042D02*
X47418D01*
X27284Y71939D02*
X37387Y82042D01*
X61250Y68072D02*
X63280Y66042D01*
X63280Y21354D01*
X62992Y21066D02*
X63280Y21354D01*
X20041Y3959D02*
X27686Y11604D01*
X62291Y70739D02*
X65698D01*
X62230Y70678D02*
X62291Y70739D01*
X62164Y70612D02*
X62230Y70678D01*
X58928Y68072D02*
X61250D01*
X56468Y69342D02*
X65024D01*
X56468Y70612D02*
X62164D01*
X60452Y31208D02*
Y45053D01*
X58244Y29000D02*
X60452Y31208D01*
X54991Y50514D02*
X60452Y45053D01*
X36195Y68453D02*
X38354Y70612D01*
X36195Y54483D02*
Y68453D01*
X35348Y68542D02*
X38688Y71882D01*
X34698Y68812D02*
X39038Y73152D01*
X35348Y49234D02*
Y68542D01*
X39038Y73152D02*
X47418D01*
X38688Y71882D02*
X47418D01*
X38354Y70612D02*
X47418D01*
X34698Y38546D02*
Y68812D01*
X35348Y49234D02*
X39370Y45212D01*
X34698Y38546D02*
X36244Y37000D01*
X8001Y85217D02*
X26641D01*
X47371Y49291D02*
Y50546D01*
X42180Y44100D02*
X47371Y49291D01*
X42180Y30936D02*
Y44100D01*
X50448Y52028D02*
X51111Y51365D01*
X52451Y50546D02*
Y51774D01*
Y44793D02*
Y50546D01*
X51493Y52732D02*
X52451Y51774D01*
X51493Y52732D02*
Y64727D01*
X51116Y31000D02*
X58244D01*
X46036D02*
X51116D01*
X51111Y31005D02*
X51116Y31000D01*
X51111Y31005D02*
Y51365D01*
X46939Y52028D02*
X50448D01*
X51493Y64727D02*
X53763Y66997D01*
X45119Y53848D02*
X46939Y52028D01*
X43039Y43674D02*
X49911Y50546D01*
X43039Y29795D02*
Y43674D01*
X43355Y55978D02*
Y60100D01*
X39370Y36126D02*
Y45212D01*
X44704Y50546D01*
X30734Y15698D02*
X46036Y31000D01*
X28615Y10075D02*
Y19371D01*
X22878Y4338D02*
X28615Y10075D01*
X27686Y11604D02*
Y20442D01*
X70342Y75295D02*
Y88334D01*
X42473Y69397D02*
X47418D01*
X42180Y68072D02*
Y69104D01*
X56515Y51308D02*
X58293Y49530D01*
X62754Y19050D02*
X62881Y19177D01*
X74989Y25273D02*
X75565D01*
X74914D02*
X74989D01*
X59563Y81221D02*
Y81296D01*
Y78232D02*
Y81221D01*
X42105Y68072D02*
X42180D01*
X40132D02*
X42105D01*
X12717Y3539D02*
Y3662D01*
X44704Y50546D02*
X44831D01*
X52212Y81295D02*
X52959Y82042D01*
X52212Y68885D02*
Y81295D01*
X49911Y77597D02*
Y86786D01*
X44749Y91948D02*
X49911Y86786D01*
X44122Y91948D02*
X44749D01*
X50739Y77413D02*
Y87056D01*
X49018Y75692D02*
X50739Y77413D01*
X47418Y75692D02*
X49018D01*
X45022Y92773D02*
X50739Y87056D01*
X49276Y76962D02*
X49911Y77597D01*
X47418Y76962D02*
X49276D01*
X54991Y50514D02*
Y50546D01*
X54483Y77600D02*
X55096Y78213D01*
X56449D01*
X56468Y78232D01*
X54483Y66584D02*
Y77600D01*
X52143Y64244D02*
X54483Y66584D01*
X52143Y53394D02*
Y64244D01*
X53763Y66997D02*
Y77920D01*
X55345Y79502D01*
X56468D01*
X52143Y53394D02*
X54991Y50546D01*
X36244Y23000D02*
X43039Y29795D01*
X36244Y25000D02*
X42180Y30936D01*
X52451Y44793D02*
X58244Y39000D01*
X30734Y3302D02*
Y15698D01*
X28615Y19371D02*
X36244Y27000D01*
X27686Y20442D02*
X36244Y29000D01*
X48168Y64841D02*
X52212Y68885D01*
X48168Y58963D02*
Y64841D01*
X39751Y50546D02*
X48168Y58963D01*
X52959Y82042D02*
X56468D01*
X43465Y60100D02*
X43815Y59750D01*
X43355Y60100D02*
X43465D01*
X43355Y63450D02*
X43643Y63738D01*
Y63754D01*
X43355Y62100D02*
Y63450D01*
X43643Y63754D02*
X45769Y65879D01*
X48287D01*
X49911Y67503D01*
Y73817D01*
X49306Y74422D02*
X49911Y73817D01*
X47418Y74422D02*
X49306D01*
X33421Y57810D02*
Y59450D01*
X29779Y54168D02*
X33421Y57810D01*
X29779Y47609D02*
Y54168D01*
X42106Y92773D02*
X45022D01*
X41281Y91948D02*
X42106Y92773D01*
X4456Y81672D02*
X8001Y85217D01*
X20581Y52204D02*
X22098Y53721D01*
X5976Y52204D02*
X20581D01*
X4456Y50684D02*
X5976Y52204D01*
X57150Y66294D02*
X58928D01*
X56468Y66976D02*
X57150Y66294D01*
X19459Y22285D02*
Y24130D01*
Y22285D02*
X20154Y21590D01*
X22691D01*
X23225Y21056D01*
Y19558D02*
Y21056D01*
X21475Y24146D02*
X24765D01*
X14057Y24130D02*
X19459D01*
X33829Y33592D02*
Y52028D01*
X28615Y28378D02*
X33829Y33592D01*
X25715Y28378D02*
X28615D01*
X25715Y26146D02*
Y28378D01*
X77775Y14981D02*
Y17399D01*
X74814D02*
X77775D01*
X74687Y17272D02*
X74814Y17399D01*
X76200Y14770D02*
X76350Y14920D01*
X79386Y13309D02*
X80235D01*
X77775Y14920D02*
X79386Y13309D01*
X76350Y14920D02*
X77775D01*
X61468Y19050D02*
X62754D01*
X62881Y19177D02*
X62992Y19066D01*
X36244Y33000D02*
X39370Y36126D01*
X80235Y12659D02*
Y13309D01*
X51689Y96266D02*
X55361D01*
X8690Y59109D02*
X18288Y68707D01*
X21971D01*
X27752Y62595D02*
Y65090D01*
X5264Y71190D02*
X8690D01*
X4456Y71998D02*
X5264Y71190D01*
X4456Y71998D02*
Y73660D01*
Y81672D01*
X8690Y56190D02*
Y59109D01*
X7056Y56190D02*
X8690D01*
X5842Y57404D02*
X7056Y56190D01*
X4456Y57404D02*
X5842D01*
X4456Y49149D02*
Y50684D01*
X6308Y41190D02*
X8690D01*
X4456Y43042D02*
X6308Y41190D01*
X4456Y43042D02*
Y49149D01*
X25969Y81849D02*
X28702Y84582D01*
X25969Y80121D02*
Y81849D01*
X22622Y80121D02*
X24069D01*
X25000Y74450D02*
X25019Y74431D01*
Y72578D02*
Y74431D01*
X25000Y78102D02*
X25019Y78121D01*
X25000Y75550D02*
Y78102D01*
X28657Y60550D02*
X28702Y60595D01*
X25000Y60550D02*
X28657D01*
X25000Y59450D02*
X25019Y59431D01*
Y57084D02*
Y59431D01*
X27879Y47609D02*
Y49972D01*
X28770Y45550D02*
X28829Y45609D01*
X25000Y45550D02*
X28770D01*
X25000Y44450D02*
X25019Y44431D01*
Y42325D02*
Y44431D01*
X90000Y28000D02*
Y58971D01*
X75819Y73152D02*
X90000Y58971D01*
X98171Y24384D02*
Y26051D01*
X89940Y27940D02*
X90000Y28000D01*
X85217Y27940D02*
X89940D01*
X80391Y32766D02*
X85217Y27940D01*
X90000Y28000D02*
X90051Y28051D01*
X98171D01*
X77216Y32766D02*
X80391D01*
X76851Y32401D02*
X77216Y32766D01*
X76851Y31557D02*
Y32401D01*
X93726Y16540D02*
Y18965D01*
X89916Y15809D02*
Y17272D01*
X91609Y18965D01*
X93726D01*
X72898Y19177D02*
X72957Y19236D01*
Y21082D01*
X73014Y17399D02*
Y19061D01*
X72898Y19177D02*
X73014Y19061D01*
X72136Y27813D02*
X78105D01*
X70342Y29607D02*
X72136Y27813D01*
X77216Y25400D02*
X78105D01*
X74481Y31623D02*
X76785D01*
X76327Y24511D02*
X77216Y25400D01*
X78105Y27813D02*
X78851Y28559D01*
X72898Y36830D02*
Y61468D01*
X65024Y69342D02*
X72898Y61468D01*
X68183Y27924D02*
X68242Y27865D01*
Y26223D02*
Y27865D01*
Y27983D02*
Y29523D01*
X68183Y27924D02*
X68242Y27983D01*
X68183Y20066D02*
Y22717D01*
X78851Y28559D02*
Y30607D01*
X68326Y29607D02*
X70342D01*
X68242Y29523D02*
X68326Y29607D01*
X74864Y29657D02*
X76851D01*
X76785Y31623D02*
X76851Y31557D01*
X66133Y21066D02*
X66183Y21016D01*
X62992Y21066D02*
X66133D01*
X66133Y19066D02*
X66183Y19116D01*
X62992Y19066D02*
X66133D01*
X76007Y22032D02*
X76327Y22352D01*
Y24511D01*
X75565Y25273D02*
X76327Y24511D01*
X65822Y85435D02*
Y88354D01*
Y85435D02*
X68342Y82915D01*
Y77343D02*
Y82915D01*
X65822Y88354D02*
Y92547D01*
X62092Y96277D02*
X65822Y92547D01*
X59817Y96277D02*
X62092D01*
X57161Y96266D02*
Y97293D01*
X58166Y98298D01*
X65024D01*
X65822Y97500D01*
Y96304D02*
Y97500D01*
X70322Y88354D02*
Y96304D01*
Y88354D02*
X70342Y88334D01*
X4456Y57404D02*
X4494Y57366D01*
X47418Y69342D02*
Y69397D01*
X42180Y69104D02*
X42473Y69397D01*
X67398Y70739D02*
X69088D01*
X53213Y80772D02*
X56468D01*
X70739Y73152D02*
X75819D01*
X56468Y71882D02*
X58928D01*
X56468Y74422D02*
X60071D01*
X56468Y73152D02*
X60071D01*
X56468Y75692D02*
X60071D01*
X56468Y76962D02*
X58293D01*
X59563Y78232D01*
X56468Y66976D02*
Y68072D01*
X47418Y80772D02*
Y80778D01*
X28702Y84582D02*
X47418D01*
X28321Y75311D02*
X36322Y83312D01*
X47418D01*
X43966Y75589D02*
X44831Y76454D01*
X42672Y75589D02*
X43966D01*
X45212Y79502D02*
X47418D01*
X44299Y78589D02*
X45212Y79502D01*
X42672Y78589D02*
X44299D01*
X38632D02*
X42672D01*
X56468Y84582D02*
Y86661D01*
X44831Y76454D02*
Y77216D01*
X45847Y78232D01*
X47418D01*
X23765Y26196D02*
X23815Y26146D01*
X55361Y95134D02*
Y96266D01*
Y95134D02*
X56134Y94361D01*
X57785D01*
X58293Y93853D01*
D32*
X72914Y23025D02*
Y25273D01*
X44180Y66886D02*
Y68072D01*
X23148Y40225D02*
X25019D01*
X63230Y83328D02*
X64770Y81788D01*
Y73700D02*
Y81788D01*
X63678Y72607D02*
X64770Y73700D01*
X25169Y70528D02*
X34614D01*
X25019Y70678D02*
X25169Y70528D01*
X34614D02*
X34698Y70612D01*
X61340Y66486D02*
X62165Y65661D01*
X72315Y31607D02*
Y32945D01*
X85865Y31810D02*
X86190D01*
X63663Y72593D02*
X63678Y72607D01*
X62245Y72593D02*
X63663D01*
X62230Y72578D02*
X62245Y72593D01*
X58244Y23000D02*
X62165Y26921D01*
Y65661D01*
X41572Y65278D02*
X42572D01*
X40105D02*
X41572D01*
X41530Y65236D02*
X41572Y65278D01*
X41530Y54865D02*
Y65236D01*
X42572Y65278D02*
X44180Y66886D01*
X37311Y68072D02*
X40105Y65278D01*
X21757Y17740D02*
X26123D01*
X17526Y4000D02*
Y10414D01*
X18034Y10922D01*
X12065Y19558D02*
X14920D01*
Y4000D02*
Y19558D01*
X37211Y50546D02*
X41530Y54865D01*
X14920Y19558D02*
X21225D01*
Y18272D02*
X21757Y17740D01*
X21225Y18272D02*
Y19558D01*
X58244Y20758D02*
X66893Y12109D01*
X37211Y50546D02*
X37311Y50446D01*
X59563Y83371D02*
Y88138D01*
X72839Y25273D02*
X72914D01*
X70442D02*
X72839D01*
X44255Y68072D02*
X47418D01*
X44180D02*
X44255D01*
X69931Y12109D02*
X70739Y11301D01*
X71836Y10204D01*
X70739Y22098D02*
X71623Y22982D01*
X70739Y11301D02*
Y22098D01*
X66893Y12109D02*
X69931D01*
X58244Y20758D02*
Y23000D01*
X49149Y94869D02*
Y96266D01*
X25019Y66294D02*
Y70678D01*
X22794Y55184D02*
X25019D01*
X21844Y56134D02*
X22794Y55184D01*
X21844Y56134D02*
Y63119D01*
X25019Y66294D01*
X25019Y52832D02*
Y55184D01*
X25019Y37592D02*
Y40225D01*
X22860Y35433D02*
X25019Y37592D01*
X16256Y35433D02*
X22860D01*
X9057Y28234D02*
X16256Y35433D01*
X80872Y36803D02*
X85865Y31810D01*
X80872Y36803D02*
Y38611D01*
X78935Y34866D02*
X80872Y36803D01*
X72315Y32945D02*
X74236Y34866D01*
X68326Y31607D02*
X72315D01*
X74236Y34866D02*
X78935D01*
X71623Y22982D02*
X72957D01*
X65786Y25527D02*
X66990Y24323D01*
X66532Y31607D02*
X68326D01*
X65786Y30861D02*
X66532Y31607D01*
X65786Y25527D02*
Y30861D01*
X66990Y24323D02*
X68242D01*
X72914Y23025D02*
X72957Y22982D01*
X9057Y22566D02*
Y24130D01*
Y22566D02*
X12065Y19558D01*
X2656Y34635D02*
X9057Y28234D01*
X2656Y34635D02*
Y49149D01*
Y57404D01*
Y73660D01*
X59595Y83328D02*
X63230D01*
X59563Y83296D02*
X59595Y83328D01*
X56468Y83312D02*
X59547D01*
X50673Y93345D02*
X56388D01*
X49149Y94869D02*
X50673Y93345D01*
X9057Y24130D02*
Y28234D01*
X56388Y93345D02*
X58039Y91694D01*
Y89662D02*
Y91694D01*
Y89662D02*
X59563Y88138D01*
X59817Y93345D02*
Y94477D01*
X58166Y91694D02*
X59817Y93345D01*
X58039Y91694D02*
X58166D01*
X21590Y49403D02*
X25019Y52832D01*
X21590Y41783D02*
X23148Y40225D01*
X21590Y41783D02*
Y49403D01*
D33*
X14920Y4000D02*
D03*
X17460D02*
D03*
X20000D02*
D03*
X22540D02*
D03*
X25080D02*
D03*
X27620D02*
D03*
X37211Y50546D02*
D03*
X42291D02*
D03*
X47371D02*
D03*
X52451D02*
D03*
X57531D02*
D03*
X54991D02*
D03*
X49911D02*
D03*
X44831D02*
D03*
X39751D02*
D03*
X49149Y96266D02*
D03*
X46609D02*
D03*
X44069D02*
D03*
X41529D02*
D03*
X38989D02*
D03*
X36449D02*
D03*
X12500Y75000D02*
D03*
X8690Y71190D02*
D03*
Y56190D02*
D03*
X12500Y60000D02*
D03*
X8690Y41190D02*
D03*
X12500Y45000D02*
D03*
X86190Y31810D02*
D03*
X90000Y28000D02*
D03*
D34*
X12380Y4000D02*
D03*
X60071Y50546D02*
D03*
X51689Y96266D02*
D03*
D35*
X58714Y58404D02*
D03*
D36*
X53634D02*
D03*
X56174D02*
D03*
D37*
X58244Y41000D02*
D03*
Y37000D02*
D03*
Y39000D02*
D03*
Y33000D02*
D03*
Y31000D02*
D03*
Y35000D02*
D03*
Y27000D02*
D03*
Y29000D02*
D03*
Y25000D02*
D03*
Y23000D02*
D03*
X36244Y41000D02*
D03*
Y37000D02*
D03*
Y39000D02*
D03*
Y33000D02*
D03*
Y31000D02*
D03*
Y35000D02*
D03*
Y27000D02*
D03*
Y29000D02*
D03*
Y23000D02*
D03*
Y25000D02*
D03*
D38*
X9057Y24130D02*
D03*
X14057D02*
D03*
D39*
X93372Y38611D02*
D03*
X80872D02*
D03*
D40*
X97526Y19115D02*
D03*
Y11365D02*
D03*
D41*
X94826Y17740D02*
D03*
Y12740D02*
D03*
D42*
X93726Y18965D02*
D03*
Y11515D02*
D03*
D43*
X8690Y78810D02*
D03*
X16310Y71190D02*
D03*
Y56190D02*
D03*
X8690Y63810D02*
D03*
X16310Y41190D02*
D03*
X8690Y48810D02*
D03*
X86190Y24190D02*
D03*
X93810Y31810D02*
D03*
D44*
X5000Y5000D02*
D03*
X95000D02*
D03*
Y95000D02*
D03*
X5000D02*
D03*
D45*
X86340Y94473D02*
D03*
X91340Y84473D02*
D03*
X86340Y74473D02*
D03*
X91340Y64473D02*
D03*
X86340Y54473D02*
D03*
X91340Y44473D02*
D03*
X86340Y34473D02*
D03*
X91340Y24473D02*
D03*
X76340Y94473D02*
D03*
X81340Y84473D02*
D03*
X76340Y74473D02*
D03*
X81340Y64473D02*
D03*
X76340Y54473D02*
D03*
X81340Y44473D02*
D03*
Y24473D02*
D03*
X66340Y94473D02*
D03*
X71340Y84473D02*
D03*
X66340Y74473D02*
D03*
X71340Y64473D02*
D03*
X66340Y54473D02*
D03*
X71340Y44473D02*
D03*
X66340Y34473D02*
D03*
Y14473D02*
D03*
X61340Y84473D02*
D03*
Y24473D02*
D03*
X46340Y94473D02*
D03*
Y54473D02*
D03*
Y34473D02*
D03*
X51340Y24473D02*
D03*
X36340Y94473D02*
D03*
Y74473D02*
D03*
X41340Y44473D02*
D03*
Y24473D02*
D03*
X26340Y94473D02*
D03*
Y74473D02*
D03*
X31340Y64473D02*
D03*
X26340Y54473D02*
D03*
X31340Y44473D02*
D03*
X26340Y34473D02*
D03*
Y14473D02*
D03*
X16340Y94473D02*
D03*
Y74473D02*
D03*
X21340Y64473D02*
D03*
X16340Y54473D02*
D03*
Y14473D02*
D03*
X6340Y74473D02*
D03*
X11340Y64473D02*
D03*
X6340Y54473D02*
D03*
Y34473D02*
D03*
X11340Y24473D02*
D03*
X6340Y14473D02*
D03*
X37481Y80778D02*
D03*
X29591Y69122D02*
D03*
X27284Y71939D02*
D03*
X63678Y72607D02*
D03*
X61340Y66486D02*
D03*
X37311Y68072D02*
D03*
X34698Y70612D02*
D03*
X26641Y85217D02*
D03*
X45119Y53848D02*
D03*
X43355Y55978D02*
D03*
X26123Y17740D02*
D03*
X33421Y59450D02*
D03*
X44122Y91948D02*
D03*
X41281D02*
D03*
X22098Y53721D02*
D03*
X58928Y68072D02*
D03*
Y66294D02*
D03*
X33829Y52028D02*
D03*
X21971Y68707D02*
D03*
X72898Y19177D02*
D03*
Y36830D02*
D03*
X68183Y27924D02*
D03*
Y22717D02*
D03*
X53213Y80772D02*
D03*
X70739Y73152D02*
D03*
X58928Y71882D02*
D03*
X60071Y74422D02*
D03*
Y73152D02*
D03*
Y75692D02*
D03*
X28321Y75311D02*
D03*
X56468Y86661D02*
D03*
X58293Y93853D02*
D03*
X36195Y54483D02*
D03*
D46*
X84285Y12784D02*
D03*
Y11684D02*
D03*
X83185Y12784D02*
D03*
Y11684D02*
D03*
X82085D02*
D03*
X84285Y10584D02*
D03*
X83185D02*
D03*
X82085Y12784D02*
D03*
Y10584D02*
D03*
%TF.MD5,3807d39d98c835227a23a5fb2fe0222d*%
M02*
