%TF.GenerationSoftware,Altium Limited,Altium Designer,19.1.6 (110)*%
G04 Layer_Color=65535*
%FSLAX43Y43*%
%MOMM*%
%TF.FileFunction,Legend,Top*%
%TF.Part,Single*%
G01*
G75*
%TA.AperFunction,NonConductor*%
%ADD57C,0.250*%
%ADD58C,0.600*%
%ADD59C,0.254*%
%ADD60C,0.102*%
%ADD61C,0.200*%
%ADD62C,0.127*%
G36*
X20531Y92304D02*
Y92100D01*
Y91897D01*
Y91694D01*
Y91491D01*
Y91288D01*
Y91084D01*
Y90881D01*
Y90678D01*
Y90475D01*
Y90272D01*
Y90068D01*
X19719D01*
Y90272D01*
Y90475D01*
Y90678D01*
Y90881D01*
Y91084D01*
Y91288D01*
Y91491D01*
Y91694D01*
X16874D01*
Y91491D01*
Y91288D01*
Y91084D01*
Y90881D01*
Y90678D01*
Y90475D01*
Y90272D01*
Y90068D01*
X16061D01*
Y90272D01*
Y90475D01*
Y90678D01*
Y90881D01*
Y91084D01*
Y91288D01*
Y91491D01*
Y91694D01*
Y91897D01*
Y92100D01*
Y92304D01*
Y92507D01*
X20531D01*
Y92304D01*
D02*
G37*
G36*
X15045Y90475D02*
Y90272D01*
Y90068D01*
X12403D01*
Y90272D01*
Y90475D01*
Y90678D01*
X15045D01*
Y90475D01*
D02*
G37*
G36*
X25002Y92304D02*
X25408D01*
Y92100D01*
X25611D01*
Y91897D01*
X25815D01*
Y91694D01*
Y91491D01*
Y91288D01*
Y91084D01*
X26018D01*
Y90881D01*
Y90678D01*
Y90475D01*
Y90272D01*
Y90068D01*
Y89865D01*
Y89662D01*
Y89459D01*
Y89256D01*
Y89052D01*
Y88849D01*
Y88646D01*
Y88443D01*
Y88240D01*
X25205D01*
Y88443D01*
Y88646D01*
Y88849D01*
Y89052D01*
Y89256D01*
Y89459D01*
Y89662D01*
Y89865D01*
Y90068D01*
Y90272D01*
Y90475D01*
Y90678D01*
Y90881D01*
Y91084D01*
X25002D01*
Y91288D01*
Y91491D01*
X24799D01*
Y91694D01*
X22360D01*
Y91491D01*
Y91288D01*
Y91084D01*
Y90881D01*
Y90678D01*
Y90475D01*
Y90272D01*
Y90068D01*
Y89865D01*
Y89662D01*
Y89459D01*
Y89256D01*
Y89052D01*
Y88849D01*
Y88646D01*
Y88443D01*
Y88240D01*
X21547D01*
Y88443D01*
Y88646D01*
Y88849D01*
Y89052D01*
Y89256D01*
Y89459D01*
Y89662D01*
Y89865D01*
Y90068D01*
Y90272D01*
Y90475D01*
Y90678D01*
Y90881D01*
Y91084D01*
Y91288D01*
Y91491D01*
Y91694D01*
Y91897D01*
Y92100D01*
Y92304D01*
Y92507D01*
X25002D01*
Y92304D01*
D02*
G37*
G36*
X23986Y90475D02*
X24189D01*
Y90272D01*
Y90068D01*
Y89865D01*
Y89662D01*
Y89459D01*
Y89256D01*
Y89052D01*
Y88849D01*
Y88646D01*
Y88443D01*
Y88240D01*
X23376D01*
Y88443D01*
Y88646D01*
Y88849D01*
Y89052D01*
Y89256D01*
Y89459D01*
Y89662D01*
Y89865D01*
Y90068D01*
Y90272D01*
Y90475D01*
Y90678D01*
X23986D01*
Y90475D01*
D02*
G37*
G36*
X18703D02*
Y90272D01*
Y90068D01*
Y89865D01*
Y89662D01*
Y89459D01*
Y89256D01*
Y89052D01*
Y88849D01*
Y88646D01*
Y88443D01*
Y88240D01*
X17890D01*
Y88443D01*
Y88646D01*
Y88849D01*
Y89052D01*
Y89256D01*
Y89459D01*
Y89662D01*
Y89865D01*
Y90068D01*
Y90272D01*
Y90475D01*
Y90678D01*
X18703D01*
Y90475D01*
D02*
G37*
G36*
X15045Y92304D02*
Y92100D01*
Y91897D01*
Y91694D01*
X11387D01*
Y91491D01*
Y91288D01*
Y91084D01*
Y90881D01*
Y90678D01*
Y90475D01*
Y90272D01*
Y90068D01*
Y89865D01*
Y89662D01*
Y89459D01*
X11591D01*
Y89256D01*
X11794D01*
Y89052D01*
X15045D01*
Y88849D01*
Y88646D01*
Y88443D01*
Y88240D01*
X11591D01*
Y88443D01*
X11184D01*
Y88646D01*
X10981D01*
Y88849D01*
X10778D01*
Y89052D01*
X10575D01*
Y89256D01*
Y89459D01*
Y89662D01*
Y89865D01*
X10371D01*
Y90068D01*
Y90272D01*
Y90475D01*
Y90678D01*
Y90881D01*
Y91084D01*
Y91288D01*
Y91491D01*
Y91694D01*
Y91897D01*
Y92100D01*
Y92304D01*
Y92507D01*
X15045D01*
Y92304D01*
D02*
G37*
G36*
X42680D02*
Y92100D01*
Y91897D01*
Y91694D01*
X38616D01*
Y91897D01*
X38819D01*
Y92100D01*
Y92304D01*
X39226D01*
Y92507D01*
X42680D01*
Y92304D01*
D02*
G37*
G36*
X37600Y90475D02*
Y90272D01*
Y90068D01*
X34959D01*
Y90272D01*
Y90475D01*
Y90678D01*
X37600D01*
Y90475D01*
D02*
G37*
G36*
X32317D02*
Y90272D01*
Y90068D01*
Y89865D01*
X30285D01*
Y90068D01*
Y90272D01*
Y90475D01*
Y90678D01*
X32317D01*
Y90475D01*
D02*
G37*
G36*
X42680Y90678D02*
Y90475D01*
Y90272D01*
Y90068D01*
Y89865D01*
Y89662D01*
Y89459D01*
Y89256D01*
Y89052D01*
Y88849D01*
Y88646D01*
X42477D01*
Y88443D01*
X42274D01*
Y88240D01*
X38616D01*
Y88443D01*
Y88646D01*
Y88849D01*
Y89052D01*
X41867D01*
Y89256D01*
Y89459D01*
Y89662D01*
Y89865D01*
Y90068D01*
X38616D01*
Y90272D01*
Y90475D01*
Y90678D01*
Y90881D01*
X42680D01*
Y90678D01*
D02*
G37*
G36*
X37600Y92304D02*
Y92100D01*
Y91897D01*
Y91694D01*
X33943D01*
Y91491D01*
Y91288D01*
Y91084D01*
Y90881D01*
Y90678D01*
Y90475D01*
Y90272D01*
Y90068D01*
Y89865D01*
Y89662D01*
X34146D01*
Y89459D01*
Y89256D01*
X34552D01*
Y89052D01*
X37600D01*
Y88849D01*
Y88646D01*
Y88443D01*
Y88240D01*
X34146D01*
Y88443D01*
X33739D01*
Y88646D01*
X33536D01*
Y88849D01*
Y89052D01*
X33333D01*
Y89256D01*
Y89459D01*
Y89662D01*
X33130D01*
Y89865D01*
Y90068D01*
Y90272D01*
Y90475D01*
Y90678D01*
Y90881D01*
Y91084D01*
Y91288D01*
Y91491D01*
Y91694D01*
Y91897D01*
Y92100D01*
Y92304D01*
Y92507D01*
X37600D01*
Y92304D01*
D02*
G37*
G36*
X27237D02*
Y92100D01*
Y91897D01*
Y91694D01*
Y91491D01*
Y91288D01*
Y91084D01*
Y90881D01*
Y90678D01*
Y90475D01*
Y90272D01*
Y90068D01*
Y89865D01*
Y89662D01*
X27440D01*
Y89459D01*
Y89256D01*
X27643D01*
Y89052D01*
X29879D01*
Y88849D01*
Y88646D01*
Y88443D01*
Y88240D01*
X27034D01*
Y88443D01*
X26831D01*
Y88646D01*
X26627D01*
Y88849D01*
Y89052D01*
Y89256D01*
X26424D01*
Y89459D01*
Y89662D01*
Y89865D01*
Y90068D01*
Y90272D01*
Y90475D01*
Y90678D01*
Y90881D01*
Y91084D01*
Y91288D01*
Y91491D01*
Y91694D01*
Y91897D01*
Y92100D01*
Y92304D01*
Y92507D01*
X27237D01*
Y92304D01*
D02*
G37*
D57*
X56593Y67222D02*
G03*
X56593Y67222I-125J0D01*
G01*
X76976Y32507D02*
G03*
X76976Y32507I-125J0D01*
G01*
X68367Y27273D02*
G03*
X68367Y27273I-125J0D01*
G01*
X86260Y8634D02*
G03*
X86260Y8634I-125J0D01*
G01*
X26790Y26146D02*
G03*
X26790Y26146I-125J0D01*
G01*
X27044Y80121D02*
G03*
X27044Y80121I-125J0D01*
G01*
X30727Y62595D02*
G03*
X30727Y62595I-125J0D01*
G01*
X30854Y47609D02*
G03*
X30854Y47609I-125J0D01*
G01*
X66308Y21966D02*
G03*
X66308Y21966I-125J0D01*
G01*
D58*
X54493Y68377D02*
G03*
X54493Y68377I-300J0D01*
G01*
D59*
X17526Y24130D02*
G03*
X17526Y24130I-5969J0D01*
G01*
X75023Y19619D02*
G03*
X75023Y19619I-127J0D01*
G01*
X93596Y13120D02*
G03*
X93596Y13120I-120J0D01*
G01*
X57150Y42160D02*
X59436D01*
Y21840D02*
Y42160D01*
X58166Y21840D02*
X59436D01*
X57150D02*
Y42160D01*
Y21840D02*
X58166D01*
X35179Y42160D02*
X37338D01*
Y21840D02*
Y42160D01*
X35179Y21840D02*
X37338D01*
X35179D02*
Y42160D01*
X64972Y89329D02*
Y95329D01*
X71172D01*
Y89329D02*
Y95329D01*
X64972Y89329D02*
X71172D01*
X75531Y20381D02*
Y23683D01*
X72483D02*
X75531D01*
X72483Y20381D02*
X75531D01*
X72483D02*
Y23683D01*
X99122Y36611D02*
Y88611D01*
X75122D02*
X99122D01*
X75122Y36611D02*
X99122D01*
X75122D02*
Y88611D01*
X18825Y68675D02*
Y81325D01*
X6175D02*
X18825D01*
X6175Y68675D02*
Y81325D01*
Y68675D02*
X18825D01*
X25625Y44000D02*
Y46000D01*
X24365Y46778D02*
X25635D01*
X24375Y46000D02*
X25625D01*
X24375Y44000D02*
X25625D01*
X24375D02*
Y46000D01*
X6175Y53675D02*
X18825D01*
X6175D02*
Y66325D01*
X18825D01*
Y53675D02*
Y66325D01*
X6175Y38675D02*
X18825D01*
X6175D02*
Y51325D01*
X18825D01*
Y38675D02*
Y51325D01*
X83675Y21675D02*
Y34325D01*
X96325D01*
Y21675D02*
Y34325D01*
X83675Y21675D02*
X96325D01*
X24375Y74000D02*
Y76000D01*
Y74000D02*
X25625D01*
X24375Y76000D02*
X25625D01*
X24365Y76778D02*
X25635D01*
X25625Y74000D02*
Y76000D01*
X24375Y59000D02*
Y61000D01*
Y59000D02*
X25625D01*
X24375Y61000D02*
X25625D01*
X24365Y61778D02*
X25635D01*
X25625Y59000D02*
Y61000D01*
X10625Y85803D02*
X11133D01*
X10879D01*
Y87327D01*
X10625Y87073D01*
X11895Y87327D02*
X12911D01*
Y87073D01*
X11895Y86057D01*
Y85803D01*
X13419Y87073D02*
X13672Y87327D01*
X14180D01*
X14434Y87073D01*
Y86819D01*
X14180Y86565D01*
X13926D01*
X14180D01*
X14434Y86311D01*
Y86057D01*
X14180Y85803D01*
X13672D01*
X13419Y86057D01*
X14942Y87073D02*
X15196Y87327D01*
X15704D01*
X15958Y87073D01*
Y86057D01*
X15704Y85803D01*
X15196D01*
X14942Y86057D01*
Y87073D01*
X16466D02*
X16719Y87327D01*
X17227D01*
X17481Y87073D01*
Y86057D01*
X17227Y85803D01*
X16719D01*
X16466Y86057D01*
Y87073D01*
X17989Y87327D02*
Y85803D01*
X18751D01*
X19005Y86057D01*
Y86311D01*
X18751Y86565D01*
X17989D01*
X18751D01*
X19005Y86819D01*
Y87073D01*
X18751Y87327D01*
X17989D01*
X22052Y87073D02*
X21798Y87327D01*
X21290D01*
X21036Y87073D01*
Y86819D01*
X21290Y86565D01*
X21798D01*
X22052Y86311D01*
Y86057D01*
X21798Y85803D01*
X21290D01*
X21036Y86057D01*
X23575Y87073D02*
X23321Y87327D01*
X22814D01*
X22560Y87073D01*
Y86057D01*
X22814Y85803D01*
X23321D01*
X23575Y86057D01*
X24083Y85803D02*
Y86819D01*
X24591Y87327D01*
X25099Y86819D01*
Y85803D01*
Y86565D01*
X24083D01*
X27130Y85803D02*
X27638D01*
X27384D01*
Y87327D01*
X27130Y87073D01*
X28400Y85803D02*
X28908D01*
X28654D01*
Y87327D01*
X28400Y87073D01*
X29669Y85803D02*
Y86057D01*
X29923D01*
Y85803D01*
X29669D01*
X31955D02*
X30939D01*
X31955Y86819D01*
Y87073D01*
X31701Y87327D01*
X31193D01*
X30939Y87073D01*
X32462D02*
X32716Y87327D01*
X33224D01*
X33478Y87073D01*
Y86057D01*
X33224Y85803D01*
X32716D01*
X32462Y86057D01*
Y87073D01*
X33986Y85803D02*
X34494D01*
X34240D01*
Y87327D01*
X33986Y87073D01*
X35255Y86057D02*
X35509Y85803D01*
X36017D01*
X36271Y86057D01*
Y87073D01*
X36017Y87327D01*
X35509D01*
X35255Y87073D01*
Y86819D01*
X35509Y86565D01*
X36271D01*
D60*
X99314Y17784D02*
G03*
X99054Y17991I-282J-86D01*
G01*
X99314Y17213D02*
G03*
X99314Y17784I-931J286D01*
G01*
X99054Y17005D02*
G03*
X99314Y17213I-22J294D01*
G01*
X99314Y12696D02*
G03*
X99314Y13267I-931J286D01*
G01*
X99314Y13267D02*
G03*
X99054Y13475I-282J-86D01*
G01*
Y12489D02*
G03*
X99314Y12696I-22J294D01*
G01*
X98691Y17213D02*
Y17732D01*
X96303Y13735D02*
X99054Y13475D01*
X96303Y17991D02*
X98691Y17732D01*
X96303Y16953D02*
X98691Y17213D01*
X96303Y13527D02*
Y13735D01*
Y16745D02*
Y16953D01*
Y12281D02*
X99054Y12489D01*
X98691Y12748D02*
Y13267D01*
X96303Y13527D02*
X98691Y13267D01*
X96303Y12489D02*
X98691Y12748D01*
X96303Y18199D02*
X99054Y17991D01*
X96303D02*
Y18199D01*
Y16745D02*
X99054Y17005D01*
X96303Y12281D02*
Y12489D01*
D61*
X10960Y5270D02*
X29040D01*
Y2730D02*
Y5270D01*
X10960Y2730D02*
X29040D01*
X10960D02*
Y5270D01*
X35941Y49276D02*
X61341D01*
X35941D02*
Y51816D01*
X61341D01*
Y49276D02*
Y51816D01*
X60174Y57134D02*
Y59674D01*
X52174D02*
X60174D01*
X52174Y57134D02*
X60174D01*
X52174D02*
Y59674D01*
X43980Y61000D02*
Y61200D01*
X42730Y61000D02*
Y61200D01*
X55193Y67377D02*
Y85277D01*
X48693Y67377D02*
Y85277D01*
X55193D01*
X48693Y67377D02*
X55193D01*
X3456Y49724D02*
X3656D01*
X3456Y48574D02*
X3656D01*
X66498Y71289D02*
X66598D01*
X66498Y70189D02*
X66598D01*
X62830Y71578D02*
Y71678D01*
X61630Y71578D02*
Y71678D01*
X78551Y31407D02*
Y32157D01*
X77651D02*
X78551D01*
Y29057D02*
Y29807D01*
X77651Y29057D02*
X78551D01*
X70042Y26173D02*
Y26733D01*
X69336D02*
X70042D01*
Y23813D02*
Y24373D01*
X69336Y23813D02*
X70042D01*
X43522Y76739D02*
Y77439D01*
X41822Y76739D02*
Y77439D01*
X73106Y32248D02*
X73706D01*
X73106Y30998D02*
X73706D01*
X35029Y94996D02*
X53109D01*
X35029D02*
Y97536D01*
X53109D01*
Y94996D02*
Y97536D01*
X81335Y14234D02*
X85035D01*
X81335Y9134D02*
X85035D01*
X23215Y24446D02*
Y25346D01*
Y24446D02*
X23965D01*
X26315D02*
Y25346D01*
X25565Y24446D02*
X26315D01*
X23469Y78421D02*
Y79321D01*
Y78421D02*
X24219D01*
X26569D02*
Y79321D01*
X25819Y78421D02*
X26569D01*
X27152Y60895D02*
Y61795D01*
Y60895D02*
X27902D01*
X30252D02*
Y61795D01*
X29502Y60895D02*
X30252D01*
X27279Y45909D02*
Y46809D01*
Y45909D02*
X28029D01*
X30379D02*
Y46809D01*
X29629Y45909D02*
X30379D01*
X66983Y18516D02*
X67883D01*
Y19266D01*
X66983Y21616D02*
X67883D01*
Y20866D02*
Y21616D01*
X56161Y95691D02*
X56361D01*
X56161Y96841D02*
X56361D01*
X59242Y95277D02*
Y95477D01*
X60392Y95277D02*
Y95477D01*
X3456Y73085D02*
X3656D01*
X3456Y74235D02*
X3656D01*
X3456Y56829D02*
X3656D01*
X3456Y57979D02*
X3656D01*
X26340Y29278D02*
Y29478D01*
X25090Y29278D02*
Y29478D01*
X22125Y18933D02*
X22325D01*
X22125Y20183D02*
X22325D01*
X62367Y19966D02*
Y20166D01*
X63617Y19966D02*
Y20166D01*
X97546Y26951D02*
Y27151D01*
X98796Y26951D02*
Y27151D01*
X67701Y30507D02*
Y30707D01*
X68951Y30507D02*
Y30707D01*
X20375Y23521D02*
X20575D01*
X20375Y24771D02*
X20575D01*
X69042Y76718D02*
X69642D01*
X69042Y77968D02*
X69642D01*
X58938Y81996D02*
Y82596D01*
X60188Y81996D02*
Y82596D01*
X42880Y68697D02*
X43480D01*
X42880Y67447D02*
X43480D01*
X73614Y24648D02*
X74214D01*
X73614Y25898D02*
X74214D01*
X25619Y71578D02*
Y71678D01*
X24419Y71578D02*
Y71678D01*
X24419Y56084D02*
Y56184D01*
X25619Y56084D02*
Y56184D01*
X24419Y41156D02*
Y41256D01*
X25619Y41156D02*
Y41256D01*
X17272Y1016D02*
Y2016D01*
X17605Y1682D01*
X17938Y2016D01*
Y1016D01*
X18772Y2016D02*
X18438D01*
X18272Y1849D01*
Y1183D01*
X18438Y1016D01*
X18772D01*
X18938Y1183D01*
Y1849D01*
X18772Y2016D01*
X19271D02*
Y1016D01*
X19771D01*
X19938Y1183D01*
Y1849D01*
X19771Y2016D01*
X19271D01*
X20271D02*
Y1183D01*
X20438Y1016D01*
X20771D01*
X20937Y1183D01*
Y2016D01*
X21271D02*
Y1016D01*
X21937D01*
X22937Y2016D02*
X22270D01*
Y1016D01*
X22937D01*
X22270Y1516D02*
X22604D01*
X24270Y2016D02*
Y1016D01*
X24770D01*
X24936Y1183D01*
Y1849D01*
X24770Y2016D01*
X24270D01*
X25936D02*
X25269D01*
Y1016D01*
X25936D01*
X25269Y1516D02*
X25603D01*
X26269Y2016D02*
Y1016D01*
X26769D01*
X26936Y1183D01*
Y1349D01*
X26769Y1516D01*
X26269D01*
X26769D01*
X26936Y1682D01*
Y1849D01*
X26769Y2016D01*
X26269D01*
X27269D02*
Y1183D01*
X27435Y1016D01*
X27769D01*
X27935Y1183D01*
Y2016D01*
X28935Y1849D02*
X28768Y2016D01*
X28435D01*
X28268Y1849D01*
Y1183D01*
X28435Y1016D01*
X28768D01*
X28935Y1183D01*
Y1516D01*
X28602D01*
X12025Y6096D02*
X12358D01*
X12192D01*
Y7096D01*
X12025Y6929D01*
X60071Y47498D02*
X60404D01*
X60238D01*
Y48498D01*
X60071Y48331D01*
X51562Y93472D02*
X51895D01*
X51729D01*
Y94472D01*
X51562Y94305D01*
X33147Y22352D02*
X33480D01*
X33314D01*
Y23352D01*
X33147Y23185D01*
X33980Y22352D02*
X34313D01*
X34147D01*
Y23352D01*
X33980Y23185D01*
X60071Y22352D02*
X60404D01*
X60238D01*
Y23352D01*
X60071Y23185D01*
X58674Y55626D02*
X59007D01*
X58841D01*
Y56626D01*
X58674Y56459D01*
X43522Y99044D02*
Y98044D01*
Y98544D01*
X44188D01*
Y99044D01*
Y98044D01*
X45022Y99044D02*
X44688D01*
X44522Y98877D01*
Y98211D01*
X44688Y98044D01*
X45022D01*
X45188Y98211D01*
Y98877D01*
X45022Y99044D01*
X46188Y98877D02*
X46021Y99044D01*
X45688D01*
X45521Y98877D01*
Y98710D01*
X45688Y98544D01*
X46021D01*
X46188Y98377D01*
Y98211D01*
X46021Y98044D01*
X45688D01*
X45521Y98211D01*
X46521Y99044D02*
X47187D01*
X46854D01*
Y98044D01*
X48520Y99044D02*
Y98044D01*
X49020D01*
X49187Y98211D01*
Y98877D01*
X49020Y99044D01*
X48520D01*
X50187D02*
X49520D01*
Y98044D01*
X50187D01*
X49520Y98544D02*
X49853D01*
X50520Y99044D02*
Y98044D01*
X51020D01*
X51186Y98211D01*
Y98377D01*
X51020Y98544D01*
X50520D01*
X51020D01*
X51186Y98710D01*
Y98877D01*
X51020Y99044D01*
X50520D01*
X51519D02*
Y98211D01*
X51686Y98044D01*
X52019D01*
X52186Y98211D01*
Y99044D01*
X53186Y98877D02*
X53019Y99044D01*
X52686D01*
X52519Y98877D01*
Y98211D01*
X52686Y98044D01*
X53019D01*
X53186Y98211D01*
Y98544D01*
X52852D01*
X65786Y98044D02*
Y99044D01*
X66286D01*
X66452Y98877D01*
Y98544D01*
X66286Y98377D01*
X65786D01*
X66119D02*
X66452Y98044D01*
X67452Y99044D02*
X66786D01*
Y98044D01*
X67452D01*
X66786Y98544D02*
X67119D01*
X68452Y98877D02*
X68285Y99044D01*
X67952D01*
X67785Y98877D01*
Y98710D01*
X67952Y98544D01*
X68285D01*
X68452Y98377D01*
Y98211D01*
X68285Y98044D01*
X67952D01*
X67785Y98211D01*
X69451Y99044D02*
X68785D01*
Y98044D01*
X69451D01*
X68785Y98544D02*
X69118D01*
X69785Y99044D02*
X70451D01*
X70118D01*
Y98044D01*
D62*
X99926Y11240D02*
Y19240D01*
X92826D02*
X99926D01*
X92826Y11240D02*
X99926D01*
X92826D02*
Y19240D01*
X11517Y1970D02*
X11984Y1270D01*
Y1970D02*
X11517Y1270D01*
X12683D02*
X12217D01*
X12683Y1737D01*
Y1853D01*
X12567Y1970D01*
X12333D01*
X12217Y1853D01*
X12917D02*
X13033Y1970D01*
X13266D01*
X13383Y1853D01*
Y1387D01*
X13266Y1270D01*
X13033D01*
X12917Y1387D01*
Y1853D01*
X14083Y1270D02*
X13616D01*
X14083Y1737D01*
Y1853D01*
X13966Y1970D01*
X13733D01*
X13616Y1853D01*
X58166Y53024D02*
X58633Y52324D01*
Y53024D02*
X58166Y52324D01*
X59332D02*
X58866D01*
X59332Y52791D01*
Y52907D01*
X59216Y53024D01*
X58982D01*
X58866Y52907D01*
X59566D02*
X59682Y53024D01*
X59915D01*
X60032Y52907D01*
Y52441D01*
X59915Y52324D01*
X59682D01*
X59566Y52441D01*
Y52907D01*
X60615Y52324D02*
Y53024D01*
X60265Y52674D01*
X60732D01*
X57658Y60898D02*
X58125Y60198D01*
Y60898D02*
X57658Y60198D01*
X58824D02*
X58358D01*
X58824Y60665D01*
Y60781D01*
X58708Y60898D01*
X58474D01*
X58358Y60781D01*
X59058D02*
X59174Y60898D01*
X59407D01*
X59524Y60781D01*
Y60315D01*
X59407Y60198D01*
X59174D01*
X59058Y60315D01*
Y60781D01*
X59757D02*
X59874Y60898D01*
X60107D01*
X60224Y60781D01*
Y60665D01*
X60107Y60548D01*
X59991D01*
X60107D01*
X60224Y60431D01*
Y60315D01*
X60107Y60198D01*
X59874D01*
X59757Y60315D01*
X45466Y59944D02*
X44766D01*
Y60294D01*
X44883Y60411D01*
X45116D01*
X45233Y60294D01*
Y59944D01*
Y60177D02*
X45466Y60411D01*
Y61110D02*
Y60644D01*
X44999Y61110D01*
X44883D01*
X44766Y60994D01*
Y60760D01*
X44883Y60644D01*
Y61344D02*
X44766Y61460D01*
Y61693D01*
X44883Y61810D01*
X45349D01*
X45466Y61693D01*
Y61460D01*
X45349Y61344D01*
X44883D01*
Y62043D02*
X44766Y62160D01*
Y62393D01*
X44883Y62510D01*
X44999D01*
X45116Y62393D01*
Y62277D01*
Y62393D01*
X45233Y62510D01*
X45349D01*
X45466Y62393D01*
Y62160D01*
X45349Y62043D01*
X35179Y43626D02*
X35646Y42926D01*
Y43626D02*
X35179Y42926D01*
X36345D02*
X35879D01*
X36345Y43393D01*
Y43509D01*
X36229Y43626D01*
X35995D01*
X35879Y43509D01*
X36579D02*
X36695Y43626D01*
X36928D01*
X37045Y43509D01*
Y43043D01*
X36928Y42926D01*
X36695D01*
X36579Y43043D01*
Y43509D01*
X37278D02*
X37395Y43626D01*
X37628D01*
X37745Y43509D01*
Y43043D01*
X37628Y42926D01*
X37395D01*
X37278Y43043D01*
Y43509D01*
X48768Y86933D02*
Y86350D01*
X48885Y86233D01*
X49118D01*
X49235Y86350D01*
Y86933D01*
X49934Y86233D02*
X49468D01*
X49934Y86700D01*
Y86816D01*
X49818Y86933D01*
X49584D01*
X49468Y86816D01*
X50168D02*
X50284Y86933D01*
X50517D01*
X50634Y86816D01*
Y86350D01*
X50517Y86233D01*
X50284D01*
X50168Y86350D01*
Y86816D01*
X50867D02*
X50984Y86933D01*
X51217D01*
X51334Y86816D01*
Y86350D01*
X51217Y86233D01*
X50984D01*
X50867Y86350D01*
Y86816D01*
X71934Y91145D02*
X71817Y91028D01*
Y90795D01*
X71934Y90678D01*
X72050D01*
X72167Y90795D01*
Y91028D01*
X72284Y91145D01*
X72400D01*
X72517Y91028D01*
Y90795D01*
X72400Y90678D01*
X71817Y91378D02*
X72517D01*
X72284Y91611D01*
X72517Y91844D01*
X71817D01*
X72517Y92544D02*
Y92078D01*
X72050Y92544D01*
X71934D01*
X71817Y92427D01*
Y92194D01*
X71934Y92078D01*
Y92777D02*
X71817Y92894D01*
Y93127D01*
X71934Y93244D01*
X72400D01*
X72517Y93127D01*
Y92894D01*
X72400Y92777D01*
X71934D01*
Y93477D02*
X71817Y93594D01*
Y93827D01*
X71934Y93944D01*
X72050D01*
X72167Y93827D01*
Y93710D01*
Y93827D01*
X72284Y93944D01*
X72400D01*
X72517Y93827D01*
Y93594D01*
X72400Y93477D01*
X7493Y31434D02*
Y30851D01*
X7610Y30734D01*
X7843D01*
X7960Y30851D01*
Y31434D01*
X8659Y30734D02*
X8193D01*
X8659Y31201D01*
Y31317D01*
X8543Y31434D01*
X8309D01*
X8193Y31317D01*
X8893D02*
X9009Y31434D01*
X9242D01*
X9359Y31317D01*
Y30851D01*
X9242Y30734D01*
X9009D01*
X8893Y30851D01*
Y31317D01*
X9592Y30734D02*
X9826D01*
X9709D01*
Y31434D01*
X9592Y31317D01*
X2286Y50419D02*
Y51119D01*
X2636D01*
X2753Y51002D01*
Y50769D01*
X2636Y50652D01*
X2286D01*
X2519D02*
X2753Y50419D01*
X3452D02*
X2986D01*
X3452Y50886D01*
Y51002D01*
X3336Y51119D01*
X3102D01*
X2986Y51002D01*
X3686D02*
X3802Y51119D01*
X4035D01*
X4152Y51002D01*
Y50536D01*
X4035Y50419D01*
X3802D01*
X3686Y50536D01*
Y51002D01*
X4852Y51119D02*
X4385D01*
Y50769D01*
X4619Y50886D01*
X4735D01*
X4852Y50769D01*
Y50536D01*
X4735Y50419D01*
X4502D01*
X4385Y50536D01*
X65405Y72009D02*
Y72709D01*
X65755D01*
X65872Y72592D01*
Y72359D01*
X65755Y72242D01*
X65405D01*
X65638D02*
X65872Y72009D01*
X66105D02*
X66338D01*
X66221D01*
Y72709D01*
X66105Y72592D01*
X66688D02*
X66805Y72709D01*
X67038D01*
X67154Y72592D01*
Y72126D01*
X67038Y72009D01*
X66805D01*
X66688Y72126D01*
Y72592D01*
X67738Y72009D02*
Y72709D01*
X67388Y72359D01*
X67854D01*
X64389Y70358D02*
X63689D01*
Y70708D01*
X63806Y70825D01*
X64039D01*
X64156Y70708D01*
Y70358D01*
Y70591D02*
X64389Y70825D01*
Y71058D02*
Y71291D01*
Y71174D01*
X63689D01*
X63806Y71058D01*
Y71641D02*
X63689Y71758D01*
Y71991D01*
X63806Y72107D01*
X64272D01*
X64389Y71991D01*
Y71758D01*
X64272Y71641D01*
X63806D01*
Y72341D02*
X63689Y72457D01*
Y72691D01*
X63806Y72807D01*
X63922D01*
X64039Y72691D01*
Y72574D01*
Y72691D01*
X64156Y72807D01*
X64272D01*
X64389Y72691D01*
Y72457D01*
X64272Y72341D01*
X77175Y33518D02*
Y33984D01*
X77058Y34101D01*
X76825D01*
X76708Y33984D01*
Y33518D01*
X76825Y33401D01*
X77058D01*
X76941Y33634D02*
X77175Y33401D01*
X77058D02*
X77175Y33518D01*
X77408Y33401D02*
X77641D01*
X77524D01*
Y34101D01*
X77408Y33984D01*
X77991D02*
X78108Y34101D01*
X78341D01*
X78457Y33984D01*
Y33518D01*
X78341Y33401D01*
X78108D01*
X77991Y33518D01*
Y33984D01*
X78691Y33401D02*
X78924D01*
X78807D01*
Y34101D01*
X78691Y33984D01*
X66558Y24724D02*
X66092D01*
X65975Y24607D01*
Y24374D01*
X66092Y24257D01*
X66558D01*
X66675Y24374D01*
Y24607D01*
X66442Y24490D02*
X66675Y24724D01*
Y24607D02*
X66558Y24724D01*
X66675Y24957D02*
Y25190D01*
Y25073D01*
X65975D01*
X66092Y24957D01*
Y25540D02*
X65975Y25657D01*
Y25890D01*
X66092Y26006D01*
X66558D01*
X66675Y25890D01*
Y25657D01*
X66558Y25540D01*
X66092D01*
Y26240D02*
X65975Y26356D01*
Y26590D01*
X66092Y26706D01*
X66558D01*
X66675Y26590D01*
Y26356D01*
X66558Y26240D01*
X66092D01*
X70894Y21016D02*
X71477D01*
X71594Y21133D01*
Y21366D01*
X71477Y21483D01*
X70894D01*
X71594Y21716D02*
Y21949D01*
Y21832D01*
X70894D01*
X71011Y21716D01*
Y22299D02*
X70894Y22416D01*
Y22649D01*
X71011Y22765D01*
X71477D01*
X71594Y22649D01*
Y22416D01*
X71477Y22299D01*
X71011D01*
Y22999D02*
X70894Y23115D01*
Y23349D01*
X71011Y23465D01*
X71477D01*
X71594Y23349D01*
Y23115D01*
X71477Y22999D01*
X71011D01*
X40184Y76286D02*
X40067Y76169D01*
Y75936D01*
X40184Y75819D01*
X40650D01*
X40767Y75936D01*
Y76169D01*
X40650Y76286D01*
X40767Y76985D02*
Y76519D01*
X40300Y76985D01*
X40184D01*
X40067Y76869D01*
Y76635D01*
X40184Y76519D01*
Y77219D02*
X40067Y77335D01*
Y77568D01*
X40184Y77685D01*
X40650D01*
X40767Y77568D01*
Y77335D01*
X40650Y77219D01*
X40184D01*
Y77918D02*
X40067Y78035D01*
Y78268D01*
X40184Y78385D01*
X40650D01*
X40767Y78268D01*
Y78035D01*
X40650Y77918D01*
X40184D01*
X74281Y11953D02*
X74164Y11836D01*
Y11603D01*
X74281Y11486D01*
X74747D01*
X74864Y11603D01*
Y11836D01*
X74747Y11953D01*
X74864Y12186D02*
Y12419D01*
Y12302D01*
X74164D01*
X74281Y12186D01*
Y12769D02*
X74164Y12886D01*
Y13119D01*
X74281Y13235D01*
X74747D01*
X74864Y13119D01*
Y12886D01*
X74747Y12769D01*
X74281D01*
Y13469D02*
X74164Y13585D01*
Y13819D01*
X74281Y13935D01*
X74397D01*
X74514Y13819D01*
Y13702D01*
Y13819D01*
X74631Y13935D01*
X74747D01*
X74864Y13819D01*
Y13585D01*
X74747Y13469D01*
X73111Y16077D02*
X72994Y16194D01*
X72761D01*
X72644Y16077D01*
Y15611D01*
X72761Y15494D01*
X72994D01*
X73111Y15611D01*
X73344Y15494D02*
X73577D01*
X73460D01*
Y16194D01*
X73344Y16077D01*
X73927D02*
X74044Y16194D01*
X74277D01*
X74393Y16077D01*
Y15611D01*
X74277Y15494D01*
X74044D01*
X73927Y15611D01*
Y16077D01*
X75093Y15494D02*
X74627D01*
X75093Y15961D01*
Y16077D01*
X74977Y16194D01*
X74743D01*
X74627Y16077D01*
X72603Y33730D02*
X72486Y33847D01*
X72253D01*
X72136Y33730D01*
Y33264D01*
X72253Y33147D01*
X72486D01*
X72603Y33264D01*
X72836Y33147D02*
X73069D01*
X72952D01*
Y33847D01*
X72836Y33730D01*
X73419D02*
X73536Y33847D01*
X73769D01*
X73885Y33730D01*
Y33264D01*
X73769Y33147D01*
X73536D01*
X73419Y33264D01*
Y33730D01*
X74119D02*
X74235Y33847D01*
X74469D01*
X74585Y33730D01*
Y33264D01*
X74469Y33147D01*
X74235D01*
X74119Y33264D01*
Y33730D01*
X73468Y38862D02*
X74168D01*
Y39212D01*
X74051Y39329D01*
X73935D01*
X73818Y39212D01*
Y38862D01*
Y39212D01*
X73701Y39329D01*
X73585D01*
X73468Y39212D01*
Y38862D01*
Y39562D02*
Y40028D01*
Y39795D01*
X74168D01*
Y40262D02*
Y40495D01*
Y40378D01*
X73468D01*
X73585Y40262D01*
Y40845D02*
X73468Y40961D01*
Y41195D01*
X73585Y41311D01*
X74051D01*
X74168Y41195D01*
Y40961D01*
X74051Y40845D01*
X73585D01*
Y41544D02*
X73468Y41661D01*
Y41894D01*
X73585Y42011D01*
X74051D01*
X74168Y41894D01*
Y41661D01*
X74051Y41544D01*
X73585D01*
X34900Y99125D02*
X35366Y98425D01*
Y99125D02*
X34900Y98425D01*
X36066D02*
X35599D01*
X36066Y98892D01*
Y99008D01*
X35949Y99125D01*
X35716D01*
X35599Y99008D01*
X36299D02*
X36416Y99125D01*
X36649D01*
X36766Y99008D01*
Y98542D01*
X36649Y98425D01*
X36416D01*
X36299Y98542D01*
Y99008D01*
X36999Y98425D02*
X37232D01*
X37116D01*
Y99125D01*
X36999Y99008D01*
X81407Y8574D02*
Y7991D01*
X81524Y7874D01*
X81757D01*
X81874Y7991D01*
Y8574D01*
X82107Y7874D02*
X82340D01*
X82223D01*
Y8574D01*
X82107Y8457D01*
X82690D02*
X82807Y8574D01*
X83040D01*
X83156Y8457D01*
Y7991D01*
X83040Y7874D01*
X82807D01*
X82690Y7991D01*
Y8457D01*
X83390Y7874D02*
X83623D01*
X83506D01*
Y8574D01*
X83390Y8457D01*
X92921Y21060D02*
X93388Y20360D01*
Y21060D02*
X92921Y20360D01*
X93621D02*
X93854D01*
X93737D01*
Y21060D01*
X93621Y20943D01*
X94204D02*
X94321Y21060D01*
X94554D01*
X94670Y20943D01*
Y20477D01*
X94554Y20360D01*
X94321D01*
X94204Y20477D01*
Y20943D01*
X94904D02*
X95020Y21060D01*
X95254D01*
X95370Y20943D01*
Y20477D01*
X95254Y20360D01*
X95020D01*
X94904Y20477D01*
Y20943D01*
X16088Y68020D02*
X15971Y68137D01*
X15738D01*
X15621Y68020D01*
Y67904D01*
X15738Y67787D01*
X15971D01*
X16088Y67670D01*
Y67554D01*
X15971Y67437D01*
X15738D01*
X15621Y67554D01*
X16321Y68137D02*
Y67437D01*
X16554Y67670D01*
X16787Y67437D01*
Y68137D01*
X17487Y67437D02*
X17021D01*
X17487Y67904D01*
Y68020D01*
X17370Y68137D01*
X17137D01*
X17021Y68020D01*
X17720D02*
X17837Y68137D01*
X18070D01*
X18187Y68020D01*
Y67554D01*
X18070Y67437D01*
X17837D01*
X17720Y67554D01*
Y68020D01*
X18887Y67437D02*
X18420D01*
X18887Y67904D01*
Y68020D01*
X18770Y68137D01*
X18537D01*
X18420Y68020D01*
X22522Y43992D02*
X23222D01*
Y44342D01*
X23105Y44458D01*
X22639D01*
X22522Y44342D01*
Y43992D01*
X23222Y45158D02*
Y44692D01*
X22755Y45158D01*
X22639D01*
X22522Y45042D01*
Y44808D01*
X22639Y44692D01*
Y45392D02*
X22522Y45508D01*
Y45741D01*
X22639Y45858D01*
X23105D01*
X23222Y45741D01*
Y45508D01*
X23105Y45392D01*
X22639D01*
Y46091D02*
X22522Y46208D01*
Y46441D01*
X22639Y46558D01*
X23105D01*
X23222Y46441D01*
Y46208D01*
X23105Y46091D01*
X22639D01*
X19459Y25756D02*
Y26456D01*
X19809D01*
X19926Y26340D01*
Y26106D01*
X19809Y25990D01*
X19459D01*
X19692D02*
X19926Y25756D01*
X20625D02*
X20159D01*
X20625Y26223D01*
Y26340D01*
X20509Y26456D01*
X20275D01*
X20159Y26340D01*
X20859D02*
X20975Y26456D01*
X21208D01*
X21325Y26340D01*
Y25873D01*
X21208Y25756D01*
X20975D01*
X20859Y25873D01*
Y26340D01*
X21558D02*
X21675Y26456D01*
X21908D01*
X22025Y26340D01*
Y26223D01*
X21908Y26106D01*
X22025Y25990D01*
Y25873D01*
X21908Y25756D01*
X21675D01*
X21558Y25873D01*
Y25990D01*
X21675Y26106D01*
X21558Y26223D01*
Y26340D01*
X21675Y26106D02*
X21908D01*
X82094Y23073D02*
X81977Y22956D01*
Y22723D01*
X82094Y22606D01*
X82210D01*
X82327Y22723D01*
Y22956D01*
X82444Y23073D01*
X82560D01*
X82677Y22956D01*
Y22723D01*
X82560Y22606D01*
X81977Y23306D02*
X82677D01*
X82444Y23539D01*
X82677Y23772D01*
X81977D01*
X82677Y24006D02*
Y24239D01*
Y24122D01*
X81977D01*
X82094Y24006D01*
Y24589D02*
X81977Y24705D01*
Y24939D01*
X82094Y25055D01*
X82560D01*
X82677Y24939D01*
Y24705D01*
X82560Y24589D01*
X82094D01*
Y25288D02*
X81977Y25405D01*
Y25638D01*
X82094Y25755D01*
X82560D01*
X82677Y25638D01*
Y25405D01*
X82560Y25288D01*
X82094D01*
X73365Y27253D02*
X73248Y27370D01*
X73015D01*
X72898Y27253D01*
Y26787D01*
X73015Y26670D01*
X73248D01*
X73365Y26787D01*
X73598Y26670D02*
X73831D01*
X73714D01*
Y27370D01*
X73598Y27253D01*
X74181D02*
X74298Y27370D01*
X74531D01*
X74647Y27253D01*
Y26787D01*
X74531Y26670D01*
X74298D01*
X74181Y26787D01*
Y27253D01*
X74881Y26670D02*
X75114D01*
X74997D01*
Y27370D01*
X74881Y27253D01*
X87809Y13675D02*
X87692Y13558D01*
Y13325D01*
X87809Y13208D01*
X88275D01*
X88392Y13325D01*
Y13558D01*
X88275Y13675D01*
X88392Y13908D02*
Y14141D01*
Y14024D01*
X87692D01*
X87809Y13908D01*
Y14491D02*
X87692Y14608D01*
Y14841D01*
X87809Y14957D01*
X88275D01*
X88392Y14841D01*
Y14608D01*
X88275Y14491D01*
X87809D01*
X88392Y15541D02*
X87692D01*
X88042Y15191D01*
Y15657D01*
X42504Y66496D02*
X42387Y66613D01*
X42154D01*
X42037Y66496D01*
Y66030D01*
X42154Y65913D01*
X42387D01*
X42504Y66030D01*
X43203Y65913D02*
X42737D01*
X43203Y66380D01*
Y66496D01*
X43087Y66613D01*
X42853D01*
X42737Y66496D01*
X43437D02*
X43553Y66613D01*
X43786D01*
X43903Y66496D01*
Y66030D01*
X43786Y65913D01*
X43553D01*
X43437Y66030D01*
Y66496D01*
X44136Y65913D02*
X44370D01*
X44253D01*
Y66613D01*
X44136Y66496D01*
X61393Y81366D02*
X61276Y81249D01*
Y81016D01*
X61393Y80899D01*
X61859D01*
X61976Y81016D01*
Y81249D01*
X61859Y81366D01*
X61976Y82065D02*
Y81599D01*
X61509Y82065D01*
X61393D01*
X61276Y81949D01*
Y81715D01*
X61393Y81599D01*
Y82299D02*
X61276Y82415D01*
Y82648D01*
X61393Y82765D01*
X61859D01*
X61976Y82648D01*
Y82415D01*
X61859Y82299D01*
X61393D01*
X61976Y83465D02*
Y82998D01*
X61509Y83465D01*
X61393D01*
X61276Y83348D01*
Y83115D01*
X61393Y82998D01*
X68412Y79450D02*
X68295Y79567D01*
X68062D01*
X67945Y79450D01*
Y78984D01*
X68062Y78867D01*
X68295D01*
X68412Y78984D01*
X69111Y78867D02*
X68645D01*
X69111Y79334D01*
Y79450D01*
X68995Y79567D01*
X68761D01*
X68645Y79450D01*
X69345D02*
X69461Y79567D01*
X69694D01*
X69811Y79450D01*
Y78984D01*
X69694Y78867D01*
X69461D01*
X69345Y78984D01*
Y79450D01*
X70044D02*
X70161Y79567D01*
X70394D01*
X70511Y79450D01*
Y79334D01*
X70394Y79217D01*
X70278D01*
X70394D01*
X70511Y79100D01*
Y78984D01*
X70394Y78867D01*
X70161D01*
X70044Y78984D01*
X22649Y58992D02*
X23349D01*
Y59342D01*
X23232Y59458D01*
X22766D01*
X22649Y59342D01*
Y58992D01*
X23349Y60158D02*
Y59692D01*
X22882Y60158D01*
X22766D01*
X22649Y60042D01*
Y59808D01*
X22766Y59692D01*
Y60392D02*
X22649Y60508D01*
Y60741D01*
X22766Y60858D01*
X23232D01*
X23349Y60741D01*
Y60508D01*
X23232Y60392D01*
X22766D01*
X23349Y61091D02*
Y61325D01*
Y61208D01*
X22649D01*
X22766Y61091D01*
X22522Y74119D02*
X23222D01*
Y74469D01*
X23105Y74586D01*
X22639D01*
X22522Y74469D01*
Y74119D01*
X23222Y75285D02*
Y74819D01*
X22755Y75285D01*
X22639D01*
X22522Y75169D01*
Y74935D01*
X22639Y74819D01*
Y75519D02*
X22522Y75635D01*
Y75868D01*
X22639Y75985D01*
X23105D01*
X23222Y75868D01*
Y75635D01*
X23105Y75519D01*
X22639D01*
X23222Y76685D02*
Y76218D01*
X22755Y76685D01*
X22639D01*
X22522Y76568D01*
Y76335D01*
X22639Y76218D01*
X65745Y17516D02*
Y17982D01*
X65628Y18099D01*
X65395D01*
X65278Y17982D01*
Y17516D01*
X65395Y17399D01*
X65628D01*
X65511Y17632D02*
X65745Y17399D01*
X65628D02*
X65745Y17516D01*
X65978Y17399D02*
X66211D01*
X66094D01*
Y18099D01*
X65978Y17982D01*
X66561D02*
X66678Y18099D01*
X66911D01*
X67027Y17982D01*
Y17516D01*
X66911Y17399D01*
X66678D01*
X66561Y17516D01*
Y17982D01*
X67727Y17399D02*
X67261D01*
X67727Y17866D01*
Y17982D01*
X67611Y18099D01*
X67377D01*
X67261Y17982D01*
X28026Y43932D02*
Y44398D01*
X27909Y44515D01*
X27676D01*
X27559Y44398D01*
Y43932D01*
X27676Y43815D01*
X27909D01*
X27792Y44048D02*
X28026Y43815D01*
X27909D02*
X28026Y43932D01*
X28725Y43815D02*
X28259D01*
X28725Y44282D01*
Y44398D01*
X28609Y44515D01*
X28375D01*
X28259Y44398D01*
X28959D02*
X29075Y44515D01*
X29308D01*
X29425Y44398D01*
Y43932D01*
X29308Y43815D01*
X29075D01*
X28959Y43932D01*
Y44398D01*
X29658D02*
X29775Y44515D01*
X30008D01*
X30125Y44398D01*
Y43932D01*
X30008Y43815D01*
X29775D01*
X29658Y43932D01*
Y44398D01*
X28026Y58918D02*
Y59384D01*
X27909Y59501D01*
X27676D01*
X27559Y59384D01*
Y58918D01*
X27676Y58801D01*
X27909D01*
X27792Y59034D02*
X28026Y58801D01*
X27909D02*
X28026Y58918D01*
X28725Y58801D02*
X28259D01*
X28725Y59268D01*
Y59384D01*
X28609Y59501D01*
X28375D01*
X28259Y59384D01*
X28959D02*
X29075Y59501D01*
X29308D01*
X29425Y59384D01*
Y58918D01*
X29308Y58801D01*
X29075D01*
X28959Y58918D01*
Y59384D01*
X29658Y58801D02*
X29892D01*
X29775D01*
Y59501D01*
X29658Y59384D01*
X24216Y81270D02*
Y81736D01*
X24099Y81853D01*
X23866D01*
X23749Y81736D01*
Y81270D01*
X23866Y81153D01*
X24099D01*
X23982Y81386D02*
X24216Y81153D01*
X24099D02*
X24216Y81270D01*
X24915Y81153D02*
X24449D01*
X24915Y81620D01*
Y81736D01*
X24799Y81853D01*
X24565D01*
X24449Y81736D01*
X25149D02*
X25265Y81853D01*
X25498D01*
X25615Y81736D01*
Y81270D01*
X25498Y81153D01*
X25265D01*
X25149Y81270D01*
Y81736D01*
X26315Y81153D02*
X25848D01*
X26315Y81620D01*
Y81736D01*
X26198Y81853D01*
X25965D01*
X25848Y81736D01*
X24068Y22683D02*
Y23149D01*
X23952Y23266D01*
X23718D01*
X23602Y23149D01*
Y22683D01*
X23718Y22566D01*
X23952D01*
X23835Y22799D02*
X24068Y22566D01*
X23952D02*
X24068Y22683D01*
X24768Y22566D02*
X24302D01*
X24768Y23033D01*
Y23149D01*
X24651Y23266D01*
X24418D01*
X24302Y23149D01*
X25001D02*
X25118Y23266D01*
X25351D01*
X25468Y23149D01*
Y22683D01*
X25351Y22566D01*
X25118D01*
X25001Y22683D01*
Y23149D01*
X25701D02*
X25818Y23266D01*
X26051D01*
X26168Y23149D01*
Y23033D01*
X26051Y22916D01*
X25934D01*
X26051D01*
X26168Y22799D01*
Y22683D01*
X26051Y22566D01*
X25818D01*
X25701Y22683D01*
X66675Y29464D02*
X65975D01*
Y29814D01*
X66092Y29931D01*
X66325D01*
X66442Y29814D01*
Y29464D01*
Y29697D02*
X66675Y29931D01*
Y30164D02*
Y30397D01*
Y30280D01*
X65975D01*
X66092Y30164D01*
Y30747D02*
X65975Y30864D01*
Y31097D01*
X66092Y31213D01*
X66558D01*
X66675Y31097D01*
Y30864D01*
X66558Y30747D01*
X66092D01*
Y31447D02*
X65975Y31563D01*
Y31797D01*
X66092Y31913D01*
X66558D01*
X66675Y31797D01*
Y31563D01*
X66558Y31447D01*
X66092D01*
X98425Y29337D02*
X97725D01*
Y29687D01*
X97842Y29804D01*
X98075D01*
X98192Y29687D01*
Y29337D01*
Y29570D02*
X98425Y29804D01*
Y30037D02*
Y30270D01*
Y30153D01*
X97725D01*
X97842Y30037D01*
Y30620D02*
X97725Y30737D01*
Y30970D01*
X97842Y31086D01*
X98308D01*
X98425Y30970D01*
Y30737D01*
X98308Y30620D01*
X97842D01*
X98425Y31320D02*
Y31553D01*
Y31436D01*
X97725D01*
X97842Y31320D01*
X61341Y18923D02*
X60641D01*
Y19273D01*
X60758Y19390D01*
X60991D01*
X61108Y19273D01*
Y18923D01*
Y19156D02*
X61341Y19390D01*
Y19623D02*
Y19856D01*
Y19739D01*
X60641D01*
X60758Y19623D01*
Y20206D02*
X60641Y20323D01*
Y20556D01*
X60758Y20672D01*
X61224D01*
X61341Y20556D01*
Y20323D01*
X61224Y20206D01*
X60758D01*
X61341Y21372D02*
Y20906D01*
X60874Y21372D01*
X60758D01*
X60641Y21256D01*
Y21022D01*
X60758Y20906D01*
X26924Y39878D02*
X26224D01*
Y40228D01*
X26341Y40345D01*
X26574D01*
X26691Y40228D01*
Y39878D01*
Y40111D02*
X26924Y40345D01*
Y41044D02*
Y40578D01*
X26457Y41044D01*
X26341D01*
X26224Y40928D01*
Y40694D01*
X26341Y40578D01*
Y41278D02*
X26224Y41394D01*
Y41627D01*
X26341Y41744D01*
X26807D01*
X26924Y41627D01*
Y41394D01*
X26807Y41278D01*
X26341D01*
Y41977D02*
X26224Y42094D01*
Y42327D01*
X26341Y42444D01*
X26807D01*
X26924Y42327D01*
Y42094D01*
X26807Y41977D01*
X26341D01*
X23495Y55118D02*
X22795D01*
Y55468D01*
X22912Y55585D01*
X23145D01*
X23262Y55468D01*
Y55118D01*
Y55351D02*
X23495Y55585D01*
Y56284D02*
Y55818D01*
X23028Y56284D01*
X22912D01*
X22795Y56168D01*
Y55934D01*
X22912Y55818D01*
Y56518D02*
X22795Y56634D01*
Y56867D01*
X22912Y56984D01*
X23378D01*
X23495Y56867D01*
Y56634D01*
X23378Y56518D01*
X22912D01*
X23495Y57217D02*
Y57451D01*
Y57334D01*
X22795D01*
X22912Y57217D01*
X23241Y70612D02*
X22541D01*
Y70962D01*
X22658Y71079D01*
X22891D01*
X23008Y70962D01*
Y70612D01*
Y70845D02*
X23241Y71079D01*
Y71778D02*
Y71312D01*
X22774Y71778D01*
X22658D01*
X22541Y71662D01*
Y71428D01*
X22658Y71312D01*
Y72012D02*
X22541Y72128D01*
Y72361D01*
X22658Y72478D01*
X23124D01*
X23241Y72361D01*
Y72128D01*
X23124Y72012D01*
X22658D01*
X23241Y73178D02*
Y72711D01*
X22774Y73178D01*
X22658D01*
X22541Y73061D01*
Y72828D01*
X22658Y72711D01*
X20848Y17399D02*
Y18099D01*
X21198D01*
X21315Y17982D01*
Y17749D01*
X21198Y17632D01*
X20848D01*
X21081D02*
X21315Y17399D01*
X22014D02*
X21548D01*
X22014Y17866D01*
Y17982D01*
X21898Y18099D01*
X21665D01*
X21548Y17982D01*
X22248D02*
X22364Y18099D01*
X22598D01*
X22714Y17982D01*
Y17516D01*
X22598Y17399D01*
X22364D01*
X22248Y17516D01*
Y17982D01*
X23297Y17399D02*
Y18099D01*
X22948Y17749D01*
X23414D01*
X2286Y58801D02*
Y59501D01*
X2636D01*
X2753Y59384D01*
Y59151D01*
X2636Y59034D01*
X2286D01*
X2519D02*
X2753Y58801D01*
X3452D02*
X2986D01*
X3452Y59268D01*
Y59384D01*
X3336Y59501D01*
X3102D01*
X2986Y59384D01*
X3686D02*
X3802Y59501D01*
X4035D01*
X4152Y59384D01*
Y58918D01*
X4035Y58801D01*
X3802D01*
X3686Y58918D01*
Y59384D01*
X4852Y59501D02*
X4619Y59384D01*
X4385Y59151D01*
Y58918D01*
X4502Y58801D01*
X4735D01*
X4852Y58918D01*
Y59034D01*
X4735Y59151D01*
X4385D01*
X2413Y74930D02*
Y75630D01*
X2763D01*
X2880Y75513D01*
Y75280D01*
X2763Y75163D01*
X2413D01*
X2646D02*
X2880Y74930D01*
X3579D02*
X3113D01*
X3579Y75397D01*
Y75513D01*
X3463Y75630D01*
X3229D01*
X3113Y75513D01*
X3813D02*
X3929Y75630D01*
X4162D01*
X4279Y75513D01*
Y75047D01*
X4162Y74930D01*
X3929D01*
X3813Y75047D01*
Y75513D01*
X4512Y75630D02*
X4979D01*
Y75513D01*
X4512Y75047D01*
Y74930D01*
X28279Y28234D02*
X27579D01*
Y28584D01*
X27696Y28701D01*
X27929D01*
X28046Y28584D01*
Y28234D01*
Y28467D02*
X28279Y28701D01*
Y29400D02*
Y28934D01*
X27812Y29400D01*
X27696D01*
X27579Y29284D01*
Y29050D01*
X27696Y28934D01*
Y29634D02*
X27579Y29750D01*
Y29983D01*
X27696Y30100D01*
X28162D01*
X28279Y29983D01*
Y29750D01*
X28162Y29634D01*
X27696D01*
X28162Y30333D02*
X28279Y30450D01*
Y30683D01*
X28162Y30800D01*
X27696D01*
X27579Y30683D01*
Y30450D01*
X27696Y30333D01*
X27812D01*
X27929Y30450D01*
Y30800D01*
X62103Y93980D02*
X61403D01*
Y94330D01*
X61520Y94447D01*
X61753D01*
X61870Y94330D01*
Y93980D01*
Y94213D02*
X62103Y94447D01*
Y95146D02*
Y94680D01*
X61636Y95146D01*
X61520D01*
X61403Y95030D01*
Y94796D01*
X61520Y94680D01*
X62103Y95380D02*
Y95613D01*
Y95496D01*
X61403D01*
X61520Y95380D01*
Y95963D02*
X61403Y96079D01*
Y96313D01*
X61520Y96429D01*
X61986D01*
X62103Y96313D01*
Y96079D01*
X61986Y95963D01*
X61520D01*
X15961Y37794D02*
X15844Y37911D01*
X15611D01*
X15494Y37794D01*
Y37678D01*
X15611Y37561D01*
X15844D01*
X15961Y37444D01*
Y37328D01*
X15844Y37211D01*
X15611D01*
X15494Y37328D01*
X16194Y37911D02*
Y37211D01*
X16427Y37444D01*
X16660Y37211D01*
Y37911D01*
X17360Y37211D02*
X16894D01*
X17360Y37678D01*
Y37794D01*
X17243Y37911D01*
X17010D01*
X16894Y37794D01*
X17593D02*
X17710Y37911D01*
X17943D01*
X18060Y37794D01*
Y37328D01*
X17943Y37211D01*
X17710D01*
X17593Y37328D01*
Y37794D01*
X18293D02*
X18410Y37911D01*
X18643D01*
X18760Y37794D01*
Y37328D01*
X18643Y37211D01*
X18410D01*
X18293Y37328D01*
Y37794D01*
X16342Y52907D02*
X16225Y53024D01*
X15992D01*
X15875Y52907D01*
Y52791D01*
X15992Y52674D01*
X16225D01*
X16342Y52557D01*
Y52441D01*
X16225Y52324D01*
X15992D01*
X15875Y52441D01*
X16575Y53024D02*
Y52324D01*
X16808Y52557D01*
X17041Y52324D01*
Y53024D01*
X17741Y52324D02*
X17275D01*
X17741Y52791D01*
Y52907D01*
X17624Y53024D01*
X17391D01*
X17275Y52907D01*
X17974D02*
X18091Y53024D01*
X18324D01*
X18441Y52907D01*
Y52441D01*
X18324Y52324D01*
X18091D01*
X17974Y52441D01*
Y52907D01*
X18674Y52324D02*
X18907D01*
X18791D01*
Y53024D01*
X18674Y52907D01*
X54864Y97663D02*
Y98363D01*
X55214D01*
X55331Y98246D01*
Y98013D01*
X55214Y97896D01*
X54864D01*
X55097D02*
X55331Y97663D01*
X56030D02*
X55564D01*
X56030Y98130D01*
Y98246D01*
X55914Y98363D01*
X55680D01*
X55564Y98246D01*
X56264Y97663D02*
X56497D01*
X56380D01*
Y98363D01*
X56264Y98246D01*
X56847Y97663D02*
X57080D01*
X56963D01*
Y98363D01*
X56847Y98246D01*
%TF.MD5,48978db7d74684aa4c14a3f66037e399*%
M02*
