M48
;Layer_Color=9474304
;FILE_FORMAT=4:3
METRIC,LZ
;TYPE=PLATED
T1F00S00C0.350
T2F00S00C0.500
T4F00S00C0.800
T6F00S00C1.000
T7F00S00C1.020
T8F00S00C1.100
T9F00S00C1.300
;TYPE=NON_PLATED
T10F00S00C0.800
T11F00S00C3.200
%
T01
X0082085Y0010584
Y0011684
X0083185
X0084285
Y0012784
X0083185
X0082085
X0083185Y0010584
X0084285
T02
X009134Y0024473
X008634Y0034473
X009134Y0044473
X008134
X007134
X0072898Y003683
X006634Y0034473
X0068183Y0027924
Y0022717
X0072898Y0019177
X006634Y0014473
X006134Y0024473
X005134
X004634Y0034473
X008134Y0024473
X004134
Y0044473
X003134
X0033829Y0052028
X0022098Y0053721
X002634Y0034473
X0026123Y001774
X002634Y0014473
X001634
X000634
X001134Y0024473
X000634Y0034473
Y0054473
X001634
X002634
X0036195Y0054483
X0033421Y005945
X003134Y0064473
X0029591Y0069122
X0027284Y0071939
X002634Y0074473
X0028321Y0075311
X003634Y0074473
X0034698Y0070612
X0037311Y0068072
X0037481Y0080778
X0041281Y0091948
X0044122
X0026641Y0085217
X001634Y0074473
X000634
X001134Y0064473
X002134
X0021971Y0068707
X0043355Y0055978
X0045119Y0053848
X004634Y0054473
X006634
X007634
X008134Y0064473
X007134
X0070739Y0073152
X006634Y0074473
X0063678Y0072607
X0060071Y0073152
Y0074422
Y0075692
X0058928Y0071882
Y0068072
Y0066294
X006134Y0066486
Y0084473
X0056468Y0086661
X0053213Y0080772
X007134Y0084473
X008134
X007634Y0074473
X008634
X009134Y0084473
Y0064473
X008634Y0054473
Y0094473
X007634
X006634
X0058293Y0093853
X004634Y0094473
X003634
X002634
X001634
T04
X0058244Y0023
Y0025
Y0027
Y0029
Y0031
Y0033
Y0035
Y0037
Y0039
Y0041
X0036244
Y0039
Y0037
Y0035
Y0033
Y0031
Y0029
Y0027
Y0025
Y0023
X0014057Y002413
X0009057
T06
X008619Y003181
X009Y0028
X0093372Y0038611
X0080872
X000869Y004119
X00125Y0045
X000869Y005619
X00125Y006
Y0075
X000869Y007119
T07
X0053634Y0058404
X0056174
X0058714
T08
X001238Y0004
X001492
X001746
X002
X002254
X002508
X002762
X0047371Y0050546
X0049911
X0052451
X0054991
X0057531
X0060071
X0044831
X0042291
X0039751
X0037211
X0046609Y0096266
X0049149
X0051689
X0044069
X0041529
X0038989
X0036449
T09
X008619Y002419
X009381Y003181
X001631Y004119
X000869Y004881
X001631Y005619
Y007119
X000869Y006381
Y007881
T10
X0094826Y001274
Y001774
T11
X0005Y0005
X0095
Y0095
X0005
M30
