%TF.GenerationSoftware,Altium Limited,Altium Designer,19.1.6 (110)*%
G04 Layer_Physical_Order=2*
G04 Layer_Color=16711680*
%FSLAX43Y43*%
%MOMM*%
%TF.FileFunction,Copper,L2,Bot,Signal*%
%TF.Part,Single*%
G01*
G75*
%TA.AperFunction,Conductor*%
%ADD31C,0.500*%
%ADD32C,1.000*%
%TA.AperFunction,ComponentPad*%
%ADD33C,1.600*%
%ADD34R,1.600X1.600*%
%ADD35R,1.550X1.550*%
%ADD36C,1.550*%
%ADD37C,1.200*%
%ADD38C,1.400*%
%ADD39C,1.500*%
%ADD40O,1.800X1.150*%
%ADD41C,0.800*%
%ADD42O,2.000X1.400*%
%ADD43C,1.900*%
%TA.AperFunction,WasherPad*%
%ADD44C,1.000*%
%TA.AperFunction,ViaPad*%
%ADD45C,0.850*%
%ADD46C,0.650*%
G36*
X91000Y91018D02*
X100075Y91018D01*
Y9018D01*
X91000Y9018D01*
X69697Y9018D01*
X58250Y20465D01*
X56802D01*
X56753Y20582D01*
X58441Y22270D01*
X58622Y22345D01*
X58779Y22465D01*
X58899Y22622D01*
X58975Y22804D01*
X59000Y23000D01*
X58975Y23196D01*
X58899Y23378D01*
X58779Y23535D01*
X58622Y23655D01*
X58440Y23731D01*
X58244Y23756D01*
X58048Y23731D01*
X57866Y23655D01*
X57709Y23535D01*
X57589Y23378D01*
X57514Y23197D01*
X55800Y21484D01*
X29211D01*
X29041Y21461D01*
X28883Y21396D01*
X28747Y21292D01*
X25659Y18204D01*
X25555Y18068D01*
X25490Y17910D01*
X25467Y17740D01*
X25490Y17570D01*
X25555Y17412D01*
X25659Y17276D01*
X25795Y17172D01*
X25953Y17107D01*
X26123Y17084D01*
X26293Y17107D01*
X26451Y17172D01*
X26586Y17276D01*
X29482Y20172D01*
X35737D01*
X35785Y20055D01*
X24748Y9018D01*
X9000Y9018D01*
X255Y9018D01*
Y91018D01*
X9000Y91018D01*
X9000Y100075D01*
X91000D01*
X91000Y91018D01*
D02*
G37*
%LPC*%
G36*
X46709Y97261D02*
Y96366D01*
X47604D01*
X47583Y96527D01*
X47482Y96770D01*
X47322Y96979D01*
X47113Y97140D01*
X46870Y97240D01*
X46709Y97261D01*
D02*
G37*
G36*
X46509D02*
X46348Y97240D01*
X46105Y97140D01*
X45896Y96979D01*
X45736Y96770D01*
X45635Y96527D01*
X45614Y96366D01*
X46509D01*
Y97261D01*
D02*
G37*
G36*
X52639Y97216D02*
X50739D01*
Y95316D01*
X52639D01*
Y97216D01*
D02*
G37*
G36*
X49149Y97224D02*
X48901Y97192D01*
X48670Y97096D01*
X48471Y96944D01*
X48319Y96745D01*
X48223Y96514D01*
X48191Y96266D01*
X48223Y96018D01*
X48319Y95787D01*
X48471Y95588D01*
X48670Y95436D01*
X48901Y95340D01*
X49149Y95308D01*
X49397Y95340D01*
X49628Y95436D01*
X49827Y95588D01*
X49979Y95787D01*
X50075Y96018D01*
X50107Y96266D01*
X50075Y96514D01*
X49979Y96745D01*
X49827Y96944D01*
X49628Y97096D01*
X49397Y97192D01*
X49149Y97224D01*
D02*
G37*
G36*
X38989D02*
X38741Y97192D01*
X38510Y97096D01*
X38311Y96944D01*
X38159Y96745D01*
X38063Y96514D01*
X38031Y96266D01*
X38063Y96018D01*
X38159Y95787D01*
X38311Y95588D01*
X38510Y95436D01*
X38741Y95340D01*
X38989Y95308D01*
X39237Y95340D01*
X39468Y95436D01*
X39667Y95588D01*
X39819Y95787D01*
X39915Y96018D01*
X39947Y96266D01*
X39915Y96514D01*
X39819Y96745D01*
X39667Y96944D01*
X39468Y97096D01*
X39237Y97192D01*
X38989Y97224D01*
D02*
G37*
G36*
X36449D02*
X36201Y97192D01*
X35970Y97096D01*
X35771Y96944D01*
X35619Y96745D01*
X35523Y96514D01*
X35491Y96266D01*
X35523Y96018D01*
X35619Y95787D01*
X35771Y95588D01*
X35970Y95436D01*
X36201Y95340D01*
X36449Y95308D01*
X36697Y95340D01*
X36928Y95436D01*
X37127Y95588D01*
X37279Y95787D01*
X37375Y96018D01*
X37407Y96266D01*
X37375Y96514D01*
X37279Y96745D01*
X37127Y96944D01*
X36928Y97096D01*
X36697Y97192D01*
X36449Y97224D01*
D02*
G37*
G36*
X47604Y96166D02*
X46709D01*
Y95271D01*
X46870Y95292D01*
X47113Y95393D01*
X47322Y95553D01*
X47482Y95762D01*
X47583Y96005D01*
X47604Y96166D01*
D02*
G37*
G36*
X46509D02*
X45614D01*
X45635Y96005D01*
X45736Y95762D01*
X45896Y95553D01*
X46105Y95393D01*
X46348Y95292D01*
X46509Y95271D01*
Y96166D01*
D02*
G37*
G36*
X44069Y97224D02*
X43821Y97192D01*
X43590Y97096D01*
X43391Y96944D01*
X43239Y96745D01*
X43143Y96514D01*
X43111Y96266D01*
X43143Y96018D01*
X43239Y95787D01*
X43391Y95588D01*
X43590Y95436D01*
X43714Y95385D01*
Y92367D01*
X43708Y92363D01*
X43580Y92172D01*
X43536Y91948D01*
X43580Y91724D01*
X43708Y91533D01*
X43898Y91406D01*
X44122Y91362D01*
X44346Y91406D01*
X44537Y91533D01*
X44664Y91724D01*
X44708Y91948D01*
X44664Y92172D01*
X44537Y92363D01*
X44530Y92367D01*
Y95429D01*
X44548Y95436D01*
X44747Y95588D01*
X44899Y95787D01*
X44995Y96018D01*
X45027Y96266D01*
X44995Y96514D01*
X44899Y96745D01*
X44747Y96944D01*
X44548Y97096D01*
X44317Y97192D01*
X44069Y97224D01*
D02*
G37*
G36*
X41529D02*
X41281Y97192D01*
X41050Y97096D01*
X40851Y96944D01*
X40699Y96745D01*
X40603Y96514D01*
X40571Y96266D01*
X40603Y96018D01*
X40699Y95787D01*
X40851Y95588D01*
X40873Y95572D01*
Y92367D01*
X40866Y92363D01*
X40739Y92172D01*
X40695Y91948D01*
X40739Y91724D01*
X40866Y91533D01*
X41057Y91406D01*
X41281Y91362D01*
X41505Y91406D01*
X41696Y91533D01*
X41823Y91724D01*
X41867Y91948D01*
X41823Y92172D01*
X41696Y92363D01*
X41689Y92367D01*
Y95329D01*
X41777Y95340D01*
X42008Y95436D01*
X42207Y95588D01*
X42359Y95787D01*
X42455Y96018D01*
X42487Y96266D01*
X42455Y96514D01*
X42359Y96745D01*
X42207Y96944D01*
X42008Y97096D01*
X41777Y97192D01*
X41529Y97224D01*
D02*
G37*
G36*
X56468Y87247D02*
X56244Y87203D01*
X56053Y87076D01*
X56049Y87069D01*
X47130D01*
X47130Y87069D01*
X46974Y87038D01*
X46842Y86949D01*
X46842Y86949D01*
X29599Y69706D01*
X29591Y69708D01*
X29367Y69663D01*
X29176Y69536D01*
X29049Y69346D01*
X29005Y69122D01*
X29049Y68897D01*
X29176Y68707D01*
X29367Y68580D01*
X29591Y68535D01*
X29815Y68580D01*
X30006Y68707D01*
X30133Y68897D01*
X30177Y69122D01*
X30176Y69129D01*
X47299Y86253D01*
X56049D01*
X56053Y86246D01*
X56244Y86119D01*
X56468Y86075D01*
X56692Y86119D01*
X56883Y86246D01*
X57010Y86437D01*
X57054Y86661D01*
X57010Y86885D01*
X56883Y87076D01*
X56692Y87203D01*
X56468Y87247D01*
D02*
G37*
G36*
X26641Y85803D02*
X26417Y85759D01*
X26226Y85632D01*
X26099Y85441D01*
X26055Y85217D01*
X26099Y84993D01*
X26226Y84802D01*
X26417Y84675D01*
X26641Y84631D01*
X26865Y84675D01*
X27055Y84802D01*
X27060Y84809D01*
X29549D01*
X33869Y80490D01*
X34001Y80401D01*
X34157Y80370D01*
X34157Y80370D01*
X37062D01*
X37066Y80363D01*
X37256Y80236D01*
X37481Y80192D01*
X37705Y80236D01*
X37895Y80363D01*
X38022Y80554D01*
X38067Y80778D01*
X38022Y81002D01*
X37895Y81193D01*
X37705Y81320D01*
X37481Y81364D01*
X37256Y81320D01*
X37066Y81193D01*
X37062Y81186D01*
X34326D01*
X30006Y85505D01*
X29874Y85594D01*
X29718Y85625D01*
X29718Y85625D01*
X27060D01*
X27055Y85632D01*
X26865Y85759D01*
X26641Y85803D01*
D02*
G37*
G36*
X8690Y79919D02*
X8403Y79882D01*
X8135Y79771D01*
X7905Y79595D01*
X7729Y79365D01*
X7618Y79097D01*
X7581Y78810D01*
X7618Y78523D01*
X7729Y78255D01*
X7905Y78025D01*
X8135Y77849D01*
X8403Y77738D01*
X8690Y77701D01*
X8977Y77738D01*
X9245Y77849D01*
X9475Y78025D01*
X9651Y78255D01*
X9762Y78523D01*
X9799Y78810D01*
X9762Y79097D01*
X9651Y79365D01*
X9475Y79595D01*
X9245Y79771D01*
X8977Y79882D01*
X8690Y79919D01*
D02*
G37*
G36*
X61201Y77370D02*
X61201Y77370D01*
X58569D01*
X58569Y77370D01*
X58413Y77339D01*
X58281Y77250D01*
X55968Y74938D01*
X55880Y74806D01*
X55849Y74650D01*
X55849Y74650D01*
Y61506D01*
X53675Y59332D01*
X53634Y59337D01*
X53392Y59305D01*
X53167Y59212D01*
X52974Y59064D01*
X52826Y58870D01*
X52732Y58645D01*
X52701Y58404D01*
X52732Y58163D01*
X52826Y57938D01*
X52974Y57744D01*
X53167Y57596D01*
X53226Y57572D01*
Y56763D01*
X53226Y56763D01*
X53257Y56607D01*
X53345Y56475D01*
X53383Y56437D01*
Y51096D01*
X53256Y51057D01*
X53129Y51224D01*
X52930Y51376D01*
X52699Y51472D01*
X52451Y51504D01*
X52203Y51472D01*
X51972Y51376D01*
X51773Y51224D01*
X51621Y51025D01*
X51525Y50794D01*
X51493Y50546D01*
X51525Y50298D01*
X51621Y50067D01*
X51773Y49868D01*
X51972Y49716D01*
X52203Y49620D01*
X52451Y49588D01*
X52699Y49620D01*
X52930Y49716D01*
X53129Y49868D01*
X53256Y50035D01*
X53383Y49996D01*
Y49079D01*
X53383Y49079D01*
X53414Y48923D01*
X53503Y48791D01*
X54964Y47329D01*
Y27872D01*
X54964Y27872D01*
X54995Y27716D01*
X55084Y27584D01*
X57508Y25159D01*
X57488Y25000D01*
X57513Y24804D01*
X57589Y24622D01*
X57709Y24465D01*
X57866Y24345D01*
X58048Y24269D01*
X58244Y24244D01*
X58440Y24269D01*
X58622Y24345D01*
X58779Y24465D01*
X58899Y24622D01*
X58975Y24804D01*
X59000Y25000D01*
X58975Y25196D01*
X58899Y25378D01*
X58779Y25535D01*
X58622Y25655D01*
X58440Y25731D01*
X58244Y25756D01*
X58085Y25736D01*
X57346Y26475D01*
X57395Y26592D01*
X57612D01*
X57709Y26465D01*
X57866Y26345D01*
X58048Y26269D01*
X58244Y26244D01*
X58440Y26269D01*
X58622Y26345D01*
X58779Y26465D01*
X58899Y26622D01*
X58975Y26804D01*
X59000Y27000D01*
X58975Y27196D01*
X58899Y27378D01*
X58779Y27535D01*
X58622Y27655D01*
X58440Y27731D01*
X58244Y27756D01*
X58048Y27731D01*
X57866Y27655D01*
X57709Y27535D01*
X57612Y27408D01*
X57332D01*
X56599Y28141D01*
Y49910D01*
X56726Y49953D01*
X56818Y49833D01*
X57027Y49673D01*
X57270Y49572D01*
X57431Y49551D01*
Y50546D01*
Y51541D01*
X57270Y51520D01*
X57027Y51419D01*
X56818Y51259D01*
X56726Y51139D01*
X56599Y51182D01*
Y57579D01*
X56640Y57596D01*
X56833Y57744D01*
X56982Y57938D01*
X57075Y58163D01*
X57107Y58404D01*
X57075Y58645D01*
X56982Y58870D01*
X56833Y59064D01*
X56640Y59212D01*
X56581Y59236D01*
Y60131D01*
X57438Y60988D01*
X57438Y60988D01*
X57527Y61121D01*
X57558Y61277D01*
Y74380D01*
X58462Y75284D01*
X59652D01*
X59656Y75277D01*
X59847Y75150D01*
X59991Y75122D01*
Y74992D01*
X59847Y74964D01*
X59656Y74837D01*
X59529Y74646D01*
X59485Y74422D01*
X59529Y74198D01*
X59656Y74007D01*
X59847Y73880D01*
X59991Y73852D01*
Y73722D01*
X59847Y73694D01*
X59656Y73567D01*
X59529Y73376D01*
X59485Y73152D01*
X59529Y72928D01*
X59656Y72737D01*
X59847Y72610D01*
X60071Y72566D01*
X60295Y72610D01*
X60486Y72737D01*
X60490Y72744D01*
X61814D01*
X61814Y72744D01*
X61970Y72775D01*
X62102Y72864D01*
X62391Y73152D01*
X63116D01*
X63168Y73025D01*
X60876Y70733D01*
X60772Y70597D01*
X60707Y70439D01*
X60684Y70270D01*
Y66486D01*
X60707Y66317D01*
X60772Y66159D01*
X60876Y66023D01*
X61012Y65919D01*
X61170Y65853D01*
X61340Y65831D01*
X61510Y65853D01*
X61668Y65919D01*
X61804Y66023D01*
X61908Y66159D01*
X61973Y66317D01*
X61996Y66486D01*
Y69998D01*
X64141Y72144D01*
X64245Y72280D01*
X64311Y72438D01*
X64333Y72607D01*
X64311Y72777D01*
X64245Y72935D01*
X64177Y73025D01*
X64236Y73152D01*
X70068D01*
X70174Y73046D01*
X70197Y72928D01*
X70324Y72737D01*
X70515Y72610D01*
X70739Y72566D01*
X70963Y72610D01*
X71154Y72737D01*
X71281Y72928D01*
X71325Y73152D01*
X71281Y73376D01*
X71154Y73567D01*
X70963Y73694D01*
X70739Y73738D01*
X70652Y73721D01*
X70525Y73848D01*
X70393Y73937D01*
X70236Y73968D01*
X70236Y73968D01*
X62222D01*
X62066Y73937D01*
X61933Y73848D01*
X61933Y73848D01*
X61645Y73560D01*
X60490D01*
X60486Y73567D01*
X60295Y73694D01*
X60151Y73722D01*
Y73852D01*
X60295Y73880D01*
X60486Y74007D01*
X60490Y74014D01*
X61272D01*
X61272Y74014D01*
X61428Y74045D01*
X61561Y74134D01*
X62137Y74710D01*
X62226Y74843D01*
X62257Y74999D01*
X62257Y74999D01*
Y76314D01*
X62226Y76470D01*
X62137Y76603D01*
X62137Y76603D01*
X61490Y77250D01*
X61357Y77339D01*
X61331Y77344D01*
X61201Y77370D01*
D02*
G37*
G36*
X12600Y75995D02*
Y75100D01*
X13495D01*
X13474Y75261D01*
X13373Y75504D01*
X13213Y75713D01*
X13004Y75873D01*
X12761Y75974D01*
X12600Y75995D01*
D02*
G37*
G36*
X12400D02*
X12239Y75974D01*
X11996Y75873D01*
X11787Y75713D01*
X11627Y75504D01*
X11526Y75261D01*
X11505Y75100D01*
X12400D01*
Y75995D01*
D02*
G37*
G36*
X13495Y74900D02*
X12600D01*
Y74005D01*
X12761Y74026D01*
X13004Y74127D01*
X13213Y74287D01*
X13373Y74496D01*
X13474Y74739D01*
X13495Y74900D01*
D02*
G37*
G36*
X12400D02*
X11505D01*
X11526Y74739D01*
X11627Y74496D01*
X11787Y74287D01*
X11996Y74127D01*
X12239Y74026D01*
X12400Y74005D01*
Y74900D01*
D02*
G37*
G36*
X28321Y75897D02*
X28097Y75853D01*
X27906Y75726D01*
X27779Y75535D01*
X27735Y75311D01*
X27779Y75087D01*
X27906Y74896D01*
X27913Y74892D01*
Y72261D01*
X27786Y72223D01*
X27699Y72354D01*
X27508Y72481D01*
X27284Y72526D01*
X27060Y72481D01*
X26869Y72354D01*
X26865Y72347D01*
X25203D01*
X25047Y72316D01*
X24915Y72228D01*
X24915Y72228D01*
X21979Y69292D01*
X21971Y69293D01*
X21747Y69249D01*
X21556Y69122D01*
X21429Y68931D01*
X21385Y68707D01*
X21429Y68483D01*
X21556Y68292D01*
X21747Y68165D01*
X21971Y68121D01*
X22195Y68165D01*
X22386Y68292D01*
X22513Y68483D01*
X22557Y68707D01*
X22556Y68715D01*
X25372Y71531D01*
X26865D01*
X26869Y71525D01*
X27060Y71398D01*
X27284Y71353D01*
X27508Y71398D01*
X27699Y71525D01*
X27786Y71656D01*
X27913Y71617D01*
Y67987D01*
X24604Y64677D01*
X24515Y64545D01*
X24484Y64389D01*
X24484Y64389D01*
Y56684D01*
X22106Y54306D01*
X22098Y54307D01*
X21874Y54263D01*
X21683Y54136D01*
X21556Y53945D01*
X21512Y53721D01*
X21556Y53497D01*
X21683Y53306D01*
X21874Y53179D01*
X22098Y53135D01*
X22322Y53179D01*
X22513Y53306D01*
X22640Y53497D01*
X22684Y53721D01*
X22683Y53729D01*
X25180Y56227D01*
X25269Y56359D01*
X25300Y56515D01*
X25300Y56515D01*
Y64220D01*
X28609Y67530D01*
X28609Y67530D01*
X28698Y67662D01*
X28729Y67818D01*
Y74892D01*
X28736Y74896D01*
X28863Y75087D01*
X28907Y75311D01*
X28863Y75535D01*
X28736Y75726D01*
X28545Y75853D01*
X28321Y75897D01*
D02*
G37*
G36*
X8690Y72148D02*
X8442Y72116D01*
X8211Y72020D01*
X8012Y71868D01*
X7860Y71669D01*
X7764Y71438D01*
X7732Y71190D01*
X7764Y70942D01*
X7860Y70711D01*
X8012Y70512D01*
X8211Y70360D01*
X8442Y70264D01*
X8690Y70232D01*
X8938Y70264D01*
X9169Y70360D01*
X9368Y70512D01*
X9520Y70711D01*
X9616Y70942D01*
X9648Y71190D01*
X9616Y71438D01*
X9520Y71669D01*
X9368Y71868D01*
X9169Y72020D01*
X8938Y72116D01*
X8690Y72148D01*
D02*
G37*
G36*
X16310Y72299D02*
X16023Y72262D01*
X15755Y72151D01*
X15525Y71975D01*
X15349Y71745D01*
X15238Y71477D01*
X15201Y71190D01*
X15238Y70903D01*
X15349Y70635D01*
X15525Y70405D01*
X15755Y70229D01*
X16023Y70118D01*
X16310Y70081D01*
X16597Y70118D01*
X16865Y70229D01*
X17095Y70405D01*
X17271Y70635D01*
X17382Y70903D01*
X17419Y71190D01*
X17382Y71477D01*
X17271Y71745D01*
X17095Y71975D01*
X16865Y72151D01*
X16597Y72262D01*
X16310Y72299D01*
D02*
G37*
G36*
X58928Y72468D02*
X58704Y72424D01*
X58513Y72297D01*
X58386Y72106D01*
X58342Y71882D01*
X58386Y71658D01*
X58513Y71467D01*
X58520Y71463D01*
Y68491D01*
X58513Y68487D01*
X58386Y68296D01*
X58342Y68072D01*
X58386Y67848D01*
X58513Y67657D01*
X58704Y67530D01*
X58928Y67486D01*
X59152Y67530D01*
X59343Y67657D01*
X59470Y67848D01*
X59514Y68072D01*
X59470Y68296D01*
X59343Y68487D01*
X59336Y68491D01*
Y71463D01*
X59343Y71467D01*
X59470Y71658D01*
X59514Y71882D01*
X59470Y72106D01*
X59343Y72297D01*
X59152Y72424D01*
X58928Y72468D01*
D02*
G37*
G36*
X34698Y71268D02*
X34528Y71245D01*
X34370Y71180D01*
X34234Y71076D01*
X34130Y70940D01*
X34065Y70782D01*
X34042Y70612D01*
X34065Y70442D01*
X34130Y70284D01*
X34234Y70148D01*
X35789Y68594D01*
X35925Y68489D01*
X35996Y68460D01*
X36847Y67608D01*
X36983Y67504D01*
X37141Y67439D01*
X37311Y67416D01*
X37481Y67439D01*
X37639Y67504D01*
X37775Y67608D01*
X37879Y67744D01*
X37944Y67902D01*
X37967Y68072D01*
X37944Y68242D01*
X37879Y68400D01*
X37775Y68536D01*
X36789Y69521D01*
X36654Y69625D01*
X36583Y69654D01*
X35162Y71076D01*
X35026Y71180D01*
X34868Y71245D01*
X34698Y71268D01*
D02*
G37*
G36*
X58293Y94439D02*
X58069Y94395D01*
X57878Y94268D01*
X57751Y94077D01*
X57707Y93853D01*
X57751Y93629D01*
X57878Y93438D01*
X58069Y93311D01*
X58183Y93289D01*
X72617Y78854D01*
Y71162D01*
X66887Y65432D01*
X60367D01*
X59513Y66286D01*
X59514Y66294D01*
X59470Y66518D01*
X59343Y66709D01*
X59152Y66836D01*
X58928Y66880D01*
X58704Y66836D01*
X58513Y66709D01*
X58386Y66518D01*
X58342Y66294D01*
X58386Y66070D01*
X58513Y65879D01*
X58704Y65752D01*
X58928Y65708D01*
X58936Y65709D01*
X59910Y64736D01*
X59910Y64736D01*
X60042Y64647D01*
X60198Y64616D01*
X60198Y64616D01*
X67056D01*
X67056Y64616D01*
X67212Y64647D01*
X67344Y64736D01*
X73313Y70705D01*
X73402Y70837D01*
X73433Y70993D01*
X73433Y70993D01*
Y79023D01*
X73402Y79179D01*
X73313Y79311D01*
X73313Y79311D01*
X58861Y93763D01*
X58879Y93853D01*
X58835Y94077D01*
X58832Y94082D01*
X58817Y94156D01*
X58728Y94288D01*
X58596Y94377D01*
X58522Y94392D01*
X58517Y94395D01*
X58293Y94439D01*
D02*
G37*
G36*
X8690Y64919D02*
X8403Y64882D01*
X8135Y64771D01*
X7905Y64595D01*
X7729Y64365D01*
X7618Y64097D01*
X7581Y63810D01*
X7618Y63523D01*
X7729Y63255D01*
X7905Y63025D01*
X8135Y62849D01*
X8403Y62738D01*
X8690Y62701D01*
X8977Y62738D01*
X9245Y62849D01*
X9475Y63025D01*
X9651Y63255D01*
X9762Y63523D01*
X9799Y63810D01*
X9762Y64097D01*
X9651Y64365D01*
X9475Y64595D01*
X9245Y64771D01*
X8977Y64882D01*
X8690Y64919D01*
D02*
G37*
G36*
X12600Y60995D02*
Y60100D01*
X13495D01*
X13474Y60261D01*
X13373Y60504D01*
X13213Y60713D01*
X13004Y60874D01*
X12761Y60974D01*
X12600Y60995D01*
D02*
G37*
G36*
X12400D02*
X12239Y60974D01*
X11996Y60874D01*
X11787Y60713D01*
X11627Y60504D01*
X11526Y60261D01*
X11505Y60100D01*
X12400D01*
Y60995D01*
D02*
G37*
G36*
X53213Y81358D02*
X52989Y81314D01*
X52798Y81187D01*
X52671Y80996D01*
X52627Y80772D01*
X52671Y80548D01*
X52798Y80357D01*
X52805Y80353D01*
Y79411D01*
X33429Y60035D01*
X33421Y60036D01*
X33196Y59992D01*
X33006Y59865D01*
X32879Y59674D01*
X32834Y59450D01*
X32879Y59226D01*
X33006Y59035D01*
X33196Y58908D01*
X33421Y58864D01*
X33645Y58908D01*
X33835Y59035D01*
X33962Y59226D01*
X34007Y59450D01*
X34005Y59458D01*
X53501Y78954D01*
X53501Y78954D01*
X53590Y79086D01*
X53621Y79242D01*
X53621Y79242D01*
Y80353D01*
X53628Y80357D01*
X53755Y80548D01*
X53799Y80772D01*
X53755Y80996D01*
X53628Y81187D01*
X53437Y81314D01*
X53213Y81358D01*
D02*
G37*
G36*
X13495Y59900D02*
X12600D01*
Y59005D01*
X12761Y59026D01*
X13004Y59126D01*
X13213Y59287D01*
X13373Y59496D01*
X13474Y59739D01*
X13495Y59900D01*
D02*
G37*
G36*
X12400D02*
X11505D01*
X11526Y59739D01*
X11627Y59496D01*
X11787Y59287D01*
X11996Y59126D01*
X12239Y59026D01*
X12400Y59005D01*
Y59900D01*
D02*
G37*
G36*
X59689Y59379D02*
X58814D01*
Y58504D01*
X59689D01*
Y59379D01*
D02*
G37*
G36*
X58614D02*
X57739D01*
Y58504D01*
X58614D01*
Y59379D01*
D02*
G37*
G36*
X58714Y58404D02*
D01*
D01*
D01*
D02*
G37*
G36*
X59689Y58304D02*
X58814D01*
Y57429D01*
X59689D01*
Y58304D01*
D02*
G37*
G36*
X58614D02*
X57739D01*
Y57429D01*
X58614D01*
Y58304D01*
D02*
G37*
G36*
X8690Y57148D02*
X8442Y57116D01*
X8211Y57020D01*
X8012Y56868D01*
X7860Y56669D01*
X7764Y56438D01*
X7732Y56190D01*
X7764Y55942D01*
X7860Y55711D01*
X8012Y55512D01*
X8211Y55360D01*
X8442Y55264D01*
X8690Y55232D01*
X8938Y55264D01*
X9169Y55360D01*
X9368Y55512D01*
X9520Y55711D01*
X9616Y55942D01*
X9648Y56190D01*
X9616Y56438D01*
X9520Y56669D01*
X9368Y56868D01*
X9169Y57020D01*
X8938Y57116D01*
X8690Y57148D01*
D02*
G37*
G36*
X16310Y57299D02*
X16023Y57262D01*
X15755Y57151D01*
X15525Y56975D01*
X15349Y56745D01*
X15238Y56477D01*
X15201Y56190D01*
X15238Y55903D01*
X15349Y55635D01*
X15525Y55405D01*
X15755Y55229D01*
X16023Y55118D01*
X16310Y55081D01*
X16597Y55118D01*
X16865Y55229D01*
X17095Y55405D01*
X17271Y55635D01*
X17382Y55903D01*
X17419Y56190D01*
X17382Y56477D01*
X17271Y56745D01*
X17095Y56975D01*
X16865Y57151D01*
X16597Y57262D01*
X16310Y57299D01*
D02*
G37*
G36*
X36195Y55069D02*
X35971Y55025D01*
X35780Y54898D01*
X35653Y54707D01*
X35609Y54483D01*
X35610Y54475D01*
X33730Y52595D01*
X33604Y52570D01*
X33414Y52443D01*
X33287Y52252D01*
X33242Y52028D01*
X33287Y51804D01*
X33414Y51614D01*
X33604Y51486D01*
X33829Y51442D01*
X34053Y51486D01*
X34243Y51614D01*
X34370Y51804D01*
X34415Y52028D01*
X34399Y52110D01*
X36187Y53898D01*
X36195Y53897D01*
X36419Y53941D01*
X36610Y54068D01*
X36737Y54259D01*
X36781Y54483D01*
X36737Y54707D01*
X36610Y54898D01*
X36419Y55025D01*
X36195Y55069D01*
D02*
G37*
G36*
X43355Y56564D02*
X43131Y56520D01*
X42940Y56392D01*
X42813Y56202D01*
X42769Y55978D01*
X42813Y55754D01*
X42940Y55563D01*
X43131Y55436D01*
X43355Y55392D01*
X43363Y55393D01*
X44620Y54136D01*
X44578Y54072D01*
X44533Y53848D01*
X44578Y53624D01*
X44705Y53433D01*
X44895Y53306D01*
X45119Y53262D01*
X45344Y53306D01*
X45534Y53433D01*
X45661Y53624D01*
X45706Y53848D01*
X45661Y54072D01*
X45534Y54263D01*
X45497Y54287D01*
X45477Y54389D01*
X45389Y54521D01*
X43940Y55970D01*
X43941Y55978D01*
X43897Y56202D01*
X43770Y56392D01*
X43579Y56520D01*
X43355Y56564D01*
D02*
G37*
G36*
X61071Y51546D02*
X60171D01*
Y50646D01*
X61071D01*
Y51546D01*
D02*
G37*
G36*
X57631Y51541D02*
Y50646D01*
X58526D01*
X58505Y50807D01*
X58404Y51050D01*
X58244Y51259D01*
X58035Y51419D01*
X57792Y51520D01*
X57631Y51541D01*
D02*
G37*
G36*
X59971Y51546D02*
X59071D01*
Y50646D01*
X59971D01*
Y51546D01*
D02*
G37*
G36*
X49911Y51504D02*
X49663Y51472D01*
X49432Y51376D01*
X49233Y51224D01*
X49081Y51025D01*
X48985Y50794D01*
X48953Y50546D01*
X48985Y50298D01*
X49081Y50067D01*
X49233Y49868D01*
X49432Y49716D01*
X49663Y49620D01*
X49911Y49588D01*
X50159Y49620D01*
X50390Y49716D01*
X50589Y49868D01*
X50741Y50067D01*
X50837Y50298D01*
X50869Y50546D01*
X50837Y50794D01*
X50741Y51025D01*
X50589Y51224D01*
X50390Y51376D01*
X50159Y51472D01*
X49911Y51504D01*
D02*
G37*
G36*
X47371D02*
X47123Y51472D01*
X46892Y51376D01*
X46693Y51224D01*
X46541Y51025D01*
X46445Y50794D01*
X46413Y50546D01*
X46445Y50298D01*
X46541Y50067D01*
X46693Y49868D01*
X46892Y49716D01*
X47123Y49620D01*
X47371Y49588D01*
X47619Y49620D01*
X47850Y49716D01*
X48049Y49868D01*
X48201Y50067D01*
X48297Y50298D01*
X48329Y50546D01*
X48297Y50794D01*
X48201Y51025D01*
X48049Y51224D01*
X47850Y51376D01*
X47619Y51472D01*
X47371Y51504D01*
D02*
G37*
G36*
X44831D02*
X44583Y51472D01*
X44352Y51376D01*
X44153Y51224D01*
X44001Y51025D01*
X43905Y50794D01*
X43873Y50546D01*
X43905Y50298D01*
X44001Y50067D01*
X44153Y49868D01*
X44352Y49716D01*
X44583Y49620D01*
X44831Y49588D01*
X45079Y49620D01*
X45310Y49716D01*
X45509Y49868D01*
X45661Y50067D01*
X45757Y50298D01*
X45789Y50546D01*
X45757Y50794D01*
X45661Y51025D01*
X45509Y51224D01*
X45310Y51376D01*
X45079Y51472D01*
X44831Y51504D01*
D02*
G37*
G36*
X39751D02*
X39503Y51472D01*
X39272Y51376D01*
X39073Y51224D01*
X38921Y51025D01*
X38825Y50794D01*
X38793Y50546D01*
X38825Y50298D01*
X38921Y50067D01*
X39073Y49868D01*
X39272Y49716D01*
X39503Y49620D01*
X39751Y49588D01*
X39999Y49620D01*
X40230Y49716D01*
X40429Y49868D01*
X40581Y50067D01*
X40677Y50298D01*
X40709Y50546D01*
X40677Y50794D01*
X40581Y51025D01*
X40429Y51224D01*
X40230Y51376D01*
X39999Y51472D01*
X39751Y51504D01*
D02*
G37*
G36*
X37211D02*
X36963Y51472D01*
X36732Y51376D01*
X36533Y51224D01*
X36381Y51025D01*
X36285Y50794D01*
X36253Y50546D01*
X36285Y50298D01*
X36381Y50067D01*
X36533Y49868D01*
X36732Y49716D01*
X36963Y49620D01*
X37211Y49588D01*
X37459Y49620D01*
X37690Y49716D01*
X37889Y49868D01*
X38041Y50067D01*
X38137Y50298D01*
X38169Y50546D01*
X38137Y50794D01*
X38041Y51025D01*
X37889Y51224D01*
X37690Y51376D01*
X37459Y51472D01*
X37211Y51504D01*
D02*
G37*
G36*
X58526Y50446D02*
X57631D01*
Y49551D01*
X57792Y49572D01*
X58035Y49673D01*
X58244Y49833D01*
X58404Y50042D01*
X58505Y50285D01*
X58526Y50446D01*
D02*
G37*
G36*
X61071D02*
X60171D01*
Y49546D01*
X61071D01*
Y50446D01*
D02*
G37*
G36*
X59971D02*
X59071D01*
Y49546D01*
X59971D01*
Y50446D01*
D02*
G37*
G36*
X8690Y49919D02*
X8403Y49882D01*
X8135Y49771D01*
X7905Y49595D01*
X7729Y49365D01*
X7618Y49097D01*
X7581Y48810D01*
X7618Y48523D01*
X7729Y48255D01*
X7905Y48025D01*
X8135Y47849D01*
X8403Y47738D01*
X8690Y47701D01*
X8977Y47738D01*
X9245Y47849D01*
X9475Y48025D01*
X9651Y48255D01*
X9762Y48523D01*
X9799Y48810D01*
X9762Y49097D01*
X9651Y49365D01*
X9475Y49595D01*
X9245Y49771D01*
X8977Y49882D01*
X8690Y49919D01*
D02*
G37*
G36*
X12600Y45995D02*
Y45100D01*
X13495D01*
X13474Y45261D01*
X13373Y45504D01*
X13213Y45713D01*
X13004Y45873D01*
X12761Y45974D01*
X12600Y45995D01*
D02*
G37*
G36*
X12400D02*
X12239Y45974D01*
X11996Y45873D01*
X11787Y45713D01*
X11627Y45504D01*
X11526Y45261D01*
X11505Y45100D01*
X12400D01*
Y45995D01*
D02*
G37*
G36*
X13495Y44900D02*
X12600D01*
Y44005D01*
X12761Y44026D01*
X13004Y44126D01*
X13213Y44287D01*
X13373Y44496D01*
X13474Y44739D01*
X13495Y44900D01*
D02*
G37*
G36*
X12400D02*
X11505D01*
X11526Y44739D01*
X11627Y44496D01*
X11787Y44287D01*
X11996Y44126D01*
X12239Y44026D01*
X12400Y44005D01*
Y44900D01*
D02*
G37*
G36*
X58344Y41794D02*
Y41100D01*
X59038D01*
X59023Y41209D01*
X58943Y41403D01*
X58815Y41571D01*
X58647Y41699D01*
X58453Y41779D01*
X58344Y41794D01*
D02*
G37*
G36*
X58144Y41794D02*
X58035Y41779D01*
X57841Y41699D01*
X57673Y41571D01*
X57545Y41403D01*
X57465Y41209D01*
X57450Y41100D01*
X58144D01*
Y41794D01*
D02*
G37*
G36*
X36244Y41756D02*
X36048Y41731D01*
X35866Y41655D01*
X35709Y41535D01*
X35589Y41378D01*
X35513Y41196D01*
X35488Y41000D01*
X35513Y40804D01*
X35589Y40622D01*
X35709Y40465D01*
X35866Y40345D01*
X36048Y40269D01*
X36244Y40244D01*
X36440Y40269D01*
X36622Y40345D01*
X36779Y40465D01*
X36899Y40622D01*
X36975Y40804D01*
X37000Y41000D01*
X36975Y41196D01*
X36899Y41378D01*
X36779Y41535D01*
X36622Y41655D01*
X36440Y41731D01*
X36244Y41756D01*
D02*
G37*
G36*
X8690Y42148D02*
X8442Y42116D01*
X8211Y42020D01*
X8012Y41868D01*
X7860Y41669D01*
X7764Y41438D01*
X7732Y41190D01*
X7764Y40942D01*
X7860Y40711D01*
X8012Y40512D01*
X8211Y40360D01*
X8442Y40264D01*
X8690Y40232D01*
X8938Y40264D01*
X9169Y40360D01*
X9368Y40512D01*
X9520Y40711D01*
X9616Y40942D01*
X9648Y41190D01*
X9616Y41438D01*
X9520Y41669D01*
X9368Y41868D01*
X9169Y42020D01*
X8938Y42116D01*
X8690Y42148D01*
D02*
G37*
G36*
X58144Y40900D02*
X57450D01*
X57465Y40791D01*
X57545Y40597D01*
X57673Y40429D01*
X57841Y40301D01*
X58035Y40221D01*
X58144Y40206D01*
Y40900D01*
D02*
G37*
G36*
X59038D02*
X58344D01*
Y40206D01*
X58453Y40221D01*
X58647Y40301D01*
X58815Y40429D01*
X58943Y40597D01*
X59023Y40791D01*
X59038Y40900D01*
D02*
G37*
G36*
X16310Y42299D02*
X16023Y42262D01*
X15755Y42151D01*
X15525Y41975D01*
X15349Y41745D01*
X15238Y41477D01*
X15201Y41190D01*
X15238Y40903D01*
X15349Y40635D01*
X15525Y40405D01*
X15755Y40229D01*
X16023Y40118D01*
X16310Y40081D01*
X16597Y40118D01*
X16865Y40229D01*
X17095Y40405D01*
X17271Y40635D01*
X17382Y40903D01*
X17419Y41190D01*
X17382Y41477D01*
X17271Y41745D01*
X17095Y41975D01*
X16865Y42151D01*
X16597Y42262D01*
X16310Y42299D01*
D02*
G37*
G36*
X93472Y39556D02*
Y38711D01*
X94317D01*
X94298Y38859D01*
X94202Y39090D01*
X94050Y39289D01*
X93851Y39441D01*
X93620Y39537D01*
X93472Y39556D01*
D02*
G37*
G36*
X93272Y39556D02*
X93124Y39537D01*
X92893Y39441D01*
X92694Y39289D01*
X92542Y39090D01*
X92446Y38859D01*
X92427Y38711D01*
X93272D01*
Y39556D01*
D02*
G37*
G36*
X58244Y39756D02*
X58048Y39731D01*
X57866Y39655D01*
X57709Y39535D01*
X57589Y39378D01*
X57513Y39196D01*
X57488Y39000D01*
X57513Y38804D01*
X57589Y38622D01*
X57709Y38465D01*
X57866Y38345D01*
X58048Y38269D01*
X58244Y38244D01*
X58440Y38269D01*
X58622Y38345D01*
X58779Y38465D01*
X58899Y38622D01*
X58975Y38804D01*
X59000Y39000D01*
X58975Y39196D01*
X58899Y39378D01*
X58779Y39535D01*
X58622Y39655D01*
X58440Y39731D01*
X58244Y39756D01*
D02*
G37*
G36*
X36244D02*
X36048Y39731D01*
X35866Y39655D01*
X35709Y39535D01*
X35589Y39378D01*
X35513Y39196D01*
X35488Y39000D01*
X35513Y38804D01*
X35589Y38622D01*
X35709Y38465D01*
X35866Y38345D01*
X36048Y38269D01*
X36244Y38244D01*
X36440Y38269D01*
X36622Y38345D01*
X36779Y38465D01*
X36899Y38622D01*
X36975Y38804D01*
X37000Y39000D01*
X36975Y39196D01*
X36899Y39378D01*
X36779Y39535D01*
X36622Y39655D01*
X36440Y39731D01*
X36244Y39756D01*
D02*
G37*
G36*
X42291Y51504D02*
X42043Y51472D01*
X41812Y51376D01*
X41613Y51224D01*
X41461Y51025D01*
X41365Y50794D01*
X41333Y50546D01*
X41365Y50298D01*
X41461Y50067D01*
X41613Y49868D01*
X41812Y49716D01*
X41883Y49687D01*
Y43216D01*
X36403Y37736D01*
X36244Y37756D01*
X36048Y37731D01*
X35866Y37655D01*
X35709Y37535D01*
X35589Y37378D01*
X35513Y37196D01*
X35488Y37000D01*
X35513Y36804D01*
X35589Y36622D01*
X35709Y36465D01*
X35866Y36345D01*
X36048Y36269D01*
X36244Y36244D01*
X36440Y36269D01*
X36622Y36345D01*
X36779Y36465D01*
X36899Y36622D01*
X36975Y36804D01*
X37000Y37000D01*
X36980Y37159D01*
X42579Y42759D01*
X42668Y42891D01*
X42699Y43047D01*
X42699Y43047D01*
Y49687D01*
X42770Y49716D01*
X42969Y49868D01*
X43121Y50067D01*
X43217Y50298D01*
X43249Y50546D01*
X43217Y50794D01*
X43121Y51025D01*
X42969Y51224D01*
X42770Y51376D01*
X42539Y51472D01*
X42291Y51504D01*
D02*
G37*
G36*
X80872Y39519D02*
X80637Y39488D01*
X80418Y39397D01*
X80230Y39253D01*
X80086Y39065D01*
X79995Y38846D01*
X79964Y38611D01*
X79995Y38376D01*
X80086Y38157D01*
X80230Y37969D01*
X80418Y37825D01*
X80637Y37734D01*
X80872Y37703D01*
X81107Y37734D01*
X81326Y37825D01*
X81514Y37969D01*
X81658Y38157D01*
X81749Y38376D01*
X81780Y38611D01*
X81749Y38846D01*
X81658Y39065D01*
X81514Y39253D01*
X81326Y39397D01*
X81107Y39488D01*
X80872Y39519D01*
D02*
G37*
G36*
X94317Y38511D02*
X93472D01*
Y37666D01*
X93620Y37685D01*
X93851Y37781D01*
X94050Y37933D01*
X94202Y38132D01*
X94298Y38363D01*
X94317Y38511D01*
D02*
G37*
G36*
X93272D02*
X92427D01*
X92446Y38363D01*
X92542Y38132D01*
X92694Y37933D01*
X92893Y37781D01*
X93124Y37685D01*
X93272Y37666D01*
Y38511D01*
D02*
G37*
G36*
X58244Y37756D02*
X58048Y37731D01*
X57866Y37655D01*
X57709Y37535D01*
X57589Y37378D01*
X57513Y37196D01*
X57488Y37000D01*
X57513Y36804D01*
X57589Y36622D01*
X57709Y36465D01*
X57866Y36345D01*
X58048Y36269D01*
X58244Y36244D01*
X58440Y36269D01*
X58622Y36345D01*
X58779Y36465D01*
X58899Y36622D01*
X58975Y36804D01*
X59000Y37000D01*
X58975Y37196D01*
X58899Y37378D01*
X58779Y37535D01*
X58622Y37655D01*
X58440Y37731D01*
X58244Y37756D01*
D02*
G37*
G36*
Y35756D02*
X58048Y35731D01*
X57866Y35655D01*
X57709Y35535D01*
X57589Y35378D01*
X57513Y35196D01*
X57488Y35000D01*
X57513Y34804D01*
X57589Y34622D01*
X57709Y34465D01*
X57866Y34345D01*
X58048Y34269D01*
X58244Y34244D01*
X58440Y34269D01*
X58622Y34345D01*
X58779Y34465D01*
X58899Y34622D01*
X58975Y34804D01*
X59000Y35000D01*
X58975Y35196D01*
X58899Y35378D01*
X58779Y35535D01*
X58622Y35655D01*
X58440Y35731D01*
X58244Y35756D01*
D02*
G37*
G36*
X36244D02*
X36048Y35731D01*
X35866Y35655D01*
X35709Y35535D01*
X35589Y35378D01*
X35513Y35196D01*
X35488Y35000D01*
X35513Y34804D01*
X35589Y34622D01*
X35709Y34465D01*
X35866Y34345D01*
X36048Y34269D01*
X36244Y34244D01*
X36440Y34269D01*
X36622Y34345D01*
X36779Y34465D01*
X36899Y34622D01*
X36975Y34804D01*
X37000Y35000D01*
X36975Y35196D01*
X36899Y35378D01*
X36779Y35535D01*
X36622Y35655D01*
X36440Y35731D01*
X36244Y35756D01*
D02*
G37*
G36*
X58244Y33756D02*
X58048Y33731D01*
X57866Y33655D01*
X57709Y33535D01*
X57589Y33378D01*
X57513Y33196D01*
X57488Y33000D01*
X57513Y32804D01*
X57589Y32622D01*
X57709Y32465D01*
X57866Y32345D01*
X58048Y32269D01*
X58244Y32244D01*
X58440Y32269D01*
X58622Y32345D01*
X58779Y32465D01*
X58899Y32622D01*
X58975Y32804D01*
X59000Y33000D01*
X58975Y33196D01*
X58899Y33378D01*
X58779Y33535D01*
X58622Y33655D01*
X58440Y33731D01*
X58244Y33756D01*
D02*
G37*
G36*
X36244D02*
X36048Y33731D01*
X35866Y33655D01*
X35709Y33535D01*
X35589Y33378D01*
X35513Y33196D01*
X35488Y33000D01*
X35513Y32804D01*
X35589Y32622D01*
X35709Y32465D01*
X35866Y32345D01*
X36048Y32269D01*
X36244Y32244D01*
X36440Y32269D01*
X36622Y32345D01*
X36779Y32465D01*
X36899Y32622D01*
X36975Y32804D01*
X37000Y33000D01*
X36975Y33196D01*
X36899Y33378D01*
X36779Y33535D01*
X36622Y33655D01*
X36440Y33731D01*
X36244Y33756D01*
D02*
G37*
G36*
X86190Y32768D02*
X85942Y32736D01*
X85711Y32640D01*
X85512Y32488D01*
X85360Y32289D01*
X85264Y32058D01*
X85232Y31810D01*
X85264Y31562D01*
X85360Y31331D01*
X85512Y31132D01*
X85711Y30980D01*
X85942Y30884D01*
X86190Y30852D01*
X86438Y30884D01*
X86669Y30980D01*
X86868Y31132D01*
X87020Y31331D01*
X87116Y31562D01*
X87148Y31810D01*
X87116Y32058D01*
X87020Y32289D01*
X86868Y32488D01*
X86669Y32640D01*
X86438Y32736D01*
X86190Y32768D01*
D02*
G37*
G36*
X93810Y32919D02*
X93523Y32882D01*
X93255Y32771D01*
X93025Y32595D01*
X92849Y32365D01*
X92738Y32097D01*
X92701Y31810D01*
X92738Y31523D01*
X92849Y31255D01*
X93025Y31025D01*
X93255Y30849D01*
X93523Y30738D01*
X93810Y30701D01*
X94097Y30738D01*
X94365Y30849D01*
X94595Y31025D01*
X94771Y31255D01*
X94882Y31523D01*
X94919Y31810D01*
X94882Y32097D01*
X94771Y32365D01*
X94595Y32595D01*
X94365Y32771D01*
X94097Y32882D01*
X93810Y32919D01*
D02*
G37*
G36*
X58244Y31756D02*
X58048Y31731D01*
X57866Y31655D01*
X57709Y31535D01*
X57589Y31378D01*
X57513Y31196D01*
X57488Y31000D01*
X57513Y30804D01*
X57589Y30622D01*
X57709Y30465D01*
X57866Y30345D01*
X58048Y30269D01*
X58244Y30244D01*
X58440Y30269D01*
X58622Y30345D01*
X58779Y30465D01*
X58899Y30622D01*
X58975Y30804D01*
X59000Y31000D01*
X58975Y31196D01*
X58899Y31378D01*
X58779Y31535D01*
X58622Y31655D01*
X58440Y31731D01*
X58244Y31756D01*
D02*
G37*
G36*
X36244D02*
X36048Y31731D01*
X35866Y31655D01*
X35709Y31535D01*
X35589Y31378D01*
X35513Y31196D01*
X35488Y31000D01*
X35513Y30804D01*
X35589Y30622D01*
X35709Y30465D01*
X35866Y30345D01*
X36048Y30269D01*
X36244Y30244D01*
X36440Y30269D01*
X36622Y30345D01*
X36779Y30465D01*
X36899Y30622D01*
X36975Y30804D01*
X37000Y31000D01*
X36975Y31196D01*
X36899Y31378D01*
X36779Y31535D01*
X36622Y31655D01*
X36440Y31731D01*
X36244Y31756D01*
D02*
G37*
G36*
X58244Y29756D02*
X58048Y29731D01*
X57866Y29655D01*
X57709Y29535D01*
X57589Y29378D01*
X57513Y29196D01*
X57488Y29000D01*
X57513Y28804D01*
X57589Y28622D01*
X57709Y28465D01*
X57866Y28345D01*
X58048Y28269D01*
X58244Y28244D01*
X58440Y28269D01*
X58622Y28345D01*
X58779Y28465D01*
X58899Y28622D01*
X58975Y28804D01*
X59000Y29000D01*
X58975Y29196D01*
X58899Y29378D01*
X58779Y29535D01*
X58622Y29655D01*
X58440Y29731D01*
X58244Y29756D01*
D02*
G37*
G36*
X36244D02*
X36048Y29731D01*
X35866Y29655D01*
X35709Y29535D01*
X35589Y29378D01*
X35513Y29196D01*
X35488Y29000D01*
X35513Y28804D01*
X35589Y28622D01*
X35709Y28465D01*
X35866Y28345D01*
X36048Y28269D01*
X36244Y28244D01*
X36440Y28269D01*
X36622Y28345D01*
X36779Y28465D01*
X36899Y28622D01*
X36975Y28804D01*
X37000Y29000D01*
X36975Y29196D01*
X36899Y29378D01*
X36779Y29535D01*
X36622Y29655D01*
X36440Y29731D01*
X36244Y29756D01*
D02*
G37*
G36*
X90000Y28958D02*
X89752Y28926D01*
X89521Y28830D01*
X89322Y28678D01*
X89170Y28479D01*
X89074Y28248D01*
X89042Y28000D01*
X89074Y27752D01*
X89170Y27521D01*
X89322Y27322D01*
X89521Y27170D01*
X89752Y27074D01*
X90000Y27042D01*
X90248Y27074D01*
X90479Y27170D01*
X90678Y27322D01*
X90830Y27521D01*
X90926Y27752D01*
X90958Y28000D01*
X90926Y28248D01*
X90830Y28479D01*
X90678Y28678D01*
X90479Y28830D01*
X90248Y28926D01*
X90000Y28958D01*
D02*
G37*
G36*
X36244Y27756D02*
X36048Y27731D01*
X35866Y27655D01*
X35709Y27535D01*
X35589Y27378D01*
X35513Y27196D01*
X35488Y27000D01*
X35513Y26804D01*
X35589Y26622D01*
X35709Y26465D01*
X35866Y26345D01*
X36048Y26269D01*
X36244Y26244D01*
X36440Y26269D01*
X36622Y26345D01*
X36779Y26465D01*
X36899Y26622D01*
X36975Y26804D01*
X37000Y27000D01*
X36975Y27196D01*
X36899Y27378D01*
X36779Y27535D01*
X36622Y27655D01*
X36440Y27731D01*
X36244Y27756D01*
D02*
G37*
G36*
Y25756D02*
X36048Y25731D01*
X35866Y25655D01*
X35709Y25535D01*
X35589Y25378D01*
X35513Y25196D01*
X35488Y25000D01*
X35513Y24804D01*
X35589Y24622D01*
X35709Y24465D01*
X35866Y24345D01*
X36048Y24269D01*
X36244Y24244D01*
X36440Y24269D01*
X36622Y24345D01*
X36779Y24465D01*
X36899Y24622D01*
X36975Y24804D01*
X37000Y25000D01*
X36975Y25196D01*
X36899Y25378D01*
X36779Y25535D01*
X36622Y25655D01*
X36440Y25731D01*
X36244Y25756D01*
D02*
G37*
G36*
X14057Y24987D02*
X13835Y24958D01*
X13628Y24872D01*
X13451Y24736D01*
X13315Y24559D01*
X13229Y24352D01*
X13200Y24130D01*
X13229Y23908D01*
X13315Y23701D01*
X13451Y23524D01*
X13628Y23388D01*
X13835Y23302D01*
X14057Y23273D01*
X14279Y23302D01*
X14486Y23388D01*
X14663Y23524D01*
X14799Y23701D01*
X14885Y23908D01*
X14914Y24130D01*
X14885Y24352D01*
X14799Y24559D01*
X14663Y24736D01*
X14486Y24872D01*
X14279Y24958D01*
X14057Y24987D01*
D02*
G37*
G36*
X9057D02*
X8835Y24958D01*
X8628Y24872D01*
X8451Y24736D01*
X8315Y24559D01*
X8229Y24352D01*
X8200Y24130D01*
X8229Y23908D01*
X8315Y23701D01*
X8451Y23524D01*
X8628Y23388D01*
X8835Y23302D01*
X9057Y23273D01*
X9279Y23302D01*
X9486Y23388D01*
X9663Y23524D01*
X9799Y23701D01*
X9885Y23908D01*
X9914Y24130D01*
X9885Y24352D01*
X9799Y24559D01*
X9663Y24736D01*
X9486Y24872D01*
X9279Y24958D01*
X9057Y24987D01*
D02*
G37*
G36*
X86190Y25299D02*
X85903Y25262D01*
X85635Y25151D01*
X85405Y24975D01*
X85229Y24745D01*
X85118Y24477D01*
X85081Y24190D01*
X85118Y23903D01*
X85229Y23635D01*
X85405Y23405D01*
X85635Y23229D01*
X85903Y23118D01*
X86190Y23081D01*
X86477Y23118D01*
X86745Y23229D01*
X86975Y23405D01*
X87151Y23635D01*
X87262Y23903D01*
X87299Y24190D01*
X87262Y24477D01*
X87151Y24745D01*
X86975Y24975D01*
X86745Y25151D01*
X86477Y25262D01*
X86190Y25299D01*
D02*
G37*
G36*
X36244Y23756D02*
X36048Y23731D01*
X35866Y23655D01*
X35709Y23535D01*
X35589Y23378D01*
X35513Y23196D01*
X35488Y23000D01*
X35513Y22804D01*
X35589Y22622D01*
X35709Y22465D01*
X35866Y22345D01*
X36048Y22269D01*
X36244Y22244D01*
X36440Y22269D01*
X36622Y22345D01*
X36779Y22465D01*
X36899Y22622D01*
X36975Y22804D01*
X37000Y23000D01*
X36975Y23196D01*
X36899Y23378D01*
X36779Y23535D01*
X36622Y23655D01*
X36440Y23731D01*
X36244Y23756D01*
D02*
G37*
G36*
X68183Y28510D02*
X67959Y28466D01*
X67768Y28339D01*
X67641Y28148D01*
X67597Y27924D01*
X67641Y27700D01*
X67768Y27509D01*
X67775Y27505D01*
Y23136D01*
X67768Y23132D01*
X67641Y22941D01*
X67597Y22717D01*
X67641Y22493D01*
X67768Y22302D01*
X67959Y22175D01*
X68183Y22131D01*
X68407Y22175D01*
X68598Y22302D01*
X68725Y22493D01*
X68769Y22717D01*
X68725Y22941D01*
X68598Y23132D01*
X68591Y23136D01*
Y27505D01*
X68598Y27509D01*
X68725Y27700D01*
X68769Y27924D01*
X68725Y28148D01*
X68598Y28339D01*
X68407Y28466D01*
X68183Y28510D01*
D02*
G37*
G36*
X94026Y19873D02*
X93826D01*
Y19065D01*
X94921D01*
X94903Y19200D01*
X94812Y19419D01*
X94668Y19607D01*
X94480Y19751D01*
X94261Y19842D01*
X94026Y19873D01*
D02*
G37*
G36*
X93626D02*
X93426D01*
X93191Y19842D01*
X92972Y19751D01*
X92784Y19607D01*
X92640Y19419D01*
X92549Y19200D01*
X92531Y19065D01*
X93626D01*
Y19873D01*
D02*
G37*
G36*
X72898Y37416D02*
X72674Y37372D01*
X72483Y37245D01*
X72356Y37054D01*
X72312Y36830D01*
X72356Y36606D01*
X72483Y36415D01*
X72490Y36411D01*
Y19596D01*
X72483Y19592D01*
X72356Y19401D01*
X72312Y19177D01*
X72356Y18953D01*
X72483Y18762D01*
X72674Y18635D01*
X72898Y18591D01*
X73122Y18635D01*
X73313Y18762D01*
X73440Y18953D01*
X73484Y19177D01*
X73440Y19401D01*
X73313Y19592D01*
X73306Y19596D01*
Y36411D01*
X73313Y36415D01*
X73440Y36606D01*
X73484Y36830D01*
X73440Y37054D01*
X73313Y37245D01*
X73122Y37372D01*
X72898Y37416D01*
D02*
G37*
G36*
X97851Y19846D02*
X97201D01*
X97012Y19821D01*
X96835Y19748D01*
X96684Y19632D01*
X96568Y19481D01*
X96495Y19304D01*
X96470Y19115D01*
X96495Y18926D01*
X96568Y18749D01*
X96684Y18598D01*
X96835Y18482D01*
X97012Y18409D01*
X97201Y18384D01*
X97851D01*
X98040Y18409D01*
X98217Y18482D01*
X98368Y18598D01*
X98484Y18749D01*
X98557Y18926D01*
X98582Y19115D01*
X98557Y19304D01*
X98484Y19481D01*
X98368Y19632D01*
X98217Y19748D01*
X98040Y19821D01*
X97851Y19846D01*
D02*
G37*
G36*
X93626Y18865D02*
X92531D01*
X92549Y18730D01*
X92640Y18511D01*
X92784Y18323D01*
X92972Y18179D01*
X93191Y18088D01*
X93426Y18057D01*
X93626D01*
Y18865D01*
D02*
G37*
G36*
X94921D02*
X93826D01*
Y18057D01*
X94026D01*
X94243Y18086D01*
X94284Y18045D01*
X94322Y17976D01*
X94308Y17955D01*
X94265Y17740D01*
X94308Y17525D01*
X94429Y17343D01*
X94611Y17222D01*
X94826Y17179D01*
X95041Y17222D01*
X95223Y17343D01*
X95344Y17525D01*
X95387Y17740D01*
X95344Y17955D01*
X95223Y18137D01*
X95041Y18258D01*
X94826Y18301D01*
X94808Y18297D01*
X94736Y18412D01*
X94812Y18511D01*
X94903Y18730D01*
X94921Y18865D01*
D02*
G37*
G36*
X94826Y13301D02*
X94611Y13258D01*
X94429Y13137D01*
X94308Y12955D01*
X94265Y12740D01*
X94308Y12525D01*
X94322Y12504D01*
X94284Y12435D01*
X94243Y12394D01*
X94026Y12423D01*
X93826D01*
Y11615D01*
X94921D01*
X94903Y11750D01*
X94812Y11969D01*
X94736Y12068D01*
X94808Y12183D01*
X94826Y12179D01*
X95041Y12222D01*
X95223Y12343D01*
X95344Y12525D01*
X95387Y12740D01*
X95344Y12955D01*
X95223Y13137D01*
X95041Y13258D01*
X94826Y13301D01*
D02*
G37*
G36*
X93626Y12423D02*
X93426D01*
X93191Y12392D01*
X92972Y12301D01*
X92784Y12157D01*
X92640Y11969D01*
X92549Y11750D01*
X92531Y11615D01*
X93626D01*
Y12423D01*
D02*
G37*
G36*
X97851Y12096D02*
X97201D01*
X97012Y12071D01*
X96835Y11998D01*
X96684Y11882D01*
X96568Y11731D01*
X96495Y11554D01*
X96470Y11365D01*
X96495Y11176D01*
X96568Y10999D01*
X96684Y10848D01*
X96835Y10732D01*
X97012Y10659D01*
X97201Y10634D01*
X97851D01*
X98040Y10659D01*
X98217Y10732D01*
X98368Y10848D01*
X98484Y10999D01*
X98557Y11176D01*
X98582Y11365D01*
X98557Y11554D01*
X98484Y11731D01*
X98368Y11882D01*
X98217Y11998D01*
X98040Y12071D01*
X97851Y12096D01*
D02*
G37*
G36*
X94921Y11415D02*
X93826D01*
Y10607D01*
X94026D01*
X94261Y10638D01*
X94480Y10729D01*
X94668Y10873D01*
X94812Y11061D01*
X94903Y11280D01*
X94921Y11415D01*
D02*
G37*
G36*
X93626D02*
X92531D01*
X92549Y11280D01*
X92640Y11061D01*
X92784Y10873D01*
X92972Y10729D01*
X93191Y10638D01*
X93426Y10607D01*
X93626D01*
Y11415D01*
D02*
G37*
%LPD*%
D31*
X34157Y80778D02*
X37481D01*
X29718Y85217D02*
X34157Y80778D01*
X47130Y86661D02*
X56468D01*
X29591Y69122D02*
X47130Y86661D01*
X21971Y68707D02*
X25203Y71939D01*
X27284D01*
X70236Y73560D02*
X70644Y73152D01*
X62222Y73560D02*
X70236D01*
X61814Y73152D02*
X62222Y73560D01*
X58440Y93608D02*
Y94000D01*
X67056Y65024D02*
X73025Y70993D01*
X60198Y65024D02*
X67056D01*
X58928Y66294D02*
X60198Y65024D01*
X60071Y73152D02*
X61814D01*
X70644D02*
X70739D01*
X26641Y85217D02*
X29718D01*
X56257Y61337D02*
Y74650D01*
X53634Y58714D02*
X56257Y61337D01*
X53634Y58404D02*
Y58714D01*
X57150Y61277D02*
Y74549D01*
X56174Y60300D02*
X57150Y61277D01*
X56174Y58404D02*
Y60300D01*
X45100Y53867D02*
X45119Y53848D01*
X45100Y53867D02*
Y54233D01*
X43355Y55978D02*
X45100Y54233D01*
X53791Y49079D02*
Y56606D01*
Y49079D02*
X55372Y47498D01*
Y27872D02*
Y47498D01*
Y27872D02*
X58244Y25000D01*
X56191Y27972D02*
X57163Y27000D01*
X56191Y27972D02*
Y57759D01*
X53634Y56763D02*
X53791Y56606D01*
X57163Y27000D02*
X58244D01*
X56174Y57776D02*
X56191Y57759D01*
X36244Y37000D02*
X42291Y43047D01*
Y50546D01*
X53634Y56763D02*
Y58404D01*
X53213Y79242D02*
Y80772D01*
X33421Y59450D02*
X53213Y79242D01*
X44122Y91948D02*
Y96213D01*
X44069Y96266D02*
X44122Y96213D01*
X41281Y91948D02*
Y96018D01*
X41529Y96266D01*
X22098Y53721D02*
X24892Y56515D01*
X58928Y68072D02*
Y71882D01*
X33829Y52028D02*
Y52117D01*
X36195Y54483D01*
X61201Y76962D02*
X61849Y76314D01*
X58569Y76962D02*
X61201D01*
X56257Y74650D02*
X58569Y76962D01*
X61849Y74999D02*
Y76314D01*
X61272Y74422D02*
X61849Y74999D01*
X60071Y74422D02*
X61272D01*
X73025Y70993D02*
Y79023D01*
X58440Y93608D02*
X73025Y79023D01*
X58293Y93853D02*
X58440Y94000D01*
X24892Y56515D02*
Y64389D01*
X28321Y67818D01*
Y75311D01*
X72898Y19177D02*
Y36830D01*
X68183Y22717D02*
Y27924D01*
X57150Y74549D02*
X58293Y75692D01*
X60071D01*
D32*
X61340Y66486D02*
Y70270D01*
X63678Y72607D01*
X36253Y69057D02*
X36326D01*
X37311Y68072D01*
X34698Y70612D02*
X36253Y69057D01*
X26123Y17740D02*
X29211Y20828D01*
X56072D01*
X58244Y23000D01*
D33*
X14920Y4000D02*
D03*
X17460D02*
D03*
X20000D02*
D03*
X22540D02*
D03*
X25080D02*
D03*
X27620D02*
D03*
X37211Y50546D02*
D03*
X42291D02*
D03*
X47371D02*
D03*
X52451D02*
D03*
X57531D02*
D03*
X54991D02*
D03*
X49911D02*
D03*
X44831D02*
D03*
X39751D02*
D03*
X49149Y96266D02*
D03*
X46609D02*
D03*
X44069D02*
D03*
X41529D02*
D03*
X38989D02*
D03*
X36449D02*
D03*
X12500Y75000D02*
D03*
X8690Y71190D02*
D03*
Y56190D02*
D03*
X12500Y60000D02*
D03*
X8690Y41190D02*
D03*
X12500Y45000D02*
D03*
X86190Y31810D02*
D03*
X90000Y28000D02*
D03*
D34*
X12380Y4000D02*
D03*
X60071Y50546D02*
D03*
X51689Y96266D02*
D03*
D35*
X58714Y58404D02*
D03*
D36*
X53634D02*
D03*
X56174D02*
D03*
D37*
X58244Y41000D02*
D03*
Y37000D02*
D03*
Y39000D02*
D03*
Y33000D02*
D03*
Y31000D02*
D03*
Y35000D02*
D03*
Y27000D02*
D03*
Y29000D02*
D03*
Y25000D02*
D03*
Y23000D02*
D03*
X36244Y41000D02*
D03*
Y37000D02*
D03*
Y39000D02*
D03*
Y33000D02*
D03*
Y31000D02*
D03*
Y35000D02*
D03*
Y27000D02*
D03*
Y29000D02*
D03*
Y23000D02*
D03*
Y25000D02*
D03*
D38*
X9057Y24130D02*
D03*
X14057D02*
D03*
D39*
X93372Y38611D02*
D03*
X80872D02*
D03*
D40*
X97526Y19115D02*
D03*
Y11365D02*
D03*
D41*
X94826Y17740D02*
D03*
Y12740D02*
D03*
D42*
X93726Y18965D02*
D03*
Y11515D02*
D03*
D43*
X8690Y78810D02*
D03*
X16310Y71190D02*
D03*
Y56190D02*
D03*
X8690Y63810D02*
D03*
X16310Y41190D02*
D03*
X8690Y48810D02*
D03*
X86190Y24190D02*
D03*
X93810Y31810D02*
D03*
D44*
X5000Y5000D02*
D03*
X95000D02*
D03*
Y95000D02*
D03*
X5000D02*
D03*
D45*
X86340Y94473D02*
D03*
X91340Y84473D02*
D03*
X86340Y74473D02*
D03*
X91340Y64473D02*
D03*
X86340Y54473D02*
D03*
X91340Y44473D02*
D03*
X86340Y34473D02*
D03*
X91340Y24473D02*
D03*
X76340Y94473D02*
D03*
X81340Y84473D02*
D03*
X76340Y74473D02*
D03*
X81340Y64473D02*
D03*
X76340Y54473D02*
D03*
X81340Y44473D02*
D03*
Y24473D02*
D03*
X66340Y94473D02*
D03*
X71340Y84473D02*
D03*
X66340Y74473D02*
D03*
X71340Y64473D02*
D03*
X66340Y54473D02*
D03*
X71340Y44473D02*
D03*
X66340Y34473D02*
D03*
Y14473D02*
D03*
X61340Y84473D02*
D03*
Y24473D02*
D03*
X46340Y94473D02*
D03*
Y54473D02*
D03*
Y34473D02*
D03*
X51340Y24473D02*
D03*
X36340Y94473D02*
D03*
Y74473D02*
D03*
X41340Y44473D02*
D03*
Y24473D02*
D03*
X26340Y94473D02*
D03*
Y74473D02*
D03*
X31340Y64473D02*
D03*
X26340Y54473D02*
D03*
X31340Y44473D02*
D03*
X26340Y34473D02*
D03*
Y14473D02*
D03*
X16340Y94473D02*
D03*
Y74473D02*
D03*
X21340Y64473D02*
D03*
X16340Y54473D02*
D03*
Y14473D02*
D03*
X6340Y74473D02*
D03*
X11340Y64473D02*
D03*
X6340Y54473D02*
D03*
Y34473D02*
D03*
X11340Y24473D02*
D03*
X6340Y14473D02*
D03*
X37481Y80778D02*
D03*
X29591Y69122D02*
D03*
X27284Y71939D02*
D03*
X63678Y72607D02*
D03*
X61340Y66486D02*
D03*
X37311Y68072D02*
D03*
X34698Y70612D02*
D03*
X26641Y85217D02*
D03*
X45119Y53848D02*
D03*
X43355Y55978D02*
D03*
X26123Y17740D02*
D03*
X33421Y59450D02*
D03*
X44122Y91948D02*
D03*
X41281D02*
D03*
X22098Y53721D02*
D03*
X58928Y68072D02*
D03*
Y66294D02*
D03*
X33829Y52028D02*
D03*
X21971Y68707D02*
D03*
X72898Y19177D02*
D03*
Y36830D02*
D03*
X68183Y27924D02*
D03*
Y22717D02*
D03*
X53213Y80772D02*
D03*
X70739Y73152D02*
D03*
X58928Y71882D02*
D03*
X60071Y74422D02*
D03*
Y73152D02*
D03*
Y75692D02*
D03*
X28321Y75311D02*
D03*
X56468Y86661D02*
D03*
X58293Y93853D02*
D03*
X36195Y54483D02*
D03*
D46*
X84285Y12784D02*
D03*
Y11684D02*
D03*
X83185Y12784D02*
D03*
Y11684D02*
D03*
X82085D02*
D03*
X84285Y10584D02*
D03*
X83185D02*
D03*
X82085Y12784D02*
D03*
Y10584D02*
D03*
%TF.MD5,aea30a555c2aee9a1b5cab360e3a31ef*%
M02*
