%TF.GenerationSoftware,Altium Limited,Altium Designer,19.1.6 (110)*%
G04 Layer_Color=8388736*
%FSLAX43Y43*%
%MOMM*%
%TF.FileFunction,Soldermask,Top*%
%TF.Part,Single*%
G01*
G75*
%TA.AperFunction,ComponentPad*%
%ADD33C,1.600*%
%ADD38C,1.400*%
%ADD47C,1.800*%
%ADD48R,1.800X1.800*%
%ADD49R,1.750X1.750*%
%ADD50C,1.750*%
%ADD51C,1.700*%
%ADD52O,2.000X1.350*%
%ADD53C,1.000*%
%ADD54O,2.200X1.600*%
%ADD55C,2.100*%
%TA.AperFunction,WasherPad*%
%ADD56C,1.200*%
%TA.AperFunction,SMDPad,CuDef*%
%ADD63R,1.650X1.400*%
%ADD64O,1.950X0.800*%
%ADD65R,1.500X1.750*%
%ADD66R,1.200X1.550*%
%ADD67R,1.050X1.500*%
%ADD68R,1.600X1.250*%
%ADD69R,1.100X1.000*%
%ADD70R,1.600X1.200*%
%ADD71R,0.700X0.650*%
%ADD72R,2.100X1.700*%
%ADD73R,1.700X1.600*%
%ADD74R,1.700X1.750*%
%ADD75R,0.950X1.650*%
%ADD76O,1.600X0.650*%
%ADD77R,3.300X3.300*%
%ADD78R,1.500X0.650*%
%ADD79R,1.300X1.000*%
%ADD80R,1.000X1.100*%
%ADD81R,1.550X1.200*%
%ADD82R,1.400X1.650*%
%ADD83R,1.650X0.950*%
D33*
X9057Y24130D02*
D03*
X14057D02*
D03*
D38*
X58244Y41000D02*
D03*
Y37000D02*
D03*
Y39000D02*
D03*
Y33000D02*
D03*
Y31000D02*
D03*
Y35000D02*
D03*
Y27000D02*
D03*
Y29000D02*
D03*
Y25000D02*
D03*
Y23000D02*
D03*
X36244Y41000D02*
D03*
Y37000D02*
D03*
Y39000D02*
D03*
Y33000D02*
D03*
Y31000D02*
D03*
Y35000D02*
D03*
Y27000D02*
D03*
Y29000D02*
D03*
Y23000D02*
D03*
Y25000D02*
D03*
D47*
X14920Y4000D02*
D03*
X17460D02*
D03*
X20000D02*
D03*
X22540D02*
D03*
X25080D02*
D03*
X27620D02*
D03*
X37211Y50546D02*
D03*
X42291D02*
D03*
X47371D02*
D03*
X52451D02*
D03*
X57531D02*
D03*
X54991D02*
D03*
X49911D02*
D03*
X44831D02*
D03*
X39751D02*
D03*
X49149Y96266D02*
D03*
X46609D02*
D03*
X44069D02*
D03*
X41529D02*
D03*
X38989D02*
D03*
X36449D02*
D03*
X12500Y75000D02*
D03*
X8690Y71190D02*
D03*
Y56190D02*
D03*
X12500Y60000D02*
D03*
X8690Y41190D02*
D03*
X12500Y45000D02*
D03*
X86190Y31810D02*
D03*
X90000Y28000D02*
D03*
D48*
X12380Y4000D02*
D03*
X60071Y50546D02*
D03*
X51689Y96266D02*
D03*
D49*
X58714Y58404D02*
D03*
D50*
X53634D02*
D03*
X56174D02*
D03*
D51*
X93372Y38611D02*
D03*
X80872D02*
D03*
D52*
X97526Y19115D02*
D03*
Y11365D02*
D03*
D53*
X94826Y17740D02*
D03*
Y12740D02*
D03*
D54*
X93726Y18965D02*
D03*
Y11515D02*
D03*
D55*
X8690Y78810D02*
D03*
X16310Y71190D02*
D03*
Y56190D02*
D03*
X8690Y63810D02*
D03*
X16310Y41190D02*
D03*
X8690Y48810D02*
D03*
X86190Y24190D02*
D03*
X93810Y31810D02*
D03*
D56*
X5000Y5000D02*
D03*
X95000D02*
D03*
Y95000D02*
D03*
X5000D02*
D03*
D63*
X43355Y62100D02*
D03*
Y60100D02*
D03*
X25715Y28378D02*
D03*
Y30378D02*
D03*
X62992Y21066D02*
D03*
Y19066D02*
D03*
X98171Y28051D02*
D03*
Y26051D02*
D03*
X68326Y31607D02*
D03*
Y29607D02*
D03*
D64*
X56468Y83312D02*
D03*
Y82042D02*
D03*
Y84582D02*
D03*
Y79502D02*
D03*
Y78232D02*
D03*
Y80772D02*
D03*
Y76962D02*
D03*
Y74422D02*
D03*
Y73152D02*
D03*
Y75692D02*
D03*
Y71882D02*
D03*
Y70612D02*
D03*
Y68072D02*
D03*
Y69342D02*
D03*
X47418Y83312D02*
D03*
Y82042D02*
D03*
Y84582D02*
D03*
Y79502D02*
D03*
Y78232D02*
D03*
Y80772D02*
D03*
Y75692D02*
D03*
Y74422D02*
D03*
Y76962D02*
D03*
Y71882D02*
D03*
Y70612D02*
D03*
Y73152D02*
D03*
Y68072D02*
D03*
Y69342D02*
D03*
D65*
X70322Y96304D02*
D03*
X65822D02*
D03*
X70322Y88354D02*
D03*
X65822D02*
D03*
D66*
X4456Y49149D02*
D03*
X2656D02*
D03*
X55361Y96266D02*
D03*
X57161D02*
D03*
X2656Y73660D02*
D03*
X4456D02*
D03*
X2656Y57404D02*
D03*
X4456D02*
D03*
D67*
X67398Y70739D02*
D03*
X65698D02*
D03*
D68*
X62230Y72578D02*
D03*
Y70678D02*
D03*
X25019Y72578D02*
D03*
Y70678D02*
D03*
X25019Y55184D02*
D03*
Y57084D02*
D03*
X25019Y40256D02*
D03*
Y42156D02*
D03*
D69*
X78851Y30607D02*
D03*
X76851Y29657D02*
D03*
Y31557D02*
D03*
X66183Y21016D02*
D03*
Y19116D02*
D03*
X68183Y20066D02*
D03*
D70*
X70442Y25273D02*
D03*
X68242Y26223D02*
D03*
Y24323D02*
D03*
D71*
X75057Y22982D02*
D03*
Y22032D02*
D03*
Y21082D02*
D03*
X72957Y22982D02*
D03*
Y22032D02*
D03*
Y21082D02*
D03*
D72*
X42672Y78589D02*
D03*
Y75589D02*
D03*
D73*
X76200Y13523D02*
D03*
Y11623D02*
D03*
X89916Y13528D02*
D03*
Y15428D02*
D03*
D74*
X74814Y17399D02*
D03*
X73014D02*
D03*
D75*
X74481Y31623D02*
D03*
X72331D02*
D03*
X68267Y77343D02*
D03*
X70417D02*
D03*
X44255Y68072D02*
D03*
X42105D02*
D03*
X72839Y25273D02*
D03*
X74989D02*
D03*
D76*
X86135Y13959D02*
D03*
Y13309D02*
D03*
Y12659D02*
D03*
Y12009D02*
D03*
Y11359D02*
D03*
Y10709D02*
D03*
Y9409D02*
D03*
Y10059D02*
D03*
X80235Y13959D02*
D03*
Y12659D02*
D03*
Y12009D02*
D03*
Y13309D02*
D03*
Y10709D02*
D03*
Y11359D02*
D03*
Y9409D02*
D03*
Y10059D02*
D03*
D77*
X83185Y11684D02*
D03*
D78*
X93726Y16540D02*
D03*
Y15240D02*
D03*
Y15890D02*
D03*
Y14590D02*
D03*
Y13940D02*
D03*
D79*
X25000Y45550D02*
D03*
Y44450D02*
D03*
Y74450D02*
D03*
Y75550D02*
D03*
Y59450D02*
D03*
Y60550D02*
D03*
D80*
X25715Y26146D02*
D03*
X23815D02*
D03*
X24765Y24146D02*
D03*
X25969Y80121D02*
D03*
X24069D02*
D03*
X25019Y78121D02*
D03*
X29652Y62595D02*
D03*
X27752D02*
D03*
X28702Y60595D02*
D03*
X29779Y47609D02*
D03*
X27879D02*
D03*
X28829Y45609D02*
D03*
D81*
X59817Y96277D02*
D03*
Y94477D02*
D03*
D82*
X21225Y19558D02*
D03*
X23225D02*
D03*
X19475Y24146D02*
D03*
X21475D02*
D03*
D83*
X59563Y83371D02*
D03*
Y81221D02*
D03*
%TF.MD5,6b2bf2bc980d56241ca2fe3274c82d7b*%
M02*
