%TF.GenerationSoftware,Altium Limited,Altium Designer,19.1.6 (110)*%
G04 Layer_Color=255*
%FSLAX43Y43*%
%MOMM*%
%TF.FileFunction,Pads,Bot*%
%TF.Part,Single*%
G01*
G75*
%TA.AperFunction,ComponentPad*%
%ADD33C,1.600*%
%ADD34R,1.600X1.600*%
%ADD35R,1.550X1.550*%
%ADD36C,1.550*%
%ADD37C,1.200*%
%ADD38C,1.400*%
%ADD39C,1.500*%
%ADD40O,1.800X1.150*%
%ADD41C,0.800*%
%ADD42O,2.000X1.400*%
%ADD43C,1.900*%
%TA.AperFunction,WasherPad*%
%ADD44C,1.000*%
D33*
X14920Y4000D02*
D03*
X17460D02*
D03*
X20000D02*
D03*
X22540D02*
D03*
X25080D02*
D03*
X27620D02*
D03*
X37211Y50546D02*
D03*
X42291D02*
D03*
X47371D02*
D03*
X52451D02*
D03*
X57531D02*
D03*
X54991D02*
D03*
X49911D02*
D03*
X44831D02*
D03*
X39751D02*
D03*
X49149Y96266D02*
D03*
X46609D02*
D03*
X44069D02*
D03*
X41529D02*
D03*
X38989D02*
D03*
X36449D02*
D03*
X12500Y75000D02*
D03*
X8690Y71190D02*
D03*
Y56190D02*
D03*
X12500Y60000D02*
D03*
X8690Y41190D02*
D03*
X12500Y45000D02*
D03*
X86190Y31810D02*
D03*
X90000Y28000D02*
D03*
D34*
X12380Y4000D02*
D03*
X60071Y50546D02*
D03*
X51689Y96266D02*
D03*
D35*
X58714Y58404D02*
D03*
D36*
X53634D02*
D03*
X56174D02*
D03*
D37*
X58244Y41000D02*
D03*
Y37000D02*
D03*
Y39000D02*
D03*
Y33000D02*
D03*
Y31000D02*
D03*
Y35000D02*
D03*
Y27000D02*
D03*
Y29000D02*
D03*
Y25000D02*
D03*
Y23000D02*
D03*
X36244Y41000D02*
D03*
Y37000D02*
D03*
Y39000D02*
D03*
Y33000D02*
D03*
Y31000D02*
D03*
Y35000D02*
D03*
Y27000D02*
D03*
Y29000D02*
D03*
Y23000D02*
D03*
Y25000D02*
D03*
D38*
X9057Y24130D02*
D03*
X14057D02*
D03*
D39*
X93372Y38611D02*
D03*
X80872D02*
D03*
D40*
X97526Y19115D02*
D03*
Y11365D02*
D03*
D41*
X94826Y17740D02*
D03*
Y12740D02*
D03*
D42*
X93726Y18965D02*
D03*
Y11515D02*
D03*
D43*
X8690Y78810D02*
D03*
X16310Y71190D02*
D03*
Y56190D02*
D03*
X8690Y63810D02*
D03*
X16310Y41190D02*
D03*
X8690Y48810D02*
D03*
X86190Y24190D02*
D03*
X93810Y31810D02*
D03*
D44*
X5000Y5000D02*
D03*
X95000D02*
D03*
Y95000D02*
D03*
X5000D02*
D03*
%TF.MD5,42f2785dc1f44557cc1868982b16a293*%
M02*
