G04 Layer_Physical_Order=2*
G04 Layer_Color=16711680*
%FSLAX25Y25*%
%MOIN*%
G70*
G01*
G75*
%ADD35C,0.01968*%
%ADD40C,0.06299*%
%ADD41C,0.07480*%
%ADD42C,0.05905*%
%ADD43C,0.03150*%
%ADD44O,0.07087X0.04528*%
%ADD45O,0.07874X0.05512*%
%ADD46C,0.05512*%
%ADD47C,0.04724*%
%ADD48R,0.06102X0.06102*%
%ADD49C,0.06102*%
%ADD50R,0.06299X0.06299*%
%ADD51C,0.15748*%
%ADD52C,0.03347*%
%ADD53C,0.02559*%
G36*
X393997Y1003D02*
X1003D01*
Y393997D01*
X393997D01*
Y1003D01*
D02*
G37*
%LPC*%
G36*
X226500Y100726D02*
X225729Y100625D01*
X225011Y100327D01*
X224394Y99854D01*
X223921Y99237D01*
X223623Y98519D01*
X223522Y97748D01*
X223623Y96977D01*
X223921Y96259D01*
X224394Y95642D01*
X225011Y95169D01*
X225729Y94871D01*
X226500Y94770D01*
X227271Y94871D01*
X227989Y95169D01*
X228606Y95642D01*
X229079Y96259D01*
X229377Y96977D01*
X229478Y97748D01*
X229377Y98519D01*
X229079Y99237D01*
X228606Y99854D01*
X227989Y100327D01*
X227271Y100625D01*
X226500Y100726D01*
D02*
G37*
G36*
X139886D02*
X139115Y100625D01*
X138397Y100327D01*
X137780Y99854D01*
X137307Y99237D01*
X137009Y98519D01*
X136908Y97748D01*
X137009Y96977D01*
X137307Y96259D01*
X137780Y95642D01*
X138397Y95169D01*
X139115Y94871D01*
X139886Y94770D01*
X140657Y94871D01*
X141375Y95169D01*
X141992Y95642D01*
X142465Y96259D01*
X142763Y96977D01*
X142864Y97748D01*
X142763Y98519D01*
X142465Y99237D01*
X141992Y99854D01*
X141375Y100327D01*
X140657Y100625D01*
X139886Y100726D01*
D02*
G37*
G36*
X55343Y98375D02*
X54469Y98260D01*
X53655Y97923D01*
X52956Y97387D01*
X52419Y96688D01*
X52082Y95874D01*
X51967Y95000D01*
X52082Y94126D01*
X52419Y93312D01*
X52956Y92613D01*
X53655Y92077D01*
X54469Y91740D01*
X55343Y91625D01*
X56216Y91740D01*
X57030Y92077D01*
X57729Y92613D01*
X58266Y93312D01*
X58603Y94126D01*
X58718Y95000D01*
X58603Y95874D01*
X58266Y96688D01*
X57729Y97387D01*
X57030Y97923D01*
X56216Y98260D01*
X55343Y98375D01*
D02*
G37*
G36*
X354331Y114009D02*
X353354Y113880D01*
X352445Y113503D01*
X351663Y112904D01*
X351064Y112122D01*
X350687Y111213D01*
X350558Y110236D01*
X350687Y109260D01*
X351064Y108350D01*
X351663Y107569D01*
X352445Y106969D01*
X353354Y106592D01*
X354331Y106464D01*
X355307Y106592D01*
X356217Y106969D01*
X356998Y107569D01*
X357598Y108350D01*
X357975Y109260D01*
X358103Y110236D01*
X357975Y111213D01*
X357598Y112122D01*
X356998Y112904D01*
X356217Y113503D01*
X355307Y113880D01*
X354331Y114009D01*
D02*
G37*
G36*
X226500Y108600D02*
X225729Y108499D01*
X225011Y108201D01*
X224394Y107728D01*
X223921Y107111D01*
X223623Y106393D01*
X223522Y105622D01*
X223623Y104851D01*
X223921Y104133D01*
X224394Y103516D01*
X225011Y103043D01*
X225729Y102745D01*
X226500Y102644D01*
X227271Y102745D01*
X227989Y103043D01*
X228606Y103516D01*
X229079Y104133D01*
X229377Y104851D01*
X229478Y105622D01*
X229377Y106393D01*
X229079Y107111D01*
X228606Y107728D01*
X227989Y108201D01*
X227271Y108499D01*
X226500Y108600D01*
D02*
G37*
G36*
X139886D02*
X139115Y108499D01*
X138397Y108201D01*
X137780Y107728D01*
X137307Y107111D01*
X137009Y106393D01*
X136908Y105622D01*
X137009Y104851D01*
X137307Y104133D01*
X137780Y103516D01*
X138397Y103043D01*
X139115Y102745D01*
X139886Y102644D01*
X140657Y102745D01*
X141375Y103043D01*
X141992Y103516D01*
X142465Y104133D01*
X142763Y104851D01*
X142864Y105622D01*
X142763Y106393D01*
X142465Y107111D01*
X141992Y107728D01*
X141375Y108201D01*
X140657Y108499D01*
X139886Y108600D01*
D02*
G37*
G36*
X35658Y98375D02*
X34784Y98260D01*
X33970Y97923D01*
X33271Y97387D01*
X32734Y96688D01*
X32397Y95874D01*
X32282Y95000D01*
X32397Y94126D01*
X32734Y93312D01*
X33271Y92613D01*
X33970Y92077D01*
X34784Y91740D01*
X35658Y91625D01*
X36531Y91740D01*
X37345Y92077D01*
X38044Y92613D01*
X38581Y93312D01*
X38918Y94126D01*
X39033Y95000D01*
X38918Y95874D01*
X38581Y96688D01*
X38044Y97387D01*
X37345Y97923D01*
X36531Y98260D01*
X35658Y98375D01*
D02*
G37*
G36*
X139886Y92852D02*
X139115Y92751D01*
X138397Y92453D01*
X137780Y91980D01*
X137307Y91363D01*
X137009Y90645D01*
X136908Y89874D01*
X137009Y89103D01*
X137307Y88385D01*
X137780Y87768D01*
X138397Y87295D01*
X139115Y86997D01*
X139886Y86896D01*
X140657Y86997D01*
X141375Y87295D01*
X141992Y87768D01*
X142465Y88385D01*
X142763Y89103D01*
X142864Y89874D01*
X142763Y90645D01*
X142465Y91363D01*
X141992Y91980D01*
X141375Y92453D01*
X140657Y92751D01*
X139886Y92852D01*
D02*
G37*
G36*
X226500Y84978D02*
X225729Y84877D01*
X225011Y84579D01*
X224394Y84106D01*
X223921Y83489D01*
X223623Y82771D01*
X223522Y82000D01*
X223623Y81229D01*
X223921Y80511D01*
X224394Y79894D01*
X225011Y79421D01*
X225729Y79123D01*
X226500Y79022D01*
X227271Y79123D01*
X227989Y79421D01*
X228606Y79894D01*
X229079Y80511D01*
X229377Y81229D01*
X229478Y82000D01*
X229377Y82771D01*
X229079Y83489D01*
X228606Y84106D01*
X227989Y84579D01*
X227271Y84877D01*
X226500Y84978D01*
D02*
G37*
G36*
X139886D02*
X139115Y84877D01*
X138397Y84579D01*
X137780Y84106D01*
X137307Y83489D01*
X137009Y82771D01*
X136908Y82000D01*
X137009Y81229D01*
X137307Y80511D01*
X137780Y79894D01*
X138397Y79421D01*
X139115Y79123D01*
X139886Y79022D01*
X140657Y79123D01*
X141375Y79421D01*
X141992Y79894D01*
X142465Y80511D01*
X142763Y81229D01*
X142864Y82000D01*
X142763Y82771D01*
X142465Y83489D01*
X141992Y84106D01*
X141375Y84579D01*
X140657Y84877D01*
X139886Y84978D01*
D02*
G37*
G36*
X339331Y99604D02*
X338200Y99455D01*
X337147Y99019D01*
X336242Y98325D01*
X335548Y97420D01*
X335111Y96367D01*
X334963Y95236D01*
X335111Y94106D01*
X335548Y93052D01*
X336242Y92147D01*
X337147Y91453D01*
X338200Y91017D01*
X339331Y90868D01*
X340461Y91017D01*
X341515Y91453D01*
X342419Y92147D01*
X343114Y93052D01*
X343550Y94106D01*
X343699Y95236D01*
X343550Y96367D01*
X343114Y97420D01*
X342419Y98325D01*
X341515Y99019D01*
X340461Y99455D01*
X339331Y99604D01*
D02*
G37*
G36*
X268437Y112245D02*
X267554Y112069D01*
X266805Y111569D01*
X266305Y110820D01*
X266129Y109937D01*
X266305Y109054D01*
X266805Y108305D01*
X266831Y108287D01*
Y91087D01*
X266805Y91069D01*
X266305Y90320D01*
X266129Y89437D01*
X266305Y88554D01*
X266805Y87805D01*
X267554Y87305D01*
X268437Y87129D01*
X269320Y87305D01*
X270069Y87805D01*
X270569Y88554D01*
X270745Y89437D01*
X270569Y90320D01*
X270069Y91069D01*
X270043Y91087D01*
Y108287D01*
X270069Y108305D01*
X270569Y109054D01*
X270745Y109937D01*
X270569Y110820D01*
X270069Y111569D01*
X269320Y112069D01*
X268437Y112245D01*
D02*
G37*
G36*
X226500Y92852D02*
X225729Y92751D01*
X225011Y92453D01*
X224394Y91980D01*
X223921Y91363D01*
X223623Y90645D01*
X223522Y89874D01*
X223623Y89103D01*
X223921Y88385D01*
X224394Y87768D01*
X225011Y87295D01*
X225729Y86997D01*
X226500Y86896D01*
X227271Y86997D01*
X227989Y87295D01*
X228606Y87768D01*
X229079Y88385D01*
X229377Y89103D01*
X229478Y89874D01*
X229377Y90645D01*
X229079Y91363D01*
X228606Y91980D01*
X227989Y92453D01*
X227271Y92751D01*
X226500Y92852D01*
D02*
G37*
G36*
X139886Y116474D02*
X139115Y116373D01*
X138397Y116075D01*
X137780Y115602D01*
X137307Y114985D01*
X137009Y114267D01*
X136908Y113496D01*
X137009Y112725D01*
X137307Y112007D01*
X137780Y111390D01*
X138397Y110917D01*
X139115Y110619D01*
X139886Y110518D01*
X140657Y110619D01*
X141375Y110917D01*
X141992Y111390D01*
X142465Y112007D01*
X142763Y112725D01*
X142864Y113496D01*
X142763Y114267D01*
X142465Y114985D01*
X141992Y115602D01*
X141375Y116075D01*
X140657Y116373D01*
X139886Y116474D01*
D02*
G37*
G36*
X371327Y151618D02*
X368000D01*
Y148291D01*
X368583Y148368D01*
X369493Y148745D01*
X370274Y149344D01*
X370873Y150126D01*
X371250Y151035D01*
X371327Y151618D01*
D02*
G37*
G36*
X367213D02*
X363886D01*
X363962Y151035D01*
X364339Y150126D01*
X364939Y149344D01*
X365720Y148745D01*
X366630Y148368D01*
X367213Y148291D01*
Y151618D01*
D02*
G37*
G36*
X226894Y124495D02*
Y121764D01*
X229625D01*
X229569Y122192D01*
X229251Y122959D01*
X228746Y123616D01*
X228088Y124121D01*
X227322Y124439D01*
X226894Y124495D01*
D02*
G37*
G36*
X367213Y155732D02*
X366630Y155656D01*
X365720Y155279D01*
X364939Y154679D01*
X364339Y153898D01*
X363962Y152988D01*
X363886Y152406D01*
X367213D01*
Y155732D01*
D02*
G37*
G36*
X152500Y155308D02*
X151617Y155132D01*
X150868Y154632D01*
X150850Y154606D01*
X136500D01*
X135886Y154483D01*
X135365Y154135D01*
X135365Y154135D01*
X107531Y126302D01*
X107500Y126308D01*
X106617Y126132D01*
X105868Y125632D01*
X105368Y124883D01*
X105192Y124000D01*
X105368Y123117D01*
X105868Y122368D01*
X106617Y121868D01*
X107500Y121692D01*
X108383Y121868D01*
X109132Y122368D01*
X109632Y123117D01*
X109808Y124000D01*
X109802Y124031D01*
X137165Y151394D01*
X150850D01*
X150868Y151368D01*
X151617Y150868D01*
X152500Y150692D01*
X153383Y150868D01*
X154132Y151368D01*
X154632Y152117D01*
X154808Y153000D01*
X154632Y153883D01*
X154132Y154632D01*
X153383Y155132D01*
X152500Y155308D01*
D02*
G37*
G36*
X318394Y155586D02*
X317469Y155464D01*
X316607Y155107D01*
X315867Y154539D01*
X315299Y153799D01*
X314942Y152937D01*
X314820Y152012D01*
X314942Y151087D01*
X315299Y150225D01*
X315867Y149485D01*
X316607Y148917D01*
X317469Y148560D01*
X318394Y148438D01*
X319319Y148560D01*
X320181Y148917D01*
X320921Y149485D01*
X321489Y150225D01*
X321846Y151087D01*
X321968Y152012D01*
X321846Y152937D01*
X321489Y153799D01*
X320921Y154539D01*
X320181Y155107D01*
X319319Y155464D01*
X318394Y155586D01*
D02*
G37*
G36*
X226106Y124495D02*
X225678Y124439D01*
X224912Y124121D01*
X224254Y123616D01*
X223749Y122959D01*
X223431Y122192D01*
X223375Y121764D01*
X226106D01*
Y124495D01*
D02*
G37*
G36*
X229625Y120976D02*
X226894D01*
Y118245D01*
X227322Y118301D01*
X228088Y118619D01*
X228746Y119124D01*
X229251Y119782D01*
X229569Y120548D01*
X229625Y120976D01*
D02*
G37*
G36*
X226106D02*
X223375D01*
X223431Y120548D01*
X223749Y119782D01*
X224254Y119124D01*
X224912Y118619D01*
X225678Y118301D01*
X226106Y118245D01*
Y120976D01*
D02*
G37*
G36*
X226500Y116474D02*
X225729Y116373D01*
X225011Y116075D01*
X224394Y115602D01*
X223921Y114985D01*
X223623Y114267D01*
X223522Y113496D01*
X223623Y112725D01*
X223921Y112007D01*
X224394Y111390D01*
X225011Y110917D01*
X225729Y110619D01*
X226500Y110518D01*
X227271Y110619D01*
X227989Y110917D01*
X228606Y111390D01*
X229079Y112007D01*
X229377Y112725D01*
X229478Y113496D01*
X229377Y114267D01*
X229079Y114985D01*
X228606Y115602D01*
X227989Y116075D01*
X227271Y116373D01*
X226500Y116474D01*
D02*
G37*
G36*
X339331Y129009D02*
X338354Y128880D01*
X337444Y128503D01*
X336663Y127904D01*
X336064Y127122D01*
X335687Y126213D01*
X335558Y125236D01*
X335687Y124260D01*
X336064Y123350D01*
X336663Y122569D01*
X337444Y121969D01*
X338354Y121592D01*
X339331Y121464D01*
X340307Y121592D01*
X341217Y121969D01*
X341998Y122569D01*
X342598Y123350D01*
X342975Y124260D01*
X343103Y125236D01*
X342975Y126213D01*
X342598Y127122D01*
X341998Y127904D01*
X341217Y128503D01*
X340307Y128880D01*
X339331Y129009D01*
D02*
G37*
G36*
X369331Y129604D02*
X368200Y129455D01*
X367147Y129019D01*
X366242Y128325D01*
X365548Y127420D01*
X365111Y126367D01*
X364963Y125236D01*
X365111Y124106D01*
X365548Y123052D01*
X366242Y122148D01*
X367147Y121453D01*
X368200Y121017D01*
X369331Y120868D01*
X370461Y121017D01*
X371515Y121453D01*
X372419Y122148D01*
X373114Y123052D01*
X373550Y124106D01*
X373699Y125236D01*
X373550Y126367D01*
X373114Y127420D01*
X372419Y128325D01*
X371515Y129019D01*
X370461Y129455D01*
X369331Y129604D01*
D02*
G37*
G36*
X139886Y124348D02*
X139115Y124247D01*
X138397Y123949D01*
X137780Y123476D01*
X137307Y122859D01*
X137009Y122141D01*
X136908Y121370D01*
X137009Y120599D01*
X137307Y119881D01*
X137780Y119264D01*
X138397Y118791D01*
X139115Y118493D01*
X139886Y118392D01*
X140657Y118493D01*
X141375Y118791D01*
X141992Y119264D01*
X142465Y119881D01*
X142763Y120599D01*
X142864Y121370D01*
X142763Y122141D01*
X142465Y122859D01*
X141992Y123476D01*
X141375Y123949D01*
X140657Y124247D01*
X139886Y124348D01*
D02*
G37*
G36*
X373703Y44941D02*
X369394D01*
Y41761D01*
X370181D01*
X371106Y41883D01*
X371968Y42240D01*
X372708Y42807D01*
X373276Y43548D01*
X373633Y44410D01*
X373703Y44941D01*
D02*
G37*
G36*
X368606D02*
X364297D01*
X364367Y44410D01*
X364724Y43548D01*
X365292Y42807D01*
X366032Y42240D01*
X366894Y41883D01*
X367819Y41761D01*
X368606D01*
Y44941D01*
D02*
G37*
G36*
X374410Y28350D02*
Y20079D01*
X382680D01*
X382552Y21383D01*
X382057Y23016D01*
X381252Y24520D01*
X380170Y25839D01*
X378851Y26922D01*
X377346Y27726D01*
X375714Y28221D01*
X374410Y28350D01*
D02*
G37*
G36*
X139886Y53482D02*
X139115Y53381D01*
X138397Y53083D01*
X137780Y52610D01*
X137307Y51993D01*
X137009Y51275D01*
X136908Y50504D01*
X137009Y49733D01*
X137307Y49015D01*
X137780Y48398D01*
X138397Y47925D01*
X139115Y47627D01*
X139886Y47526D01*
X140657Y47627D01*
X141375Y47925D01*
X141992Y48398D01*
X142465Y49015D01*
X142763Y49733D01*
X142864Y50504D01*
X142763Y51275D01*
X142465Y51993D01*
X141992Y52610D01*
X141375Y53083D01*
X140657Y53381D01*
X139886Y53482D01*
D02*
G37*
G36*
X368606Y48908D02*
X367819D01*
X366894Y48787D01*
X366032Y48430D01*
X365292Y47862D01*
X364724Y47122D01*
X364367Y46260D01*
X364297Y45728D01*
X368606D01*
Y48908D01*
D02*
G37*
G36*
X385240Y47623D02*
X382681D01*
X381936Y47525D01*
X381242Y47237D01*
X380645Y46780D01*
X380188Y46184D01*
X379900Y45489D01*
X379802Y44744D01*
X379900Y43999D01*
X380188Y43305D01*
X380645Y42708D01*
X381242Y42251D01*
X381936Y41963D01*
X382681Y41865D01*
X385240D01*
X385985Y41963D01*
X386680Y42251D01*
X387276Y42708D01*
X387733Y43305D01*
X388021Y43999D01*
X388119Y44744D01*
X388021Y45489D01*
X387733Y46184D01*
X387276Y46780D01*
X386680Y47237D01*
X385985Y47525D01*
X385240Y47623D01*
D02*
G37*
G36*
X373622Y28350D02*
X372318Y28221D01*
X370685Y27726D01*
X369180Y26922D01*
X367862Y25839D01*
X366779Y24520D01*
X365975Y23016D01*
X365480Y21383D01*
X365351Y20079D01*
X373622D01*
Y28350D01*
D02*
G37*
G36*
Y19291D02*
X365351D01*
X365480Y17987D01*
X365975Y16354D01*
X366779Y14850D01*
X367862Y13531D01*
X369180Y12449D01*
X370685Y11644D01*
X372318Y11149D01*
X373622Y11021D01*
Y19291D01*
D02*
G37*
G36*
X28350D02*
X20079D01*
Y11021D01*
X21383Y11149D01*
X23016Y11644D01*
X24520Y12449D01*
X25839Y13531D01*
X26922Y14850D01*
X27726Y16354D01*
X28221Y17987D01*
X28350Y19291D01*
D02*
G37*
G36*
X19291D02*
X11021D01*
X11149Y17987D01*
X11644Y16354D01*
X12449Y14850D01*
X13531Y13531D01*
X14850Y12449D01*
X16354Y11644D01*
X17987Y11149D01*
X19291Y11021D01*
Y19291D01*
D02*
G37*
G36*
X20079Y28350D02*
Y20079D01*
X28350D01*
X28221Y21383D01*
X27726Y23016D01*
X26922Y24520D01*
X25839Y25839D01*
X24520Y26922D01*
X23016Y27726D01*
X21383Y28221D01*
X20079Y28350D01*
D02*
G37*
G36*
X19291D02*
X17987Y28221D01*
X16354Y27726D01*
X14850Y26922D01*
X13531Y25839D01*
X12449Y24520D01*
X11644Y23016D01*
X11149Y21383D01*
X11021Y20079D01*
X19291D01*
Y28350D01*
D02*
G37*
G36*
X382680Y19291D02*
X374410D01*
Y11021D01*
X375714Y11149D01*
X377346Y11644D01*
X378851Y12449D01*
X380170Y13531D01*
X381252Y14850D01*
X382057Y16354D01*
X382552Y17987D01*
X382680Y19291D01*
D02*
G37*
G36*
X226500Y53482D02*
X225729Y53381D01*
X225011Y53083D01*
X224394Y52610D01*
X223921Y51993D01*
X223623Y51275D01*
X223522Y50504D01*
X223623Y49733D01*
X223921Y49015D01*
X224394Y48398D01*
X225011Y47925D01*
X225729Y47627D01*
X226500Y47526D01*
X227271Y47627D01*
X227989Y47925D01*
X228606Y48398D01*
X229079Y49015D01*
X229377Y49733D01*
X229478Y50504D01*
X229377Y51275D01*
X229079Y51993D01*
X228606Y52610D01*
X227989Y53083D01*
X227271Y53381D01*
X226500Y53482D01*
D02*
G37*
G36*
X385240Y78135D02*
X382681D01*
X381936Y78037D01*
X381242Y77749D01*
X380645Y77292D01*
X380188Y76695D01*
X379900Y76001D01*
X379802Y75256D01*
X379900Y74511D01*
X380188Y73816D01*
X380645Y73220D01*
X381242Y72763D01*
X381936Y72475D01*
X382681Y72377D01*
X385240D01*
X385985Y72475D01*
X386680Y72763D01*
X387276Y73220D01*
X387733Y73816D01*
X388021Y74511D01*
X388119Y75256D01*
X388021Y76001D01*
X387733Y76695D01*
X387276Y77292D01*
X386680Y77749D01*
X385985Y78037D01*
X385240Y78135D01*
D02*
G37*
G36*
X226500Y77104D02*
X225729Y77003D01*
X225011Y76705D01*
X224394Y76232D01*
X223921Y75615D01*
X223623Y74897D01*
X223522Y74126D01*
X223623Y73355D01*
X223921Y72637D01*
X224394Y72020D01*
X225011Y71547D01*
X225729Y71249D01*
X226500Y71148D01*
X227271Y71249D01*
X227989Y71547D01*
X228606Y72020D01*
X229079Y72637D01*
X229377Y73355D01*
X229478Y74126D01*
X229377Y74897D01*
X229079Y75615D01*
X228606Y76232D01*
X227989Y76705D01*
X227271Y77003D01*
X226500Y77104D01*
D02*
G37*
G36*
X139886D02*
X139115Y77003D01*
X138397Y76705D01*
X137780Y76232D01*
X137307Y75615D01*
X137009Y74897D01*
X136908Y74126D01*
X137009Y73355D01*
X137307Y72637D01*
X137780Y72020D01*
X138397Y71547D01*
X139115Y71249D01*
X139886Y71148D01*
X140657Y71249D01*
X141375Y71547D01*
X141992Y72020D01*
X142465Y72637D01*
X142763Y73355D01*
X142864Y74126D01*
X142763Y74897D01*
X142465Y75615D01*
X141992Y76232D01*
X141375Y76705D01*
X140657Y77003D01*
X139886Y77104D01*
D02*
G37*
G36*
X370181Y78239D02*
X369394D01*
Y75059D01*
X373703D01*
X373633Y75590D01*
X373276Y76452D01*
X372708Y77192D01*
X371968Y77760D01*
X371106Y78117D01*
X370181Y78239D01*
D02*
G37*
G36*
X368606D02*
X367819D01*
X366894Y78117D01*
X366032Y77760D01*
X365292Y77192D01*
X364724Y76452D01*
X364367Y75590D01*
X364297Y75059D01*
X368606D01*
Y78239D01*
D02*
G37*
G36*
X287000Y147308D02*
X286117Y147132D01*
X285368Y146632D01*
X284868Y145883D01*
X284692Y145000D01*
X284868Y144117D01*
X285368Y143368D01*
X285394Y143350D01*
Y77150D01*
X285368Y77132D01*
X284868Y76383D01*
X284692Y75500D01*
X284868Y74617D01*
X285368Y73868D01*
X286117Y73368D01*
X287000Y73192D01*
X287883Y73368D01*
X288632Y73868D01*
X289132Y74617D01*
X289308Y75500D01*
X289132Y76383D01*
X288632Y77132D01*
X288606Y77150D01*
Y143350D01*
X288632Y143368D01*
X289132Y144117D01*
X289308Y145000D01*
X289132Y145883D01*
X288632Y146632D01*
X287883Y147132D01*
X287000Y147308D01*
D02*
G37*
G36*
X368606Y74272D02*
X364297D01*
X364367Y73740D01*
X364724Y72878D01*
X365292Y72138D01*
X366032Y71570D01*
X366894Y71213D01*
X367819Y71092D01*
X368606D01*
Y74272D01*
D02*
G37*
G36*
X226500Y61356D02*
X225729Y61255D01*
X225011Y60957D01*
X224394Y60484D01*
X223921Y59867D01*
X223623Y59149D01*
X223522Y58378D01*
X223623Y57607D01*
X223921Y56889D01*
X224394Y56272D01*
X225011Y55799D01*
X225729Y55501D01*
X226500Y55400D01*
X227271Y55501D01*
X227989Y55799D01*
X228606Y56272D01*
X229079Y56889D01*
X229377Y57607D01*
X229478Y58378D01*
X229377Y59149D01*
X229079Y59867D01*
X228606Y60484D01*
X227989Y60957D01*
X227271Y61255D01*
X226500Y61356D01*
D02*
G37*
G36*
X139886D02*
X139115Y61255D01*
X138397Y60957D01*
X137780Y60484D01*
X137307Y59867D01*
X137009Y59149D01*
X136908Y58378D01*
X137009Y57607D01*
X137307Y56889D01*
X137780Y56272D01*
X138397Y55799D01*
X139115Y55501D01*
X139886Y55400D01*
X140657Y55501D01*
X141375Y55799D01*
X141992Y56272D01*
X142465Y56889D01*
X142763Y57607D01*
X142864Y58378D01*
X142763Y59149D01*
X142465Y59867D01*
X141992Y60484D01*
X141375Y60957D01*
X140657Y61255D01*
X139886Y61356D01*
D02*
G37*
G36*
X373331Y52365D02*
X372486Y52197D01*
X371770Y51719D01*
X371291Y51002D01*
X371123Y50157D01*
X371291Y49313D01*
X371348Y49228D01*
X371199Y48956D01*
X371035Y48796D01*
X370181Y48908D01*
X369394D01*
Y45728D01*
X373703D01*
X373633Y46260D01*
X373276Y47122D01*
X372978Y47510D01*
X373260Y47964D01*
X373331Y47950D01*
X374176Y48118D01*
X374892Y48596D01*
X375370Y49313D01*
X375538Y50157D01*
X375370Y51002D01*
X374892Y51719D01*
X374176Y52197D01*
X373331Y52365D01*
D02*
G37*
G36*
X373703Y74272D02*
X369394D01*
Y71092D01*
X370181D01*
X371035Y71204D01*
X371199Y71044D01*
X371348Y70772D01*
X371291Y70687D01*
X371123Y69842D01*
X371291Y68998D01*
X371770Y68281D01*
X372486Y67803D01*
X373331Y67635D01*
X374176Y67803D01*
X374892Y68281D01*
X375370Y68998D01*
X375538Y69842D01*
X375370Y70687D01*
X374892Y71404D01*
X374176Y71882D01*
X373331Y72050D01*
X373260Y72036D01*
X372978Y72490D01*
X373276Y72878D01*
X373633Y73740D01*
X373703Y74272D01*
D02*
G37*
G36*
X226500Y69230D02*
X225729Y69129D01*
X225011Y68831D01*
X224394Y68358D01*
X223921Y67741D01*
X223623Y67023D01*
X223522Y66252D01*
X223623Y65481D01*
X223921Y64763D01*
X224394Y64146D01*
X225011Y63673D01*
X225729Y63375D01*
X226500Y63274D01*
X227271Y63375D01*
X227989Y63673D01*
X228606Y64146D01*
X229079Y64763D01*
X229377Y65481D01*
X229478Y66252D01*
X229377Y67023D01*
X229079Y67741D01*
X228606Y68358D01*
X227989Y68831D01*
X227271Y69129D01*
X226500Y69230D01*
D02*
G37*
G36*
X139886D02*
X139115Y69129D01*
X138397Y68831D01*
X137780Y68358D01*
X137307Y67741D01*
X137009Y67023D01*
X136908Y66252D01*
X137009Y65481D01*
X137307Y64763D01*
X137780Y64146D01*
X138397Y63673D01*
X139115Y63375D01*
X139886Y63274D01*
X140657Y63375D01*
X141375Y63673D01*
X141992Y64146D01*
X142465Y64763D01*
X142763Y65481D01*
X142864Y66252D01*
X142763Y67023D01*
X142465Y67741D01*
X141992Y68358D01*
X141375Y68831D01*
X140657Y69129D01*
X139886Y69230D01*
D02*
G37*
G36*
X368000Y155732D02*
Y152406D01*
X371327D01*
X371250Y152988D01*
X370873Y153898D01*
X370274Y154679D01*
X369493Y155279D01*
X368583Y155656D01*
X368000Y155732D01*
D02*
G37*
G36*
X96000Y382673D02*
X95049Y382548D01*
X94163Y382181D01*
X93403Y381597D01*
X92819Y380837D01*
X92452Y379951D01*
X92327Y379000D01*
X92452Y378049D01*
X92819Y377163D01*
X93403Y376403D01*
X94163Y375819D01*
X94394Y375723D01*
Y372500D01*
X94394Y372500D01*
X94517Y371885D01*
X94865Y371365D01*
X98365Y367865D01*
X98365Y367865D01*
X98886Y367517D01*
X99500Y367394D01*
X99500Y367394D01*
X128350D01*
X128368Y367368D01*
X129117Y366868D01*
X130000Y366692D01*
X130883Y366868D01*
X131632Y367368D01*
X132132Y368117D01*
X132308Y369000D01*
X132132Y369883D01*
X131632Y370632D01*
X130883Y371132D01*
X130000Y371308D01*
X129117Y371132D01*
X128368Y370632D01*
X128350Y370606D01*
X100165D01*
X97606Y373165D01*
Y375723D01*
X97837Y375819D01*
X98597Y376403D01*
X99181Y377163D01*
X99548Y378049D01*
X99673Y379000D01*
X99548Y379951D01*
X99181Y380837D01*
X98597Y381597D01*
X97837Y382181D01*
X96951Y382548D01*
X96000Y382673D01*
D02*
G37*
G36*
X382680Y373622D02*
X374410D01*
Y365351D01*
X375714Y365480D01*
X377346Y365975D01*
X378851Y366779D01*
X380170Y367862D01*
X381252Y369180D01*
X382057Y370685D01*
X382552Y372318D01*
X382680Y373622D01*
D02*
G37*
G36*
X373622D02*
X365351D01*
X365480Y372318D01*
X365975Y370685D01*
X366779Y369180D01*
X367862Y367862D01*
X369180Y366779D01*
X370685Y365975D01*
X372318Y365480D01*
X373622Y365351D01*
Y373622D01*
D02*
G37*
G36*
Y382680D02*
X372318Y382552D01*
X370685Y382057D01*
X369180Y381252D01*
X367862Y380170D01*
X366779Y378851D01*
X365975Y377346D01*
X365480Y375714D01*
X365351Y374410D01*
X373622D01*
Y382680D01*
D02*
G37*
G36*
X20079D02*
Y374410D01*
X28350D01*
X28221Y375714D01*
X27726Y377346D01*
X26922Y378851D01*
X25839Y380170D01*
X24520Y381252D01*
X23016Y382057D01*
X21383Y382552D01*
X20079Y382680D01*
D02*
G37*
G36*
X19291D02*
X17987Y382552D01*
X16354Y382057D01*
X14850Y381252D01*
X13531Y380170D01*
X12449Y378851D01*
X11644Y377346D01*
X11149Y375714D01*
X11021Y374410D01*
X19291D01*
Y382680D01*
D02*
G37*
G36*
X28350Y373622D02*
X20079D01*
Y365351D01*
X21383Y365480D01*
X23016Y365975D01*
X24520Y366779D01*
X25839Y367862D01*
X26922Y369180D01*
X27726Y370685D01*
X28221Y372318D01*
X28350Y373622D01*
D02*
G37*
G36*
X222315Y343493D02*
X221432Y343318D01*
X220683Y342817D01*
X220665Y342791D01*
X191685D01*
X191071Y342669D01*
X190550Y342320D01*
X190550Y342320D01*
X116531Y268302D01*
X116500Y268308D01*
X115617Y268132D01*
X114868Y267632D01*
X114368Y266883D01*
X114192Y266000D01*
X114368Y265117D01*
X114868Y264368D01*
X115617Y263868D01*
X116500Y263692D01*
X117383Y263868D01*
X118132Y264368D01*
X118632Y265117D01*
X118808Y266000D01*
X118802Y266031D01*
X192350Y339579D01*
X220665D01*
X220683Y339553D01*
X221432Y339053D01*
X222315Y338877D01*
X223198Y339053D01*
X223947Y339553D01*
X224447Y340302D01*
X224623Y341185D01*
X224447Y342068D01*
X223947Y342817D01*
X223198Y343318D01*
X222315Y343493D01*
D02*
G37*
G36*
X209500Y320308D02*
X208617Y320132D01*
X207868Y319632D01*
X207850Y319606D01*
X203407D01*
X203407Y319606D01*
X202792Y319483D01*
X202271Y319135D01*
X202271Y319135D01*
X115865Y232729D01*
X115517Y232208D01*
X115394Y231593D01*
X115394Y231593D01*
Y215150D01*
X115368Y215132D01*
X114868Y214383D01*
X114692Y213500D01*
X114868Y212617D01*
X115368Y211868D01*
X116117Y211368D01*
X117000Y211192D01*
X117883Y211368D01*
X118632Y211868D01*
X119132Y212617D01*
X119308Y213500D01*
X119132Y214383D01*
X118632Y215132D01*
X118606Y215150D01*
Y230928D01*
X204072Y316394D01*
X207850D01*
X207868Y316368D01*
X208617Y315868D01*
X209500Y315692D01*
X210383Y315868D01*
X211132Y316368D01*
X211632Y317117D01*
X211808Y318000D01*
X211632Y318883D01*
X211132Y319632D01*
X210383Y320132D01*
X209500Y320308D01*
D02*
G37*
G36*
X38000Y337808D02*
X37117Y337632D01*
X36368Y337132D01*
X35868Y336383D01*
X35692Y335500D01*
X35868Y334617D01*
X36368Y333868D01*
X37117Y333368D01*
X38000Y333192D01*
X38883Y333368D01*
X39632Y333868D01*
X39650Y333894D01*
X116335D01*
X133365Y316865D01*
X133365Y316865D01*
X133886Y316517D01*
X134500Y316394D01*
X134500Y316394D01*
X150350D01*
X150368Y316368D01*
X151117Y315868D01*
X152000Y315692D01*
X152883Y315868D01*
X153632Y316368D01*
X154132Y317117D01*
X154308Y318000D01*
X154132Y318883D01*
X153632Y319632D01*
X152883Y320132D01*
X152000Y320308D01*
X151117Y320132D01*
X150368Y319632D01*
X150350Y319606D01*
X135165D01*
X118135Y336635D01*
X117614Y336983D01*
X117000Y337106D01*
X117000Y337106D01*
X39650D01*
X39632Y337132D01*
X38883Y337632D01*
X38000Y337808D01*
D02*
G37*
G36*
X19291Y373622D02*
X11021D01*
X11149Y372318D01*
X11644Y370685D01*
X12449Y369180D01*
X13531Y367862D01*
X14850Y366779D01*
X16354Y365975D01*
X17987Y365480D01*
X19291Y365351D01*
Y373622D01*
D02*
G37*
G36*
X173500Y382772D02*
X172524Y382644D01*
X171614Y382267D01*
X170833Y381667D01*
X170233Y380886D01*
X169856Y379976D01*
X169728Y379000D01*
X169856Y378024D01*
X170233Y377114D01*
X170833Y376332D01*
X171614Y375733D01*
X171894Y375617D01*
Y345650D01*
X171868Y345632D01*
X171368Y344883D01*
X171192Y344000D01*
X171368Y343117D01*
X171868Y342368D01*
X172617Y341868D01*
X173500Y341692D01*
X174383Y341868D01*
X175132Y342368D01*
X175632Y343117D01*
X175808Y344000D01*
X175632Y344883D01*
X175132Y345632D01*
X175106Y345650D01*
Y375617D01*
X175386Y375733D01*
X176168Y376332D01*
X176767Y377114D01*
X177144Y378024D01*
X177272Y379000D01*
X177144Y379976D01*
X176767Y380886D01*
X176168Y381667D01*
X175386Y382267D01*
X174476Y382644D01*
X173500Y382772D01*
D02*
G37*
G36*
X163500D02*
X162524Y382644D01*
X161614Y382267D01*
X160833Y381667D01*
X160233Y380886D01*
X159856Y379976D01*
X159728Y379000D01*
X159856Y378024D01*
X160233Y377114D01*
X160833Y376332D01*
X161614Y375733D01*
X161894Y375617D01*
Y345650D01*
X161868Y345632D01*
X161368Y344883D01*
X161192Y344000D01*
X161368Y343117D01*
X161868Y342368D01*
X162617Y341868D01*
X163500Y341692D01*
X164383Y341868D01*
X165132Y342368D01*
X165632Y343117D01*
X165808Y344000D01*
X165632Y344883D01*
X165132Y345632D01*
X165106Y345650D01*
Y375617D01*
X165386Y375733D01*
X166167Y376332D01*
X166767Y377114D01*
X167144Y378024D01*
X167272Y379000D01*
X167144Y379976D01*
X166767Y380886D01*
X166167Y381667D01*
X165386Y382267D01*
X164476Y382644D01*
X163500Y382772D01*
D02*
G37*
G36*
X374410Y382680D02*
Y374410D01*
X382680D01*
X382552Y375714D01*
X382057Y377346D01*
X381252Y378851D01*
X380170Y380170D01*
X378851Y381252D01*
X377346Y382057D01*
X375714Y382552D01*
X374410Y382680D01*
D02*
G37*
G36*
X183106Y382919D02*
X182472Y382836D01*
X181515Y382439D01*
X180692Y381808D01*
X180061Y380985D01*
X179664Y380028D01*
X179581Y379394D01*
X183106D01*
Y382919D01*
D02*
G37*
G36*
X119642Y382642D02*
X112358D01*
Y375358D01*
X119642D01*
Y382642D01*
D02*
G37*
G36*
X207240Y382740D02*
X199760D01*
Y375260D01*
X207240D01*
Y382740D01*
D02*
G37*
G36*
X106394Y382820D02*
Y379394D01*
X109820D01*
X109740Y380002D01*
X109353Y380936D01*
X108738Y381738D01*
X107936Y382353D01*
X107002Y382740D01*
X106394Y382820D01*
D02*
G37*
G36*
X183894Y382919D02*
Y379394D01*
X187419D01*
X187336Y380028D01*
X186939Y380985D01*
X186308Y381808D01*
X185485Y382439D01*
X184528Y382836D01*
X183894Y382919D01*
D02*
G37*
G36*
X105606Y382820D02*
X104998Y382740D01*
X104064Y382353D01*
X103262Y381738D01*
X102647Y380936D01*
X102260Y380002D01*
X102180Y379394D01*
X105606D01*
Y382820D01*
D02*
G37*
G36*
X193500Y382772D02*
X192524Y382644D01*
X191614Y382267D01*
X190832Y381667D01*
X190233Y380886D01*
X189856Y379976D01*
X189728Y379000D01*
X189856Y378024D01*
X190233Y377114D01*
X190832Y376332D01*
X191614Y375733D01*
X192524Y375356D01*
X193500Y375228D01*
X194476Y375356D01*
X195386Y375733D01*
X196168Y376332D01*
X196767Y377114D01*
X197144Y378024D01*
X197272Y379000D01*
X197144Y379976D01*
X196767Y380886D01*
X196168Y381667D01*
X195386Y382267D01*
X194476Y382644D01*
X193500Y382772D01*
D02*
G37*
G36*
X105606Y378606D02*
X102180D01*
X102260Y377998D01*
X102647Y377064D01*
X103262Y376262D01*
X104064Y375647D01*
X104998Y375260D01*
X105606Y375180D01*
Y378606D01*
D02*
G37*
G36*
X187419D02*
X183894D01*
Y375081D01*
X184528Y375164D01*
X185485Y375561D01*
X186308Y376192D01*
X186939Y377014D01*
X187336Y377972D01*
X187419Y378606D01*
D02*
G37*
G36*
X183106D02*
X179581D01*
X179664Y377972D01*
X180061Y377014D01*
X180692Y376192D01*
X181515Y375561D01*
X182472Y375164D01*
X183106Y375081D01*
Y378606D01*
D02*
G37*
G36*
X153500Y382772D02*
X152524Y382644D01*
X151614Y382267D01*
X150832Y381667D01*
X150233Y380886D01*
X149856Y379976D01*
X149728Y379000D01*
X149856Y378024D01*
X150233Y377114D01*
X150832Y376332D01*
X151614Y375733D01*
X152524Y375356D01*
X153500Y375228D01*
X154476Y375356D01*
X155386Y375733D01*
X156167Y376332D01*
X156767Y377114D01*
X157144Y378024D01*
X157272Y379000D01*
X157144Y379976D01*
X156767Y380886D01*
X156167Y381667D01*
X155386Y382267D01*
X154476Y382644D01*
X153500Y382772D01*
D02*
G37*
G36*
X143500D02*
X142524Y382644D01*
X141614Y382267D01*
X140832Y381667D01*
X140233Y380886D01*
X139856Y379976D01*
X139728Y379000D01*
X139856Y378024D01*
X140233Y377114D01*
X140832Y376332D01*
X141614Y375733D01*
X142524Y375356D01*
X143500Y375228D01*
X144476Y375356D01*
X145386Y375733D01*
X146168Y376332D01*
X146767Y377114D01*
X147144Y378024D01*
X147272Y379000D01*
X147144Y379976D01*
X146767Y380886D01*
X146168Y381667D01*
X145386Y382267D01*
X144476Y382644D01*
X143500Y382772D01*
D02*
G37*
G36*
X109820Y378606D02*
X106394D01*
Y375180D01*
X107002Y375260D01*
X107936Y375647D01*
X108738Y376262D01*
X109353Y377064D01*
X109740Y377998D01*
X109820Y378606D01*
D02*
G37*
G36*
X34213Y314644D02*
X33082Y314495D01*
X32029Y314058D01*
X31124Y313364D01*
X30430Y312460D01*
X29993Y311406D01*
X29844Y310276D01*
X29993Y309145D01*
X30430Y308092D01*
X31124Y307187D01*
X32029Y306493D01*
X33082Y306056D01*
X34213Y305908D01*
X35343Y306056D01*
X36397Y306493D01*
X37301Y307187D01*
X37995Y308092D01*
X38432Y309145D01*
X38581Y310276D01*
X38432Y311406D01*
X37995Y312460D01*
X37301Y313364D01*
X36397Y314058D01*
X35343Y314495D01*
X34213Y314644D01*
D02*
G37*
G36*
X64213Y225588D02*
X63082Y225440D01*
X62029Y225003D01*
X61124Y224309D01*
X60430Y223405D01*
X59993Y222351D01*
X59844Y221220D01*
X59993Y220090D01*
X60430Y219036D01*
X61124Y218132D01*
X62029Y217438D01*
X63082Y217001D01*
X64213Y216852D01*
X65343Y217001D01*
X66397Y217438D01*
X67301Y218132D01*
X67996Y219036D01*
X68432Y220090D01*
X68581Y221220D01*
X68432Y222351D01*
X67996Y223405D01*
X67301Y224309D01*
X66397Y225003D01*
X65343Y225440D01*
X64213Y225588D01*
D02*
G37*
G36*
X193000Y263308D02*
X192117Y263132D01*
X191368Y262632D01*
X190868Y261883D01*
X190692Y261000D01*
X190868Y260117D01*
X191368Y259368D01*
X191394Y259350D01*
Y214500D01*
X191394Y214500D01*
X191517Y213885D01*
X191865Y213365D01*
X196698Y208531D01*
X196692Y208500D01*
X196868Y207617D01*
X197368Y206868D01*
X198117Y206368D01*
X199000Y206192D01*
X199883Y206368D01*
X200632Y206868D01*
X201132Y207617D01*
X201308Y208500D01*
X201132Y209383D01*
X200632Y210132D01*
X199883Y210632D01*
X199000Y210808D01*
X198969Y210802D01*
X194606Y215165D01*
Y259350D01*
X194632Y259368D01*
X195132Y260117D01*
X195308Y261000D01*
X195132Y261883D01*
X194632Y262632D01*
X193883Y263132D01*
X193000Y263308D01*
D02*
G37*
G36*
X111500Y298808D02*
X110617Y298632D01*
X109868Y298132D01*
X109368Y297383D01*
X109192Y296500D01*
X109368Y295617D01*
X109868Y294868D01*
X109894Y294850D01*
Y267665D01*
X96865Y254635D01*
X96517Y254115D01*
X96394Y253500D01*
X96394Y253500D01*
Y223165D01*
X79327Y206098D01*
X38642D01*
X38624Y206124D01*
X37875Y206625D01*
X36992Y206800D01*
X36109Y206625D01*
X35360Y206124D01*
X34860Y205375D01*
X34684Y204492D01*
X34860Y203609D01*
X35360Y202860D01*
X36109Y202360D01*
X36992Y202184D01*
X37875Y202360D01*
X38624Y202860D01*
X38642Y202887D01*
X79992D01*
X79992Y202887D01*
X80607Y203009D01*
X81128Y203357D01*
X99135Y221365D01*
X99135Y221365D01*
X99483Y221885D01*
X99606Y222500D01*
Y252835D01*
X112635Y265865D01*
X112635Y265865D01*
X112983Y266386D01*
X113106Y267000D01*
Y294850D01*
X113132Y294868D01*
X113632Y295617D01*
X113808Y296500D01*
X113632Y297383D01*
X113132Y298132D01*
X112383Y298632D01*
X111500Y298808D01*
D02*
G37*
G36*
X53132Y235827D02*
X49606D01*
Y232301D01*
X50240Y232385D01*
X51198Y232782D01*
X52021Y233413D01*
X52652Y234235D01*
X53048Y235193D01*
X53132Y235827D01*
D02*
G37*
G36*
X48819D02*
X45294D01*
X45377Y235193D01*
X45774Y234235D01*
X46405Y233413D01*
X47227Y232782D01*
X48185Y232385D01*
X48819Y232301D01*
Y235827D01*
D02*
G37*
G36*
X34213Y224993D02*
X33236Y224864D01*
X32326Y224487D01*
X31545Y223888D01*
X30946Y223107D01*
X30569Y222197D01*
X30440Y221220D01*
X30569Y220244D01*
X30946Y219334D01*
X31545Y218553D01*
X32326Y217953D01*
X33236Y217577D01*
X34213Y217448D01*
X35189Y217577D01*
X36099Y217953D01*
X36880Y218553D01*
X37480Y219334D01*
X37857Y220244D01*
X37985Y221220D01*
X37857Y222197D01*
X37480Y223107D01*
X36880Y223888D01*
X36099Y224487D01*
X35189Y224864D01*
X34213Y224993D01*
D02*
G37*
G36*
Y196533D02*
X33082Y196385D01*
X32029Y195948D01*
X31124Y195254D01*
X30430Y194349D01*
X29993Y193296D01*
X29844Y192165D01*
X29993Y191035D01*
X30430Y189981D01*
X31124Y189077D01*
X32029Y188382D01*
X33082Y187946D01*
X34213Y187797D01*
X35343Y187946D01*
X36397Y188382D01*
X37301Y189077D01*
X37995Y189981D01*
X38432Y191035D01*
X38581Y192165D01*
X38432Y193296D01*
X37995Y194349D01*
X37301Y195254D01*
X36397Y195948D01*
X35343Y196385D01*
X34213Y196533D01*
D02*
G37*
G36*
X48819Y176772D02*
X45294D01*
X45377Y176138D01*
X45774Y175180D01*
X46405Y174357D01*
X47227Y173726D01*
X48185Y173330D01*
X48819Y173246D01*
Y176772D01*
D02*
G37*
G36*
X34213Y165938D02*
X33236Y165809D01*
X32326Y165432D01*
X31545Y164833D01*
X30946Y164052D01*
X30569Y163142D01*
X30440Y162165D01*
X30569Y161189D01*
X30946Y160279D01*
X31545Y159498D01*
X32326Y158898D01*
X33236Y158521D01*
X34213Y158393D01*
X35189Y158521D01*
X36099Y158898D01*
X36880Y159498D01*
X37480Y160279D01*
X37857Y161189D01*
X37985Y162165D01*
X37857Y163142D01*
X37480Y164052D01*
X36880Y164833D01*
X36099Y165432D01*
X35189Y165809D01*
X34213Y165938D01*
D02*
G37*
G36*
X64213Y166533D02*
X63082Y166385D01*
X62029Y165948D01*
X61124Y165254D01*
X60430Y164349D01*
X59993Y163296D01*
X59844Y162165D01*
X59993Y161035D01*
X60430Y159981D01*
X61124Y159077D01*
X62029Y158382D01*
X63082Y157946D01*
X64213Y157797D01*
X65343Y157946D01*
X66397Y158382D01*
X67301Y159077D01*
X67996Y159981D01*
X68432Y161035D01*
X68581Y162165D01*
X68432Y163296D01*
X67996Y164349D01*
X67301Y165254D01*
X66397Y165948D01*
X65343Y166385D01*
X64213Y166533D01*
D02*
G37*
G36*
X49606Y181085D02*
Y177559D01*
X53132D01*
X53048Y178193D01*
X52652Y179151D01*
X52021Y179973D01*
X51198Y180604D01*
X50240Y181001D01*
X49606Y181085D01*
D02*
G37*
G36*
X48819D02*
X48185Y181001D01*
X47227Y180604D01*
X46405Y179973D01*
X45774Y179151D01*
X45377Y178193D01*
X45294Y177559D01*
X48819D01*
Y181085D01*
D02*
G37*
G36*
X53132Y176772D02*
X49606D01*
Y173246D01*
X50240Y173330D01*
X51198Y173726D01*
X52021Y174357D01*
X52652Y175180D01*
X53048Y176138D01*
X53132Y176772D01*
D02*
G37*
G36*
X48819Y240140D02*
X48185Y240056D01*
X47227Y239659D01*
X46405Y239028D01*
X45774Y238206D01*
X45377Y237248D01*
X45294Y236614D01*
X48819D01*
Y240140D01*
D02*
G37*
G36*
X53132Y294882D02*
X49606D01*
Y291356D01*
X50240Y291440D01*
X51198Y291837D01*
X52021Y292468D01*
X52652Y293290D01*
X53048Y294248D01*
X53132Y294882D01*
D02*
G37*
G36*
X48819D02*
X45294D01*
X45377Y294248D01*
X45774Y293290D01*
X46405Y292468D01*
X47227Y291837D01*
X48185Y291440D01*
X48819Y291356D01*
Y294882D01*
D02*
G37*
G36*
X34213Y284048D02*
X33236Y283920D01*
X32326Y283543D01*
X31545Y282943D01*
X30946Y282162D01*
X30569Y281252D01*
X30440Y280276D01*
X30569Y279299D01*
X30946Y278389D01*
X31545Y277608D01*
X32326Y277009D01*
X33236Y276632D01*
X34213Y276503D01*
X35189Y276632D01*
X36099Y277009D01*
X36880Y277608D01*
X37480Y278389D01*
X37857Y279299D01*
X37985Y280276D01*
X37857Y281252D01*
X37480Y282162D01*
X36880Y282943D01*
X36099Y283543D01*
X35189Y283920D01*
X34213Y284048D01*
D02*
G37*
G36*
X236500Y300308D02*
X235617Y300132D01*
X234868Y299632D01*
X234850Y299606D01*
X227000D01*
X227000Y299606D01*
X226385Y299483D01*
X225865Y299135D01*
X225865Y299135D01*
X217865Y291135D01*
X217517Y290615D01*
X217394Y290000D01*
X217394Y290000D01*
Y190650D01*
X217368Y190632D01*
X216868Y189883D01*
X216692Y189000D01*
X216868Y188117D01*
X217368Y187368D01*
X218117Y186868D01*
X219000Y186692D01*
X219883Y186868D01*
X220632Y187368D01*
X221132Y188117D01*
X221308Y189000D01*
X221132Y189883D01*
X220632Y190632D01*
X220606Y190650D01*
Y289335D01*
X227665Y296394D01*
X234850D01*
X234868Y296368D01*
X235617Y295868D01*
X236183Y295755D01*
Y295245D01*
X235617Y295132D01*
X234868Y294632D01*
X234850Y294606D01*
X231000D01*
X230385Y294483D01*
X229865Y294135D01*
X229865Y294135D01*
X222865Y287135D01*
X222517Y286614D01*
X222394Y286000D01*
X222394Y286000D01*
Y187500D01*
X222394Y187500D01*
X222517Y186885D01*
X222865Y186365D01*
X227198Y182031D01*
X227192Y182000D01*
X227368Y181117D01*
X227868Y180368D01*
X228617Y179868D01*
X229500Y179692D01*
X230383Y179868D01*
X231132Y180368D01*
X231632Y181117D01*
X231808Y182000D01*
X231632Y182883D01*
X231132Y183632D01*
X230383Y184132D01*
X229500Y184308D01*
X229469Y184302D01*
X225606Y188165D01*
Y285335D01*
X231665Y291394D01*
X234850D01*
X234868Y291368D01*
X235617Y290868D01*
X236183Y290755D01*
Y290245D01*
X235617Y290132D01*
X234868Y289632D01*
X234368Y288883D01*
X234192Y288000D01*
X234368Y287117D01*
X234868Y286368D01*
X235617Y285868D01*
X236500Y285692D01*
X237383Y285868D01*
X238132Y286368D01*
X238150Y286394D01*
X276850D01*
X276868Y286368D01*
X277617Y285868D01*
X278500Y285692D01*
X279383Y285868D01*
X280132Y286368D01*
X280632Y287117D01*
X280808Y288000D01*
X280632Y288883D01*
X280132Y289632D01*
X279383Y290132D01*
X278500Y290308D01*
X277617Y290132D01*
X276868Y289632D01*
X276850Y289606D01*
X238150D01*
X238132Y289632D01*
X237383Y290132D01*
X236817Y290245D01*
Y290755D01*
X237383Y290868D01*
X238132Y291368D01*
X238632Y292117D01*
X238808Y293000D01*
X238632Y293883D01*
X238132Y294632D01*
X237383Y295132D01*
X236817Y295245D01*
Y295755D01*
X237383Y295868D01*
X238132Y296368D01*
X238632Y297117D01*
X238808Y298000D01*
X238632Y298883D01*
X238132Y299632D01*
X237383Y300132D01*
X236500Y300308D01*
D02*
G37*
G36*
X49606Y299195D02*
Y295669D01*
X53132D01*
X53048Y296303D01*
X52652Y297261D01*
X52021Y298083D01*
X51198Y298715D01*
X50240Y299111D01*
X49606Y299195D01*
D02*
G37*
G36*
X48819D02*
X48185Y299111D01*
X47227Y298715D01*
X46405Y298083D01*
X45774Y297261D01*
X45377Y296303D01*
X45294Y295669D01*
X48819D01*
Y299195D01*
D02*
G37*
G36*
X64213Y284644D02*
X63082Y284495D01*
X62029Y284058D01*
X61124Y283364D01*
X60430Y282460D01*
X59993Y281406D01*
X59844Y280276D01*
X59993Y279145D01*
X60430Y278092D01*
X61124Y277187D01*
X62029Y276493D01*
X63082Y276056D01*
X64213Y275907D01*
X65343Y276056D01*
X66397Y276493D01*
X67301Y277187D01*
X67996Y278092D01*
X68432Y279145D01*
X68581Y280276D01*
X68432Y281406D01*
X67996Y282460D01*
X67301Y283364D01*
X66397Y284058D01*
X65343Y284495D01*
X64213Y284644D01*
D02*
G37*
G36*
X214500Y255808D02*
X213617Y255632D01*
X212868Y255132D01*
X212850Y255106D01*
X204150D01*
X204132Y255132D01*
X203383Y255632D01*
X202500Y255808D01*
X201617Y255632D01*
X200868Y255132D01*
X200368Y254383D01*
X200192Y253500D01*
X200368Y252617D01*
X200868Y251868D01*
X201617Y251368D01*
X202500Y251192D01*
X203383Y251368D01*
X204132Y251868D01*
X204150Y251894D01*
X212850D01*
X212868Y251868D01*
X213617Y251368D01*
X214500Y251192D01*
X215383Y251368D01*
X216132Y251868D01*
X216632Y252617D01*
X216808Y253500D01*
X216632Y254383D01*
X216132Y255132D01*
X215383Y255632D01*
X214500Y255808D01*
D02*
G37*
G36*
X34213Y255589D02*
X33082Y255440D01*
X32029Y255003D01*
X31124Y254309D01*
X30430Y253404D01*
X29993Y252351D01*
X29844Y251220D01*
X29993Y250090D01*
X30430Y249036D01*
X31124Y248132D01*
X32029Y247438D01*
X33082Y247001D01*
X34213Y246852D01*
X35343Y247001D01*
X36397Y247438D01*
X37301Y248132D01*
X37995Y249036D01*
X38432Y250090D01*
X38581Y251220D01*
X38432Y252351D01*
X37995Y253404D01*
X37301Y254309D01*
X36397Y255003D01*
X35343Y255440D01*
X34213Y255589D01*
D02*
G37*
G36*
X49606Y240140D02*
Y236614D01*
X53132D01*
X53048Y237248D01*
X52652Y238206D01*
X52021Y239028D01*
X51198Y239659D01*
X50240Y240056D01*
X49606Y240140D01*
D02*
G37*
G36*
X104500Y272808D02*
X103617Y272632D01*
X102868Y272132D01*
X102850Y272106D01*
X88150D01*
X88132Y272132D01*
X87383Y272632D01*
X86500Y272808D01*
X85617Y272632D01*
X84868Y272132D01*
X84368Y271383D01*
X84192Y270500D01*
X84368Y269617D01*
X84868Y268868D01*
X85617Y268368D01*
X86500Y268192D01*
X87383Y268368D01*
X88132Y268868D01*
X88150Y268894D01*
X102850D01*
X102868Y268868D01*
X103617Y268368D01*
X104500Y268192D01*
X105383Y268368D01*
X106132Y268868D01*
X106632Y269617D01*
X106808Y270500D01*
X106632Y271383D01*
X106132Y272132D01*
X105383Y272632D01*
X104500Y272808D01*
D02*
G37*
G36*
X232000Y285308D02*
X231117Y285132D01*
X230368Y284632D01*
X229868Y283883D01*
X229692Y283000D01*
X229868Y282117D01*
X230368Y281368D01*
X230394Y281350D01*
Y267650D01*
X230368Y267632D01*
X229868Y266883D01*
X229692Y266000D01*
X229868Y265117D01*
X230368Y264368D01*
X231117Y263868D01*
X232000Y263692D01*
X232883Y263868D01*
X233632Y264368D01*
X234132Y265117D01*
X234308Y266000D01*
X234132Y266883D01*
X233632Y267632D01*
X233606Y267650D01*
Y281350D01*
X233632Y281368D01*
X234132Y282117D01*
X234308Y283000D01*
X234132Y283883D01*
X233632Y284632D01*
X232883Y285132D01*
X232000Y285308D01*
D02*
G37*
G36*
X229500Y371808D02*
X228617Y371632D01*
X227868Y371132D01*
X227368Y370383D01*
X227192Y369500D01*
X227368Y368617D01*
X227868Y367868D01*
X228617Y367368D01*
X229500Y367192D01*
X229531Y367198D01*
X240365Y356365D01*
X240365Y356365D01*
X240885Y356017D01*
X241500Y355894D01*
X254835D01*
X285894Y324835D01*
Y280165D01*
X261835Y256106D01*
X233150D01*
X233132Y256132D01*
X232383Y256632D01*
X231500Y256808D01*
X230617Y256632D01*
X229868Y256132D01*
X229368Y255383D01*
X229192Y254500D01*
X229368Y253617D01*
X229868Y252868D01*
X230617Y252368D01*
X231500Y252192D01*
X232383Y252368D01*
X233132Y252868D01*
X233150Y252894D01*
X262500D01*
X262500Y252894D01*
X263115Y253017D01*
X263635Y253365D01*
X288635Y278365D01*
X288983Y278886D01*
X289106Y279500D01*
X289106Y279500D01*
Y325500D01*
X288983Y326115D01*
X288635Y326635D01*
X288635Y326635D01*
X256635Y358635D01*
X256115Y358983D01*
X255500Y359106D01*
X255500Y359106D01*
X242165D01*
X231802Y369469D01*
X231808Y369500D01*
X231632Y370383D01*
X231132Y371132D01*
X230383Y371632D01*
X229500Y371808D01*
D02*
G37*
%LPD*%
D35*
X136500Y153000D02*
X152500D01*
X107500Y124000D02*
X136500Y153000D01*
X203407Y318000D02*
X209500D01*
X117000Y213500D02*
Y231593D01*
X203407Y318000D01*
X163500Y344000D02*
Y379000D01*
X173500Y344000D02*
Y379000D01*
X86500Y270500D02*
X104500D01*
X36992Y204492D02*
X79992D01*
X98000Y222500D01*
Y253500D01*
X111500Y267000D01*
Y296500D01*
X287000Y75500D02*
Y145000D01*
X268437Y89437D02*
Y109937D01*
X99500Y369000D02*
X130000D01*
X96000Y372500D02*
X99500Y369000D01*
X96000Y372500D02*
Y379000D01*
X202500Y253500D02*
X214500D01*
X224000Y187500D02*
Y286000D01*
Y187500D02*
X229500Y182000D01*
X232000Y266000D02*
Y283000D01*
X224000Y286000D02*
X231000Y293000D01*
X236500D01*
Y288000D02*
X278500D01*
X227000Y298000D02*
X236500D01*
X219000Y290000D02*
X227000Y298000D01*
X219000Y189000D02*
Y290000D01*
X231500Y254500D02*
X262500D01*
X287500Y279500D01*
X134500Y318000D02*
X152000D01*
X117000Y335500D02*
X134500Y318000D01*
X38000Y335500D02*
X117000D01*
X191685Y341185D02*
X222315D01*
X116500Y266000D02*
X191685Y341185D01*
X287500Y279500D02*
Y325500D01*
X193000Y214500D02*
Y261000D01*
Y214500D02*
X199000Y208500D01*
X229500Y369500D02*
X241500Y357500D01*
X255500D01*
X287500Y325500D01*
D40*
X49213Y236221D02*
D03*
X34213Y221220D02*
D03*
X49213Y177165D02*
D03*
X34213Y162165D02*
D03*
X354331Y110236D02*
D03*
X339331Y125236D02*
D03*
X49213Y295276D02*
D03*
X34213Y280276D02*
D03*
X143500Y379000D02*
D03*
X153500D02*
D03*
X163500D02*
D03*
X173500D02*
D03*
X183500D02*
D03*
X193500D02*
D03*
D41*
X64213Y221220D02*
D03*
X34213Y251220D02*
D03*
X64213Y162165D02*
D03*
X34213Y192165D02*
D03*
X339331Y95236D02*
D03*
X369331Y125236D02*
D03*
X64213Y280276D02*
D03*
X34213Y310276D02*
D03*
D42*
X367606Y152012D02*
D03*
X318394D02*
D03*
D43*
X373331Y69842D02*
D03*
Y50157D02*
D03*
D44*
X383961Y44744D02*
D03*
Y75256D02*
D03*
D45*
X369000Y45335D02*
D03*
Y74665D02*
D03*
D46*
X55343Y95000D02*
D03*
X35658D02*
D03*
D47*
X226500Y121370D02*
D03*
Y113496D02*
D03*
Y105622D02*
D03*
Y97748D02*
D03*
Y89874D02*
D03*
Y82000D02*
D03*
Y74126D02*
D03*
Y66252D02*
D03*
Y58378D02*
D03*
Y50504D02*
D03*
X139886D02*
D03*
Y58378D02*
D03*
Y66252D02*
D03*
Y74126D02*
D03*
Y82000D02*
D03*
Y89874D02*
D03*
Y97748D02*
D03*
Y105622D02*
D03*
Y113496D02*
D03*
Y121370D02*
D03*
D48*
X116000Y379000D02*
D03*
D49*
X106000D02*
D03*
X96000D02*
D03*
D50*
X203500D02*
D03*
D51*
X19685Y19685D02*
D03*
X374016D02*
D03*
Y374016D02*
D03*
X19685D02*
D03*
D52*
X152500Y153000D02*
D03*
X107500Y124000D02*
D03*
X310000Y68000D02*
D03*
X86500Y270500D02*
D03*
X104500D02*
D03*
X109260Y256260D02*
D03*
X89063Y315437D02*
D03*
X109760Y196740D02*
D03*
X386500Y96000D02*
D03*
X287000Y75500D02*
D03*
X307500Y100000D02*
D03*
X287000Y145000D02*
D03*
X268437Y109937D02*
D03*
Y89437D02*
D03*
X248000Y67500D02*
D03*
X294740Y116760D02*
D03*
X83563Y113563D02*
D03*
X229500Y195000D02*
D03*
X272000Y278500D02*
D03*
X158000Y268000D02*
D03*
X130000Y369000D02*
D03*
X173500Y344000D02*
D03*
X163500D02*
D03*
X209500Y318000D02*
D03*
X117000Y213500D02*
D03*
X214500Y253500D02*
D03*
X202500D02*
D03*
X193000Y261000D02*
D03*
X190000Y200000D02*
D03*
X199000Y208500D02*
D03*
X232000Y266000D02*
D03*
X278500Y288000D02*
D03*
X229500Y182000D02*
D03*
X232000Y283000D02*
D03*
X236500Y293000D02*
D03*
Y288000D02*
D03*
Y298000D02*
D03*
X219000Y189000D02*
D03*
X234500Y308000D02*
D03*
X231500Y254500D02*
D03*
X111500Y296500D02*
D03*
X36992Y204492D02*
D03*
X152000Y318000D02*
D03*
X38000Y335500D02*
D03*
X152094Y309405D02*
D03*
X222315Y341185D02*
D03*
X116500Y266000D02*
D03*
X229500Y369500D02*
D03*
X276937Y296437D02*
D03*
D53*
X323169Y50331D02*
D03*
X327500D02*
D03*
X331831D02*
D03*
X323169Y46000D02*
D03*
X327500D02*
D03*
X331831D02*
D03*
X323169Y41669D02*
D03*
X327500D02*
D03*
X331831D02*
D03*
M02*
