G04 Layer_Color=32768*
%FSLAX25Y25*%
%MOIN*%
G70*
G01*
G75*
%ADD95C,0.00394*%
%ADD96C,0.00197*%
D95*
X327500Y44032D02*
Y47969D01*
X325532Y46000D02*
X329468D01*
X289000Y122531D02*
Y126469D01*
X287032Y124500D02*
X290968D01*
X291000Y97531D02*
Y101469D01*
X289032Y99500D02*
X292969D01*
X289032Y68500D02*
X292969D01*
X291000Y66531D02*
Y70468D01*
X298031Y55000D02*
X301969D01*
X300000Y53031D02*
Y56968D01*
X352031Y58500D02*
X355968D01*
X354000Y56532D02*
Y60469D01*
X168000Y301532D02*
Y305469D01*
X166032Y303500D02*
X169968D01*
X232531Y324000D02*
X236469D01*
X234500Y322031D02*
Y325969D01*
X273000Y302532D02*
Y306469D01*
X271031Y304500D02*
X274969D01*
X185500Y212032D02*
Y215968D01*
X183531Y214000D02*
X187469D01*
X222500Y212032D02*
Y215968D01*
X220532Y214000D02*
X224468D01*
X271031Y99500D02*
X274969D01*
X273000Y97531D02*
Y101469D01*
X264500Y77031D02*
Y80968D01*
X262531Y79000D02*
X266469D01*
X269000Y118532D02*
Y122468D01*
X267032Y120500D02*
X270969D01*
X248000Y77031D02*
Y80968D01*
X246031Y79000D02*
X249969D01*
X245000Y280031D02*
Y283968D01*
X243032Y282000D02*
X246969D01*
X262000Y276532D02*
Y280469D01*
X260032Y278500D02*
X263968D01*
X96531Y162500D02*
X100469D01*
X98500Y160531D02*
Y164469D01*
X98500Y219032D02*
Y222969D01*
X96531Y221000D02*
X100469D01*
X98500Y280031D02*
Y283968D01*
X96531Y282000D02*
X100469D01*
X233531Y375500D02*
X237469D01*
X235500Y373532D02*
Y377468D01*
X202532Y300500D02*
X206469D01*
X204500Y298532D02*
Y302468D01*
X170000Y266032D02*
Y269969D01*
X168032Y268000D02*
X171968D01*
X221500Y377031D02*
Y380968D01*
X219531Y379000D02*
X223468D01*
X96531Y311500D02*
X100469D01*
X98500Y309531D02*
Y313469D01*
X111031Y242500D02*
X114969D01*
X113000Y240531D02*
Y244468D01*
X111531Y183500D02*
X115469D01*
X113500Y181532D02*
Y185468D01*
X14000Y191532D02*
Y195468D01*
X12032Y193500D02*
X15969D01*
X14000Y224031D02*
Y227969D01*
X12032Y226000D02*
X15969D01*
X14000Y288032D02*
Y291968D01*
X12032Y290000D02*
X15969D01*
X85532Y77000D02*
X89468D01*
X87500Y75032D02*
Y78969D01*
X85532Y99000D02*
X89468D01*
X87500Y97031D02*
Y100969D01*
X85532Y124000D02*
X89468D01*
X87500Y122031D02*
Y125969D01*
X386500Y104532D02*
Y108468D01*
X384531Y106500D02*
X388469D01*
X306500Y118532D02*
Y122468D01*
X304532Y120500D02*
X308469D01*
X209878Y373213D02*
Y384787D01*
X137122D02*
X209878D01*
X137122Y373213D02*
Y384787D01*
Y373213D02*
X209878D01*
X171531Y379000D02*
X175469D01*
X173500Y377031D02*
Y380968D01*
D96*
X312244Y57024D02*
X342756D01*
X312244Y34976D02*
X342756D01*
X312244D02*
Y57024D01*
X342756Y34976D02*
Y57024D01*
X282307Y128437D02*
X295693D01*
X282307Y120563D02*
X295693D01*
X282307D02*
Y128437D01*
X295693Y120563D02*
Y128437D01*
X282339Y104618D02*
X299661D01*
X282339Y94382D02*
X299661D01*
X282339D02*
Y104618D01*
X299661Y94382D02*
Y104618D01*
X299465Y63382D02*
Y73618D01*
X282535Y63382D02*
Y73618D01*
Y63382D02*
X299465D01*
X282535Y73618D02*
X299465D01*
X296850Y49488D02*
Y60512D01*
X303150Y49488D02*
Y60512D01*
X296850Y49488D02*
X303150D01*
X296850Y60512D02*
X303150D01*
X349079Y50035D02*
Y66965D01*
X358921Y50035D02*
Y66965D01*
X349079Y50035D02*
X358921D01*
X349079Y66965D02*
X358921D01*
X162291Y292673D02*
X173709D01*
X162291Y314327D02*
X173709D01*
X162291Y292673D02*
Y314327D01*
X173709Y292673D02*
Y314327D01*
X239618Y315339D02*
Y332661D01*
X229382Y315339D02*
Y332661D01*
X239618D01*
X229382Y315339D02*
X239618D01*
X264339Y309618D02*
X281661D01*
X264339Y299382D02*
X281661D01*
X264339D02*
Y309618D01*
X281661Y299382D02*
Y309618D01*
X180382Y205339D02*
X190618D01*
X180382Y222661D02*
X190618D01*
X180382Y205339D02*
Y222661D01*
X190618Y205339D02*
Y222661D01*
X217382Y205339D02*
X227618D01*
X217382Y222661D02*
X227618D01*
X217382Y205339D02*
Y222661D01*
X227618Y205339D02*
Y222661D01*
X89366Y373114D02*
X122634D01*
Y384886D01*
X89366D02*
X122634D01*
X89366Y373114D02*
Y384886D01*
X265520Y105642D02*
X280480D01*
X265520Y93358D02*
X280480D01*
Y105642D01*
X265520Y93358D02*
Y105642D01*
X258398Y72504D02*
X270602D01*
X258398Y85496D02*
X270602D01*
Y72504D02*
Y85496D01*
X258398Y72504D02*
Y85496D01*
X264079Y112232D02*
X273921D01*
X264079Y128768D02*
X273921D01*
X264079Y112232D02*
Y128768D01*
X273921Y112232D02*
Y128768D01*
X243079Y70732D02*
X252921D01*
X243079Y87268D02*
X252921D01*
X243079Y70732D02*
Y87268D01*
X252921Y70732D02*
Y87268D01*
X241260Y275110D02*
X248740D01*
X241260Y288890D02*
X248740D01*
X241260Y275110D02*
Y288890D01*
X248740Y275110D02*
Y288890D01*
X256488Y281453D02*
X267512D01*
X256488Y275547D02*
X267512D01*
X256488D02*
Y281453D01*
X267512Y275547D02*
Y281453D01*
X93579Y153839D02*
Y171161D01*
X103421Y153839D02*
Y171161D01*
X93579Y153839D02*
X103421D01*
X93579Y171161D02*
X103421D01*
X94760Y214110D02*
X102240D01*
X94760Y227890D02*
X102240D01*
X94760Y214110D02*
Y227890D01*
X102240Y214110D02*
Y227890D01*
X94760Y288890D02*
X102240D01*
X94760Y275110D02*
X102240D01*
Y288890D01*
X94760Y275110D02*
Y288890D01*
X239240Y369004D02*
Y381996D01*
X231760Y369004D02*
Y381996D01*
X239240D01*
X231760Y369004D02*
X239240D01*
X226153Y264870D02*
Y336130D01*
X182846Y264870D02*
Y336130D01*
Y264870D02*
X226153D01*
X182846Y336130D02*
X226153D01*
X161339Y262882D02*
X178661D01*
X161339Y273118D02*
X178661D01*
Y262882D02*
Y273118D01*
X161339Y262882D02*
Y273118D01*
X215004Y382740D02*
X227996D01*
X215004Y375260D02*
X227996D01*
X215004D02*
Y382740D01*
X227996Y375260D02*
Y382740D01*
X92004Y305398D02*
Y317602D01*
X104996Y305398D02*
Y317602D01*
X92004Y305398D02*
X104996D01*
X92004Y317602D02*
X104996D01*
X106504Y236398D02*
Y248602D01*
X119496Y236398D02*
Y248602D01*
X106504Y236398D02*
X119496D01*
X106504Y248602D02*
X119496D01*
X107004Y177398D02*
Y189602D01*
X119996Y177398D02*
Y189602D01*
X107004Y177398D02*
X119996D01*
X107004Y189602D02*
X119996D01*
X7504Y197240D02*
X20496D01*
X7504Y189760D02*
X20496D01*
X7504D02*
Y197240D01*
X20496Y189760D02*
Y197240D01*
X7504Y229740D02*
X20496D01*
X7504Y222260D02*
X20496D01*
X7504D02*
Y229740D01*
X20496Y222260D02*
Y229740D01*
X7504Y293740D02*
X20496D01*
X7504Y286260D02*
X20496D01*
X7504D02*
Y293740D01*
X20496Y286260D02*
Y293740D01*
X95768Y72079D02*
Y81921D01*
X79232Y72079D02*
Y81921D01*
Y72079D02*
X95768D01*
X79232Y81921D02*
X95768D01*
X81004Y92898D02*
Y105102D01*
X93996Y92898D02*
Y105102D01*
X81004Y92898D02*
X93996D01*
X81004Y105102D02*
X93996D01*
X79232Y119079D02*
Y128921D01*
X95768Y119079D02*
Y128921D01*
X79232D02*
X95768D01*
X79232Y119079D02*
X95768D01*
X381579Y98232D02*
X391421D01*
X381579Y114768D02*
X391421D01*
X381579Y98232D02*
Y114768D01*
X391421Y98232D02*
Y114768D01*
X300398Y114004D02*
X312602D01*
X300398Y126996D02*
X312602D01*
Y114004D02*
Y126996D01*
X300398Y114004D02*
Y126996D01*
M02*
