G04 Layer_Color=16711935*
%FSLAX25Y25*%
%MOIN*%
G70*
G01*
G75*
%ADD55C,0.01000*%
%ADD58C,0.00787*%
%ADD95C,0.00394*%
D55*
X189039Y244980D02*
G03*
X189039Y230020I-39J-7480D01*
G01*
X219499Y230036D02*
G03*
X218961Y244980I-499J7464D01*
G01*
X69036Y94817D02*
G03*
X69036Y94817I-23537J0D01*
G01*
X24213Y211221D02*
X74213D01*
Y261221D01*
X24213D02*
X74213D01*
X24213Y211221D02*
Y261221D01*
Y152165D02*
X74213D01*
Y202165D01*
X24213D02*
X74213D01*
X24213Y152165D02*
Y202165D01*
X329331Y85236D02*
Y135236D01*
Y85236D02*
X379331D01*
Y135236D01*
X329331D02*
X379331D01*
X24213Y270276D02*
X74213D01*
Y320276D01*
X24213D02*
X74213D01*
X24213Y270276D02*
Y320276D01*
X222193Y45687D02*
X231193D01*
X222193D02*
Y125937D01*
X231193D01*
Y45687D02*
Y125937D01*
X135693Y45687D02*
X144193D01*
X135693D02*
Y125937D01*
X144193D01*
Y45687D02*
Y125937D01*
X255795Y345783D02*
X280205D01*
Y381217D01*
X255795D02*
X280205D01*
X255795Y345783D02*
Y381217D01*
D58*
X296500Y144500D02*
Y348500D01*
X390000D01*
X296500Y144500D02*
X390000D01*
Y348500D01*
X189039Y230020D02*
X218961D01*
X189039Y244980D02*
X218961D01*
X95925Y291276D02*
X100925D01*
X95925D02*
Y299276D01*
X100925Y291276D02*
Y299276D01*
X95925D02*
X100925D01*
X95925Y232221D02*
X100925D01*
X95925D02*
Y240220D01*
X100925Y232221D02*
Y240220D01*
X95925D02*
X100925D01*
X95925Y173165D02*
X100925D01*
X95925D02*
Y181165D01*
X100925Y173165D02*
Y181165D01*
X95925D02*
X100925D01*
X287366Y92740D02*
X296366D01*
Y80740D02*
Y92740D01*
X287366Y80740D02*
Y92740D01*
Y80740D02*
X296366D01*
D95*
X334784Y39504D02*
G03*
X334784Y39504I-1969J0D01*
G01*
X217689Y268807D02*
G03*
X217689Y268807I-1969J0D01*
G01*
X318642Y56039D02*
X336358D01*
X318642Y35961D02*
X336358D01*
X318642D02*
Y56039D01*
X336358Y35961D02*
Y56039D01*
X284669Y127354D02*
X293331D01*
X284669Y121646D02*
X293331D01*
X284669D02*
Y127354D01*
X293331Y121646D02*
Y127354D01*
X286669Y102354D02*
X295331D01*
X286669Y96646D02*
X295331D01*
X286669D02*
Y102354D01*
X295331Y96646D02*
Y102354D01*
Y65646D02*
Y71354D01*
X286669Y65646D02*
Y71354D01*
Y65646D02*
X295331D01*
X286669Y71354D02*
X295331D01*
X297146Y50669D02*
Y59331D01*
X302854Y50669D02*
Y59331D01*
X297146Y50669D02*
X302854D01*
X297146Y59331D02*
X302854D01*
X351343Y54366D02*
Y62634D01*
X356658Y54366D02*
Y62634D01*
X351343Y54366D02*
X356658D01*
X351343Y62634D02*
X356658D01*
X164457Y296807D02*
X171543D01*
X164457Y310193D02*
X171543D01*
X164457Y296807D02*
Y310193D01*
X171543Y296807D02*
Y310193D01*
X237354Y319669D02*
Y328331D01*
X231646Y319669D02*
Y328331D01*
X237354D01*
X231646Y319669D02*
X237354D01*
X268669Y307354D02*
X277331D01*
X268669Y301646D02*
X277331D01*
X268669D02*
Y307354D01*
X277331Y301646D02*
Y307354D01*
X182646Y209669D02*
X188354D01*
X182646Y218331D02*
X188354D01*
X182646Y209669D02*
Y218331D01*
X188354Y209669D02*
Y218331D01*
X219646Y209669D02*
X225354D01*
X219646Y218331D02*
X225354D01*
X219646Y209669D02*
Y218331D01*
X225354Y209669D02*
Y218331D01*
X90252Y374000D02*
X121748D01*
Y384000D01*
X90252D02*
X121748D01*
X90252Y374000D02*
Y384000D01*
X270244Y105248D02*
X275756D01*
X270244Y93752D02*
X275756D01*
X270244D02*
Y105248D01*
X275756Y93752D02*
Y105248D01*
X261744Y72996D02*
X267256D01*
X261744Y85004D02*
X267256D01*
Y72996D02*
Y85004D01*
X261744Y72996D02*
Y85004D01*
X266342Y116366D02*
X271657D01*
X266342Y124634D02*
X271657D01*
X266342Y116366D02*
Y124634D01*
X271657Y116366D02*
Y124634D01*
X245342Y74866D02*
X250658D01*
X245342Y83134D02*
X250658D01*
X245342Y74866D02*
Y83134D01*
X250658Y74866D02*
Y83134D01*
X242342Y277669D02*
X247657D01*
X242342Y286331D02*
X247657D01*
X242342Y277669D02*
Y286331D01*
X247657Y277669D02*
Y286331D01*
X257669Y281157D02*
X266331D01*
X257669Y275842D02*
X266331D01*
X257669D02*
Y281157D01*
X266331Y275842D02*
Y281157D01*
X95842Y158169D02*
Y166831D01*
X101157Y158169D02*
Y166831D01*
X95842Y158169D02*
X101157D01*
X95842Y166831D02*
X101157D01*
X95842Y216669D02*
X101157D01*
X95842Y225331D02*
X101157D01*
X95842Y216669D02*
Y225331D01*
X101157Y216669D02*
Y225331D01*
X95842Y286331D02*
X101157D01*
X95842Y277669D02*
X101157D01*
Y286331D01*
X95842Y277669D02*
Y286331D01*
X238158Y371366D02*
Y379634D01*
X232842Y371366D02*
Y379634D01*
X238158D01*
X232842Y371366D02*
X238158D01*
X219264Y265264D02*
Y335736D01*
X189736Y265264D02*
Y335736D01*
Y265264D02*
X219264D01*
X189736Y335736D02*
X219264D01*
X165669Y265146D02*
X174331D01*
X165669Y270854D02*
X174331D01*
Y265146D02*
Y270854D01*
X165669Y265146D02*
Y270854D01*
X217366Y381658D02*
X225634D01*
X217366Y376343D02*
X225634D01*
X217366D02*
Y381658D01*
X225634Y376343D02*
Y381658D01*
X92496Y308744D02*
Y314256D01*
X104504Y308744D02*
Y314256D01*
X92496Y308744D02*
X104504D01*
X92496Y314256D02*
X104504D01*
X106996Y239744D02*
Y245256D01*
X119004Y239744D02*
Y245256D01*
X106996Y239744D02*
X119004D01*
X106996Y245256D02*
X119004D01*
X107496Y180744D02*
Y186256D01*
X119504Y180744D02*
Y186256D01*
X107496Y180744D02*
X119504D01*
X107496Y186256D02*
X119504D01*
X9866Y196158D02*
X18134D01*
X9866Y190842D02*
X18134D01*
X9866D02*
Y196158D01*
X18134Y190842D02*
Y196158D01*
X9866Y228658D02*
X18134D01*
X9866Y223342D02*
X18134D01*
X9866D02*
Y228658D01*
X18134Y223342D02*
Y228658D01*
X9866Y292657D02*
X18134D01*
X9866Y287343D02*
X18134D01*
X9866D02*
Y292657D01*
X18134Y287343D02*
Y292657D01*
X91634Y74343D02*
Y79658D01*
X83366Y74343D02*
Y79658D01*
Y74343D02*
X91634D01*
X83366Y79658D02*
X91634D01*
X81496Y96244D02*
Y101756D01*
X93504Y96244D02*
Y101756D01*
X81496Y96244D02*
X93504D01*
X81496Y101756D02*
X93504D01*
X83366Y121343D02*
Y126657D01*
X91634Y121343D02*
Y126657D01*
X83366D02*
X91634D01*
X83366Y121343D02*
X91634D01*
X383842Y102366D02*
X389158D01*
X383842Y110634D02*
X389158D01*
X383842Y102366D02*
Y110634D01*
X389158Y102366D02*
Y110634D01*
X303744Y114496D02*
X309256D01*
X303744Y126504D02*
X309256D01*
Y114496D02*
Y126504D01*
X303744Y114496D02*
Y126504D01*
X209090Y374000D02*
Y384000D01*
X137909D02*
X209090D01*
X137909Y374000D02*
Y384000D01*
Y374000D02*
X209090D01*
M02*
