G04 Layer_Color=65535*
%FSLAX25Y25*%
%MOIN*%
G70*
G01*
G75*
%ADD54C,0.00984*%
%ADD55C,0.01000*%
%ADD56C,0.00400*%
%ADD57C,0.02362*%
%ADD58C,0.00787*%
%ADD59C,0.00500*%
D54*
X339606Y33992D02*
G03*
X339606Y33992I-492J0D01*
G01*
X269161Y107374D02*
G03*
X269161Y107374I-492J0D01*
G01*
X261055Y86480D02*
G03*
X261055Y86480I-492J0D01*
G01*
X222807Y264653D02*
G03*
X222807Y264653I-492J0D01*
G01*
X106473Y315437D02*
G03*
X106473Y315437I-492J0D01*
G01*
X120973Y246437D02*
G03*
X120973Y246437I-492J0D01*
G01*
X121473Y187437D02*
G03*
X121473Y187437I-492J0D01*
G01*
X95473Y102937D02*
G03*
X95473Y102937I-492J0D01*
G01*
X303055Y127980D02*
G03*
X303055Y127980I-492J0D01*
G01*
D55*
X218961Y230020D02*
G03*
X218961Y244980I39J7480D01*
G01*
X189039D02*
G03*
X189039Y230020I-39J-7480D01*
G01*
X368488Y51653D02*
G03*
X368488Y51653I-472J0D01*
G01*
X295366Y77240D02*
G03*
X295366Y77240I-500J0D01*
G01*
X69000Y95000D02*
G03*
X69000Y95000I-23500J0D01*
G01*
X24311Y211319D02*
X74114D01*
Y261122D01*
X24311D02*
X74114D01*
X24311Y211319D02*
Y261122D01*
Y152264D02*
X74114D01*
Y202067D01*
X24311D02*
X74114D01*
X24311Y152264D02*
Y202067D01*
X329429Y85335D02*
Y135138D01*
Y85335D02*
X379232D01*
Y135138D01*
X329429D02*
X379232D01*
X24311Y270374D02*
X74114D01*
Y320177D01*
X24311D02*
X74114D01*
X24311Y270374D02*
Y320177D01*
X390244Y144138D02*
Y348862D01*
X295756Y144138D02*
X390244D01*
X295756Y348862D02*
X390244D01*
X295756Y144138D02*
Y348862D01*
X189039Y244980D02*
X218961D01*
X189039Y230020D02*
X218961D01*
X95925Y302276D02*
X100925D01*
X95965Y299213D02*
X100886D01*
Y291339D02*
Y299213D01*
X95965Y291339D02*
Y299213D01*
Y291339D02*
X100886D01*
X95925Y243220D02*
X100925D01*
X95965Y240158D02*
X100886D01*
Y232283D02*
Y240158D01*
X95965Y232283D02*
Y240158D01*
Y232283D02*
X100886D01*
X95925Y184165D02*
X100925D01*
X95965Y181102D02*
X100886D01*
Y173228D02*
Y181102D01*
X95965Y173228D02*
Y181102D01*
Y173228D02*
X100886D01*
X285366Y80240D02*
X297366D01*
X285366D02*
Y93240D01*
X297366Y80240D02*
Y93240D01*
X285366D02*
X297366D01*
X222193Y45937D02*
X226193D01*
X231193D01*
X222193D02*
Y125937D01*
X231193D01*
Y45937D02*
Y125937D01*
X135693Y45937D02*
X144193D01*
X135693D02*
Y125937D01*
X144193D01*
Y45937D02*
Y125937D01*
X255795Y351689D02*
Y375311D01*
X280205D01*
Y351689D02*
Y375311D01*
X255795Y351689D02*
X280205D01*
X36000Y7000D02*
X37999D01*
X37000D01*
Y12998D01*
X36000Y11998D01*
X40998Y12998D02*
X44997D01*
Y11998D01*
X40998Y8000D01*
Y7000D01*
X46996Y11998D02*
X47996Y12998D01*
X49995D01*
X50995Y11998D01*
Y10999D01*
X49995Y9999D01*
X48996D01*
X49995D01*
X50995Y8999D01*
Y8000D01*
X49995Y7000D01*
X47996D01*
X46996Y8000D01*
X52995Y11998D02*
X53994Y12998D01*
X55993D01*
X56993Y11998D01*
Y8000D01*
X55993Y7000D01*
X53994D01*
X52995Y8000D01*
Y11998D01*
X58993D02*
X59992Y12998D01*
X61992D01*
X62991Y11998D01*
Y8000D01*
X61992Y7000D01*
X59992D01*
X58993Y8000D01*
Y11998D01*
X64991Y7000D02*
Y10999D01*
X66990Y12998D01*
X68989Y10999D01*
Y7000D01*
Y9999D01*
X64991D01*
D56*
X389977Y49168D02*
G03*
X390999Y49985I-88J1157D01*
G01*
X390999Y49985D02*
G03*
X390999Y52233I-3666J1124D01*
G01*
X390999Y52234D02*
G03*
X389977Y53051I-1110J-340D01*
G01*
X390999Y70015D02*
G03*
X389977Y70832I-1110J-340D01*
G01*
X390999Y67766D02*
G03*
X390999Y70014I-3666J1124D01*
G01*
X389977Y66949D02*
G03*
X390999Y67766I-88J1157D01*
G01*
X379146Y48350D02*
X389978Y49168D01*
X379146Y54073D02*
X389978Y53051D01*
X379146Y53255D02*
Y54073D01*
Y53255D02*
X388547Y52234D01*
Y50189D02*
Y52234D01*
X379146Y49168D02*
X388547Y50189D01*
X379146Y48350D02*
Y49168D01*
Y71649D02*
X389978Y70832D01*
X379146Y65926D02*
X389978Y66949D01*
X379146Y65926D02*
Y66744D01*
X388547Y67766D01*
Y69810D01*
X379146Y70832D02*
X388547Y69810D01*
X379146Y70832D02*
Y71649D01*
D57*
X214539Y269201D02*
G03*
X214539Y269201I-1181J0D01*
G01*
D58*
X320216Y56039D02*
X334784D01*
X320216Y35961D02*
X334784D01*
X287819Y126961D02*
X290181D01*
X287819Y122039D02*
X290181D01*
X290803Y102157D02*
X291197D01*
X290803Y96842D02*
X291197D01*
X297736Y54803D02*
Y55197D01*
X302264Y54803D02*
Y55197D01*
X164654Y302122D02*
Y304878D01*
X171346Y302122D02*
Y304878D01*
X237158Y323803D02*
Y324197D01*
X231842Y323803D02*
Y324197D01*
X272803Y307157D02*
X273197D01*
X272803Y301842D02*
X273197D01*
X182843Y213803D02*
Y214197D01*
X188157Y213803D02*
Y214197D01*
X219843Y213803D02*
Y214197D01*
X225157Y213803D02*
Y214197D01*
X90252Y374000D02*
X121748D01*
Y384000D01*
X90252D02*
X121748D01*
X90252Y374000D02*
Y384000D01*
X275756Y93752D02*
Y95957D01*
X272976Y93752D02*
X275756D01*
X272976Y105248D02*
X275756D01*
Y103043D02*
Y105248D01*
X267256Y72898D02*
Y75850D01*
X263713Y72898D02*
X267256D01*
Y82150D02*
Y85102D01*
X263713D02*
X267256D01*
X266539Y120106D02*
Y120894D01*
X271461Y120106D02*
Y120894D01*
X245539Y78606D02*
Y79394D01*
X250461Y78606D02*
Y79394D01*
X242638Y281803D02*
Y282197D01*
X247362Y281803D02*
Y282197D01*
X261803Y280665D02*
X262197D01*
X261803Y276335D02*
X262197D01*
X95941Y162303D02*
Y162697D01*
X101059Y162303D02*
Y162697D01*
X96138Y220803D02*
Y221197D01*
X100862Y220803D02*
Y221197D01*
X100862Y281803D02*
Y282197D01*
X96138Y281803D02*
Y282197D01*
X237764Y375106D02*
Y375894D01*
X233236Y375106D02*
Y375894D01*
X217295Y265264D02*
Y335736D01*
X191705Y265264D02*
Y335736D01*
Y265264D02*
X217295D01*
X191705Y335736D02*
X217295D01*
X169803Y265342D02*
X170197D01*
X169803Y270657D02*
X170197D01*
X221106Y381264D02*
X221894D01*
X221106Y376736D02*
X221894D01*
X92398Y308744D02*
X95350D01*
X92398D02*
Y312287D01*
X101650Y308744D02*
X104602D01*
Y312287D01*
X106898Y239744D02*
X109850D01*
X106898D02*
Y243287D01*
X116150Y239744D02*
X119102D01*
Y243287D01*
X107398Y180744D02*
X110350D01*
X107398D02*
Y184287D01*
X116650Y180744D02*
X119602D01*
Y184287D01*
X13606Y195764D02*
X14394D01*
X13606Y191236D02*
X14394D01*
X13606Y228264D02*
X14394D01*
X13606Y223736D02*
X14394D01*
X13606Y292264D02*
X14394D01*
X13606Y287736D02*
X14394D01*
X87106Y74539D02*
X87894D01*
X87106Y79461D02*
X87894D01*
X81398Y96244D02*
X84350D01*
X81398D02*
Y99787D01*
X90650Y96244D02*
X93602D01*
Y99787D01*
X87106Y126461D02*
X87894D01*
X87106Y121539D02*
X87894D01*
X384039Y106106D02*
Y106894D01*
X388961Y106106D02*
Y106894D01*
X309256Y114398D02*
Y117350D01*
X305713Y114398D02*
X309256D01*
Y123650D02*
Y126602D01*
X305713D02*
X309256D01*
X209090Y374000D02*
Y384000D01*
X137909D02*
X209090D01*
X137909Y374000D02*
Y384000D01*
Y374000D02*
X209090D01*
X142000Y371436D02*
X144624D01*
Y370780D01*
X142000Y368156D01*
Y367500D01*
X203000Y367000D02*
X204312D01*
X203656D01*
Y370936D01*
X203000Y370280D01*
D59*
X365457Y44252D02*
X393409D01*
X365457D02*
Y75748D01*
X393409D01*
Y44252D02*
Y75748D01*
X63337Y267796D02*
X62878Y268255D01*
X61959D01*
X61500Y267796D01*
Y267337D01*
X61959Y266878D01*
X62878D01*
X63337Y266418D01*
Y265959D01*
X62878Y265500D01*
X61959D01*
X61500Y265959D01*
X64255Y268255D02*
Y265500D01*
X65173Y266418D01*
X66092Y265500D01*
Y268255D01*
X68847Y265500D02*
X67010D01*
X68847Y267337D01*
Y267796D01*
X68388Y268255D01*
X67469D01*
X67010Y267796D01*
X69765D02*
X70224Y268255D01*
X71143D01*
X71602Y267796D01*
Y265959D01*
X71143Y265500D01*
X70224D01*
X69765Y265959D01*
Y267796D01*
X74357Y265500D02*
X72520D01*
X74357Y267337D01*
Y267796D01*
X73898Y268255D01*
X72979D01*
X72520Y267796D01*
X64337Y208296D02*
X63877Y208755D01*
X62959D01*
X62500Y208296D01*
Y207837D01*
X62959Y207378D01*
X63877D01*
X64337Y206918D01*
Y206459D01*
X63877Y206000D01*
X62959D01*
X62500Y206459D01*
X65255Y208755D02*
Y206000D01*
X66173Y206918D01*
X67092Y206000D01*
Y208755D01*
X69847Y206000D02*
X68010D01*
X69847Y207837D01*
Y208296D01*
X69388Y208755D01*
X68469D01*
X68010Y208296D01*
X70765D02*
X71224Y208755D01*
X72143D01*
X72602Y208296D01*
Y206459D01*
X72143Y206000D01*
X71224D01*
X70765Y206459D01*
Y208296D01*
X73520Y206000D02*
X74438D01*
X73979D01*
Y208755D01*
X73520Y208296D01*
X62837Y148796D02*
X62378Y149255D01*
X61459D01*
X61000Y148796D01*
Y148337D01*
X61459Y147878D01*
X62378D01*
X62837Y147418D01*
Y146959D01*
X62378Y146500D01*
X61459D01*
X61000Y146959D01*
X63755Y149255D02*
Y146500D01*
X64673Y147418D01*
X65592Y146500D01*
Y149255D01*
X68347Y146500D02*
X66510D01*
X68347Y148337D01*
Y148796D01*
X67888Y149255D01*
X66969D01*
X66510Y148796D01*
X69265D02*
X69724Y149255D01*
X70643D01*
X71102Y148796D01*
Y146959D01*
X70643Y146500D01*
X69724D01*
X69265Y146959D01*
Y148796D01*
X72020D02*
X72479Y149255D01*
X73398D01*
X73857Y148796D01*
Y146959D01*
X73398Y146500D01*
X72479D01*
X72020Y146959D01*
Y148796D01*
X283204Y358837D02*
X282745Y358378D01*
Y357459D01*
X283204Y357000D01*
X283663D01*
X284122Y357459D01*
Y358378D01*
X284582Y358837D01*
X285041D01*
X285500Y358378D01*
Y357459D01*
X285041Y357000D01*
X282745Y359755D02*
X285500D01*
X284582Y360673D01*
X285500Y361592D01*
X282745D01*
X285500Y364347D02*
Y362510D01*
X283663Y364347D01*
X283204D01*
X282745Y363888D01*
Y362969D01*
X283204Y362510D01*
Y365265D02*
X282745Y365724D01*
Y366643D01*
X283204Y367102D01*
X285041D01*
X285500Y366643D01*
Y365724D01*
X285041Y365265D01*
X283204D01*
Y368020D02*
X282745Y368479D01*
Y369398D01*
X283204Y369857D01*
X283663D01*
X284122Y369398D01*
Y368938D01*
Y369398D01*
X284582Y369857D01*
X285041D01*
X285500Y369398D01*
Y368479D01*
X285041Y368020D01*
X88670Y173197D02*
X91425D01*
Y174574D01*
X90966Y175033D01*
X89129D01*
X88670Y174574D01*
Y173197D01*
X91425Y177788D02*
Y175952D01*
X89588Y177788D01*
X89129D01*
X88670Y177329D01*
Y176411D01*
X89129Y175952D01*
Y178707D02*
X88670Y179166D01*
Y180084D01*
X89129Y180543D01*
X90966D01*
X91425Y180084D01*
Y179166D01*
X90966Y178707D01*
X89129D01*
Y181462D02*
X88670Y181921D01*
Y182839D01*
X89129Y183299D01*
X90966D01*
X91425Y182839D01*
Y181921D01*
X90966Y181462D01*
X89129D01*
X279111Y82740D02*
X281407D01*
X281866Y83199D01*
Y84118D01*
X281407Y84577D01*
X279111D01*
X281866Y85495D02*
Y86414D01*
Y85954D01*
X279111D01*
X279570Y85495D01*
Y87791D02*
X279111Y88250D01*
Y89169D01*
X279570Y89628D01*
X281407D01*
X281866Y89169D01*
Y88250D01*
X281407Y87791D01*
X279570D01*
Y90546D02*
X279111Y91005D01*
Y91924D01*
X279570Y92383D01*
X281407D01*
X281866Y91924D01*
Y91005D01*
X281407Y90546D01*
X279570D01*
X323204Y90837D02*
X322745Y90377D01*
Y89459D01*
X323204Y89000D01*
X323663D01*
X324123Y89459D01*
Y90377D01*
X324582Y90837D01*
X325041D01*
X325500Y90377D01*
Y89459D01*
X325041Y89000D01*
X322745Y91755D02*
X325500D01*
X324582Y92673D01*
X325500Y93592D01*
X322745D01*
X325500Y94510D02*
Y95428D01*
Y94969D01*
X322745D01*
X323204Y94510D01*
Y96806D02*
X322745Y97265D01*
Y98183D01*
X323204Y98643D01*
X325041D01*
X325500Y98183D01*
Y97265D01*
X325041Y96806D01*
X323204D01*
Y99561D02*
X322745Y100020D01*
Y100938D01*
X323204Y101398D01*
X325041D01*
X325500Y100938D01*
Y100020D01*
X325041Y99561D01*
X323204D01*
X221000Y41255D02*
X222837Y38500D01*
Y41255D02*
X221000Y38500D01*
X225592D02*
X223755D01*
X225592Y40337D01*
Y40796D01*
X225132Y41255D01*
X224214D01*
X223755Y40796D01*
X226510D02*
X226969Y41255D01*
X227888D01*
X228347Y40796D01*
Y38959D01*
X227888Y38500D01*
X226969D01*
X226510Y38959D01*
Y40796D01*
X229265D02*
X229724Y41255D01*
X230643D01*
X231102Y40796D01*
Y38959D01*
X230643Y38500D01*
X229724D01*
X229265Y38959D01*
Y40796D01*
X365831Y82912D02*
X367667Y80158D01*
Y82912D02*
X365831Y80158D01*
X368586D02*
X369504D01*
X369045D01*
Y82912D01*
X368586Y82453D01*
X370882D02*
X371341Y82912D01*
X372259D01*
X372718Y82453D01*
Y80617D01*
X372259Y80158D01*
X371341D01*
X370882Y80617D01*
Y82453D01*
X373637D02*
X374096Y82912D01*
X375014D01*
X375473Y82453D01*
Y80617D01*
X375014Y80158D01*
X374096D01*
X373637Y80617D01*
Y82453D01*
X320500Y33755D02*
Y31459D01*
X320959Y31000D01*
X321878D01*
X322337Y31459D01*
Y33755D01*
X323255Y31000D02*
X324173D01*
X323714D01*
Y33755D01*
X323255Y33296D01*
X325551D02*
X326010Y33755D01*
X326928D01*
X327388Y33296D01*
Y31459D01*
X326928Y31000D01*
X326010D01*
X325551Y31459D01*
Y33296D01*
X328306Y31000D02*
X329224D01*
X328765D01*
Y33755D01*
X328306Y33296D01*
X137400Y390255D02*
X139237Y387500D01*
Y390255D02*
X137400Y387500D01*
X141992D02*
X140155D01*
X141992Y389337D01*
Y389796D01*
X141533Y390255D01*
X140614D01*
X140155Y389796D01*
X142910D02*
X143369Y390255D01*
X144288D01*
X144747Y389796D01*
Y387959D01*
X144288Y387500D01*
X143369D01*
X142910Y387959D01*
Y389796D01*
X145665Y387500D02*
X146583D01*
X146124D01*
Y390255D01*
X145665Y389796D01*
X289245Y153000D02*
X292000D01*
Y154377D01*
X291541Y154837D01*
X291082D01*
X290622Y154377D01*
Y153000D01*
Y154377D01*
X290163Y154837D01*
X289704D01*
X289245Y154377D01*
Y153000D01*
Y155755D02*
Y157592D01*
Y156673D01*
X292000D01*
Y158510D02*
Y159428D01*
Y158969D01*
X289245D01*
X289704Y158510D01*
Y160806D02*
X289245Y161265D01*
Y162183D01*
X289704Y162643D01*
X291541D01*
X292000Y162183D01*
Y161265D01*
X291541Y160806D01*
X289704D01*
Y163561D02*
X289245Y164020D01*
Y164938D01*
X289704Y165398D01*
X291541D01*
X292000Y164938D01*
Y164020D01*
X291541Y163561D01*
X289704D01*
X285837Y132796D02*
X285378Y133255D01*
X284459D01*
X284000Y132796D01*
Y130959D01*
X284459Y130500D01*
X285378D01*
X285837Y130959D01*
X286755Y130500D02*
X287673D01*
X287214D01*
Y133255D01*
X286755Y132796D01*
X289051D02*
X289510Y133255D01*
X290428D01*
X290888Y132796D01*
Y130959D01*
X290428Y130500D01*
X289510D01*
X289051Y130959D01*
Y132796D01*
X291806D02*
X292265Y133255D01*
X293183D01*
X293643Y132796D01*
Y130959D01*
X293183Y130500D01*
X292265D01*
X291806Y130959D01*
Y132796D01*
X288837Y107296D02*
X288377Y107755D01*
X287459D01*
X287000Y107296D01*
Y105459D01*
X287459Y105000D01*
X288377D01*
X288837Y105459D01*
X289755Y105000D02*
X290673D01*
X290214D01*
Y107755D01*
X289755Y107296D01*
X292051D02*
X292510Y107755D01*
X293428D01*
X293888Y107296D01*
Y105459D01*
X293428Y105000D01*
X292510D01*
X292051Y105459D01*
Y107296D01*
X294806Y105000D02*
X295724D01*
X295265D01*
Y107755D01*
X294806Y107296D01*
X287837Y63296D02*
X287378Y63755D01*
X286459D01*
X286000Y63296D01*
Y61459D01*
X286459Y61000D01*
X287378D01*
X287837Y61459D01*
X288755Y61000D02*
X289673D01*
X289214D01*
Y63755D01*
X288755Y63296D01*
X291051D02*
X291510Y63755D01*
X292428D01*
X292888Y63296D01*
Y61459D01*
X292428Y61000D01*
X291510D01*
X291051Y61459D01*
Y63296D01*
X295643Y61000D02*
X293806D01*
X295643Y62837D01*
Y63296D01*
X295183Y63755D01*
X294265D01*
X293806Y63296D01*
X288704Y51837D02*
X288245Y51377D01*
Y50459D01*
X288704Y50000D01*
X290541D01*
X291000Y50459D01*
Y51377D01*
X290541Y51837D01*
X291000Y52755D02*
Y53673D01*
Y53214D01*
X288245D01*
X288704Y52755D01*
Y55051D02*
X288245Y55510D01*
Y56428D01*
X288704Y56888D01*
X290541D01*
X291000Y56428D01*
Y55510D01*
X290541Y55051D01*
X288704D01*
Y57806D02*
X288245Y58265D01*
Y59183D01*
X288704Y59643D01*
X289163D01*
X289622Y59183D01*
Y58724D01*
Y59183D01*
X290082Y59643D01*
X290541D01*
X291000Y59183D01*
Y58265D01*
X290541Y57806D01*
X345704Y55337D02*
X345245Y54878D01*
Y53959D01*
X345704Y53500D01*
X347541D01*
X348000Y53959D01*
Y54878D01*
X347541Y55337D01*
X348000Y56255D02*
Y57173D01*
Y56714D01*
X345245D01*
X345704Y56255D01*
Y58551D02*
X345245Y59010D01*
Y59928D01*
X345704Y60387D01*
X347541D01*
X348000Y59928D01*
Y59010D01*
X347541Y58551D01*
X345704D01*
X348000Y62683D02*
X345245D01*
X346622Y61306D01*
Y63143D01*
X158204Y300337D02*
X157745Y299878D01*
Y298959D01*
X158204Y298500D01*
X160041D01*
X160500Y298959D01*
Y299878D01*
X160041Y300337D01*
X160500Y303092D02*
Y301255D01*
X158663Y303092D01*
X158204D01*
X157745Y302632D01*
Y301714D01*
X158204Y301255D01*
Y304010D02*
X157745Y304469D01*
Y305388D01*
X158204Y305847D01*
X160041D01*
X160500Y305388D01*
Y304469D01*
X160041Y304010D01*
X158204D01*
Y306765D02*
X157745Y307224D01*
Y308143D01*
X158204Y308602D01*
X160041D01*
X160500Y308143D01*
Y307224D01*
X160041Y306765D01*
X158204D01*
X167337Y261796D02*
X166877Y262255D01*
X165959D01*
X165500Y261796D01*
Y259959D01*
X165959Y259500D01*
X166877D01*
X167337Y259959D01*
X170092Y259500D02*
X168255D01*
X170092Y261337D01*
Y261796D01*
X169632Y262255D01*
X168714D01*
X168255Y261796D01*
X171010D02*
X171469Y262255D01*
X172388D01*
X172847Y261796D01*
Y259959D01*
X172388Y259500D01*
X171469D01*
X171010Y259959D01*
Y261796D01*
X173765Y259500D02*
X174683D01*
X174224D01*
Y262255D01*
X173765Y261796D01*
X241704Y320337D02*
X241245Y319878D01*
Y318959D01*
X241704Y318500D01*
X243541D01*
X244000Y318959D01*
Y319878D01*
X243541Y320337D01*
X244000Y323092D02*
Y321255D01*
X242163Y323092D01*
X241704D01*
X241245Y322633D01*
Y321714D01*
X241704Y321255D01*
Y324010D02*
X241245Y324469D01*
Y325388D01*
X241704Y325847D01*
X243541D01*
X244000Y325388D01*
Y324469D01*
X243541Y324010D01*
X241704D01*
X244000Y328602D02*
Y326765D01*
X242163Y328602D01*
X241704D01*
X241245Y328143D01*
Y327224D01*
X241704Y326765D01*
X269337Y312796D02*
X268878Y313255D01*
X267959D01*
X267500Y312796D01*
Y310959D01*
X267959Y310500D01*
X268878D01*
X269337Y310959D01*
X272092Y310500D02*
X270255D01*
X272092Y312337D01*
Y312796D01*
X271633Y313255D01*
X270714D01*
X270255Y312796D01*
X273010D02*
X273469Y313255D01*
X274388D01*
X274847Y312796D01*
Y310959D01*
X274388Y310500D01*
X273469D01*
X273010Y310959D01*
Y312796D01*
X275765D02*
X276224Y313255D01*
X277143D01*
X277602Y312796D01*
Y312337D01*
X277143Y311877D01*
X276683D01*
X277143D01*
X277602Y311418D01*
Y310959D01*
X277143Y310500D01*
X276224D01*
X275765Y310959D01*
X177204Y211337D02*
X176745Y210877D01*
Y209959D01*
X177204Y209500D01*
X179041D01*
X179500Y209959D01*
Y210877D01*
X179041Y211337D01*
X179500Y214092D02*
Y212255D01*
X177663Y214092D01*
X177204D01*
X176745Y213632D01*
Y212714D01*
X177204Y212255D01*
Y215010D02*
X176745Y215469D01*
Y216388D01*
X177204Y216847D01*
X179041D01*
X179500Y216388D01*
Y215469D01*
X179041Y215010D01*
X177204D01*
X179500Y219143D02*
X176745D01*
X178122Y217765D01*
Y219602D01*
X214204Y210837D02*
X213745Y210378D01*
Y209459D01*
X214204Y209000D01*
X216041D01*
X216500Y209459D01*
Y210378D01*
X216041Y210837D01*
X216500Y213592D02*
Y211755D01*
X214663Y213592D01*
X214204D01*
X213745Y213133D01*
Y212214D01*
X214204Y211755D01*
Y214510D02*
X213745Y214969D01*
Y215888D01*
X214204Y216347D01*
X216041D01*
X216500Y215888D01*
Y214969D01*
X216041Y214510D01*
X214204D01*
X213745Y219102D02*
Y217265D01*
X215123D01*
X214663Y218183D01*
Y218643D01*
X215123Y219102D01*
X216041D01*
X216500Y218643D01*
Y217724D01*
X216041Y217265D01*
X89170Y232252D02*
X91925D01*
Y233629D01*
X91466Y234089D01*
X89629D01*
X89170Y233629D01*
Y232252D01*
X91925Y236844D02*
Y235007D01*
X90088Y236844D01*
X89629D01*
X89170Y236384D01*
Y235466D01*
X89629Y235007D01*
Y237762D02*
X89170Y238221D01*
Y239140D01*
X89629Y239599D01*
X91466D01*
X91925Y239140D01*
Y238221D01*
X91466Y237762D01*
X89629D01*
X91925Y240517D02*
Y241435D01*
Y240976D01*
X89170D01*
X89629Y240517D01*
X88670Y291807D02*
X91425D01*
Y293184D01*
X90966Y293644D01*
X89129D01*
X88670Y293184D01*
Y291807D01*
X91425Y296399D02*
Y294562D01*
X89588Y296399D01*
X89129D01*
X88670Y295940D01*
Y295021D01*
X89129Y294562D01*
Y297317D02*
X88670Y297776D01*
Y298695D01*
X89129Y299154D01*
X90966D01*
X91425Y298695D01*
Y297776D01*
X90966Y297317D01*
X89129D01*
X91425Y301909D02*
Y300072D01*
X89588Y301909D01*
X89129D01*
X88670Y301450D01*
Y300531D01*
X89129Y300072D01*
X89800Y390255D02*
X91637Y387500D01*
Y390255D02*
X89800Y387500D01*
X94392D02*
X92555D01*
X94392Y389337D01*
Y389796D01*
X93932Y390255D01*
X93014D01*
X92555Y389796D01*
X95310D02*
X95769Y390255D01*
X96688D01*
X97147Y389796D01*
Y387959D01*
X96688Y387500D01*
X95769D01*
X95310Y387959D01*
Y389796D01*
X99902Y387500D02*
X98065D01*
X99902Y389337D01*
Y389796D01*
X99443Y390255D01*
X98524D01*
X98065Y389796D01*
X262041Y97337D02*
X260204D01*
X259745Y96877D01*
Y95959D01*
X260204Y95500D01*
X262041D01*
X262500Y95959D01*
Y96877D01*
X261582Y96418D02*
X262500Y97337D01*
Y96877D02*
X262041Y97337D01*
X262500Y98255D02*
Y99173D01*
Y98714D01*
X259745D01*
X260204Y98255D01*
Y100551D02*
X259745Y101010D01*
Y101928D01*
X260204Y102387D01*
X262041D01*
X262500Y101928D01*
Y101010D01*
X262041Y100551D01*
X260204D01*
Y103306D02*
X259745Y103765D01*
Y104683D01*
X260204Y105143D01*
X262041D01*
X262500Y104683D01*
Y103765D01*
X262041Y103306D01*
X260204D01*
X303837Y131959D02*
Y133796D01*
X303378Y134255D01*
X302459D01*
X302000Y133796D01*
Y131959D01*
X302459Y131500D01*
X303378D01*
X302918Y132418D02*
X303837Y131500D01*
X303378D02*
X303837Y131959D01*
X304755Y131500D02*
X305673D01*
X305214D01*
Y134255D01*
X304755Y133796D01*
X307051D02*
X307510Y134255D01*
X308428D01*
X308888Y133796D01*
Y131959D01*
X308428Y131500D01*
X307510D01*
X307051Y131959D01*
Y133796D01*
X309806Y131500D02*
X310724D01*
X310265D01*
Y134255D01*
X309806Y133796D01*
X258837Y68959D02*
Y70796D01*
X258378Y71255D01*
X257459D01*
X257000Y70796D01*
Y68959D01*
X257459Y68500D01*
X258378D01*
X257918Y69418D02*
X258837Y68500D01*
X258378D02*
X258837Y68959D01*
X259755Y68500D02*
X260673D01*
X260214D01*
Y71255D01*
X259755Y70796D01*
X262051D02*
X262510Y71255D01*
X263428D01*
X263888Y70796D01*
Y68959D01*
X263428Y68500D01*
X262510D01*
X262051Y68959D01*
Y70796D01*
X266643Y68500D02*
X264806D01*
X266643Y70337D01*
Y70796D01*
X266183Y71255D01*
X265265D01*
X264806Y70796D01*
X110337Y172959D02*
Y174796D01*
X109878Y175255D01*
X108959D01*
X108500Y174796D01*
Y172959D01*
X108959Y172500D01*
X109878D01*
X109418Y173418D02*
X110337Y172500D01*
X109878D02*
X110337Y172959D01*
X113092Y172500D02*
X111255D01*
X113092Y174337D01*
Y174796D01*
X112633Y175255D01*
X111714D01*
X111255Y174796D01*
X114010D02*
X114469Y175255D01*
X115388D01*
X115847Y174796D01*
Y172959D01*
X115388Y172500D01*
X114469D01*
X114010Y172959D01*
Y174796D01*
X116765D02*
X117224Y175255D01*
X118143D01*
X118602Y174796D01*
Y172959D01*
X118143Y172500D01*
X117224D01*
X116765Y172959D01*
Y174796D01*
X110337Y231959D02*
Y233796D01*
X109878Y234255D01*
X108959D01*
X108500Y233796D01*
Y231959D01*
X108959Y231500D01*
X109878D01*
X109418Y232418D02*
X110337Y231500D01*
X109878D02*
X110337Y231959D01*
X113092Y231500D02*
X111255D01*
X113092Y233337D01*
Y233796D01*
X112633Y234255D01*
X111714D01*
X111255Y233796D01*
X114010D02*
X114469Y234255D01*
X115388D01*
X115847Y233796D01*
Y231959D01*
X115388Y231500D01*
X114469D01*
X114010Y231959D01*
Y233796D01*
X116765Y231500D02*
X117683D01*
X117224D01*
Y234255D01*
X116765Y233796D01*
X95337Y319959D02*
Y321796D01*
X94877Y322255D01*
X93959D01*
X93500Y321796D01*
Y319959D01*
X93959Y319500D01*
X94877D01*
X94418Y320418D02*
X95337Y319500D01*
X94877D02*
X95337Y319959D01*
X98092Y319500D02*
X96255D01*
X98092Y321337D01*
Y321796D01*
X97632Y322255D01*
X96714D01*
X96255Y321796D01*
X99010D02*
X99469Y322255D01*
X100388D01*
X100847Y321796D01*
Y319959D01*
X100388Y319500D01*
X99469D01*
X99010Y319959D01*
Y321796D01*
X103602Y319500D02*
X101765D01*
X103602Y321337D01*
Y321796D01*
X103143Y322255D01*
X102224D01*
X101765Y321796D01*
X83837Y107459D02*
Y109296D01*
X83377Y109755D01*
X82459D01*
X82000Y109296D01*
Y107459D01*
X82459Y107000D01*
X83377D01*
X82918Y107918D02*
X83837Y107000D01*
X83377D02*
X83837Y107459D01*
X86592Y107000D02*
X84755D01*
X86592Y108837D01*
Y109296D01*
X86133Y109755D01*
X85214D01*
X84755Y109296D01*
X87510D02*
X87969Y109755D01*
X88888D01*
X89347Y109296D01*
Y107459D01*
X88888Y107000D01*
X87969D01*
X87510Y107459D01*
Y109296D01*
X90265D02*
X90724Y109755D01*
X91643D01*
X92102Y109296D01*
Y108837D01*
X91643Y108378D01*
X91183D01*
X91643D01*
X92102Y107918D01*
Y107459D01*
X91643Y107000D01*
X90724D01*
X90265Y107459D01*
X200837Y224959D02*
Y226796D01*
X200377Y227255D01*
X199459D01*
X199000Y226796D01*
Y224959D01*
X199459Y224500D01*
X200377D01*
X199918Y225418D02*
X200837Y224500D01*
X200377D02*
X200837Y224959D01*
X203592Y224500D02*
X201755D01*
X203592Y226337D01*
Y226796D01*
X203133Y227255D01*
X202214D01*
X201755Y226796D01*
X204510D02*
X204969Y227255D01*
X205888D01*
X206347Y226796D01*
Y224959D01*
X205888Y224500D01*
X204969D01*
X204510Y224959D01*
Y226796D01*
X208643Y224500D02*
Y227255D01*
X207265Y225877D01*
X209102D01*
X262500Y116000D02*
X259745D01*
Y117377D01*
X260204Y117837D01*
X261122D01*
X261582Y117377D01*
Y116000D01*
Y116918D02*
X262500Y117837D01*
Y118755D02*
Y119673D01*
Y119214D01*
X259745D01*
X260204Y118755D01*
Y121051D02*
X259745Y121510D01*
Y122428D01*
X260204Y122888D01*
X262041D01*
X262500Y122428D01*
Y121510D01*
X262041Y121051D01*
X260204D01*
Y123806D02*
X259745Y124265D01*
Y125183D01*
X260204Y125643D01*
X262041D01*
X262500Y125183D01*
Y124265D01*
X262041Y123806D01*
X260204D01*
X387500Y115500D02*
X384745D01*
Y116877D01*
X385204Y117337D01*
X386122D01*
X386582Y116877D01*
Y115500D01*
Y116418D02*
X387500Y117337D01*
Y118255D02*
Y119173D01*
Y118714D01*
X384745D01*
X385204Y118255D01*
Y120551D02*
X384745Y121010D01*
Y121928D01*
X385204Y122388D01*
X387041D01*
X387500Y121928D01*
Y121010D01*
X387041Y120551D01*
X385204D01*
X387500Y123306D02*
Y124224D01*
Y123765D01*
X384745D01*
X385204Y123306D01*
X241500Y74500D02*
X238745D01*
Y75877D01*
X239204Y76337D01*
X240123D01*
X240582Y75877D01*
Y74500D01*
Y75418D02*
X241500Y76337D01*
Y77255D02*
Y78173D01*
Y77714D01*
X238745D01*
X239204Y77255D01*
Y79551D02*
X238745Y80010D01*
Y80928D01*
X239204Y81388D01*
X241041D01*
X241500Y80928D01*
Y80010D01*
X241041Y79551D01*
X239204D01*
X241500Y84143D02*
Y82306D01*
X239663Y84143D01*
X239204D01*
X238745Y83683D01*
Y82765D01*
X239204Y82306D01*
X253500Y277000D02*
X250745D01*
Y278378D01*
X251204Y278837D01*
X252122D01*
X252582Y278378D01*
Y277000D01*
Y277918D02*
X253500Y278837D01*
Y279755D02*
Y280673D01*
Y280214D01*
X250745D01*
X251204Y279755D01*
Y282051D02*
X250745Y282510D01*
Y283428D01*
X251204Y283888D01*
X253041D01*
X253500Y283428D01*
Y282510D01*
X253041Y282051D01*
X251204D01*
Y284806D02*
X250745Y285265D01*
Y286183D01*
X251204Y286643D01*
X251663D01*
X252122Y286183D01*
Y285724D01*
Y286183D01*
X252582Y286643D01*
X253041D01*
X253500Y286183D01*
Y285265D01*
X253041Y284806D01*
X257500Y283500D02*
Y286255D01*
X258877D01*
X259337Y285796D01*
Y284877D01*
X258877Y284418D01*
X257500D01*
X258418D02*
X259337Y283500D01*
X260255D02*
X261173D01*
X260714D01*
Y286255D01*
X260255Y285796D01*
X262551D02*
X263010Y286255D01*
X263928D01*
X264388Y285796D01*
Y283959D01*
X263928Y283500D01*
X263010D01*
X262551Y283959D01*
Y285796D01*
X266683Y283500D02*
Y286255D01*
X265306Y284877D01*
X267143D01*
X92000Y156500D02*
X89245D01*
Y157878D01*
X89704Y158337D01*
X90623D01*
X91082Y157878D01*
Y156500D01*
Y157418D02*
X92000Y158337D01*
Y161092D02*
Y159255D01*
X90163Y161092D01*
X89704D01*
X89245Y160633D01*
Y159714D01*
X89704Y159255D01*
Y162010D02*
X89245Y162469D01*
Y163388D01*
X89704Y163847D01*
X91541D01*
X92000Y163388D01*
Y162469D01*
X91541Y162010D01*
X89704D01*
Y164765D02*
X89245Y165224D01*
Y166143D01*
X89704Y166602D01*
X91541D01*
X92000Y166143D01*
Y165224D01*
X91541Y164765D01*
X89704D01*
X92500Y217000D02*
X89745D01*
Y218377D01*
X90204Y218837D01*
X91123D01*
X91582Y218377D01*
Y217000D01*
Y217918D02*
X92500Y218837D01*
Y221592D02*
Y219755D01*
X90663Y221592D01*
X90204D01*
X89745Y221132D01*
Y220214D01*
X90204Y219755D01*
Y222510D02*
X89745Y222969D01*
Y223888D01*
X90204Y224347D01*
X92041D01*
X92500Y223888D01*
Y222969D01*
X92041Y222510D01*
X90204D01*
X92500Y225265D02*
Y226183D01*
Y225724D01*
X89745D01*
X90204Y225265D01*
X91500Y278000D02*
X88745D01*
Y279378D01*
X89204Y279837D01*
X90122D01*
X90582Y279378D01*
Y278000D01*
Y278918D02*
X91500Y279837D01*
Y282592D02*
Y280755D01*
X89663Y282592D01*
X89204D01*
X88745Y282133D01*
Y281214D01*
X89204Y280755D01*
Y283510D02*
X88745Y283969D01*
Y284888D01*
X89204Y285347D01*
X91041D01*
X91500Y284888D01*
Y283969D01*
X91041Y283510D01*
X89204D01*
X91500Y288102D02*
Y286265D01*
X89663Y288102D01*
X89204D01*
X88745Y287643D01*
Y286724D01*
X89204Y286265D01*
X82500Y83500D02*
Y86255D01*
X83877D01*
X84337Y85796D01*
Y84878D01*
X83877Y84418D01*
X82500D01*
X83418D02*
X84337Y83500D01*
X87092D02*
X85255D01*
X87092Y85337D01*
Y85796D01*
X86633Y86255D01*
X85714D01*
X85255Y85796D01*
X88010D02*
X88469Y86255D01*
X89388D01*
X89847Y85796D01*
Y83959D01*
X89388Y83500D01*
X88469D01*
X88010Y83959D01*
Y85796D01*
X90765D02*
X91224Y86255D01*
X92143D01*
X92602Y85796D01*
Y85337D01*
X92143Y84878D01*
X91683D01*
X92143D01*
X92602Y84418D01*
Y83959D01*
X92143Y83500D01*
X91224D01*
X90765Y83959D01*
X9000Y198500D02*
Y201255D01*
X10378D01*
X10837Y200796D01*
Y199878D01*
X10378Y199418D01*
X9000D01*
X9918D02*
X10837Y198500D01*
X13592D02*
X11755D01*
X13592Y200337D01*
Y200796D01*
X13133Y201255D01*
X12214D01*
X11755Y200796D01*
X14510D02*
X14969Y201255D01*
X15888D01*
X16347Y200796D01*
Y198959D01*
X15888Y198500D01*
X14969D01*
X14510Y198959D01*
Y200796D01*
X18643Y198500D02*
Y201255D01*
X17265Y199878D01*
X19102D01*
X9000Y231500D02*
Y234255D01*
X10378D01*
X10837Y233796D01*
Y232877D01*
X10378Y232418D01*
X9000D01*
X9918D02*
X10837Y231500D01*
X13592D02*
X11755D01*
X13592Y233337D01*
Y233796D01*
X13133Y234255D01*
X12214D01*
X11755Y233796D01*
X14510D02*
X14969Y234255D01*
X15888D01*
X16347Y233796D01*
Y231959D01*
X15888Y231500D01*
X14969D01*
X14510Y231959D01*
Y233796D01*
X19102Y234255D02*
X17265D01*
Y232877D01*
X18183Y233337D01*
X18643D01*
X19102Y232877D01*
Y231959D01*
X18643Y231500D01*
X17724D01*
X17265Y231959D01*
X9500Y295000D02*
Y297755D01*
X10877D01*
X11337Y297296D01*
Y296377D01*
X10877Y295918D01*
X9500D01*
X10418D02*
X11337Y295000D01*
X14092D02*
X12255D01*
X14092Y296837D01*
Y297296D01*
X13633Y297755D01*
X12714D01*
X12255Y297296D01*
X15010D02*
X15469Y297755D01*
X16387D01*
X16847Y297296D01*
Y295459D01*
X16387Y295000D01*
X15469D01*
X15010Y295459D01*
Y297296D01*
X19602Y297755D02*
X18683Y297296D01*
X17765Y296377D01*
Y295459D01*
X18224Y295000D01*
X19143D01*
X19602Y295459D01*
Y295918D01*
X19143Y296377D01*
X17765D01*
X82500Y129500D02*
Y132255D01*
X83877D01*
X84337Y131796D01*
Y130877D01*
X83877Y130418D01*
X82500D01*
X83418D02*
X84337Y129500D01*
X87092D02*
X85255D01*
X87092Y131337D01*
Y131796D01*
X86633Y132255D01*
X85714D01*
X85255Y131796D01*
X88010D02*
X88469Y132255D01*
X89388D01*
X89847Y131796D01*
Y129959D01*
X89388Y129500D01*
X88469D01*
X88010Y129959D01*
Y131796D01*
X90765Y132255D02*
X92602D01*
Y131796D01*
X90765Y129959D01*
Y129500D01*
X244500Y370000D02*
X241745D01*
Y371377D01*
X242204Y371837D01*
X243123D01*
X243582Y371377D01*
Y370000D01*
Y370918D02*
X244500Y371837D01*
Y374592D02*
Y372755D01*
X242663Y374592D01*
X242204D01*
X241745Y374132D01*
Y373214D01*
X242204Y372755D01*
Y375510D02*
X241745Y375969D01*
Y376888D01*
X242204Y377347D01*
X244041D01*
X244500Y376888D01*
Y375969D01*
X244041Y375510D01*
X242204D01*
Y378265D02*
X241745Y378724D01*
Y379643D01*
X242204Y380102D01*
X242663D01*
X243123Y379643D01*
X243582Y380102D01*
X244041D01*
X244500Y379643D01*
Y378724D01*
X244041Y378265D01*
X243582D01*
X243123Y378724D01*
X242663Y378265D01*
X242204D01*
X243123Y378724D02*
Y379643D01*
X192000Y342255D02*
Y339959D01*
X192459Y339500D01*
X193377D01*
X193837Y339959D01*
Y342255D01*
X196592Y339500D02*
X194755D01*
X196592Y341337D01*
Y341796D01*
X196133Y342255D01*
X195214D01*
X194755Y341796D01*
X197510D02*
X197969Y342255D01*
X198888D01*
X199347Y341796D01*
Y339959D01*
X198888Y339500D01*
X197969D01*
X197510Y339959D01*
Y341796D01*
X200265D02*
X200724Y342255D01*
X201643D01*
X202102Y341796D01*
Y339959D01*
X201643Y339500D01*
X200724D01*
X200265Y339959D01*
Y341796D01*
X29500Y123755D02*
Y121459D01*
X29959Y121000D01*
X30878D01*
X31337Y121459D01*
Y123755D01*
X34092Y121000D02*
X32255D01*
X34092Y122837D01*
Y123296D01*
X33632Y123755D01*
X32714D01*
X32255Y123296D01*
X35010D02*
X35469Y123755D01*
X36388D01*
X36847Y123296D01*
Y121459D01*
X36388Y121000D01*
X35469D01*
X35010Y121459D01*
Y123296D01*
X37765Y121000D02*
X38683D01*
X38224D01*
Y123755D01*
X37765Y123296D01*
X216000Y384500D02*
Y387255D01*
X217377D01*
X217837Y386796D01*
Y385877D01*
X217377Y385418D01*
X216000D01*
X216918D02*
X217837Y384500D01*
X220592D02*
X218755D01*
X220592Y386337D01*
Y386796D01*
X220132Y387255D01*
X219214D01*
X218755Y386796D01*
X221510D02*
X221969Y387255D01*
X222888D01*
X223347Y386796D01*
Y384959D01*
X222888Y384500D01*
X221969D01*
X221510Y384959D01*
Y386796D01*
X224265Y384959D02*
X224724Y384500D01*
X225643D01*
X226102Y384959D01*
Y386796D01*
X225643Y387255D01*
X224724D01*
X224265Y386796D01*
Y386337D01*
X224724Y385877D01*
X226102D01*
M02*
