M48
;Layer_Color=9474304
;FILE_FORMAT=2:5
INCH,LZ
;TYPE=PLATED
T1F00S00C0.01378
T2F00S00C0.01968
T4F00S00C0.03150
T6F00S00C0.03937
T7F00S00C0.04016
T8F00S00C0.04331
T9F00S00C0.05118
T10F00S00C0.12008
;TYPE=NON_PLATED
T11F00S00C0.03150
%
T01
X0323169Y0041669
Y0046
Y0050331
X03275
X0331831
Y0046
X03275
Y0041669
X0331831
T02
X03865Y0096
X03075Y01
X029474Y011676
X0268437Y0109937
Y0089437
X0287Y00755
X031Y0068
X0248Y00675
X0287Y0145
X02295Y0182
Y0195
X0219Y0189
X0199Y02085
X019Y02
X010976Y019674
X01075Y0124
X0083563Y0113563
X01525Y0153
X0036992Y0204492
X0117Y02135
X010926Y025626
X01165Y0266
X01045Y02705
X00865
X0089063Y0315437
X01115Y02965
X0152094Y0309405
X0152Y0318
X01635Y0344
X01735
X0158Y0268
X0038Y03355
X02095Y0318
X02345Y0308
X02365Y0298
Y0293
Y0288
X0232Y0283
Y0266
X02315Y02545
X02145Y02535
X02025
X0193Y0261
X0272Y02785
X02785Y0288
X0276937Y0296437
X0222315Y0341185
X02295Y03695
X013Y0369
T04
X0139886Y0050504
X02265
Y0058378
Y0066252
Y0074126
Y0082
Y0089874
Y0097748
Y0105622
Y0113496
Y012137
X0139886
Y0113496
Y0105622
Y0097748
Y0089874
Y0082
Y0074126
Y0066252
Y0058378
X0055343Y0095
X0035658
T06
X0354331Y0110236
X0339331Y0125236
X0367606Y0152012
X0318394
X0049213Y0177165
X0034213Y0162165
Y022122
X0049213Y0236221
Y0295276
X0034213Y0280276
T07
X0096Y0379
X0106
X0116
T08
X01835Y0379
X01935
X02035
X01735
X01635
X01535
X01435
T09
X0339331Y0095236
X0369331Y0125236
X0064213Y0162165
X0034213Y0192165
X0064213Y022122
Y0280276
X0034213Y025122
Y0310276
T10
X0019685Y0019685
X0374016
Y0374016
X0019685
T11
X0373331Y0050157
Y0069842
M30
