G04 Layer_Color=255*
%FSLAX25Y25*%
%MOIN*%
G70*
G01*
G75*
%ADD40C,0.06299*%
%ADD41C,0.07480*%
%ADD42C,0.05905*%
%ADD43C,0.03150*%
%ADD44O,0.07087X0.04528*%
%ADD45O,0.07874X0.05512*%
%ADD46C,0.05512*%
%ADD47C,0.04724*%
%ADD48R,0.06102X0.06102*%
%ADD49C,0.06102*%
%ADD50R,0.06299X0.06299*%
%ADD51C,0.15748*%
D40*
X49213Y236221D02*
D03*
X34213Y221220D02*
D03*
X49213Y177165D02*
D03*
X34213Y162165D02*
D03*
X354331Y110236D02*
D03*
X339331Y125236D02*
D03*
X49213Y295276D02*
D03*
X34213Y280276D02*
D03*
X143500Y379000D02*
D03*
X153500D02*
D03*
X163500D02*
D03*
X173500D02*
D03*
X183500D02*
D03*
X193500D02*
D03*
D41*
X64213Y221220D02*
D03*
X34213Y251220D02*
D03*
X64213Y162165D02*
D03*
X34213Y192165D02*
D03*
X339331Y95236D02*
D03*
X369331Y125236D02*
D03*
X64213Y280276D02*
D03*
X34213Y310276D02*
D03*
D42*
X367606Y152012D02*
D03*
X318394D02*
D03*
D43*
X373331Y69842D02*
D03*
Y50157D02*
D03*
D44*
X383961Y44744D02*
D03*
Y75256D02*
D03*
D45*
X369000Y45335D02*
D03*
Y74665D02*
D03*
D46*
X55343Y95000D02*
D03*
X35658D02*
D03*
D47*
X226500Y121370D02*
D03*
Y113496D02*
D03*
Y105622D02*
D03*
Y97748D02*
D03*
Y89874D02*
D03*
Y82000D02*
D03*
Y74126D02*
D03*
Y66252D02*
D03*
Y58378D02*
D03*
Y50504D02*
D03*
X139886D02*
D03*
Y58378D02*
D03*
Y66252D02*
D03*
Y74126D02*
D03*
Y82000D02*
D03*
Y89874D02*
D03*
Y97748D02*
D03*
Y105622D02*
D03*
Y113496D02*
D03*
Y121370D02*
D03*
D48*
X116000Y379000D02*
D03*
D49*
X106000D02*
D03*
X96000D02*
D03*
D50*
X203500D02*
D03*
D51*
X19685Y19685D02*
D03*
X374016D02*
D03*
Y374016D02*
D03*
X19685D02*
D03*
M02*
