%TF.GenerationSoftware,Altium Limited,Altium Designer,22.7.1 (60)*%
G04 Layer_Color=0*
%FSLAX43Y43*%
%MOMM*%
%TF.SameCoordinates,2B380584-264C-487A-9C59-0A3591007A03*%
%TF.FilePolarity,Positive*%
%TF.FileFunction,Plated,1,2,PTH,Drill*%
%TF.Part,Single*%
G01*
G75*
%TA.AperFunction,ComponentDrill*%
%ADD92C,0.800*%
%ADD101C,1.100*%
%ADD102O,1.400X0.850*%
%ADD103O,1.200X0.550*%
%ADD104C,1.020*%
%ADD105C,1.100*%
%ADD106C,0.800*%
%TA.AperFunction,ViaDrill,NotFilled*%
%ADD107C,0.500*%
%ADD108C,0.350*%
D92*
X36244Y41000D02*
D03*
Y39000D02*
D03*
Y37000D02*
D03*
Y23000D02*
D03*
Y25000D02*
D03*
Y27000D02*
D03*
Y29000D02*
D03*
Y31000D02*
D03*
Y33000D02*
D03*
Y35000D02*
D03*
X58244Y41000D02*
D03*
Y39000D02*
D03*
Y37000D02*
D03*
Y23000D02*
D03*
Y25000D02*
D03*
Y27000D02*
D03*
Y29000D02*
D03*
Y31000D02*
D03*
Y33000D02*
D03*
Y35000D02*
D03*
D101*
X36449Y96266D02*
D03*
X38989D02*
D03*
X44069D02*
D03*
X49149D02*
D03*
X51689D02*
D03*
X46609D02*
D03*
X41529D02*
D03*
X27620Y3500D02*
D03*
X25080D02*
D03*
X20000D02*
D03*
X14920D02*
D03*
X12380D02*
D03*
X17460D02*
D03*
X22540D02*
D03*
X58714Y58404D02*
D03*
X56174D02*
D03*
X53634D02*
D03*
X90000Y28000D02*
D03*
X86190Y31810D02*
D03*
X37211Y50546D02*
D03*
X42291D02*
D03*
X47371D02*
D03*
X52451D02*
D03*
X60071D02*
D03*
X57531D02*
D03*
X54991D02*
D03*
X49911D02*
D03*
X44831D02*
D03*
X39751D02*
D03*
D102*
X93800Y11515D02*
D03*
Y18965D02*
D03*
D103*
X97600Y11365D02*
D03*
Y19115D02*
D03*
D104*
X93372Y38611D02*
D03*
X80672D02*
D03*
D105*
X12500Y75000D02*
D03*
X8690Y71190D02*
D03*
X12500Y60000D02*
D03*
X8690Y56190D02*
D03*
X12500Y45000D02*
D03*
X8690Y41190D02*
D03*
D106*
X9057Y24130D02*
D03*
X14057D02*
D03*
D107*
X60071Y75946D02*
D03*
Y72898D02*
D03*
Y74422D02*
D03*
X66648Y94473D02*
D03*
X44122Y91948D02*
D03*
X36226Y54483D02*
D03*
X29845Y76750D02*
D03*
X66580Y74473D02*
D03*
X64611Y74422D02*
D03*
X6340Y74473D02*
D03*
X31546Y64267D02*
D03*
X32326Y67503D02*
D03*
X38031Y80772D02*
D03*
X32326Y58404D02*
D03*
X33829Y52028D02*
D03*
X36340Y74473D02*
D03*
X58293Y93853D02*
D03*
X20066Y52204D02*
D03*
X26416Y73660D02*
D03*
X34614Y70678D02*
D03*
X81340Y64473D02*
D03*
X86340Y94473D02*
D03*
X91340Y84473D02*
D03*
X86340Y74473D02*
D03*
X91340Y64473D02*
D03*
X86340Y54473D02*
D03*
X91340Y44473D02*
D03*
X86340Y34473D02*
D03*
X91340Y24473D02*
D03*
X76340Y94473D02*
D03*
X81340Y84473D02*
D03*
X76340Y74473D02*
D03*
Y54473D02*
D03*
X81340Y44473D02*
D03*
Y24473D02*
D03*
X71340Y84473D02*
D03*
Y64473D02*
D03*
X66340Y54473D02*
D03*
X71340Y44473D02*
D03*
X66340Y34473D02*
D03*
Y14473D02*
D03*
X61340Y84473D02*
D03*
Y24473D02*
D03*
X46340Y94473D02*
D03*
Y54473D02*
D03*
Y34473D02*
D03*
X51340Y24473D02*
D03*
X36340Y94473D02*
D03*
X41340Y44473D02*
D03*
Y24473D02*
D03*
X26340Y94473D02*
D03*
Y54473D02*
D03*
X31340Y44473D02*
D03*
X26340Y34473D02*
D03*
Y14473D02*
D03*
X16340Y94473D02*
D03*
Y74473D02*
D03*
X21340Y64473D02*
D03*
X16340Y54473D02*
D03*
Y14473D02*
D03*
X11340Y64473D02*
D03*
X6340Y54473D02*
D03*
Y34473D02*
D03*
X11340Y24473D02*
D03*
X6340Y14473D02*
D03*
X27284Y71939D02*
D03*
X61340Y66486D02*
D03*
X37311Y68072D02*
D03*
X26641Y85217D02*
D03*
X45119Y53848D02*
D03*
X43355Y55978D02*
D03*
X26123Y17740D02*
D03*
X41281Y91948D02*
D03*
X58928Y68072D02*
D03*
Y66294D02*
D03*
X21971Y68707D02*
D03*
X72898Y19177D02*
D03*
Y36830D02*
D03*
X68183Y27924D02*
D03*
Y22717D02*
D03*
X53213Y80772D02*
D03*
X70739Y73152D02*
D03*
X58928Y71882D02*
D03*
X56468Y86661D02*
D03*
D108*
X84285Y12784D02*
D03*
Y11684D02*
D03*
X83185Y12784D02*
D03*
Y11684D02*
D03*
X82085D02*
D03*
X84285Y10584D02*
D03*
X83185D02*
D03*
X82085Y12784D02*
D03*
Y10584D02*
D03*
%TF.MD5,a4eb1bac2c0f58aa7219f5be27a60ee7*%
M02*
