M48
;Layer_Color=9474304
;FILE_FORMAT=4:3
METRIC,LZ
;TYPE=PLATED
T1F00S00C0.350
T2F00S00C0.500
T4F00S00C0.800
T6F00S00C1.020
T7F00S00C1.100
;TYPE=NON_PLATED
T8F00S00C0.800
T9F00S00C1.400
T10F00S00C3.200
T11F00S00C3.500
T12F00S00C4.400
%
T01
X0082085Y0010584
Y0011684
X0083185
X0084285
Y0012784
X0083185
X0082085
X0083185Y0010584
X0084285
T02
X009134Y0024473
X008634Y0034473
X009134Y0044473
X008134
X007134
X0072898Y003683
X006634Y0034473
X0068183Y0027924
Y0022717
X0072898Y0019177
X006634Y0014473
X006134Y0024473
X005134
X004634Y0034473
X008134Y0024473
X004134
Y0044473
X003134
X0033829Y0052028
X0020066Y0052204
X002634Y0034473
X0026123Y001774
X002634Y0014473
X001634
X000634
X001134Y0024473
X000634Y0034473
Y0054473
X001634
X002634
X0036226Y0054483
X0032326Y0058404
X0031546Y0064267
X0032326Y0067503
X0034614Y0070678
X0037311Y0068072
X003634Y0074473
X0038031Y0080772
X0029845Y007675
X0026416Y007366
X0027284Y0071939
X0021971Y0068707
X002134Y0064473
X001134
X000634Y0074473
X001634
X0026641Y0085217
X0041281Y0091948
X0044122
X0043355Y0055978
X0045119Y0053848
X004634Y0054473
X006634
X007634
X008134Y0064473
X007134
X0070739Y0073152
X006658Y0074473
X0064611Y0074422
X0060071
Y0075946
Y0072898
X0058928Y0071882
Y0068072
Y0066294
X006134Y0066486
Y0084473
X0056468Y0086661
X0053213Y0080772
X007134Y0084473
X008134
X007634Y0074473
X008634
X009134Y0084473
Y0064473
X008634Y0054473
Y0094473
X007634
X0066648
X0058293Y0093853
X004634Y0094473
X003634
X002634
X001634
T04
X0058244Y0023
Y0025
Y0027
Y0029
Y0031
Y0033
Y0035
Y0037
Y0039
Y0041
X0036244
Y0039
Y0037
Y0035
Y0033
Y0031
Y0029
Y0027
Y0025
Y0023
X0014057Y002413
X0009057
T06
X0093372Y0038611
X0080672
T07
X001238Y00035
X001492
X001746
X002
X002254
X002508
X002762
X009Y0028
X008619Y003181
X0060071Y0050546
X0057531
X0054991
X0052451
X0049911
X0047371
X0044831
X0042291
X0039751
X0037211
X00125Y0045
X000869Y004119
Y005619
X00125Y006
Y0075
X000869Y007119
X0053634Y0058404
X0056174
X0058714
X0051689Y0096266
X0049149
X0046609
X0044069
X0041529
X0038989
X0036449
T08
X00949Y001274
Y001774
T09
X008619Y002419
X009381Y003181
X001631Y004119
X000869Y004881
Y006381
Y007881
X001631Y007119
Y005619
T10
X0005Y0005
X0095
Y0095
X0005
T11
X0084672Y0047251
X0089372Y0077221
T12
X0087022Y0062236
M30
