%TF.GenerationSoftware,Altium Limited,Altium Designer,22.7.1 (60)*%
G04 Layer_Color=128*
%FSLAX43Y43*%
%MOMM*%
%TF.SameCoordinates,2B380584-264C-487A-9C59-0A3591007A03*%
%TF.FilePolarity,Positive*%
%TF.FileFunction,Drillmap*%
%TF.Part,Single*%
G01*
G75*
%TA.AperFunction,NonConductor*%
%ADD69C,0.127*%
D69*
X35899Y96266D02*
X36999D01*
X36449Y95716D02*
Y96816D01*
X38439Y96266D02*
X39539D01*
X38989Y95716D02*
Y96816D01*
X43519Y96266D02*
X44619D01*
X44069Y95716D02*
Y96816D01*
X48599Y96266D02*
X49699D01*
X49149Y95716D02*
Y96816D01*
X51139Y96266D02*
X52239D01*
X51689Y95716D02*
Y96816D01*
X46059Y96266D02*
X47159D01*
X46609Y95716D02*
Y96816D01*
X40979Y96266D02*
X42079D01*
X41529Y95716D02*
Y96816D01*
X27070Y3500D02*
X28170D01*
X27620Y2950D02*
Y4050D01*
X24530Y3500D02*
X25630D01*
X25080Y2950D02*
Y4050D01*
X19450Y3500D02*
X20550D01*
X20000Y2950D02*
Y4050D01*
X14370Y3500D02*
X15470D01*
X14920Y2950D02*
Y4050D01*
X11830Y3500D02*
X12930D01*
X12380Y2950D02*
Y4050D01*
X16910Y3500D02*
X18010D01*
X17460Y2950D02*
Y4050D01*
X21990Y3500D02*
X23090D01*
X22540Y2950D02*
Y4050D01*
X93375Y11515D02*
X94225D01*
X93800Y11090D02*
Y11940D01*
X94500Y12740D02*
X95300D01*
X94900Y12340D02*
Y13140D01*
X93375Y18965D02*
X94225D01*
X93800Y18540D02*
Y19390D01*
X94500Y17740D02*
X95300D01*
X94900Y17340D02*
Y18140D01*
X97325Y11365D02*
X97875D01*
X97600Y11090D02*
Y11640D01*
X97325Y19115D02*
X97875D01*
X97600Y18840D02*
Y19390D01*
X84822Y62236D02*
X89222D01*
X87022Y60036D02*
Y64436D01*
X92862Y38611D02*
X93882D01*
X93372Y38101D02*
Y39121D01*
X80162Y38611D02*
X81182D01*
X80672Y38101D02*
Y39121D01*
X87622Y77221D02*
X91122D01*
X89372Y75471D02*
Y78971D01*
X82922Y47251D02*
X86422D01*
X84672Y45501D02*
Y49001D01*
X35844Y41000D02*
X36644D01*
X36244Y40600D02*
Y41400D01*
X35844Y39000D02*
X36644D01*
X36244Y38600D02*
Y39400D01*
X35844Y37000D02*
X36644D01*
X36244Y36600D02*
Y37400D01*
X35844Y23000D02*
X36644D01*
X36244Y22600D02*
Y23400D01*
X35844Y25000D02*
X36644D01*
X36244Y24600D02*
Y25400D01*
X35844Y27000D02*
X36644D01*
X36244Y26600D02*
Y27400D01*
X35844Y29000D02*
X36644D01*
X36244Y28600D02*
Y29400D01*
X35844Y31000D02*
X36644D01*
X36244Y30600D02*
Y31400D01*
X35844Y33000D02*
X36644D01*
X36244Y32600D02*
Y33400D01*
X35844Y35000D02*
X36644D01*
X36244Y34600D02*
Y35400D01*
X57844Y41000D02*
X58644D01*
X58244Y40600D02*
Y41400D01*
X57844Y39000D02*
X58644D01*
X58244Y38600D02*
Y39400D01*
X57844Y37000D02*
X58644D01*
X58244Y36600D02*
Y37400D01*
X57844Y23000D02*
X58644D01*
X58244Y22600D02*
Y23400D01*
X57844Y25000D02*
X58644D01*
X58244Y24600D02*
Y25400D01*
X57844Y27000D02*
X58644D01*
X58244Y26600D02*
Y27400D01*
X57844Y29000D02*
X58644D01*
X58244Y28600D02*
Y29400D01*
X57844Y31000D02*
X58644D01*
X58244Y30600D02*
Y31400D01*
X57844Y33000D02*
X58644D01*
X58244Y32600D02*
Y33400D01*
X57844Y35000D02*
X58644D01*
X58244Y34600D02*
Y35400D01*
X58164Y58404D02*
X59264D01*
X58714Y57854D02*
Y58954D01*
X55624Y58404D02*
X56724D01*
X56174Y57854D02*
Y58954D01*
X53084Y58404D02*
X54184D01*
X53634Y57854D02*
Y58954D01*
X11950Y75000D02*
X13050D01*
X12500Y74450D02*
Y75550D01*
X8140Y71190D02*
X9240D01*
X8690Y70640D02*
Y71740D01*
X7990Y78810D02*
X9390D01*
X8690Y78110D02*
Y79510D01*
X15610Y71190D02*
X17010D01*
X16310Y70490D02*
Y71890D01*
X11950Y60000D02*
X13050D01*
X12500Y59450D02*
Y60550D01*
X8140Y56190D02*
X9240D01*
X8690Y55640D02*
Y56740D01*
X7990Y63810D02*
X9390D01*
X8690Y63110D02*
Y64510D01*
X15610Y56190D02*
X17010D01*
X16310Y55490D02*
Y56890D01*
X11950Y45000D02*
X13050D01*
X12500Y44450D02*
Y45550D01*
X8140Y41190D02*
X9240D01*
X8690Y40640D02*
Y41740D01*
X7990Y48810D02*
X9390D01*
X8690Y48110D02*
Y49510D01*
X15610Y41190D02*
X17010D01*
X16310Y40490D02*
Y41890D01*
X89450Y28000D02*
X90550D01*
X90000Y27450D02*
Y28550D01*
X85640Y31810D02*
X86740D01*
X86190Y31260D02*
Y32360D01*
X93110Y31810D02*
X94510D01*
X93810Y31110D02*
Y32510D01*
X85490Y24190D02*
X86890D01*
X86190Y23490D02*
Y24890D01*
X36661Y50546D02*
X37761D01*
X37211Y49996D02*
Y51096D01*
X41741Y50546D02*
X42841D01*
X42291Y49996D02*
Y51096D01*
X46821Y50546D02*
X47921D01*
X47371Y49996D02*
Y51096D01*
X51901Y50546D02*
X53001D01*
X52451Y49996D02*
Y51096D01*
X59521Y50546D02*
X60621D01*
X60071Y49996D02*
Y51096D01*
X56981Y50546D02*
X58081D01*
X57531Y49996D02*
Y51096D01*
X54441Y50546D02*
X55541D01*
X54991Y49996D02*
Y51096D01*
X49361Y50546D02*
X50461D01*
X49911Y49996D02*
Y51096D01*
X44281Y50546D02*
X45381D01*
X44831Y49996D02*
Y51096D01*
X39201Y50546D02*
X40301D01*
X39751Y49996D02*
Y51096D01*
X8657Y24130D02*
X9457D01*
X9057Y23730D02*
Y24530D01*
X13657Y24130D02*
X14457D01*
X14057Y23730D02*
Y24530D01*
X3400Y5000D02*
X6600D01*
X5000Y3400D02*
Y6600D01*
X93400Y5000D02*
X96600D01*
X95000Y3400D02*
Y6600D01*
X93400Y95000D02*
X96600D01*
X95000Y93400D02*
Y96600D01*
X3400Y95000D02*
X6600D01*
X5000Y93400D02*
Y96600D01*
X59821Y75946D02*
X60321D01*
X60071Y75696D02*
Y76196D01*
X59821Y72898D02*
X60321D01*
X60071Y72648D02*
Y73148D01*
X59821Y74422D02*
X60321D01*
X60071Y74172D02*
Y74672D01*
X66398Y94473D02*
X66898D01*
X66648Y94223D02*
Y94723D01*
X43872Y91948D02*
X44372D01*
X44122Y91698D02*
Y92198D01*
X35976Y54483D02*
X36476D01*
X36226Y54233D02*
Y54733D01*
X29595Y76750D02*
X30095D01*
X29845Y76500D02*
Y77000D01*
X66330Y74473D02*
X66830D01*
X66580Y74223D02*
Y74723D01*
X64361Y74422D02*
X64861D01*
X64611Y74172D02*
Y74672D01*
X6090Y74473D02*
X6590D01*
X6340Y74223D02*
Y74723D01*
X31296Y64267D02*
X31796D01*
X31546Y64017D02*
Y64517D01*
X32076Y67503D02*
X32576D01*
X32326Y67253D02*
Y67753D01*
X37781Y80772D02*
X38281D01*
X38031Y80522D02*
Y81022D01*
X32076Y58404D02*
X32576D01*
X32326Y58154D02*
Y58654D01*
X33579Y52028D02*
X34079D01*
X33829Y51778D02*
Y52278D01*
X36090Y74473D02*
X36590D01*
X36340Y74223D02*
Y74723D01*
X58043Y93853D02*
X58543D01*
X58293Y93603D02*
Y94103D01*
X19816Y52204D02*
X20316D01*
X20066Y51954D02*
Y52454D01*
X26166Y73660D02*
X26666D01*
X26416Y73410D02*
Y73910D01*
X34364Y70678D02*
X34864D01*
X34614Y70428D02*
Y70928D01*
X81090Y64473D02*
X81590D01*
X81340Y64223D02*
Y64723D01*
X86090Y94473D02*
X86590D01*
X86340Y94223D02*
Y94723D01*
X91090Y84473D02*
X91590D01*
X91340Y84223D02*
Y84723D01*
X86090Y74473D02*
X86590D01*
X86340Y74223D02*
Y74723D01*
X91090Y64473D02*
X91590D01*
X91340Y64223D02*
Y64723D01*
X86090Y54473D02*
X86590D01*
X86340Y54223D02*
Y54723D01*
X91090Y44473D02*
X91590D01*
X91340Y44223D02*
Y44723D01*
X86090Y34473D02*
X86590D01*
X86340Y34223D02*
Y34723D01*
X91090Y24473D02*
X91590D01*
X91340Y24223D02*
Y24723D01*
X76090Y94473D02*
X76590D01*
X76340Y94223D02*
Y94723D01*
X81090Y84473D02*
X81590D01*
X81340Y84223D02*
Y84723D01*
X76090Y74473D02*
X76590D01*
X76340Y74223D02*
Y74723D01*
X76090Y54473D02*
X76590D01*
X76340Y54223D02*
Y54723D01*
X81090Y44473D02*
X81590D01*
X81340Y44223D02*
Y44723D01*
X81090Y24473D02*
X81590D01*
X81340Y24223D02*
Y24723D01*
X71090Y84473D02*
X71590D01*
X71340Y84223D02*
Y84723D01*
X71090Y64473D02*
X71590D01*
X71340Y64223D02*
Y64723D01*
X66090Y54473D02*
X66590D01*
X66340Y54223D02*
Y54723D01*
X71090Y44473D02*
X71590D01*
X71340Y44223D02*
Y44723D01*
X66090Y34473D02*
X66590D01*
X66340Y34223D02*
Y34723D01*
X66090Y14473D02*
X66590D01*
X66340Y14223D02*
Y14723D01*
X61090Y84473D02*
X61590D01*
X61340Y84223D02*
Y84723D01*
X61090Y24473D02*
X61590D01*
X61340Y24223D02*
Y24723D01*
X46090Y94473D02*
X46590D01*
X46340Y94223D02*
Y94723D01*
X46090Y54473D02*
X46590D01*
X46340Y54223D02*
Y54723D01*
X46090Y34473D02*
X46590D01*
X46340Y34223D02*
Y34723D01*
X51090Y24473D02*
X51590D01*
X51340Y24223D02*
Y24723D01*
X36090Y94473D02*
X36590D01*
X36340Y94223D02*
Y94723D01*
X41090Y44473D02*
X41590D01*
X41340Y44223D02*
Y44723D01*
X41090Y24473D02*
X41590D01*
X41340Y24223D02*
Y24723D01*
X26090Y94473D02*
X26590D01*
X26340Y94223D02*
Y94723D01*
X26090Y54473D02*
X26590D01*
X26340Y54223D02*
Y54723D01*
X31090Y44473D02*
X31590D01*
X31340Y44223D02*
Y44723D01*
X26090Y34473D02*
X26590D01*
X26340Y34223D02*
Y34723D01*
X26090Y14473D02*
X26590D01*
X26340Y14223D02*
Y14723D01*
X16090Y94473D02*
X16590D01*
X16340Y94223D02*
Y94723D01*
X16090Y74473D02*
X16590D01*
X16340Y74223D02*
Y74723D01*
X21090Y64473D02*
X21590D01*
X21340Y64223D02*
Y64723D01*
X16090Y54473D02*
X16590D01*
X16340Y54223D02*
Y54723D01*
X16090Y14473D02*
X16590D01*
X16340Y14223D02*
Y14723D01*
X11090Y64473D02*
X11590D01*
X11340Y64223D02*
Y64723D01*
X6090Y54473D02*
X6590D01*
X6340Y54223D02*
Y54723D01*
X6090Y34473D02*
X6590D01*
X6340Y34223D02*
Y34723D01*
X11090Y24473D02*
X11590D01*
X11340Y24223D02*
Y24723D01*
X6090Y14473D02*
X6590D01*
X6340Y14223D02*
Y14723D01*
X27034Y71939D02*
X27534D01*
X27284Y71689D02*
Y72189D01*
X61090Y66486D02*
X61590D01*
X61340Y66236D02*
Y66736D01*
X37061Y68072D02*
X37561D01*
X37311Y67822D02*
Y68322D01*
X26391Y85217D02*
X26891D01*
X26641Y84967D02*
Y85467D01*
X44869Y53848D02*
X45369D01*
X45119Y53598D02*
Y54098D01*
X43105Y55978D02*
X43605D01*
X43355Y55728D02*
Y56228D01*
X25873Y17740D02*
X26373D01*
X26123Y17490D02*
Y17990D01*
X84110Y12784D02*
X84460D01*
X84285Y12609D02*
Y12959D01*
X84110Y11684D02*
X84460D01*
X84285Y11509D02*
Y11859D01*
X83010Y12784D02*
X83360D01*
X83185Y12609D02*
Y12959D01*
X83010Y11684D02*
X83360D01*
X83185Y11509D02*
Y11859D01*
X81910Y11684D02*
X82260D01*
X82085Y11509D02*
Y11859D01*
X84110Y10584D02*
X84460D01*
X84285Y10409D02*
Y10759D01*
X83010Y10584D02*
X83360D01*
X83185Y10409D02*
Y10759D01*
X81910Y12784D02*
X82260D01*
X82085Y12609D02*
Y12959D01*
X81910Y10584D02*
X82260D01*
X82085Y10409D02*
Y10759D01*
X41031Y91948D02*
X41531D01*
X41281Y91698D02*
Y92198D01*
X58678Y68072D02*
X59178D01*
X58928Y67822D02*
Y68322D01*
X58678Y66294D02*
X59178D01*
X58928Y66044D02*
Y66544D01*
X21721Y68707D02*
X22221D01*
X21971Y68457D02*
Y68957D01*
X72648Y19177D02*
X73148D01*
X72898Y18927D02*
Y19427D01*
X72648Y36830D02*
X73148D01*
X72898Y36580D02*
Y37080D01*
X67933Y27924D02*
X68433D01*
X68183Y27674D02*
Y28174D01*
X67933Y22717D02*
X68433D01*
X68183Y22467D02*
Y22967D01*
X52963Y80772D02*
X53463D01*
X53213Y80522D02*
Y81022D01*
X70489Y73152D02*
X70989D01*
X70739Y72902D02*
Y73402D01*
X58678Y71882D02*
X59178D01*
X58928Y71632D02*
Y72132D01*
X56218Y86661D02*
X56718D01*
X56468Y86411D02*
Y86911D01*
%TF.MD5,cdc9794685dc2ab31f6a95b6e0c49348*%
M02*
