%TF.GenerationSoftware,Altium Limited,Altium Designer,22.7.1 (60)*%
G04 Layer_Color=255*
%FSLAX43Y43*%
%MOMM*%
%TF.SameCoordinates,2B380584-264C-487A-9C59-0A3591007A03*%
%TF.FilePolarity,Positive*%
%TF.FileFunction,Pads,Bot*%
%TF.Part,Single*%
G01*
G75*
%TA.AperFunction,ComponentPad*%
%ADD35C,1.600*%
G04:AMPARAMS|DCode=36|XSize=1.6mm|YSize=1.6mm|CornerRadius=0.4mm|HoleSize=0mm|Usage=FLASHONLY|Rotation=180.000|XOffset=0mm|YOffset=0mm|HoleType=Round|Shape=RoundedRectangle|*
%AMROUNDEDRECTD36*
21,1,1.600,0.800,0,0,180.0*
21,1,0.800,1.600,0,0,180.0*
1,1,0.800,-0.400,0.400*
1,1,0.800,0.400,0.400*
1,1,0.800,0.400,-0.400*
1,1,0.800,-0.400,-0.400*
%
%ADD36ROUNDEDRECTD36*%
%ADD37O,2.000X1.400*%
%ADD38C,0.800*%
%ADD39O,1.800X1.150*%
%ADD40C,1.530*%
%ADD41C,3.500*%
%ADD42C,1.300*%
G04:AMPARAMS|DCode=43|XSize=1.3mm|YSize=1.3mm|CornerRadius=0.325mm|HoleSize=0mm|Usage=FLASHONLY|Rotation=90.000|XOffset=0mm|YOffset=0mm|HoleType=Round|Shape=RoundedRectangle|*
%AMROUNDEDRECTD43*
21,1,1.300,0.650,0,0,90.0*
21,1,0.650,1.300,0,0,90.0*
1,1,0.650,0.325,0.325*
1,1,0.650,0.325,-0.325*
1,1,0.650,-0.325,-0.325*
1,1,0.650,-0.325,0.325*
%
%ADD43ROUNDEDRECTD43*%
%ADD44C,1.800*%
%ADD45R,1.600X1.600*%
%ADD46C,1.400*%
%TA.AperFunction,WasherPad*%
%ADD47C,1.000*%
%TA.AperFunction,ComponentPad*%
%ADD50C,7.400*%
D35*
X36449Y96266D02*
D03*
X38989D02*
D03*
X44069D02*
D03*
X49149D02*
D03*
X46609D02*
D03*
X41529D02*
D03*
X27620Y3500D02*
D03*
X25080D02*
D03*
X20000D02*
D03*
X14920D02*
D03*
X17460D02*
D03*
X22540D02*
D03*
X56174Y58404D02*
D03*
X53634D02*
D03*
X37211Y50546D02*
D03*
X42291D02*
D03*
X47371D02*
D03*
X52451D02*
D03*
X57531D02*
D03*
X54991D02*
D03*
X49911D02*
D03*
X44831D02*
D03*
X39751D02*
D03*
D36*
X51689Y96266D02*
D03*
X12380Y3500D02*
D03*
X58714Y58404D02*
D03*
D37*
X93800Y11515D02*
D03*
Y18965D02*
D03*
D38*
X94900Y12740D02*
D03*
Y17740D02*
D03*
D39*
X97600Y11365D02*
D03*
Y19115D02*
D03*
D40*
X93372Y38611D02*
D03*
X80672D02*
D03*
D41*
X89372Y77221D02*
D03*
X84672Y47251D02*
D03*
D42*
X36244Y41000D02*
D03*
Y39000D02*
D03*
Y37000D02*
D03*
Y25000D02*
D03*
Y27000D02*
D03*
Y29000D02*
D03*
Y31000D02*
D03*
Y33000D02*
D03*
Y35000D02*
D03*
X58244Y41000D02*
D03*
Y39000D02*
D03*
Y37000D02*
D03*
Y25000D02*
D03*
Y27000D02*
D03*
Y29000D02*
D03*
Y31000D02*
D03*
Y33000D02*
D03*
Y35000D02*
D03*
D43*
X36244Y23000D02*
D03*
X58244D02*
D03*
D44*
X12500Y75000D02*
D03*
X8690Y71190D02*
D03*
X12500Y60000D02*
D03*
X8690Y56190D02*
D03*
X12500Y45000D02*
D03*
X8690Y41190D02*
D03*
X90000Y28000D02*
D03*
X86190Y31810D02*
D03*
D45*
X60071Y50546D02*
D03*
D46*
X9057Y24130D02*
D03*
X14057D02*
D03*
D47*
X5000Y5000D02*
D03*
X95000D02*
D03*
Y95000D02*
D03*
X5000D02*
D03*
D50*
X87022Y62236D02*
D03*
%TF.MD5,3c5a13e6bad78f0fc6aae345101a89fe*%
M02*
