%TF.GenerationSoftware,Altium Limited,Altium Designer,22.7.1 (60)*%
G04 Layer_Color=4660084*
%FSLAX43Y43*%
%MOMM*%
%TF.SameCoordinates,2B380584-264C-487A-9C59-0A3591007A03*%
%TF.FilePolarity,Negative*%
%TF.FileFunction,Soldermask,Top*%
%TF.Part,Single*%
G01*
G75*
%TA.AperFunction,SMDPad,CuDef*%
G04:AMPARAMS|DCode=17|XSize=1.636mm|YSize=0.625mm|CornerRadius=0.313mm|HoleSize=0mm|Usage=FLASHONLY|Rotation=0.000|XOffset=0mm|YOffset=0mm|HoleType=Round|Shape=RoundedRectangle|*
%AMROUNDEDRECTD17*
21,1,1.636,0.000,0,0,0.0*
21,1,1.011,0.625,0,0,0.0*
1,1,0.625,0.505,0.000*
1,1,0.625,-0.505,0.000*
1,1,0.625,-0.505,0.000*
1,1,0.625,0.505,0.000*
%
%ADD17ROUNDEDRECTD17*%
%ADD18R,1.636X0.625*%
%TA.AperFunction,ComponentPad*%
%ADD35C,1.600*%
%ADD44C,1.800*%
G04:AMPARAMS|DCode=51|XSize=1.8mm|YSize=1.8mm|CornerRadius=0.5mm|HoleSize=0mm|Usage=FLASHONLY|Rotation=180.000|XOffset=0mm|YOffset=0mm|HoleType=Round|Shape=RoundedRectangle|*
%AMROUNDEDRECTD51*
21,1,1.800,0.800,0,0,180.0*
21,1,0.800,1.800,0,0,180.0*
1,1,1.000,-0.400,0.400*
1,1,1.000,0.400,0.400*
1,1,1.000,0.400,-0.400*
1,1,1.000,-0.400,-0.400*
%
%ADD51ROUNDEDRECTD51*%
%ADD52O,2.200X1.600*%
%ADD53C,1.000*%
%ADD54O,2.000X1.350*%
%ADD56C,1.730*%
%ADD57C,3.700*%
%ADD58C,1.500*%
G04:AMPARAMS|DCode=59|XSize=1.5mm|YSize=1.5mm|CornerRadius=0.425mm|HoleSize=0mm|Usage=FLASHONLY|Rotation=90.000|XOffset=0mm|YOffset=0mm|HoleType=Round|Shape=RoundedRectangle|*
%AMROUNDEDRECTD59*
21,1,1.500,0.650,0,0,90.0*
21,1,0.650,1.500,0,0,90.0*
1,1,0.850,0.325,0.325*
1,1,0.850,0.325,-0.325*
1,1,0.850,-0.325,-0.325*
1,1,0.850,-0.325,0.325*
%
%ADD59ROUNDEDRECTD59*%
%ADD60C,2.000*%
%ADD61C,0.200*%
%ADD62R,1.800X1.800*%
%TA.AperFunction,WasherPad*%
%ADD63C,1.200*%
%TA.AperFunction,FiducialPad,Global*%
%ADD73C,3.000*%
%TA.AperFunction,SMDPad,CuDef*%
%ADD74R,1.650X1.250*%
%ADD75R,1.450X1.750*%
%ADD76R,1.750X1.450*%
%ADD77R,1.550X1.750*%
%ADD78R,1.750X1.550*%
%ADD79R,1.500X1.750*%
%ADD80R,1.500X0.650*%
%ADD81O,2.550X0.900*%
%ADD82R,1.100X1.500*%
%ADD83R,1.400X0.850*%
%ADD84R,1.500X1.100*%
%ADD85R,1.500X1.300*%
%ADD86R,1.200X1.550*%
%ADD87R,1.100X1.000*%
%ADD88O,1.600X0.650*%
%ADD89R,3.300X3.300*%
%ADD90R,1.400X1.650*%
D17*
X70432Y25273D02*
D03*
X68252Y24323D02*
D03*
D18*
Y26223D02*
D03*
D35*
X9057Y24130D02*
D03*
X14057D02*
D03*
D44*
X36449Y96266D02*
D03*
X38989D02*
D03*
X44069D02*
D03*
X49149D02*
D03*
X46609D02*
D03*
X41529D02*
D03*
X27620Y3500D02*
D03*
X25080D02*
D03*
X20000D02*
D03*
X14920D02*
D03*
X17460D02*
D03*
X22540D02*
D03*
X56174Y58404D02*
D03*
X53634D02*
D03*
X37211Y50546D02*
D03*
X42291D02*
D03*
X47371D02*
D03*
X52451D02*
D03*
X57531D02*
D03*
X54991D02*
D03*
X49911D02*
D03*
X44831D02*
D03*
X39751D02*
D03*
D51*
X51689Y96266D02*
D03*
X12380Y3500D02*
D03*
X58714Y58404D02*
D03*
D52*
X93800Y11515D02*
D03*
Y18965D02*
D03*
D53*
X94900Y12740D02*
D03*
Y17740D02*
D03*
D54*
X97600Y11365D02*
D03*
Y19115D02*
D03*
D56*
X93372Y38611D02*
D03*
X80672D02*
D03*
D57*
X89372Y77221D02*
D03*
X84672Y47251D02*
D03*
D58*
X36244Y41000D02*
D03*
Y39000D02*
D03*
Y37000D02*
D03*
Y25000D02*
D03*
Y27000D02*
D03*
Y29000D02*
D03*
Y31000D02*
D03*
Y33000D02*
D03*
Y35000D02*
D03*
X58244Y41000D02*
D03*
Y39000D02*
D03*
Y37000D02*
D03*
Y25000D02*
D03*
Y27000D02*
D03*
Y29000D02*
D03*
Y31000D02*
D03*
Y33000D02*
D03*
Y35000D02*
D03*
D59*
X36244Y23000D02*
D03*
X58244D02*
D03*
D60*
X12500Y75000D02*
D03*
X8690Y71190D02*
D03*
X12500Y60000D02*
D03*
X8690Y56190D02*
D03*
X12500Y45000D02*
D03*
X8690Y41190D02*
D03*
X90000Y28000D02*
D03*
X86190Y31810D02*
D03*
D61*
X87022Y62236D02*
D03*
X8690Y78810D02*
D03*
X16310Y71190D02*
D03*
X8690Y63810D02*
D03*
X16310Y56190D02*
D03*
X8690Y48810D02*
D03*
X16310Y41190D02*
D03*
X93810Y31810D02*
D03*
X86190Y24190D02*
D03*
D62*
X60071Y50546D02*
D03*
D63*
X5000Y5000D02*
D03*
X95000D02*
D03*
Y95000D02*
D03*
X5000D02*
D03*
D73*
X11430Y93980D02*
D03*
X88900Y6350D02*
D03*
D74*
X65405Y70830D02*
D03*
Y72680D02*
D03*
X62865Y70830D02*
D03*
Y72680D02*
D03*
X25000Y70925D02*
D03*
Y69075D02*
D03*
Y54075D02*
D03*
Y55925D02*
D03*
Y39075D02*
D03*
Y40925D02*
D03*
X67945Y72680D02*
D03*
Y70830D02*
D03*
D75*
X57286Y96266D02*
D03*
X55236D02*
D03*
X23250Y19558D02*
D03*
X21200D02*
D03*
D76*
X43355Y60075D02*
D03*
Y62125D02*
D03*
D77*
X26645Y28169D02*
D03*
X28595D02*
D03*
D78*
X68326Y29632D02*
D03*
Y31582D02*
D03*
X62992Y19091D02*
D03*
Y21041D02*
D03*
X98133Y24460D02*
D03*
Y26410D02*
D03*
D79*
X70322Y96304D02*
D03*
X65822D02*
D03*
X70322Y88354D02*
D03*
X65822D02*
D03*
D80*
X93800Y13940D02*
D03*
Y14590D02*
D03*
Y15890D02*
D03*
Y15240D02*
D03*
Y16540D02*
D03*
D81*
X47293Y84582D02*
D03*
Y83312D02*
D03*
Y82042D02*
D03*
Y80772D02*
D03*
Y79502D02*
D03*
Y78232D02*
D03*
Y76962D02*
D03*
Y75692D02*
D03*
Y74422D02*
D03*
Y73152D02*
D03*
Y71882D02*
D03*
Y70612D02*
D03*
Y69342D02*
D03*
Y68072D02*
D03*
X56593Y84582D02*
D03*
Y83312D02*
D03*
Y82042D02*
D03*
Y80772D02*
D03*
Y79502D02*
D03*
Y78232D02*
D03*
Y76962D02*
D03*
Y75692D02*
D03*
Y74422D02*
D03*
Y73152D02*
D03*
Y71882D02*
D03*
Y70612D02*
D03*
Y69342D02*
D03*
Y68072D02*
D03*
D82*
X74056Y17272D02*
D03*
X75956D02*
D03*
X68392Y77343D02*
D03*
X70292D02*
D03*
X44130Y68072D02*
D03*
X42230D02*
D03*
X72964Y25273D02*
D03*
X74864D02*
D03*
X72456Y31623D02*
D03*
X74356D02*
D03*
X42230Y78232D02*
D03*
X44130D02*
D03*
D83*
X76913Y20894D02*
D03*
Y21844D02*
D03*
Y22794D02*
D03*
X73963D02*
D03*
Y20894D02*
D03*
D84*
X89916Y13528D02*
D03*
Y15428D02*
D03*
X76200Y11623D02*
D03*
Y13523D02*
D03*
X59973Y83202D02*
D03*
Y81302D02*
D03*
D85*
X25000Y76050D02*
D03*
Y73950D02*
D03*
Y61050D02*
D03*
Y58950D02*
D03*
Y46050D02*
D03*
Y43950D02*
D03*
D86*
X4400Y41179D02*
D03*
X2600D02*
D03*
X62823Y92547D02*
D03*
X61023D02*
D03*
X2600Y71190D02*
D03*
X4400D02*
D03*
X2600Y56190D02*
D03*
X4400D02*
D03*
D87*
X78851Y30607D02*
D03*
X76851Y29657D02*
D03*
Y31557D02*
D03*
X27123Y23196D02*
D03*
Y25096D02*
D03*
X25123Y24146D02*
D03*
X29000Y79050D02*
D03*
Y80950D02*
D03*
X27000Y80000D02*
D03*
X29000Y64050D02*
D03*
Y65950D02*
D03*
X27000Y65000D02*
D03*
X29000Y49050D02*
D03*
Y50950D02*
D03*
X27000Y50000D02*
D03*
X66183Y21016D02*
D03*
Y19116D02*
D03*
X68183Y20066D02*
D03*
D88*
X86135Y13959D02*
D03*
Y13309D02*
D03*
Y12659D02*
D03*
Y12009D02*
D03*
Y11359D02*
D03*
Y10709D02*
D03*
Y9409D02*
D03*
Y10059D02*
D03*
X80235Y13959D02*
D03*
Y12659D02*
D03*
Y12009D02*
D03*
Y13309D02*
D03*
Y10709D02*
D03*
Y11359D02*
D03*
Y9409D02*
D03*
Y10059D02*
D03*
D89*
X83185Y11684D02*
D03*
D90*
X19475Y24146D02*
D03*
X21475D02*
D03*
%TF.MD5,a852e0071ca453279863a40f96ed599b*%
M02*
