%TF.GenerationSoftware,Altium Limited,Altium Designer,22.7.1 (60)*%
G04 Layer_Physical_Order=1*
G04 Layer_Color=255*
%FSLAX43Y43*%
%MOMM*%
%TF.SameCoordinates,2B380584-264C-487A-9C59-0A3591007A03*%
%TF.FilePolarity,Positive*%
%TF.FileFunction,Copper,L1,Top,Signal*%
%TF.Part,Single*%
G01*
G75*
%TA.AperFunction,FiducialPad,Global*%
%ADD10C,1.500*%
%TA.AperFunction,SMDPad,CuDef*%
%ADD11R,1.450X1.050*%
%ADD12R,1.250X1.550*%
%ADD13R,1.550X1.250*%
%ADD14R,1.350X1.550*%
%ADD15R,1.550X1.350*%
%ADD16R,1.300X1.550*%
G04:AMPARAMS|DCode=17|XSize=1.636mm|YSize=0.625mm|CornerRadius=0.313mm|HoleSize=0mm|Usage=FLASHONLY|Rotation=0.000|XOffset=0mm|YOffset=0mm|HoleType=Round|Shape=RoundedRectangle|*
%AMROUNDEDRECTD17*
21,1,1.636,0.000,0,0,0.0*
21,1,1.011,0.625,0,0,0.0*
1,1,0.625,0.505,0.000*
1,1,0.625,-0.505,0.000*
1,1,0.625,-0.505,0.000*
1,1,0.625,0.505,0.000*
%
%ADD17ROUNDEDRECTD17*%
%ADD18R,1.636X0.625*%
%ADD19R,1.300X0.450*%
%ADD20O,2.350X0.700*%
%ADD21R,0.900X1.300*%
%ADD22R,1.200X0.650*%
%ADD23R,1.300X0.900*%
%ADD24R,1.300X1.100*%
%ADD25R,1.000X1.350*%
%ADD26R,0.900X0.800*%
%ADD27O,1.400X0.450*%
%ADD28R,3.100X3.100*%
%ADD29R,1.200X1.450*%
%TA.AperFunction,Conductor*%
%ADD30C,0.500*%
%ADD31C,1.000*%
%ADD32C,0.800*%
%ADD33C,0.150*%
%ADD34C,0.700*%
%TA.AperFunction,ComponentPad*%
%ADD35C,1.600*%
G04:AMPARAMS|DCode=36|XSize=1.6mm|YSize=1.6mm|CornerRadius=0.4mm|HoleSize=0mm|Usage=FLASHONLY|Rotation=180.000|XOffset=0mm|YOffset=0mm|HoleType=Round|Shape=RoundedRectangle|*
%AMROUNDEDRECTD36*
21,1,1.600,0.800,0,0,180.0*
21,1,0.800,1.600,0,0,180.0*
1,1,0.800,-0.400,0.400*
1,1,0.800,0.400,0.400*
1,1,0.800,0.400,-0.400*
1,1,0.800,-0.400,-0.400*
%
%ADD36ROUNDEDRECTD36*%
%ADD37O,2.000X1.400*%
%ADD38C,0.800*%
%ADD39O,1.800X1.150*%
%ADD40C,1.530*%
%ADD41C,3.500*%
%ADD42C,1.300*%
G04:AMPARAMS|DCode=43|XSize=1.3mm|YSize=1.3mm|CornerRadius=0.325mm|HoleSize=0mm|Usage=FLASHONLY|Rotation=90.000|XOffset=0mm|YOffset=0mm|HoleType=Round|Shape=RoundedRectangle|*
%AMROUNDEDRECTD43*
21,1,1.300,0.650,0,0,90.0*
21,1,0.650,1.300,0,0,90.0*
1,1,0.650,0.325,0.325*
1,1,0.650,0.325,-0.325*
1,1,0.650,-0.325,-0.325*
1,1,0.650,-0.325,0.325*
%
%ADD43ROUNDEDRECTD43*%
%ADD44C,1.800*%
%ADD45R,1.600X1.600*%
%ADD46C,1.400*%
%TA.AperFunction,WasherPad*%
%ADD47C,1.000*%
%TA.AperFunction,ViaPad*%
%ADD48C,0.850*%
%ADD49C,0.650*%
G36*
X90990Y91425D02*
X99745Y91425D01*
X99745Y9425D01*
X90990Y9425D01*
X88386Y9425D01*
X88333Y9552D01*
X91876Y13095D01*
X94340D01*
X94399Y12983D01*
X94381Y12955D01*
X94338Y12740D01*
X94381Y12525D01*
X94395Y12505D01*
X94359Y12438D01*
X94315Y12394D01*
X94100Y12423D01*
X93900D01*
Y11615D01*
X94995D01*
X94977Y11750D01*
X94886Y11969D01*
X94811Y12066D01*
X94883Y12182D01*
X94900Y12178D01*
X95115Y12221D01*
X95297Y12343D01*
X95419Y12525D01*
X95462Y12740D01*
X95419Y12955D01*
X95297Y13137D01*
X95201Y13201D01*
X95126Y13295D01*
X95149Y13377D01*
X95163Y13411D01*
X95163Y14226D01*
X95163Y14226D01*
X95163Y14226D01*
X95140Y14283D01*
X95116Y14341D01*
X95116Y14341D01*
X95116Y14341D01*
X95026Y14431D01*
X95026Y14431D01*
X95026Y14431D01*
X94968Y14455D01*
X94910Y14479D01*
X94910Y14479D01*
X94910Y14479D01*
X94728Y14479D01*
X94601Y14586D01*
Y16115D01*
X94650D01*
Y16440D01*
X93800D01*
X92950D01*
Y16115D01*
X92999D01*
Y15514D01*
Y14557D01*
X92974Y14525D01*
X92872Y14472D01*
X92860Y14477D01*
X92860Y14477D01*
X92860Y14477D01*
X88300Y14472D01*
X88243Y14449D01*
X88184Y14424D01*
X87501Y13741D01*
X87083D01*
X87060Y13731D01*
X87036Y13752D01*
X86969Y13836D01*
X86993Y13959D01*
X86964Y14106D01*
X86881Y14230D01*
X86757Y14313D01*
X86610Y14342D01*
X85660D01*
X85513Y14313D01*
X85389Y14230D01*
X85306Y14106D01*
X85277Y13959D01*
X85306Y13812D01*
X85389Y13688D01*
Y13580D01*
X85306Y13456D01*
X85277Y13309D01*
X85306Y13162D01*
X85368Y13069D01*
X85381Y12984D01*
X85368Y12899D01*
X85306Y12806D01*
X85277Y12659D01*
X85306Y12512D01*
X85368Y12419D01*
X85389Y12280D01*
X85306Y12156D01*
X85277Y12009D01*
X85306Y11862D01*
X85368Y11769D01*
X85381Y11684D01*
X85368Y11599D01*
X85306Y11506D01*
X85277Y11359D01*
X85306Y11212D01*
X85389Y11088D01*
Y10980D01*
X85306Y10856D01*
X85277Y10709D01*
X85306Y10562D01*
X85368Y10469D01*
X85381Y10384D01*
X85368Y10299D01*
X85306Y10206D01*
X85277Y10059D01*
X85306Y9912D01*
X85389Y9788D01*
Y9680D01*
X85306Y9556D01*
X85280Y9425D01*
X83690Y9425D01*
X81090Y9425D01*
X81064Y9556D01*
X80981Y9680D01*
Y9788D01*
X81064Y9912D01*
X81093Y10059D01*
X81064Y10206D01*
X81002Y10299D01*
X80989Y10384D01*
X81002Y10469D01*
X81064Y10562D01*
X81093Y10709D01*
X81064Y10856D01*
X80981Y10980D01*
Y11088D01*
X81064Y11212D01*
X81093Y11359D01*
X81064Y11506D01*
X81002Y11599D01*
X80989Y11684D01*
X81002Y11769D01*
X81064Y11862D01*
X81093Y12009D01*
X81064Y12156D01*
X80981Y12280D01*
X81043Y12392D01*
X81110Y12493D01*
X81123Y12559D01*
X80235D01*
X79273D01*
X79227Y12507D01*
X77148D01*
X77101Y12488D01*
X77052Y12476D01*
X76954Y12406D01*
X76947Y12394D01*
X76934Y12389D01*
X76915Y12342D01*
X76889Y12299D01*
X76792Y12224D01*
X75510D01*
X75493Y12265D01*
X75479Y12316D01*
X75382Y12443D01*
X75372Y12449D01*
X75368Y12459D01*
X75319Y12479D01*
X75273Y12506D01*
X75262Y12503D01*
X75252Y12507D01*
X71396D01*
Y20251D01*
X73282Y22137D01*
X73963D01*
X74133Y22160D01*
X74291Y22225D01*
X74412Y22318D01*
X74714D01*
Y23270D01*
X74412D01*
X74291Y23363D01*
X74133Y23428D01*
X73963Y23451D01*
X73621D01*
Y25273D01*
X73598Y25443D01*
X73565Y25523D01*
Y26074D01*
X72363D01*
Y25835D01*
X70442D01*
X70227Y25792D01*
X70158Y25746D01*
X69927D01*
X69746Y25710D01*
X69592Y25607D01*
X69490Y25454D01*
X69454Y25273D01*
X69490Y25092D01*
X69592Y24939D01*
X69746Y24836D01*
X69927Y24800D01*
X70158D01*
X70227Y24754D01*
X70442Y24711D01*
X72307D01*
Y23020D01*
X70275Y20987D01*
X70170Y20851D01*
X70105Y20693D01*
X70082Y20523D01*
Y12842D01*
X69987Y12758D01*
X69931Y12766D01*
X67165D01*
X58901Y21030D01*
Y22324D01*
X58912Y22332D01*
X59017Y22489D01*
X59054Y22675D01*
Y22882D01*
X62440Y26268D01*
X62456Y26288D01*
X62583Y26245D01*
Y21867D01*
X62066D01*
Y20215D01*
X63918D01*
Y20657D01*
X65582D01*
Y20465D01*
X66784D01*
Y21567D01*
X65582D01*
Y21475D01*
X63918D01*
Y21867D01*
X63401D01*
Y26475D01*
Y39971D01*
Y66330D01*
X63370Y66487D01*
X63281Y66619D01*
X61539Y68361D01*
X61407Y68450D01*
X61250Y68481D01*
X59348D01*
X59343Y68487D01*
X59153Y68615D01*
X58928Y68659D01*
X58703Y68615D01*
X58513Y68487D01*
X58385Y68297D01*
X58341Y68072D01*
X58385Y67847D01*
X58513Y67657D01*
X58703Y67529D01*
X58928Y67485D01*
X59153Y67529D01*
X59343Y67657D01*
X59348Y67663D01*
X61081D01*
X61493Y67251D01*
X61434Y67131D01*
X61340Y67143D01*
X61170Y67121D01*
X61012Y67055D01*
X60876Y66951D01*
X60771Y66815D01*
X60706Y66656D01*
X60683Y66486D01*
X60706Y66316D01*
X60771Y66158D01*
X60876Y66022D01*
X61319Y65578D01*
Y27004D01*
X59159Y24844D01*
X59039Y24903D01*
X59052Y25000D01*
X59024Y25209D01*
X58944Y25404D01*
X58815Y25571D01*
X58648Y25700D01*
X58453Y25780D01*
X58244Y25808D01*
X58035Y25780D01*
X57840Y25700D01*
X57673Y25571D01*
X57544Y25404D01*
X57464Y25209D01*
X57436Y25000D01*
X57464Y24791D01*
X57544Y24596D01*
X57673Y24429D01*
X57840Y24300D01*
X58035Y24220D01*
X58244Y24192D01*
X58341Y24205D01*
X58400Y24085D01*
X58126Y23810D01*
X57919D01*
X57733Y23773D01*
X57576Y23668D01*
X57471Y23511D01*
X57434Y23325D01*
Y22675D01*
X57471Y22489D01*
X57576Y22332D01*
X57587Y22324D01*
Y20872D01*
X36652Y20872D01*
X36604Y20989D01*
X46206Y30591D01*
X57548D01*
X57673Y30429D01*
X57840Y30300D01*
X58035Y30220D01*
X58244Y30192D01*
X58453Y30220D01*
X58648Y30300D01*
X58815Y30429D01*
X58944Y30596D01*
X59024Y30791D01*
X59052Y31000D01*
X59024Y31209D01*
X58944Y31404D01*
X58815Y31571D01*
X58648Y31700D01*
X58453Y31780D01*
X58244Y31808D01*
X58035Y31780D01*
X57840Y31700D01*
X57673Y31571D01*
X57548Y31409D01*
X51525D01*
Y49982D01*
X51652Y50025D01*
X51773Y49868D01*
X51971Y49715D01*
X52042Y49686D01*
Y44793D01*
X52073Y44637D01*
X52162Y44504D01*
X57463Y39203D01*
X57436Y39000D01*
X57464Y38791D01*
X57544Y38596D01*
X57673Y38429D01*
X57840Y38300D01*
X58035Y38220D01*
X58244Y38192D01*
X58453Y38220D01*
X58648Y38300D01*
X58815Y38429D01*
X58944Y38596D01*
X59024Y38791D01*
X59052Y39000D01*
X59024Y39209D01*
X58944Y39404D01*
X58815Y39571D01*
X58648Y39700D01*
X58453Y39780D01*
X58244Y39808D01*
X58041Y39781D01*
X52860Y44962D01*
Y49686D01*
X52931Y49715D01*
X53129Y49868D01*
X53282Y50066D01*
X53378Y50298D01*
X53410Y50546D01*
X53378Y50794D01*
X53282Y51026D01*
X53129Y51224D01*
X52931Y51377D01*
X52860Y51406D01*
Y51919D01*
X52917Y51958D01*
X52983Y51976D01*
X54094Y50865D01*
X54064Y50794D01*
X54032Y50546D01*
X54064Y50298D01*
X54160Y50066D01*
X54313Y49868D01*
X54511Y49715D01*
X54743Y49619D01*
X54991Y49587D01*
X55239Y49619D01*
X55288Y49640D01*
X59662Y45265D01*
Y30005D01*
X59066Y29409D01*
X58940D01*
X58815Y29571D01*
X58648Y29700D01*
X58453Y29780D01*
X58244Y29808D01*
X58035Y29780D01*
X57840Y29700D01*
X57673Y29571D01*
X57544Y29404D01*
X57464Y29209D01*
X57436Y29000D01*
X57464Y28791D01*
X57544Y28596D01*
X57673Y28429D01*
X57840Y28300D01*
X58035Y28220D01*
X58244Y28192D01*
X58453Y28220D01*
X58648Y28300D01*
X58815Y28429D01*
X58940Y28591D01*
X59235D01*
X59392Y28622D01*
X59524Y28711D01*
X60360Y29547D01*
X60449Y29679D01*
X60480Y29836D01*
X60480Y29836D01*
Y45434D01*
X60449Y45591D01*
X60360Y45724D01*
X55879Y50205D01*
X55918Y50298D01*
X55950Y50546D01*
X55918Y50794D01*
X55822Y51026D01*
X55669Y51224D01*
X55471Y51377D01*
X55239Y51473D01*
X54991Y51505D01*
X54743Y51473D01*
X54672Y51443D01*
X52423Y53692D01*
Y63946D01*
X54772Y66295D01*
X54861Y66428D01*
X54892Y66584D01*
Y77430D01*
X55265Y77804D01*
X55507D01*
X55573Y77760D01*
X55768Y77721D01*
X57418D01*
X57613Y77760D01*
X57779Y77871D01*
X57890Y78037D01*
X57929Y78232D01*
X57890Y78427D01*
X57779Y78593D01*
X57613Y78704D01*
X57418Y78743D01*
X55768D01*
X55573Y78704D01*
X55449Y78622D01*
X55223D01*
X55170Y78749D01*
X55500Y79079D01*
X55573Y79030D01*
X55768Y78991D01*
X57418D01*
X57613Y79030D01*
X57779Y79141D01*
X57890Y79307D01*
X57929Y79502D01*
X57890Y79697D01*
X57779Y79863D01*
X57613Y79974D01*
X57418Y80013D01*
X55768D01*
X55573Y79974D01*
X55478Y79911D01*
X55345D01*
X55189Y79880D01*
X55056Y79791D01*
X53474Y78209D01*
X53385Y78076D01*
X53354Y77920D01*
Y67166D01*
X51019Y64831D01*
X50930Y64698D01*
X50899Y64542D01*
Y53086D01*
X50930Y52930D01*
X51019Y52797D01*
X52042Y51774D01*
Y51406D01*
X51971Y51377D01*
X51773Y51224D01*
X51652Y51067D01*
X51525Y51110D01*
Y51360D01*
X51494Y51516D01*
X51405Y51649D01*
X50737Y52317D01*
X50604Y52406D01*
X50448Y52437D01*
X47109D01*
X45705Y53840D01*
X45707Y53848D01*
X45662Y54073D01*
X45535Y54263D01*
X45344Y54391D01*
X45119Y54435D01*
X44895Y54391D01*
X44704Y54263D01*
X44577Y54073D01*
X44532Y53848D01*
X44577Y53623D01*
X44704Y53433D01*
X44895Y53305D01*
X45119Y53261D01*
X45127Y53262D01*
X46650Y51739D01*
X46783Y51650D01*
X46939Y51619D01*
X47264D01*
X47272Y51492D01*
X47123Y51473D01*
X46891Y51377D01*
X46693Y51224D01*
X46540Y51026D01*
X46444Y50794D01*
X46412Y50546D01*
X46444Y50298D01*
X46540Y50066D01*
X46693Y49868D01*
X46891Y49715D01*
X46962Y49686D01*
Y49516D01*
X41891Y44445D01*
X41802Y44312D01*
X41771Y44156D01*
Y29493D01*
X37687Y25409D01*
X36940D01*
X36815Y25571D01*
X36648Y25700D01*
X36453Y25780D01*
X36244Y25808D01*
X36035Y25780D01*
X35840Y25700D01*
X35673Y25571D01*
X35544Y25404D01*
X35464Y25209D01*
X35436Y25000D01*
X35464Y24791D01*
X35544Y24596D01*
X35673Y24429D01*
X35840Y24300D01*
X36035Y24220D01*
X36244Y24192D01*
X36453Y24220D01*
X36648Y24300D01*
X36815Y24429D01*
X36940Y24591D01*
X37767D01*
X37819Y24464D01*
X37013Y23658D01*
X36912Y23668D01*
X36755Y23773D01*
X36569Y23810D01*
X35919D01*
X35733Y23773D01*
X35576Y23668D01*
X35471Y23511D01*
X35434Y23325D01*
Y22675D01*
X35471Y22489D01*
X35576Y22332D01*
X35733Y22227D01*
X35919Y22190D01*
X36468D01*
X36521Y22063D01*
X28972Y14514D01*
X28855Y14563D01*
Y20411D01*
X35035Y26591D01*
X35548D01*
X35673Y26429D01*
X35840Y26300D01*
X36035Y26220D01*
X36244Y26192D01*
X36453Y26220D01*
X36648Y26300D01*
X36815Y26429D01*
X36944Y26596D01*
X37024Y26791D01*
X37052Y27000D01*
X37024Y27209D01*
X36944Y27404D01*
X36815Y27571D01*
X36648Y27700D01*
X36453Y27780D01*
X36244Y27808D01*
X36035Y27780D01*
X35840Y27700D01*
X35673Y27571D01*
X35548Y27409D01*
X35007D01*
X34954Y27536D01*
X35771Y28353D01*
X35840Y28300D01*
X36035Y28220D01*
X36244Y28192D01*
X36453Y28220D01*
X36648Y28300D01*
X36815Y28429D01*
X36944Y28596D01*
X37024Y28791D01*
X37052Y29000D01*
X37024Y29209D01*
X36944Y29404D01*
X36815Y29571D01*
X36648Y29700D01*
X36453Y29780D01*
X36244Y29808D01*
X36035Y29780D01*
X35840Y29700D01*
X35673Y29571D01*
X35544Y29404D01*
X35464Y29209D01*
X35463Y29201D01*
X27397Y21135D01*
X27308Y21002D01*
X27277Y20846D01*
Y11964D01*
X24923Y9610D01*
X24738Y9425D01*
X15577Y9425D01*
Y18901D01*
X20424D01*
Y18632D01*
X20568D01*
Y18272D01*
X20591Y18102D01*
X20656Y17944D01*
X20761Y17808D01*
X21293Y17276D01*
X21429Y17171D01*
X21587Y17106D01*
X21757Y17083D01*
X26123D01*
X26293Y17106D01*
X26451Y17171D01*
X26587Y17276D01*
X26691Y17412D01*
X26757Y17570D01*
X26779Y17740D01*
X26757Y17910D01*
X26691Y18068D01*
X26587Y18204D01*
X26451Y18309D01*
X26293Y18374D01*
X26123Y18397D01*
X22029D01*
X21921Y18505D01*
X21973Y18632D01*
X21976D01*
Y20484D01*
X20424D01*
Y20215D01*
X12337D01*
X9714Y22838D01*
Y23588D01*
X9800Y23701D01*
X9886Y23908D01*
X9915Y24130D01*
X9886Y24352D01*
X9800Y24559D01*
X9714Y24672D01*
Y27962D01*
X16528Y34776D01*
X23400D01*
X23570Y34799D01*
X23728Y34864D01*
X23864Y34969D01*
X25464Y36569D01*
X25569Y36705D01*
X25634Y36863D01*
X25657Y37033D01*
Y38399D01*
X25876D01*
Y39751D01*
X24124D01*
Y38399D01*
X24343D01*
Y37305D01*
X23128Y36090D01*
X22247D01*
Y50027D01*
X23915D01*
X24085Y50050D01*
X24243Y50115D01*
X24379Y50220D01*
X25483Y51324D01*
X25588Y51460D01*
X25653Y51618D01*
X25676Y51788D01*
Y53399D01*
X25876D01*
Y54751D01*
X24124D01*
Y53399D01*
X24362D01*
Y52060D01*
X23643Y51341D01*
X22247D01*
Y62593D01*
X25310Y65656D01*
X26347D01*
X26399Y65551D01*
X26399Y65536D01*
X26383Y65409D01*
X26169D01*
X26013Y65378D01*
X25880Y65289D01*
X24711Y64120D01*
X24622Y63987D01*
X24591Y63831D01*
Y61751D01*
X24199D01*
Y60349D01*
X25801D01*
Y61751D01*
X25409D01*
Y63661D01*
X26272Y64525D01*
X26399Y64472D01*
Y64449D01*
X27601D01*
Y65551D01*
X26921D01*
X26912Y65678D01*
X26918Y65679D01*
X27077Y65744D01*
X27213Y65849D01*
X31385Y70021D01*
X34614D01*
X34784Y70044D01*
X34942Y70109D01*
X35078Y70214D01*
X35183Y70350D01*
X35248Y70508D01*
X35271Y70678D01*
X35248Y70848D01*
X35183Y71006D01*
X35078Y71142D01*
X34942Y71247D01*
X34784Y71312D01*
X34614Y71335D01*
X31113D01*
X30943Y71312D01*
X30785Y71247D01*
X30649Y71142D01*
X26476Y66970D01*
X25657D01*
Y68399D01*
X25876D01*
Y69751D01*
X24124D01*
Y68399D01*
X24343D01*
Y66547D01*
X21126Y63329D01*
X21021Y63193D01*
X20956Y63035D01*
X20933Y62865D01*
Y50446D01*
Y36090D01*
X16256D01*
X16086Y36067D01*
X15928Y36002D01*
X15792Y35897D01*
X9057Y29163D01*
X3234Y34985D01*
Y40353D01*
X3251D01*
Y41136D01*
X3257Y41179D01*
Y56190D01*
Y71190D01*
X3251Y71233D01*
Y72016D01*
X1949D01*
Y71233D01*
X1943Y71190D01*
Y56190D01*
Y41348D01*
X1921Y41179D01*
Y34713D01*
X1944Y34543D01*
X2009Y34385D01*
X2113Y34249D01*
X8400Y27962D01*
Y24672D01*
X8314Y24559D01*
X8228Y24352D01*
X8199Y24130D01*
X8228Y23908D01*
X8314Y23701D01*
X8400Y23588D01*
Y22566D01*
X8423Y22396D01*
X8488Y22238D01*
X8593Y22102D01*
X11601Y19094D01*
X11737Y18989D01*
X11895Y18924D01*
X12065Y18901D01*
X14263D01*
Y9425D01*
X8990Y9425D01*
X255Y9425D01*
X255Y91425D01*
X8990Y91425D01*
X8990Y99745D01*
X90990D01*
X90990Y91425D01*
D02*
G37*
G36*
X50645Y49849D02*
X50707Y49828D01*
Y31409D01*
X46036D01*
X45880Y31378D01*
X45747Y31289D01*
X43575Y29117D01*
X43448Y29170D01*
Y43505D01*
X49592Y49649D01*
X49663Y49619D01*
X49911Y49587D01*
X50159Y49619D01*
X50391Y49715D01*
X50580Y49861D01*
X50645Y49849D01*
D02*
G37*
G36*
X95000Y14226D02*
X95000Y13411D01*
X94900Y13302D01*
X94685Y13259D01*
X94684Y13258D01*
X91808D01*
X88105Y9555D01*
X86964D01*
X86964Y9556D01*
X86881Y9680D01*
X86943Y9792D01*
X87010Y9893D01*
X87023Y9959D01*
X86135D01*
Y10159D01*
X87023D01*
X87010Y10225D01*
X86916Y10365D01*
Y10403D01*
X87010Y10543D01*
X87023Y10609D01*
X86135D01*
Y10809D01*
X87023D01*
X87010Y10875D01*
X86970Y10936D01*
X86925Y11034D01*
X86970Y11132D01*
X87010Y11193D01*
X87023Y11259D01*
X86135D01*
Y11459D01*
X87023D01*
X87010Y11525D01*
X86916Y11665D01*
Y11703D01*
X87010Y11843D01*
X87023Y11909D01*
X86135D01*
Y12109D01*
X87023D01*
X87010Y12175D01*
X86943Y12276D01*
X86881Y12388D01*
X86964Y12512D01*
X86993Y12659D01*
X86964Y12806D01*
X86881Y12930D01*
X86943Y13042D01*
X87010Y13143D01*
X87023Y13209D01*
X86135D01*
Y13409D01*
X87023D01*
X87015Y13450D01*
X87083Y13577D01*
X87568D01*
X88300Y14309D01*
X92860Y14313D01*
X92950Y14224D01*
Y14040D01*
X93800D01*
X94650D01*
Y14315D01*
X94910Y14316D01*
X95000Y14226D01*
D02*
G37*
G36*
X79387Y12216D02*
X79360Y12175D01*
X79347Y12109D01*
X80235D01*
Y11909D01*
X79347D01*
X79360Y11843D01*
X79454Y11703D01*
Y11665D01*
X79360Y11525D01*
X79347Y11459D01*
X80235D01*
Y11259D01*
X79347D01*
X79360Y11193D01*
X79400Y11132D01*
X79445Y11034D01*
X79400Y10936D01*
X79360Y10875D01*
X79347Y10809D01*
X80235D01*
Y10609D01*
X79347D01*
X79360Y10543D01*
X79454Y10403D01*
Y10365D01*
X79360Y10225D01*
X79347Y10159D01*
X80235D01*
Y9959D01*
X79347D01*
X79360Y9893D01*
X79370Y9878D01*
X79310Y9766D01*
X69697Y9766D01*
X69697Y12343D01*
X75252D01*
X75350Y12216D01*
Y11723D01*
X76200D01*
X77050D01*
Y12216D01*
X77050Y12273D01*
X77148Y12343D01*
X79320D01*
X79387Y12216D01*
D02*
G37*
%LPC*%
G36*
X66623Y97230D02*
X65021D01*
Y96713D01*
X58062D01*
Y97192D01*
X56510D01*
Y95340D01*
X58062D01*
Y95895D01*
X64669D01*
X64718Y95778D01*
X64322Y95382D01*
X64233Y95249D01*
X64202Y95093D01*
Y92956D01*
X63474D01*
Y93373D01*
X62172D01*
Y91721D01*
X63474D01*
Y92138D01*
X64202D01*
Y89565D01*
X64233Y89409D01*
X64322Y89276D01*
X65021Y88577D01*
Y87428D01*
X65413D01*
Y85435D01*
X65444Y85279D01*
X65533Y85146D01*
X66647Y84032D01*
Y77724D01*
X66678Y77568D01*
X66767Y77435D01*
X67148Y77054D01*
X67281Y76965D01*
X67437Y76934D01*
X67791D01*
Y76542D01*
X68993D01*
Y78144D01*
X67791D01*
Y77752D01*
X67606D01*
X67465Y77893D01*
Y84201D01*
X67434Y84357D01*
X67345Y84490D01*
X66231Y85604D01*
Y87428D01*
X66623D01*
Y89280D01*
X65474D01*
X65020Y89734D01*
Y92547D01*
Y94924D01*
X65474Y95378D01*
X66623D01*
Y97230D01*
D02*
G37*
G36*
X71172Y97279D02*
X70422D01*
Y96404D01*
X71172D01*
Y97279D01*
D02*
G37*
G36*
X70222D02*
X69472D01*
Y96404D01*
X70222D01*
Y97279D01*
D02*
G37*
G36*
X46709Y97261D02*
Y96366D01*
X47604D01*
X47583Y96527D01*
X47482Y96770D01*
X47322Y96979D01*
X47113Y97140D01*
X46870Y97240D01*
X46709Y97261D01*
D02*
G37*
G36*
X46509D02*
X46348Y97240D01*
X46105Y97140D01*
X45896Y96979D01*
X45736Y96770D01*
X45635Y96527D01*
X45614Y96366D01*
X46509D01*
Y97261D01*
D02*
G37*
G36*
X71172Y96204D02*
X70422D01*
Y95329D01*
X71172D01*
Y96204D01*
D02*
G37*
G36*
X70222D02*
X69472D01*
Y95329D01*
X70222D01*
Y96204D01*
D02*
G37*
G36*
X44069Y97225D02*
X43821Y97193D01*
X43589Y97097D01*
X43391Y96944D01*
X43238Y96746D01*
X43142Y96514D01*
X43110Y96266D01*
X43142Y96018D01*
X43238Y95786D01*
X43391Y95588D01*
X43589Y95435D01*
X43821Y95339D01*
X44069Y95307D01*
X44317Y95339D01*
X44549Y95435D01*
X44747Y95588D01*
X44900Y95786D01*
X44996Y96018D01*
X45028Y96266D01*
X44996Y96514D01*
X44900Y96746D01*
X44747Y96944D01*
X44549Y97097D01*
X44317Y97193D01*
X44069Y97225D01*
D02*
G37*
G36*
X41529D02*
X41281Y97193D01*
X41049Y97097D01*
X40851Y96944D01*
X40698Y96746D01*
X40602Y96514D01*
X40570Y96266D01*
X40602Y96018D01*
X40698Y95786D01*
X40851Y95588D01*
X41049Y95435D01*
X41281Y95339D01*
X41529Y95307D01*
X41777Y95339D01*
X42009Y95435D01*
X42207Y95588D01*
X42360Y95786D01*
X42456Y96018D01*
X42488Y96266D01*
X42456Y96514D01*
X42360Y96746D01*
X42207Y96944D01*
X42009Y97097D01*
X41777Y97193D01*
X41529Y97225D01*
D02*
G37*
G36*
X38989D02*
X38741Y97193D01*
X38509Y97097D01*
X38311Y96944D01*
X38158Y96746D01*
X38062Y96514D01*
X38030Y96266D01*
X38062Y96018D01*
X38158Y95786D01*
X38311Y95588D01*
X38509Y95435D01*
X38741Y95339D01*
X38989Y95307D01*
X39237Y95339D01*
X39469Y95435D01*
X39667Y95588D01*
X39820Y95786D01*
X39916Y96018D01*
X39948Y96266D01*
X39916Y96514D01*
X39820Y96746D01*
X39667Y96944D01*
X39469Y97097D01*
X39237Y97193D01*
X38989Y97225D01*
D02*
G37*
G36*
X36449D02*
X36201Y97193D01*
X35969Y97097D01*
X35771Y96944D01*
X35618Y96746D01*
X35522Y96514D01*
X35490Y96266D01*
X35522Y96018D01*
X35618Y95786D01*
X35771Y95588D01*
X35969Y95435D01*
X36201Y95339D01*
X36449Y95307D01*
X36697Y95339D01*
X36929Y95435D01*
X37127Y95588D01*
X37280Y95786D01*
X37376Y96018D01*
X37408Y96266D01*
X37376Y96514D01*
X37280Y96746D01*
X37127Y96944D01*
X36929Y97097D01*
X36697Y97193D01*
X36449Y97225D01*
D02*
G37*
G36*
X47604Y96166D02*
X46709D01*
Y95271D01*
X46870Y95292D01*
X47113Y95393D01*
X47322Y95553D01*
X47482Y95762D01*
X47583Y96005D01*
X47604Y96166D01*
D02*
G37*
G36*
X46509D02*
X45614D01*
X45635Y96005D01*
X45736Y95762D01*
X45896Y95553D01*
X46105Y95393D01*
X46348Y95292D01*
X46509Y95271D01*
Y96166D01*
D02*
G37*
G36*
X52089Y97228D02*
X51289D01*
X51074Y97185D01*
X50892Y97063D01*
X50770Y96881D01*
X50727Y96666D01*
Y95866D01*
X50770Y95651D01*
X50892Y95469D01*
X51074Y95347D01*
X51289Y95304D01*
X52089D01*
X52304Y95347D01*
X52486Y95469D01*
X52608Y95651D01*
X52649Y95857D01*
X54460D01*
Y95340D01*
X54952D01*
Y95134D01*
X54983Y94978D01*
X55072Y94845D01*
X55845Y94072D01*
X55978Y93983D01*
X56134Y93952D01*
X57616D01*
X57707Y93861D01*
X57706Y93853D01*
X57750Y93628D01*
X57878Y93438D01*
X58068Y93310D01*
X58293Y93266D01*
X58518Y93310D01*
X58708Y93438D01*
X58836Y93628D01*
X58880Y93853D01*
X58836Y94078D01*
X58708Y94268D01*
X58518Y94396D01*
X58293Y94440D01*
X58285Y94439D01*
X58074Y94650D01*
X57941Y94739D01*
X57785Y94770D01*
X56303D01*
X55860Y95213D01*
X55913Y95340D01*
X56012D01*
Y97192D01*
X54460D01*
Y96675D01*
X52649D01*
X52608Y96881D01*
X52486Y97063D01*
X52304Y97185D01*
X52089Y97228D01*
D02*
G37*
G36*
X11578Y95480D02*
X11282D01*
X10992Y95422D01*
X10719Y95309D01*
X10474Y95145D01*
X10265Y94936D01*
X10101Y94691D01*
X9988Y94418D01*
X9930Y94128D01*
Y93832D01*
X9988Y93542D01*
X10101Y93269D01*
X10265Y93024D01*
X10474Y92815D01*
X10719Y92651D01*
X10992Y92538D01*
X11282Y92480D01*
X11578D01*
X11868Y92538D01*
X12141Y92651D01*
X12386Y92815D01*
X12595Y93024D01*
X12759Y93269D01*
X12872Y93542D01*
X12930Y93832D01*
Y94128D01*
X12872Y94418D01*
X12759Y94691D01*
X12595Y94936D01*
X12386Y95145D01*
X12141Y95309D01*
X11868Y95422D01*
X11578Y95480D01*
D02*
G37*
G36*
X49149Y97225D02*
X48901Y97193D01*
X48669Y97097D01*
X48471Y96944D01*
X48318Y96746D01*
X48222Y96514D01*
X48190Y96266D01*
X48222Y96018D01*
X48318Y95786D01*
X48471Y95588D01*
X48492Y95571D01*
Y94869D01*
X48515Y94699D01*
X48580Y94541D01*
X48685Y94405D01*
X50209Y92881D01*
X50345Y92776D01*
X50503Y92711D01*
X50673Y92688D01*
X54650D01*
X57382Y89956D01*
Y89222D01*
X57405Y89052D01*
X57470Y88894D01*
X57575Y88758D01*
X59317Y87016D01*
Y83969D01*
X57553D01*
X57541Y84096D01*
X57613Y84110D01*
X57779Y84221D01*
X57890Y84387D01*
X57929Y84582D01*
X57890Y84777D01*
X57779Y84943D01*
X57613Y85054D01*
X57418Y85093D01*
X56877D01*
Y86241D01*
X56883Y86246D01*
X57011Y86436D01*
X57055Y86661D01*
X57011Y86886D01*
X56883Y87076D01*
X56693Y87204D01*
X56468Y87248D01*
X56243Y87204D01*
X56053Y87076D01*
X55925Y86886D01*
X55881Y86661D01*
X55925Y86436D01*
X56053Y86246D01*
X56059Y86241D01*
Y85093D01*
X55768D01*
X55573Y85054D01*
X55407Y84943D01*
X55296Y84777D01*
X55257Y84582D01*
X55296Y84387D01*
X55407Y84221D01*
X55573Y84110D01*
X55768Y84071D01*
X56280D01*
X56298Y83946D01*
X56140Y83881D01*
X56064Y83823D01*
X55768D01*
X55573Y83784D01*
X55407Y83673D01*
X55296Y83507D01*
X55257Y83312D01*
X55296Y83117D01*
X55407Y82951D01*
X55573Y82840D01*
X55768Y82801D01*
X56064D01*
X56140Y82743D01*
X56298Y82678D01*
X56280Y82553D01*
X55768D01*
X55573Y82514D01*
X55478Y82451D01*
X52959D01*
X52803Y82420D01*
X52670Y82331D01*
X51923Y81584D01*
X51834Y81451D01*
X51803Y81295D01*
Y69054D01*
X50437Y67688D01*
X50320Y67737D01*
Y73817D01*
X50289Y73973D01*
X50200Y74106D01*
X49595Y74711D01*
X49462Y74800D01*
X49306Y74831D01*
X48408D01*
X48313Y74894D01*
X48118Y74933D01*
X46468D01*
X46273Y74894D01*
X46107Y74783D01*
X45996Y74617D01*
X45957Y74422D01*
X45996Y74227D01*
X46107Y74061D01*
X46273Y73950D01*
X46468Y73911D01*
X48118D01*
X48313Y73950D01*
X48408Y74013D01*
X49136D01*
X49502Y73647D01*
Y67715D01*
X48075Y66288D01*
X45769D01*
X45612Y66257D01*
X45480Y66169D01*
X43354Y64043D01*
X43323Y63996D01*
X43066Y63739D01*
X42977Y63606D01*
X42946Y63450D01*
Y62901D01*
X42429D01*
Y61349D01*
X44281D01*
Y62901D01*
X43764D01*
Y63281D01*
X43932Y63449D01*
X43964Y63496D01*
X45938Y65471D01*
X48054D01*
X48102Y65353D01*
X47879Y65130D01*
X47790Y64997D01*
X47759Y64841D01*
Y59132D01*
X40070Y51443D01*
X39999Y51473D01*
X39751Y51505D01*
X39503Y51473D01*
X39271Y51377D01*
X39073Y51224D01*
X38920Y51026D01*
X38824Y50794D01*
X38792Y50546D01*
X38824Y50298D01*
X38920Y50066D01*
X39073Y49868D01*
X39271Y49715D01*
X39503Y49619D01*
X39751Y49587D01*
X39999Y49619D01*
X40231Y49715D01*
X40429Y49868D01*
X40582Y50066D01*
X40678Y50298D01*
X40710Y50546D01*
X40678Y50794D01*
X40648Y50865D01*
X48457Y58674D01*
X48546Y58807D01*
X48577Y58963D01*
Y64671D01*
X52501Y68596D01*
X52590Y68728D01*
X52621Y68885D01*
Y80393D01*
X52748Y80431D01*
X52798Y80357D01*
X52988Y80229D01*
X53213Y80185D01*
X53438Y80229D01*
X53628Y80357D01*
X53633Y80363D01*
X55478D01*
X55573Y80300D01*
X55768Y80261D01*
X57418D01*
X57613Y80300D01*
X57779Y80411D01*
X57890Y80577D01*
X57929Y80772D01*
X57890Y80967D01*
X57779Y81133D01*
X57613Y81244D01*
X57418Y81283D01*
X55768D01*
X55573Y81244D01*
X55478Y81181D01*
X53633D01*
X53628Y81187D01*
X53438Y81315D01*
X53213Y81359D01*
X52988Y81315D01*
X52911Y81416D01*
X53128Y81633D01*
X55478D01*
X55573Y81570D01*
X55768Y81531D01*
X57418D01*
X57613Y81570D01*
X57779Y81681D01*
X57890Y81847D01*
X57929Y82042D01*
X57890Y82237D01*
X57779Y82403D01*
X57613Y82514D01*
X57541Y82528D01*
X57553Y82655D01*
X59172D01*
Y82601D01*
X59723D01*
X59803Y82567D01*
X59973Y82545D01*
X60143Y82567D01*
X60224Y82601D01*
X60774D01*
Y82671D01*
X62958D01*
X64198Y81431D01*
Y75079D01*
X63643D01*
X63473Y75056D01*
X63314Y74991D01*
X63178Y74886D01*
X62359Y74067D01*
X62254Y73931D01*
X62189Y73772D01*
X62166Y73602D01*
Y73356D01*
X61989D01*
Y72004D01*
X63741D01*
Y73356D01*
X63671D01*
X63623Y73473D01*
X63915Y73765D01*
X64339D01*
X64631Y73473D01*
X64582Y73356D01*
X64529D01*
Y72004D01*
X66281D01*
Y73356D01*
X66062D01*
Y73628D01*
X66039Y73798D01*
X65974Y73956D01*
X65869Y74092D01*
X65482Y74479D01*
X65489Y74496D01*
X65512Y74666D01*
Y81703D01*
X65489Y81873D01*
X65424Y82031D01*
X65319Y82167D01*
X63694Y83792D01*
X63558Y83897D01*
X63400Y83962D01*
X63230Y83985D01*
X60630D01*
Y87288D01*
X60608Y87458D01*
X60542Y87616D01*
X60438Y87752D01*
X58696Y89494D01*
Y90291D01*
X60245Y91840D01*
X60372Y91787D01*
Y91721D01*
X61674D01*
Y92504D01*
X61680Y92547D01*
X61674Y92590D01*
Y93373D01*
X60372D01*
Y93204D01*
X60023D01*
X59853Y93181D01*
X59695Y93116D01*
X59559Y93011D01*
X57872Y91324D01*
X55386Y93809D01*
X55250Y93914D01*
X55092Y93979D01*
X54922Y94002D01*
X50945D01*
X49806Y95141D01*
Y95571D01*
X49827Y95588D01*
X49980Y95786D01*
X50076Y96018D01*
X50108Y96266D01*
X50076Y96514D01*
X49980Y96746D01*
X49827Y96944D01*
X49629Y97097D01*
X49397Y97193D01*
X49149Y97225D01*
D02*
G37*
G36*
X71172Y89329D02*
X70422D01*
Y88454D01*
X71172D01*
Y89329D01*
D02*
G37*
G36*
X70222D02*
X69472D01*
Y88454D01*
X70222D01*
Y89329D01*
D02*
G37*
G36*
X71172Y88254D02*
X70422D01*
Y87379D01*
X71172D01*
Y88254D01*
D02*
G37*
G36*
X70222D02*
X69472D01*
Y87379D01*
X70222D01*
Y88254D01*
D02*
G37*
G36*
X26641Y85804D02*
X26416Y85760D01*
X26226Y85632D01*
X26221Y85626D01*
X19187D01*
X19030Y85595D01*
X18897Y85506D01*
X8401Y75010D01*
X8312Y74877D01*
X8281Y74720D01*
Y72158D01*
X8160Y72108D01*
X7940Y71940D01*
X7772Y71720D01*
X7722Y71599D01*
X5051D01*
Y72016D01*
X3749D01*
Y70364D01*
X5051D01*
Y70781D01*
X7722D01*
X7772Y70660D01*
X7940Y70440D01*
X8160Y70272D01*
X8416Y70166D01*
X8690Y70130D01*
X8964Y70166D01*
X9220Y70272D01*
X9440Y70440D01*
X9608Y70660D01*
X9714Y70916D01*
X9750Y71190D01*
X9714Y71464D01*
X9608Y71720D01*
X9440Y71940D01*
X9220Y72108D01*
X9099Y72158D01*
Y74551D01*
X19356Y84808D01*
X26221D01*
X26226Y84802D01*
X26416Y84674D01*
X26641Y84630D01*
X26866Y84674D01*
X27056Y84802D01*
X27184Y84992D01*
X27228Y85217D01*
X27184Y85442D01*
X27056Y85632D01*
X26866Y85760D01*
X26641Y85804D01*
D02*
G37*
G36*
X48118Y85093D02*
X46468D01*
X46273Y85054D01*
X46178Y84991D01*
X35458D01*
X35302Y84960D01*
X35169Y84871D01*
X29767Y79469D01*
X29601D01*
Y79601D01*
X28399D01*
Y78499D01*
X29601D01*
Y78651D01*
X29936D01*
X30093Y78682D01*
X30225Y78771D01*
X35627Y84173D01*
X46178D01*
X46273Y84110D01*
X46468Y84071D01*
X48118D01*
X48313Y84110D01*
X48479Y84221D01*
X48590Y84387D01*
X48629Y84582D01*
X48590Y84777D01*
X48479Y84943D01*
X48313Y85054D01*
X48118Y85093D01*
D02*
G37*
G36*
Y83823D02*
X46468D01*
X46273Y83784D01*
X46178Y83721D01*
X36322D01*
X36166Y83690D01*
X36033Y83601D01*
X29750Y77318D01*
X29620Y77293D01*
X29430Y77165D01*
X29302Y76975D01*
X29258Y76750D01*
X29302Y76525D01*
X29430Y76335D01*
X29620Y76207D01*
X29845Y76163D01*
X30070Y76207D01*
X30260Y76335D01*
X30388Y76525D01*
X30432Y76750D01*
X30417Y76828D01*
X36491Y82903D01*
X46178D01*
X46273Y82840D01*
X46468Y82801D01*
X48118D01*
X48313Y82840D01*
X48479Y82951D01*
X48590Y83117D01*
X48629Y83312D01*
X48590Y83507D01*
X48479Y83673D01*
X48313Y83784D01*
X48118Y83823D01*
D02*
G37*
G36*
Y82553D02*
X46468D01*
X46273Y82514D01*
X46178Y82451D01*
X37387D01*
X37230Y82420D01*
X37098Y82331D01*
X27292Y72525D01*
X27284Y72527D01*
X27059Y72482D01*
X26869Y72355D01*
X26741Y72164D01*
X26697Y71939D01*
X26741Y71715D01*
X26869Y71524D01*
X27059Y71397D01*
X27284Y71352D01*
X27509Y71397D01*
X27699Y71524D01*
X27827Y71715D01*
X27871Y71939D01*
X27870Y71947D01*
X37556Y81633D01*
X46178D01*
X46273Y81570D01*
X46468Y81531D01*
X48118D01*
X48313Y81570D01*
X48479Y81681D01*
X48590Y81847D01*
X48629Y82042D01*
X48590Y82237D01*
X48479Y82403D01*
X48313Y82514D01*
X48118Y82553D01*
D02*
G37*
G36*
X60823Y81952D02*
X60073D01*
Y81402D01*
X60823D01*
Y81952D01*
D02*
G37*
G36*
X59873D02*
X59123D01*
Y81402D01*
X59873D01*
Y81952D01*
D02*
G37*
G36*
X29650Y81550D02*
X29100D01*
Y81050D01*
X29650D01*
Y81550D01*
D02*
G37*
G36*
X28900D02*
X28350D01*
Y81050D01*
X28900D01*
Y81550D01*
D02*
G37*
G36*
X60823Y81202D02*
X60073D01*
Y80652D01*
X60823D01*
Y81202D01*
D02*
G37*
G36*
X59873D02*
X59123D01*
Y80652D01*
X59873D01*
Y81202D01*
D02*
G37*
G36*
X29650Y80850D02*
X29100D01*
Y80350D01*
X29650D01*
Y80850D01*
D02*
G37*
G36*
X28900D02*
X28350D01*
Y80350D01*
X28900D01*
Y80850D01*
D02*
G37*
G36*
X38031Y81359D02*
X37806Y81315D01*
X37616Y81187D01*
X37488Y80997D01*
X37444Y80772D01*
X37488Y80547D01*
X37616Y80357D01*
X37806Y80229D01*
X38031Y80185D01*
X38256Y80229D01*
X38446Y80357D01*
X38450Y80363D01*
X46178D01*
X46273Y80300D01*
X46468Y80261D01*
X48118D01*
X48313Y80300D01*
X48479Y80411D01*
X48590Y80577D01*
X48629Y80772D01*
X48590Y80967D01*
X48479Y81133D01*
X48313Y81244D01*
X48118Y81283D01*
X46468D01*
X46273Y81244D01*
X46178Y81181D01*
X38450D01*
X38446Y81187D01*
X38256Y81315D01*
X38031Y81359D01*
D02*
G37*
G36*
X48118Y80063D02*
X47393D01*
Y79602D01*
X48659D01*
X48636Y79717D01*
X48515Y79899D01*
X48333Y80020D01*
X48118Y80063D01*
D02*
G37*
G36*
X47193D02*
X46468D01*
X46253Y80020D01*
X46071Y79899D01*
X45950Y79717D01*
X45927Y79602D01*
X47193D01*
Y80063D01*
D02*
G37*
G36*
X27601Y80551D02*
X26399D01*
Y80419D01*
X26010D01*
X25854Y80388D01*
X25721Y80299D01*
X24711Y79289D01*
X24622Y79156D01*
X24591Y79000D01*
Y76751D01*
X24199D01*
Y75349D01*
X25801D01*
Y76751D01*
X25409D01*
Y78831D01*
X26179Y79601D01*
X26399D01*
Y79449D01*
X27601D01*
Y80551D01*
D02*
G37*
G36*
X48659Y79402D02*
X47393D01*
Y78941D01*
X48118D01*
X48333Y78984D01*
X48515Y79105D01*
X48636Y79287D01*
X48659Y79402D01*
D02*
G37*
G36*
X47193D02*
X45927D01*
X45950Y79287D01*
X46071Y79105D01*
X46253Y78984D01*
X46468Y78941D01*
X47193D01*
Y79402D01*
D02*
G37*
G36*
X42880Y79082D02*
X42330D01*
Y78332D01*
X42880D01*
Y79082D01*
D02*
G37*
G36*
X42130D02*
X41580D01*
Y78332D01*
X42130D01*
Y79082D01*
D02*
G37*
G36*
X8690Y79668D02*
X8468Y79639D01*
X8261Y79553D01*
X8083Y79417D01*
X7947Y79239D01*
X7861Y79032D01*
X7832Y78810D01*
X7861Y78588D01*
X7947Y78381D01*
X8083Y78203D01*
X8261Y78067D01*
X8468Y77981D01*
X8690Y77952D01*
X8912Y77981D01*
X9119Y78067D01*
X9297Y78203D01*
X9433Y78381D01*
X9519Y78588D01*
X9548Y78810D01*
X9519Y79032D01*
X9433Y79239D01*
X9297Y79417D01*
X9119Y79553D01*
X8912Y79639D01*
X8690Y79668D01*
D02*
G37*
G36*
X44731Y79033D02*
X43529D01*
Y77431D01*
X44731D01*
Y77823D01*
X46178D01*
X46273Y77760D01*
X46468Y77721D01*
X48118D01*
X48313Y77760D01*
X48479Y77871D01*
X48590Y78037D01*
X48629Y78232D01*
X48590Y78427D01*
X48479Y78593D01*
X48313Y78704D01*
X48118Y78743D01*
X46468D01*
X46273Y78704D01*
X46178Y78641D01*
X44731D01*
Y79033D01*
D02*
G37*
G36*
X70942Y78193D02*
X70392D01*
Y77443D01*
X70942D01*
Y78193D01*
D02*
G37*
G36*
X70192D02*
X69642D01*
Y77443D01*
X70192D01*
Y78193D01*
D02*
G37*
G36*
X42880Y78132D02*
X42330D01*
Y77382D01*
X42880D01*
Y78132D01*
D02*
G37*
G36*
X42130D02*
X41580D01*
Y77382D01*
X42130D01*
Y78132D01*
D02*
G37*
G36*
X44831Y93373D02*
X42297D01*
X42141Y93342D01*
X42008Y93253D01*
X41289Y92534D01*
X41281Y92535D01*
X41056Y92491D01*
X40866Y92363D01*
X40738Y92173D01*
X40694Y91948D01*
X40738Y91723D01*
X40866Y91533D01*
X41056Y91405D01*
X41281Y91361D01*
X41506Y91405D01*
X41696Y91533D01*
X41824Y91723D01*
X41868Y91948D01*
X41867Y91956D01*
X42466Y92555D01*
X43765D01*
X43804Y92428D01*
X43707Y92363D01*
X43579Y92173D01*
X43535Y91948D01*
X43579Y91723D01*
X43707Y91533D01*
X43897Y91405D01*
X44122Y91361D01*
X44347Y91405D01*
X44537Y91533D01*
X44648Y91471D01*
X49502Y86617D01*
Y77766D01*
X49107Y77371D01*
X48408D01*
X48313Y77434D01*
X48118Y77473D01*
X46468D01*
X46273Y77434D01*
X46107Y77323D01*
X45996Y77157D01*
X45957Y76962D01*
X45996Y76767D01*
X46107Y76601D01*
X46273Y76490D01*
X46468Y76451D01*
X48118D01*
X48313Y76490D01*
X48408Y76553D01*
X49122D01*
X49174Y76426D01*
X48849Y76101D01*
X48408D01*
X48313Y76164D01*
X48118Y76203D01*
X46468D01*
X46273Y76164D01*
X46107Y76053D01*
X45996Y75887D01*
X45957Y75692D01*
X45996Y75497D01*
X46107Y75331D01*
X46273Y75220D01*
X46468Y75181D01*
X48118D01*
X48313Y75220D01*
X48408Y75283D01*
X49018D01*
X49175Y75314D01*
X49307Y75403D01*
X51028Y77123D01*
X51117Y77256D01*
X51148Y77413D01*
Y87056D01*
X51148Y87056D01*
X51117Y87212D01*
X51028Y87345D01*
X45120Y93253D01*
X44987Y93342D01*
X44831Y93373D01*
D02*
G37*
G36*
X57418Y77523D02*
X56693D01*
Y77062D01*
X57959D01*
X57936Y77177D01*
X57815Y77359D01*
X57633Y77480D01*
X57418Y77523D01*
D02*
G37*
G36*
X56493D02*
X55768D01*
X55553Y77480D01*
X55371Y77359D01*
X55250Y77177D01*
X55227Y77062D01*
X56493D01*
Y77523D01*
D02*
G37*
G36*
X70942Y77243D02*
X70392D01*
Y76493D01*
X70942D01*
Y77243D01*
D02*
G37*
G36*
X70192D02*
X69642D01*
Y76493D01*
X70192D01*
Y77243D01*
D02*
G37*
G36*
X57959Y76862D02*
X56693D01*
Y76401D01*
X57418D01*
X57633Y76444D01*
X57815Y76565D01*
X57936Y76747D01*
X57959Y76862D01*
D02*
G37*
G36*
X56493D02*
X55227D01*
X55250Y76747D01*
X55371Y76565D01*
X55553Y76444D01*
X55768Y76401D01*
X56493D01*
Y76862D01*
D02*
G37*
G36*
X60071Y76533D02*
X59846Y76489D01*
X59656Y76361D01*
X59528Y76171D01*
X59515Y76101D01*
X57708D01*
X57613Y76164D01*
X57418Y76203D01*
X55768D01*
X55573Y76164D01*
X55407Y76053D01*
X55296Y75887D01*
X55257Y75692D01*
X55296Y75497D01*
X55407Y75331D01*
X55573Y75220D01*
X55768Y75181D01*
X57418D01*
X57613Y75220D01*
X57708Y75283D01*
X59892D01*
X60049Y75314D01*
X60134Y75371D01*
X60296Y75403D01*
X60486Y75531D01*
X60614Y75721D01*
X60658Y75946D01*
X60614Y76171D01*
X60486Y76361D01*
X60296Y76489D01*
X60071Y76533D01*
D02*
G37*
G36*
X89372Y79131D02*
X88999Y79095D01*
X88641Y78986D01*
X88311Y78809D01*
X88021Y78572D01*
X87784Y78282D01*
X87607Y77952D01*
X87498Y77594D01*
X87462Y77221D01*
X87498Y76848D01*
X87607Y76490D01*
X87784Y76160D01*
X88021Y75870D01*
X88311Y75633D01*
X88641Y75456D01*
X88999Y75347D01*
X89372Y75311D01*
X89745Y75347D01*
X90103Y75456D01*
X90433Y75633D01*
X90723Y75870D01*
X90960Y76160D01*
X91137Y76490D01*
X91246Y76848D01*
X91282Y77221D01*
X91246Y77594D01*
X91137Y77952D01*
X90960Y78282D01*
X90723Y78572D01*
X90433Y78809D01*
X90103Y78986D01*
X89745Y79095D01*
X89372Y79131D01*
D02*
G37*
G36*
X12600Y76096D02*
Y75100D01*
X13596D01*
X13572Y75287D01*
X13461Y75555D01*
X13285Y75785D01*
X13055Y75961D01*
X12787Y76072D01*
X12600Y76096D01*
D02*
G37*
G36*
X12400D02*
X12213Y76072D01*
X11945Y75961D01*
X11715Y75785D01*
X11539Y75555D01*
X11428Y75287D01*
X11404Y75100D01*
X12400D01*
Y76096D01*
D02*
G37*
G36*
X60071Y75009D02*
X59846Y74965D01*
X59656Y74837D01*
X59651Y74831D01*
X57708D01*
X57613Y74894D01*
X57418Y74933D01*
X55768D01*
X55573Y74894D01*
X55407Y74783D01*
X55296Y74617D01*
X55257Y74422D01*
X55296Y74227D01*
X55407Y74061D01*
X55573Y73950D01*
X55768Y73911D01*
X57418D01*
X57613Y73950D01*
X57708Y74013D01*
X59651D01*
X59656Y74007D01*
X59846Y73879D01*
X60071Y73835D01*
X60296Y73879D01*
X60486Y74007D01*
X60614Y74197D01*
X60658Y74422D01*
X60614Y74647D01*
X60486Y74837D01*
X60296Y74965D01*
X60071Y75009D01*
D02*
G37*
G36*
X13596Y74900D02*
X12600D01*
Y73904D01*
X12787Y73928D01*
X13055Y74039D01*
X13285Y74215D01*
X13461Y74445D01*
X13572Y74713D01*
X13596Y74900D01*
D02*
G37*
G36*
X12400D02*
X11404D01*
X11428Y74713D01*
X11539Y74445D01*
X11715Y74215D01*
X11945Y74039D01*
X12213Y73928D01*
X12400Y73904D01*
Y74900D01*
D02*
G37*
G36*
X48118Y73663D02*
X46468D01*
X46273Y73624D01*
X46178Y73561D01*
X45835D01*
X45678Y73530D01*
X45546Y73441D01*
X45106Y73002D01*
X38478D01*
X38478Y73002D01*
X38321Y72970D01*
X38188Y72882D01*
X34409Y69102D01*
X34320Y68970D01*
X34289Y68813D01*
Y52566D01*
X34162Y52498D01*
X34053Y52571D01*
X33829Y52615D01*
X33604Y52571D01*
X33413Y52443D01*
X33286Y52253D01*
X33241Y52028D01*
X33286Y51803D01*
X33413Y51613D01*
X33420Y51609D01*
Y32527D01*
X29804Y28911D01*
X29548Y28655D01*
X29421Y28708D01*
Y29095D01*
X27769D01*
Y27243D01*
X28211D01*
Y23939D01*
X27877Y23605D01*
X27724D01*
Y23747D01*
X26522D01*
Y22645D01*
X27724D01*
Y22787D01*
X28046D01*
X28203Y22818D01*
X28335Y22907D01*
X28909Y23481D01*
X28998Y23613D01*
X29029Y23770D01*
X29029Y23770D01*
Y27243D01*
X29421D01*
Y27760D01*
X29640D01*
X29797Y27792D01*
X29929Y27880D01*
X30382Y28333D01*
X34118Y32069D01*
X34206Y32201D01*
X34237Y32358D01*
Y38285D01*
X34364Y38323D01*
X34409Y38257D01*
X35463Y37203D01*
X35436Y37000D01*
X35464Y36791D01*
X35544Y36596D01*
X35673Y36429D01*
X35840Y36300D01*
X36035Y36220D01*
X36244Y36192D01*
X36453Y36220D01*
X36648Y36300D01*
X36815Y36429D01*
X36944Y36596D01*
X37024Y36791D01*
X37052Y37000D01*
X37024Y37209D01*
X36944Y37404D01*
X36815Y37571D01*
X36648Y37700D01*
X36453Y37780D01*
X36244Y37808D01*
X36041Y37781D01*
X35107Y38715D01*
Y48717D01*
X35234Y48770D01*
X38961Y45043D01*
Y36295D01*
X36447Y33781D01*
X36244Y33808D01*
X36035Y33780D01*
X35840Y33700D01*
X35673Y33571D01*
X35544Y33404D01*
X35464Y33209D01*
X35436Y33000D01*
X35464Y32791D01*
X35544Y32596D01*
X35673Y32429D01*
X35840Y32300D01*
X36035Y32220D01*
X36244Y32192D01*
X36453Y32220D01*
X36648Y32300D01*
X36815Y32429D01*
X36944Y32596D01*
X37024Y32791D01*
X37052Y33000D01*
X37025Y33203D01*
X39659Y35837D01*
X39748Y35970D01*
X39779Y36126D01*
Y45043D01*
X44422Y49686D01*
X44583Y49619D01*
X44831Y49587D01*
X45079Y49619D01*
X45311Y49715D01*
X45509Y49868D01*
X45662Y50066D01*
X45758Y50298D01*
X45790Y50546D01*
X45758Y50794D01*
X45662Y51026D01*
X45509Y51224D01*
X45311Y51377D01*
X45079Y51473D01*
X44831Y51505D01*
X44583Y51473D01*
X44351Y51377D01*
X44153Y51224D01*
X44000Y51026D01*
X43904Y50794D01*
X43872Y50546D01*
X43901Y50322D01*
X39370Y45790D01*
X35809Y49351D01*
Y53916D01*
X35936Y53984D01*
X36001Y53940D01*
X36226Y53896D01*
X36451Y53940D01*
X36641Y54068D01*
X36769Y54258D01*
X36813Y54483D01*
X36769Y54708D01*
X36641Y54898D01*
X36604Y54923D01*
Y67746D01*
X36731Y67771D01*
X36742Y67744D01*
X36847Y67608D01*
X39641Y64814D01*
X39777Y64710D01*
X39935Y64644D01*
X40105Y64622D01*
X40873D01*
Y55137D01*
X37238Y51502D01*
X37211Y51505D01*
X36963Y51473D01*
X36731Y51377D01*
X36533Y51224D01*
X36380Y51026D01*
X36284Y50794D01*
X36252Y50546D01*
X36284Y50298D01*
X36380Y50066D01*
X36533Y49868D01*
X36731Y49715D01*
X36963Y49619D01*
X37211Y49587D01*
X37459Y49619D01*
X37691Y49715D01*
X37889Y49868D01*
X38042Y50066D01*
X38138Y50298D01*
X38170Y50546D01*
X38167Y50573D01*
X41994Y54401D01*
X42099Y54537D01*
X42164Y54695D01*
X42187Y54865D01*
Y64622D01*
X42598D01*
X42768Y64644D01*
X42927Y64710D01*
X43063Y64814D01*
X44644Y66396D01*
X44749Y66532D01*
X44814Y66690D01*
X44837Y66860D01*
Y67561D01*
X48118D01*
X48313Y67600D01*
X48479Y67711D01*
X48590Y67877D01*
X48629Y68072D01*
X48590Y68267D01*
X48479Y68433D01*
X48313Y68544D01*
X48118Y68583D01*
X44731D01*
Y68873D01*
X43529D01*
Y68115D01*
X43523Y68072D01*
Y67132D01*
X42326Y65935D01*
X40377D01*
X37775Y68536D01*
X37639Y68641D01*
X37481Y68706D01*
X37311Y68729D01*
X37216Y68716D01*
X37157Y68836D01*
X39059Y70739D01*
X45304D01*
X45720Y70323D01*
X45853Y70234D01*
X46009Y70203D01*
X46178D01*
X46273Y70140D01*
X46468Y70101D01*
X48118D01*
X48313Y70140D01*
X48479Y70251D01*
X48590Y70417D01*
X48629Y70612D01*
X48590Y70807D01*
X48479Y70973D01*
X48313Y71084D01*
X48118Y71123D01*
X46468D01*
X46273Y71084D01*
X46178Y71021D01*
X45853Y71346D01*
X45906Y71473D01*
X46178D01*
X46273Y71410D01*
X46468Y71371D01*
X48118D01*
X48313Y71410D01*
X48479Y71521D01*
X48590Y71687D01*
X48629Y71882D01*
X48590Y72077D01*
X48479Y72243D01*
X48313Y72354D01*
X48118Y72393D01*
X46468D01*
X46273Y72354D01*
X46178Y72291D01*
X45731D01*
X45679Y72418D01*
X46004Y72743D01*
X46178D01*
X46273Y72680D01*
X46468Y72641D01*
X48118D01*
X48313Y72680D01*
X48479Y72791D01*
X48590Y72957D01*
X48629Y73152D01*
X48590Y73347D01*
X48479Y73513D01*
X48313Y73624D01*
X48118Y73663D01*
D02*
G37*
G36*
X68870Y73405D02*
X68045D01*
Y72780D01*
X68870D01*
Y73405D01*
D02*
G37*
G36*
X67845D02*
X67020D01*
Y72780D01*
X67845D01*
Y73405D01*
D02*
G37*
G36*
X57418Y73663D02*
X55768D01*
X55573Y73624D01*
X55407Y73513D01*
X55296Y73347D01*
X55257Y73152D01*
X55296Y72957D01*
X55407Y72791D01*
X55573Y72680D01*
X55768Y72641D01*
X57418D01*
X57613Y72680D01*
X57708Y72743D01*
X59515D01*
X59528Y72673D01*
X59656Y72483D01*
X59846Y72355D01*
X60071Y72311D01*
X60296Y72355D01*
X60486Y72483D01*
X60614Y72673D01*
X60658Y72898D01*
X60614Y73123D01*
X60486Y73313D01*
X60325Y73421D01*
X60305Y73441D01*
X60172Y73530D01*
X60016Y73561D01*
X57708D01*
X57613Y73624D01*
X57418Y73663D01*
D02*
G37*
G36*
X58928Y72469D02*
X58703Y72425D01*
X58513Y72297D01*
X58508Y72291D01*
X57708D01*
X57613Y72354D01*
X57418Y72393D01*
X55768D01*
X55573Y72354D01*
X55407Y72243D01*
X55296Y72077D01*
X55257Y71882D01*
X55296Y71687D01*
X55407Y71521D01*
X55573Y71410D01*
X55768Y71371D01*
X57418D01*
X57613Y71410D01*
X57708Y71473D01*
X58508D01*
X58513Y71467D01*
X58703Y71339D01*
X58928Y71295D01*
X59153Y71339D01*
X59343Y71467D01*
X59471Y71657D01*
X59515Y71882D01*
X59471Y72107D01*
X59343Y72297D01*
X59153Y72425D01*
X58928Y72469D01*
D02*
G37*
G36*
X68870Y72580D02*
X68045D01*
Y71955D01*
X68870D01*
Y72580D01*
D02*
G37*
G36*
X67845D02*
X67020D01*
Y71955D01*
X67845D01*
Y72580D01*
D02*
G37*
G36*
X16310Y72048D02*
X16088Y72019D01*
X15881Y71933D01*
X15703Y71797D01*
X15567Y71619D01*
X15481Y71412D01*
X15452Y71190D01*
X15481Y70968D01*
X15567Y70761D01*
X15703Y70583D01*
X15881Y70447D01*
X16088Y70361D01*
X16310Y70332D01*
X16532Y70361D01*
X16739Y70447D01*
X16917Y70583D01*
X17053Y70761D01*
X17139Y70968D01*
X17168Y71190D01*
X17139Y71412D01*
X17053Y71619D01*
X16917Y71797D01*
X16739Y71933D01*
X16532Y72019D01*
X16310Y72048D01*
D02*
G37*
G36*
X25801Y74651D02*
X24199D01*
Y73249D01*
X24591D01*
Y71601D01*
X24124D01*
Y70249D01*
X25876D01*
Y71601D01*
X25409D01*
Y73249D01*
X25801D01*
Y74651D01*
D02*
G37*
G36*
X68821Y71506D02*
X67069D01*
Y70154D01*
X67202D01*
X67251Y70037D01*
X66962Y69747D01*
X66144D01*
X65864Y70027D01*
X65917Y70154D01*
X66281D01*
Y71506D01*
X64529D01*
Y70154D01*
X64860D01*
X64913Y70027D01*
X64637Y69751D01*
X63672D01*
X63386Y70037D01*
X63435Y70154D01*
X63741D01*
Y71506D01*
X61989D01*
Y71021D01*
X57708D01*
X57613Y71084D01*
X57418Y71123D01*
X55768D01*
X55573Y71084D01*
X55407Y70973D01*
X55296Y70807D01*
X55257Y70612D01*
X55296Y70417D01*
X55407Y70251D01*
X55573Y70140D01*
X55768Y70101D01*
X57418D01*
X57613Y70140D01*
X57708Y70203D01*
X61989D01*
Y70154D01*
X62414D01*
Y70022D01*
X62445Y69865D01*
X62534Y69733D01*
X63214Y69053D01*
X63346Y68964D01*
X63503Y68933D01*
X64806D01*
X64963Y68964D01*
X65095Y69053D01*
X65389Y69346D01*
X65685Y69049D01*
X65818Y68961D01*
X65975Y68930D01*
X67131D01*
X67287Y68961D01*
X67420Y69049D01*
X68234Y69863D01*
X68323Y69996D01*
X68354Y70153D01*
Y70154D01*
X68821D01*
Y71506D01*
D02*
G37*
G36*
X48118Y69903D02*
X47393D01*
Y69442D01*
X48659D01*
X48636Y69557D01*
X48515Y69739D01*
X48333Y69860D01*
X48118Y69903D01*
D02*
G37*
G36*
X47193D02*
X46468D01*
X46253Y69860D01*
X46071Y69739D01*
X45950Y69557D01*
X45927Y69442D01*
X47193D01*
Y69903D01*
D02*
G37*
G36*
X48659Y69242D02*
X47393D01*
Y68781D01*
X48118D01*
X48333Y68824D01*
X48515Y68945D01*
X48636Y69127D01*
X48659Y69242D01*
D02*
G37*
G36*
X47193D02*
X45927D01*
X45950Y69127D01*
X46071Y68945D01*
X46253Y68824D01*
X46468Y68781D01*
X47193D01*
Y69242D01*
D02*
G37*
G36*
X42880Y68922D02*
X42330D01*
Y68172D01*
X42880D01*
Y68922D01*
D02*
G37*
G36*
X42130D02*
X41580D01*
Y68172D01*
X42130D01*
Y68922D01*
D02*
G37*
G36*
X21971Y69294D02*
X21746Y69250D01*
X21556Y69122D01*
X21551Y69116D01*
X17454D01*
X17297Y69085D01*
X17164Y68996D01*
X8401Y60233D01*
X8312Y60100D01*
X8281Y59943D01*
Y57158D01*
X8160Y57108D01*
X7940Y56940D01*
X7772Y56720D01*
X7722Y56599D01*
X5051D01*
Y57016D01*
X3749D01*
Y55364D01*
X5051D01*
Y55781D01*
X7722D01*
X7772Y55660D01*
X7940Y55440D01*
X8160Y55272D01*
X8416Y55166D01*
X8690Y55130D01*
X8964Y55166D01*
X9220Y55272D01*
X9440Y55440D01*
X9608Y55660D01*
X9714Y55916D01*
X9750Y56190D01*
X9714Y56464D01*
X9608Y56720D01*
X9440Y56940D01*
X9220Y57108D01*
X9099Y57158D01*
Y59774D01*
X17623Y68298D01*
X21551D01*
X21556Y68292D01*
X21746Y68164D01*
X21971Y68120D01*
X22196Y68164D01*
X22386Y68292D01*
X22514Y68482D01*
X22558Y68707D01*
X22514Y68932D01*
X22386Y69122D01*
X22196Y69250D01*
X21971Y69294D01*
D02*
G37*
G36*
X42880Y67972D02*
X42330D01*
Y67222D01*
X42880D01*
Y67972D01*
D02*
G37*
G36*
X42130D02*
X41580D01*
Y67222D01*
X42130D01*
Y67972D01*
D02*
G37*
G36*
X29650Y66550D02*
X29100D01*
Y66050D01*
X29650D01*
Y66550D01*
D02*
G37*
G36*
X28900D02*
X28350D01*
Y66050D01*
X28900D01*
Y66550D01*
D02*
G37*
G36*
X57418Y68583D02*
X55768D01*
X55573Y68544D01*
X55407Y68433D01*
X55296Y68267D01*
X55257Y68072D01*
X55296Y67877D01*
X55407Y67711D01*
X55573Y67600D01*
X55768Y67561D01*
X56059D01*
Y66976D01*
X56090Y66820D01*
X56179Y66687D01*
X56861Y66005D01*
X56994Y65916D01*
X57150Y65885D01*
X58508D01*
X58513Y65879D01*
X58703Y65751D01*
X58928Y65707D01*
X59153Y65751D01*
X59343Y65879D01*
X59471Y66069D01*
X59515Y66294D01*
X59471Y66519D01*
X59343Y66709D01*
X59153Y66837D01*
X58928Y66881D01*
X58703Y66837D01*
X58513Y66709D01*
X58508Y66703D01*
X57319D01*
X56877Y67145D01*
Y67561D01*
X57418D01*
X57613Y67600D01*
X57779Y67711D01*
X57890Y67877D01*
X57929Y68072D01*
X57890Y68267D01*
X57779Y68433D01*
X57613Y68544D01*
X57418Y68583D01*
D02*
G37*
G36*
X29650Y65850D02*
X29100D01*
Y65350D01*
X29650D01*
Y65850D01*
D02*
G37*
G36*
X28900D02*
X28350D01*
Y65350D01*
X28900D01*
Y65850D01*
D02*
G37*
G36*
X32326Y68090D02*
X32102Y68046D01*
X31911Y67918D01*
X31784Y67728D01*
X31739Y67503D01*
X31784Y67278D01*
X31911Y67088D01*
X31917Y67083D01*
Y66661D01*
X29728Y64471D01*
X29601Y64488D01*
Y64601D01*
X28399D01*
Y63499D01*
X29601D01*
Y63641D01*
X29885D01*
X30042Y63672D01*
X30174Y63761D01*
X32615Y66202D01*
X32704Y66335D01*
X32735Y66491D01*
Y67083D01*
X32742Y67088D01*
X32869Y67278D01*
X32914Y67503D01*
X32869Y67728D01*
X32742Y67918D01*
X32551Y68046D01*
X32326Y68090D01*
D02*
G37*
G36*
X8690Y64668D02*
X8468Y64639D01*
X8261Y64553D01*
X8083Y64417D01*
X7947Y64239D01*
X7861Y64032D01*
X7832Y63810D01*
X7861Y63588D01*
X7947Y63381D01*
X8083Y63203D01*
X8261Y63067D01*
X8468Y62981D01*
X8690Y62952D01*
X8912Y62981D01*
X9119Y63067D01*
X9297Y63203D01*
X9433Y63381D01*
X9519Y63588D01*
X9548Y63810D01*
X9519Y64032D01*
X9433Y64239D01*
X9297Y64417D01*
X9119Y64553D01*
X8912Y64639D01*
X8690Y64668D01*
D02*
G37*
G36*
X12600Y61096D02*
Y60100D01*
X13596D01*
X13572Y60287D01*
X13461Y60555D01*
X13285Y60785D01*
X13055Y60961D01*
X12787Y61072D01*
X12600Y61096D01*
D02*
G37*
G36*
X12400D02*
X12213Y61072D01*
X11945Y60961D01*
X11715Y60785D01*
X11539Y60555D01*
X11428Y60287D01*
X11404Y60100D01*
X12400D01*
Y61096D01*
D02*
G37*
G36*
X87022Y64598D02*
X86561Y64553D01*
X86118Y64419D01*
X85710Y64200D01*
X85352Y63906D01*
X85058Y63548D01*
X84839Y63140D01*
X84705Y62697D01*
X84660Y62236D01*
X84705Y61775D01*
X84839Y61332D01*
X85058Y60924D01*
X85352Y60566D01*
X85710Y60272D01*
X86118Y60053D01*
X86561Y59919D01*
X87022Y59874D01*
X87483Y59919D01*
X87926Y60053D01*
X88334Y60272D01*
X88692Y60566D01*
X88986Y60924D01*
X89205Y61332D01*
X89339Y61775D01*
X89384Y62236D01*
X89339Y62697D01*
X89205Y63140D01*
X88986Y63548D01*
X88692Y63906D01*
X88334Y64200D01*
X87926Y64419D01*
X87483Y64553D01*
X87022Y64598D01*
D02*
G37*
G36*
X13596Y59900D02*
X12600D01*
Y58904D01*
X12787Y58928D01*
X13055Y59039D01*
X13285Y59215D01*
X13461Y59445D01*
X13572Y59713D01*
X13596Y59900D01*
D02*
G37*
G36*
X12400D02*
X11404D01*
X11428Y59713D01*
X11539Y59445D01*
X11715Y59215D01*
X11945Y59039D01*
X12213Y58928D01*
X12400Y58904D01*
Y59900D01*
D02*
G37*
G36*
X59114Y59416D02*
X58814D01*
Y58504D01*
X59726D01*
Y58804D01*
X59679Y59038D01*
X59547Y59237D01*
X59348Y59369D01*
X59114Y59416D01*
D02*
G37*
G36*
X58614D02*
X58314D01*
X58080Y59369D01*
X57881Y59237D01*
X57749Y59038D01*
X57702Y58804D01*
Y58504D01*
X58614D01*
Y59416D01*
D02*
G37*
G36*
X56174Y59363D02*
X55926Y59331D01*
X55694Y59235D01*
X55496Y59082D01*
X55343Y58884D01*
X55247Y58652D01*
X55215Y58404D01*
X55247Y58156D01*
X55343Y57924D01*
X55496Y57726D01*
X55694Y57573D01*
X55926Y57477D01*
X56174Y57445D01*
X56422Y57477D01*
X56654Y57573D01*
X56852Y57726D01*
X57005Y57924D01*
X57101Y58156D01*
X57133Y58404D01*
X57101Y58652D01*
X57005Y58884D01*
X56852Y59082D01*
X56654Y59235D01*
X56422Y59331D01*
X56174Y59363D01*
D02*
G37*
G36*
X53634D02*
X53386Y59331D01*
X53154Y59235D01*
X52956Y59082D01*
X52803Y58884D01*
X52707Y58652D01*
X52675Y58404D01*
X52707Y58156D01*
X52803Y57924D01*
X52956Y57726D01*
X53154Y57573D01*
X53386Y57477D01*
X53634Y57445D01*
X53882Y57477D01*
X54114Y57573D01*
X54312Y57726D01*
X54465Y57924D01*
X54561Y58156D01*
X54593Y58404D01*
X54561Y58652D01*
X54465Y58884D01*
X54312Y59082D01*
X54114Y59235D01*
X53882Y59331D01*
X53634Y59363D01*
D02*
G37*
G36*
X59726Y58304D02*
X58814D01*
Y57392D01*
X59114D01*
X59348Y57439D01*
X59547Y57571D01*
X59679Y57770D01*
X59726Y58004D01*
Y58304D01*
D02*
G37*
G36*
X58614D02*
X57702D01*
Y58004D01*
X57749Y57770D01*
X57881Y57571D01*
X58080Y57439D01*
X58314Y57392D01*
X58614D01*
Y58304D01*
D02*
G37*
G36*
X44281Y60851D02*
X42429D01*
Y59299D01*
X42946D01*
Y56397D01*
X42940Y56393D01*
X42812Y56203D01*
X42768Y55978D01*
X42812Y55753D01*
X42940Y55563D01*
X43130Y55435D01*
X43355Y55391D01*
X43580Y55435D01*
X43770Y55563D01*
X43898Y55753D01*
X43942Y55978D01*
X43898Y56203D01*
X43770Y56393D01*
X43764Y56397D01*
Y59299D01*
X44281D01*
Y60851D01*
D02*
G37*
G36*
X16310Y57048D02*
X16088Y57019D01*
X15881Y56933D01*
X15703Y56797D01*
X15567Y56619D01*
X15481Y56412D01*
X15452Y56190D01*
X15481Y55968D01*
X15567Y55761D01*
X15703Y55583D01*
X15881Y55447D01*
X16088Y55361D01*
X16310Y55332D01*
X16532Y55361D01*
X16739Y55447D01*
X16917Y55583D01*
X17053Y55761D01*
X17139Y55968D01*
X17168Y56190D01*
X17139Y56412D01*
X17053Y56619D01*
X16917Y56797D01*
X16739Y56933D01*
X16532Y57019D01*
X16310Y57048D01*
D02*
G37*
G36*
X25801Y59651D02*
X24199D01*
Y58249D01*
X24591D01*
Y56601D01*
X24124D01*
Y55249D01*
X25876D01*
Y56601D01*
X25409D01*
Y58249D01*
X25801D01*
Y59651D01*
D02*
G37*
G36*
X20066Y52791D02*
X19841Y52746D01*
X19651Y52619D01*
X19646Y52613D01*
X15825D01*
X15669Y52581D01*
X15536Y52493D01*
X8401Y45357D01*
X8312Y45225D01*
X8281Y45068D01*
Y42158D01*
X8160Y42108D01*
X7940Y41940D01*
X7772Y41720D01*
X7717Y41588D01*
X5051D01*
Y42005D01*
X3749D01*
Y40353D01*
X5051D01*
Y40770D01*
X7726D01*
X7772Y40660D01*
X7940Y40440D01*
X8160Y40272D01*
X8416Y40166D01*
X8690Y40130D01*
X8964Y40166D01*
X9220Y40272D01*
X9440Y40440D01*
X9608Y40660D01*
X9714Y40916D01*
X9750Y41190D01*
X9714Y41464D01*
X9608Y41720D01*
X9440Y41940D01*
X9220Y42108D01*
X9099Y42158D01*
Y44899D01*
X15995Y51795D01*
X19646D01*
X19651Y51788D01*
X19841Y51661D01*
X20066Y51616D01*
X20291Y51661D01*
X20481Y51788D01*
X20609Y51979D01*
X20653Y52204D01*
X20609Y52428D01*
X20481Y52619D01*
X20291Y52746D01*
X20066Y52791D01*
D02*
G37*
G36*
X29650Y51550D02*
X29100D01*
Y51050D01*
X29650D01*
Y51550D01*
D02*
G37*
G36*
X28900D02*
X28350D01*
Y51050D01*
X28900D01*
Y51550D01*
D02*
G37*
G36*
X61071Y51546D02*
X60171D01*
Y50646D01*
X61071D01*
Y51546D01*
D02*
G37*
G36*
X57631Y51541D02*
Y50646D01*
X58526D01*
X58505Y50807D01*
X58404Y51050D01*
X58244Y51259D01*
X58035Y51419D01*
X57792Y51520D01*
X57631Y51541D01*
D02*
G37*
G36*
X57431D02*
X57270Y51520D01*
X57027Y51419D01*
X56818Y51259D01*
X56658Y51050D01*
X56557Y50807D01*
X56536Y50646D01*
X57431D01*
Y51541D01*
D02*
G37*
G36*
X59971Y51546D02*
X59071D01*
Y50646D01*
X59971D01*
Y51546D01*
D02*
G37*
G36*
X29650Y50850D02*
X29100D01*
Y50350D01*
X29650D01*
Y50850D01*
D02*
G37*
G36*
X28900D02*
X28350D01*
Y50350D01*
X28900D01*
Y50850D01*
D02*
G37*
G36*
X42291Y51505D02*
X42043Y51473D01*
X41811Y51377D01*
X41613Y51224D01*
X41460Y51026D01*
X41364Y50794D01*
X41332Y50546D01*
X41364Y50298D01*
X41460Y50066D01*
X41613Y49868D01*
X41811Y49715D01*
X42043Y49619D01*
X42291Y49587D01*
X42539Y49619D01*
X42771Y49715D01*
X42969Y49868D01*
X43122Y50066D01*
X43218Y50298D01*
X43250Y50546D01*
X43218Y50794D01*
X43122Y51026D01*
X42969Y51224D01*
X42771Y51377D01*
X42539Y51473D01*
X42291Y51505D01*
D02*
G37*
G36*
X58526Y50446D02*
X57631D01*
Y49551D01*
X57792Y49572D01*
X58035Y49673D01*
X58244Y49833D01*
X58404Y50042D01*
X58505Y50285D01*
X58526Y50446D01*
D02*
G37*
G36*
X57431D02*
X56536D01*
X56557Y50285D01*
X56658Y50042D01*
X56818Y49833D01*
X57027Y49673D01*
X57270Y49572D01*
X57431Y49551D01*
Y50446D01*
D02*
G37*
G36*
X61071D02*
X60171D01*
Y49546D01*
X61071D01*
Y50446D01*
D02*
G37*
G36*
X59971D02*
X59071D01*
Y49546D01*
X59971D01*
Y50446D01*
D02*
G37*
G36*
X32326Y58991D02*
X32102Y58947D01*
X31911Y58819D01*
X31784Y58629D01*
X31739Y58404D01*
X31784Y58179D01*
X31911Y57989D01*
X31917Y57984D01*
Y51382D01*
X29994Y49459D01*
X29601D01*
Y49601D01*
X28399D01*
Y48499D01*
X29601D01*
Y48641D01*
X30163D01*
X30320Y48672D01*
X30452Y48761D01*
X32615Y50924D01*
X32704Y51057D01*
X32735Y51213D01*
Y57984D01*
X32742Y57989D01*
X32869Y58179D01*
X32914Y58404D01*
X32869Y58629D01*
X32742Y58819D01*
X32551Y58947D01*
X32326Y58991D01*
D02*
G37*
G36*
X27601Y50551D02*
X26399D01*
Y50409D01*
X26169D01*
X26013Y50378D01*
X25880Y50289D01*
X24711Y49120D01*
X24622Y48987D01*
X24591Y48831D01*
Y46751D01*
X24199D01*
Y45349D01*
X25801D01*
Y46751D01*
X25409D01*
Y48661D01*
X26272Y49525D01*
X26399Y49472D01*
Y49449D01*
X27601D01*
Y50551D01*
D02*
G37*
G36*
X8690Y49668D02*
X8468Y49639D01*
X8261Y49553D01*
X8083Y49417D01*
X7947Y49239D01*
X7861Y49032D01*
X7832Y48810D01*
X7861Y48588D01*
X7947Y48381D01*
X8083Y48203D01*
X8261Y48067D01*
X8468Y47981D01*
X8690Y47952D01*
X8912Y47981D01*
X9119Y48067D01*
X9297Y48203D01*
X9433Y48381D01*
X9519Y48588D01*
X9548Y48810D01*
X9519Y49032D01*
X9433Y49239D01*
X9297Y49417D01*
X9119Y49553D01*
X8912Y49639D01*
X8690Y49668D01*
D02*
G37*
G36*
X84672Y49161D02*
X84299Y49125D01*
X83941Y49016D01*
X83611Y48839D01*
X83321Y48602D01*
X83084Y48312D01*
X82907Y47982D01*
X82798Y47624D01*
X82762Y47251D01*
X82798Y46878D01*
X82907Y46520D01*
X83084Y46190D01*
X83321Y45900D01*
X83611Y45663D01*
X83941Y45486D01*
X84299Y45377D01*
X84672Y45341D01*
X85045Y45377D01*
X85403Y45486D01*
X85733Y45663D01*
X86023Y45900D01*
X86260Y46190D01*
X86437Y46520D01*
X86546Y46878D01*
X86582Y47251D01*
X86546Y47624D01*
X86437Y47982D01*
X86260Y48312D01*
X86023Y48602D01*
X85733Y48839D01*
X85403Y49016D01*
X85045Y49125D01*
X84672Y49161D01*
D02*
G37*
G36*
X12600Y46096D02*
Y45100D01*
X13596D01*
X13572Y45287D01*
X13461Y45555D01*
X13285Y45785D01*
X13055Y45961D01*
X12787Y46072D01*
X12600Y46096D01*
D02*
G37*
G36*
X12400D02*
X12213Y46072D01*
X11945Y45961D01*
X11715Y45785D01*
X11539Y45555D01*
X11428Y45287D01*
X11404Y45100D01*
X12400D01*
Y46096D01*
D02*
G37*
G36*
X13596Y44900D02*
X12600D01*
Y43904D01*
X12787Y43928D01*
X13055Y44039D01*
X13285Y44215D01*
X13461Y44445D01*
X13572Y44713D01*
X13596Y44900D01*
D02*
G37*
G36*
X12400D02*
X11404D01*
X11428Y44713D01*
X11539Y44445D01*
X11715Y44215D01*
X11945Y44039D01*
X12213Y43928D01*
X12400Y43904D01*
Y44900D01*
D02*
G37*
G36*
X58344Y41844D02*
Y41100D01*
X59088D01*
X59072Y41222D01*
X58986Y41429D01*
X58850Y41606D01*
X58673Y41742D01*
X58466Y41828D01*
X58344Y41844D01*
D02*
G37*
G36*
X58144D02*
X58022Y41828D01*
X57815Y41742D01*
X57638Y41606D01*
X57502Y41429D01*
X57416Y41222D01*
X57400Y41100D01*
X58144D01*
Y41844D01*
D02*
G37*
G36*
X16310Y42048D02*
X16088Y42019D01*
X15881Y41933D01*
X15703Y41797D01*
X15567Y41619D01*
X15481Y41412D01*
X15452Y41190D01*
X15481Y40968D01*
X15567Y40761D01*
X15703Y40583D01*
X15881Y40447D01*
X16088Y40361D01*
X16310Y40332D01*
X16532Y40361D01*
X16739Y40447D01*
X16917Y40583D01*
X17053Y40761D01*
X17139Y40968D01*
X17168Y41190D01*
X17139Y41412D01*
X17053Y41619D01*
X16917Y41797D01*
X16739Y41933D01*
X16532Y42019D01*
X16310Y42048D01*
D02*
G37*
G36*
X25801Y44651D02*
X24199D01*
Y43249D01*
X24591D01*
Y41601D01*
X24124D01*
Y40249D01*
X25876D01*
Y41601D01*
X25409D01*
Y43249D01*
X25801D01*
Y44651D01*
D02*
G37*
G36*
X36244Y41808D02*
X36035Y41780D01*
X35840Y41700D01*
X35673Y41571D01*
X35544Y41404D01*
X35464Y41209D01*
X35436Y41000D01*
X35464Y40791D01*
X35544Y40596D01*
X35673Y40429D01*
X35840Y40300D01*
X36035Y40220D01*
X36244Y40192D01*
X36453Y40220D01*
X36648Y40300D01*
X36815Y40429D01*
X36944Y40596D01*
X37024Y40791D01*
X37052Y41000D01*
X37024Y41209D01*
X36944Y41404D01*
X36815Y41571D01*
X36648Y41700D01*
X36453Y41780D01*
X36244Y41808D01*
D02*
G37*
G36*
X58144Y40900D02*
X57400D01*
X57416Y40778D01*
X57502Y40571D01*
X57638Y40394D01*
X57815Y40258D01*
X58022Y40172D01*
X58144Y40156D01*
Y40900D01*
D02*
G37*
G36*
X59088D02*
X58344D01*
Y40156D01*
X58466Y40172D01*
X58673Y40258D01*
X58850Y40394D01*
X58986Y40571D01*
X59072Y40778D01*
X59088Y40900D01*
D02*
G37*
G36*
X93472Y39571D02*
Y38711D01*
X94332D01*
X94312Y38863D01*
X94215Y39098D01*
X94060Y39299D01*
X93859Y39454D01*
X93624Y39551D01*
X93472Y39571D01*
D02*
G37*
G36*
X93272D02*
X93120Y39551D01*
X92885Y39454D01*
X92684Y39299D01*
X92529Y39098D01*
X92432Y38863D01*
X92412Y38711D01*
X93272D01*
Y39571D01*
D02*
G37*
G36*
X36244Y39808D02*
X36035Y39780D01*
X35840Y39700D01*
X35673Y39571D01*
X35544Y39404D01*
X35464Y39209D01*
X35436Y39000D01*
X35464Y38791D01*
X35544Y38596D01*
X35673Y38429D01*
X35840Y38300D01*
X36035Y38220D01*
X36244Y38192D01*
X36453Y38220D01*
X36648Y38300D01*
X36815Y38429D01*
X36944Y38596D01*
X37024Y38791D01*
X37052Y39000D01*
X37024Y39209D01*
X36944Y39404D01*
X36815Y39571D01*
X36648Y39700D01*
X36453Y39780D01*
X36244Y39808D01*
D02*
G37*
G36*
X94332Y38511D02*
X93472D01*
Y37651D01*
X93624Y37671D01*
X93859Y37768D01*
X94060Y37923D01*
X94215Y38124D01*
X94312Y38359D01*
X94332Y38511D01*
D02*
G37*
G36*
X93272D02*
X92412D01*
X92432Y38359D01*
X92529Y38124D01*
X92684Y37923D01*
X92885Y37768D01*
X93120Y37671D01*
X93272Y37651D01*
Y38511D01*
D02*
G37*
G36*
X57418Y69853D02*
X55768D01*
X55573Y69814D01*
X55407Y69703D01*
X55296Y69537D01*
X55257Y69342D01*
X55296Y69147D01*
X55407Y68981D01*
X55573Y68870D01*
X55768Y68831D01*
X57418D01*
X57613Y68870D01*
X57708Y68933D01*
X61701D01*
X72489Y58145D01*
Y37250D01*
X72483Y37245D01*
X72355Y37055D01*
X72311Y36830D01*
X72355Y36605D01*
X72483Y36415D01*
X72673Y36287D01*
X72898Y36243D01*
X73123Y36287D01*
X73313Y36415D01*
X73441Y36605D01*
X73485Y36830D01*
X73441Y37055D01*
X73313Y37245D01*
X73307Y37250D01*
Y58314D01*
X73276Y58471D01*
X73187Y58603D01*
X62159Y69631D01*
X62027Y69720D01*
X61870Y69751D01*
X57708D01*
X57613Y69814D01*
X57418Y69853D01*
D02*
G37*
G36*
X58244Y37808D02*
X58035Y37780D01*
X57840Y37700D01*
X57673Y37571D01*
X57544Y37404D01*
X57464Y37209D01*
X57436Y37000D01*
X57464Y36791D01*
X57544Y36596D01*
X57673Y36429D01*
X57840Y36300D01*
X58035Y36220D01*
X58244Y36192D01*
X58453Y36220D01*
X58648Y36300D01*
X58815Y36429D01*
X58944Y36596D01*
X59024Y36791D01*
X59052Y37000D01*
X59024Y37209D01*
X58944Y37404D01*
X58815Y37571D01*
X58648Y37700D01*
X58453Y37780D01*
X58244Y37808D01*
D02*
G37*
G36*
Y35808D02*
X58035Y35780D01*
X57840Y35700D01*
X57673Y35571D01*
X57544Y35404D01*
X57464Y35209D01*
X57436Y35000D01*
X57464Y34791D01*
X57544Y34596D01*
X57673Y34429D01*
X57840Y34300D01*
X58035Y34220D01*
X58244Y34192D01*
X58453Y34220D01*
X58648Y34300D01*
X58815Y34429D01*
X58944Y34596D01*
X59024Y34791D01*
X59052Y35000D01*
X59024Y35209D01*
X58944Y35404D01*
X58815Y35571D01*
X58648Y35700D01*
X58453Y35780D01*
X58244Y35808D01*
D02*
G37*
G36*
X36244D02*
X36035Y35780D01*
X35840Y35700D01*
X35673Y35571D01*
X35544Y35404D01*
X35464Y35209D01*
X35436Y35000D01*
X35464Y34791D01*
X35544Y34596D01*
X35673Y34429D01*
X35840Y34300D01*
X36035Y34220D01*
X36244Y34192D01*
X36453Y34220D01*
X36648Y34300D01*
X36815Y34429D01*
X36944Y34596D01*
X37024Y34791D01*
X37052Y35000D01*
X37024Y35209D01*
X36944Y35404D01*
X36815Y35571D01*
X36648Y35700D01*
X36453Y35780D01*
X36244Y35808D01*
D02*
G37*
G36*
X58244Y33808D02*
X58035Y33780D01*
X57840Y33700D01*
X57673Y33571D01*
X57544Y33404D01*
X57464Y33209D01*
X57436Y33000D01*
X57464Y32791D01*
X57544Y32596D01*
X57673Y32429D01*
X57840Y32300D01*
X58035Y32220D01*
X58244Y32192D01*
X58453Y32220D01*
X58648Y32300D01*
X58815Y32429D01*
X58944Y32596D01*
X59024Y32791D01*
X59052Y33000D01*
X59024Y33209D01*
X58944Y33404D01*
X58815Y33571D01*
X58648Y33700D01*
X58453Y33780D01*
X58244Y33808D01*
D02*
G37*
G36*
X93810Y32668D02*
X93588Y32639D01*
X93381Y32553D01*
X93203Y32417D01*
X93067Y32239D01*
X92981Y32032D01*
X92952Y31810D01*
X92981Y31588D01*
X93067Y31381D01*
X93203Y31203D01*
X93381Y31067D01*
X93588Y30981D01*
X93810Y30952D01*
X94032Y30981D01*
X94239Y31067D01*
X94417Y31203D01*
X94553Y31381D01*
X94639Y31588D01*
X94668Y31810D01*
X94639Y32032D01*
X94553Y32239D01*
X94417Y32417D01*
X94239Y32553D01*
X94032Y32639D01*
X93810Y32668D01*
D02*
G37*
G36*
X80672Y39535D02*
X80433Y39503D01*
X80210Y39411D01*
X80019Y39264D01*
X79872Y39073D01*
X79780Y38850D01*
X79748Y38611D01*
X79780Y38372D01*
X79872Y38149D01*
X80015Y37962D01*
Y37174D01*
X78364Y35523D01*
X69731D01*
X69561Y35500D01*
X69402Y35435D01*
X69266Y35330D01*
X67878Y33942D01*
X67773Y33806D01*
X67708Y33647D01*
X67685Y33477D01*
Y32408D01*
X67400D01*
Y32264D01*
X66532D01*
X66362Y32241D01*
X66204Y32176D01*
X66068Y32071D01*
X65322Y31325D01*
X65217Y31189D01*
X65152Y31031D01*
X65129Y30861D01*
Y25527D01*
X65152Y25357D01*
X65217Y25199D01*
X65322Y25063D01*
X66526Y23859D01*
X66662Y23754D01*
X66820Y23689D01*
X66990Y23666D01*
X67160Y23689D01*
X67318Y23754D01*
X67327Y23761D01*
X68242D01*
X68457Y23804D01*
X68526Y23850D01*
X68757D01*
X68938Y23886D01*
X69092Y23989D01*
X69194Y24142D01*
X69230Y24323D01*
X69194Y24504D01*
X69092Y24657D01*
X68938Y24760D01*
X68757Y24796D01*
X68526D01*
X68457Y24842D01*
X68242Y24885D01*
X67357D01*
X66443Y25799D01*
Y30589D01*
X66804Y30950D01*
X67400D01*
Y30756D01*
X69252D01*
Y30966D01*
X71855D01*
Y30822D01*
X73057D01*
Y31373D01*
X73090Y31453D01*
X73113Y31623D01*
X73090Y31793D01*
X73057Y31873D01*
Y32424D01*
X71855D01*
Y32280D01*
X69252D01*
Y32408D01*
X68999D01*
Y33205D01*
X70003Y34209D01*
X78636D01*
X78806Y34232D01*
X78964Y34297D01*
X79100Y34402D01*
X80522Y35824D01*
X85001Y31346D01*
X85137Y31241D01*
X85295Y31176D01*
X85358Y31167D01*
X85440Y31060D01*
X85660Y30892D01*
X85916Y30786D01*
X86190Y30750D01*
X86464Y30786D01*
X86720Y30892D01*
X86940Y31060D01*
X87108Y31280D01*
X87214Y31536D01*
X87250Y31810D01*
X87214Y32084D01*
X87108Y32340D01*
X86940Y32560D01*
X86720Y32728D01*
X86464Y32834D01*
X86190Y32870D01*
X85916Y32834D01*
X85660Y32728D01*
X85556Y32648D01*
X81329Y36875D01*
Y37962D01*
X81472Y38149D01*
X81564Y38372D01*
X81596Y38611D01*
X81564Y38850D01*
X81472Y39073D01*
X81325Y39264D01*
X81134Y39411D01*
X80911Y39503D01*
X80672Y39535D01*
D02*
G37*
G36*
X36244Y31808D02*
X36035Y31780D01*
X35840Y31700D01*
X35673Y31571D01*
X35544Y31404D01*
X35464Y31209D01*
X35436Y31000D01*
X35464Y30791D01*
X35544Y30596D01*
X35673Y30429D01*
X35840Y30300D01*
X36035Y30220D01*
X36244Y30192D01*
X36453Y30220D01*
X36648Y30300D01*
X36815Y30429D01*
X36944Y30596D01*
X37024Y30791D01*
X37052Y31000D01*
X37024Y31209D01*
X36944Y31404D01*
X36815Y31571D01*
X36648Y31700D01*
X36453Y31780D01*
X36244Y31808D01*
D02*
G37*
G36*
X77501Y30257D02*
X76951D01*
Y29757D01*
X77501D01*
Y30257D01*
D02*
G37*
G36*
X76751D02*
X76201D01*
Y29757D01*
X76751D01*
Y30257D01*
D02*
G37*
G36*
X77501Y29557D02*
X76951D01*
Y29057D01*
X77501D01*
Y29557D01*
D02*
G37*
G36*
X76751D02*
X76201D01*
Y29057D01*
X76751D01*
Y29557D01*
D02*
G37*
G36*
X70739Y73739D02*
X70514Y73695D01*
X70324Y73567D01*
X70196Y73377D01*
X70152Y73152D01*
X70196Y72927D01*
X70324Y72737D01*
X70514Y72609D01*
X70739Y72565D01*
X70747Y72566D01*
X83516Y59797D01*
X89591Y53722D01*
Y28968D01*
X89470Y28918D01*
X89250Y28750D01*
X89082Y28530D01*
X89007Y28349D01*
X85386D01*
X80680Y33055D01*
X80547Y33144D01*
X80391Y33175D01*
X77216D01*
X77060Y33144D01*
X76927Y33055D01*
X76562Y32690D01*
X76473Y32557D01*
X76442Y32401D01*
Y32108D01*
X76250D01*
Y32032D01*
X74957D01*
Y32424D01*
X73755D01*
Y30822D01*
X74957D01*
Y31214D01*
X76250D01*
Y31006D01*
X77452D01*
Y32108D01*
X77268D01*
X77263Y32235D01*
X77385Y32357D01*
X80222D01*
X84928Y27651D01*
X85061Y27562D01*
X85217Y27531D01*
X89057D01*
X89082Y27470D01*
X89250Y27250D01*
X89470Y27082D01*
X89726Y26976D01*
X90000Y26940D01*
X90274Y26976D01*
X90530Y27082D01*
X90750Y27250D01*
X90918Y27470D01*
X90989Y27642D01*
X97383D01*
X97662Y27363D01*
X97609Y27236D01*
X97207D01*
Y25584D01*
X99059D01*
Y27236D01*
X98542D01*
Y27470D01*
X98511Y27626D01*
X98422Y27759D01*
X97841Y28340D01*
X97708Y28429D01*
X97552Y28460D01*
X90947D01*
X90918Y28530D01*
X90750Y28750D01*
X90530Y28918D01*
X90409Y28968D01*
Y53891D01*
X90378Y54047D01*
X90289Y54180D01*
X84094Y60375D01*
X71325Y73144D01*
X71326Y73152D01*
X71282Y73377D01*
X71154Y73567D01*
X70964Y73695D01*
X70739Y73739D01*
D02*
G37*
G36*
X79452Y31158D02*
X78250D01*
Y30056D01*
X79452D01*
Y30198D01*
X79692D01*
X79790Y30100D01*
Y28847D01*
X79217Y28274D01*
X68735D01*
Y28806D01*
X69252D01*
Y30458D01*
X67400D01*
Y28806D01*
X67833D01*
Y28383D01*
X67768Y28339D01*
X67640Y28149D01*
X67596Y27924D01*
X67640Y27699D01*
X67768Y27509D01*
X67833Y27465D01*
Y26687D01*
X67283D01*
Y25759D01*
X69221D01*
Y26687D01*
X68651D01*
Y27456D01*
X79387D01*
X79543Y27487D01*
X79676Y27576D01*
X80488Y28388D01*
X80576Y28521D01*
X80608Y28677D01*
Y30269D01*
X80576Y30426D01*
X80488Y30558D01*
X80150Y30896D01*
X80017Y30985D01*
X79861Y31016D01*
X79452D01*
Y31158D01*
D02*
G37*
G36*
X27520Y29144D02*
X26745D01*
Y28269D01*
X27520D01*
Y29144D01*
D02*
G37*
G36*
X26545D02*
X25770D01*
Y28269D01*
X26545D01*
Y29144D01*
D02*
G37*
G36*
X27520Y28069D02*
X26745D01*
Y27194D01*
X27520D01*
Y28069D01*
D02*
G37*
G36*
X26545D02*
X25770D01*
Y27194D01*
X26545D01*
Y28069D01*
D02*
G37*
G36*
X58244Y27808D02*
X58035Y27780D01*
X57840Y27700D01*
X57673Y27571D01*
X57544Y27404D01*
X57464Y27209D01*
X57436Y27000D01*
X57464Y26791D01*
X57544Y26596D01*
X57673Y26429D01*
X57840Y26300D01*
X58035Y26220D01*
X58244Y26192D01*
X58453Y26220D01*
X58648Y26300D01*
X58815Y26429D01*
X58944Y26596D01*
X59024Y26791D01*
X59052Y27000D01*
X59024Y27209D01*
X58944Y27404D01*
X58815Y27571D01*
X58648Y27700D01*
X58453Y27780D01*
X58244Y27808D01*
D02*
G37*
G36*
X75514Y26123D02*
X74964D01*
Y25373D01*
X75514D01*
Y26123D01*
D02*
G37*
G36*
X74764D02*
X74214D01*
Y25373D01*
X74764D01*
Y26123D01*
D02*
G37*
G36*
X27773Y25696D02*
X27223D01*
Y25196D01*
X27773D01*
Y25696D01*
D02*
G37*
G36*
X27023D02*
X26473D01*
Y25196D01*
X27023D01*
Y25696D01*
D02*
G37*
G36*
X99108Y25335D02*
X98233D01*
Y24560D01*
X99108D01*
Y25335D01*
D02*
G37*
G36*
X98033D02*
X97158D01*
Y24560D01*
X98033D01*
Y25335D01*
D02*
G37*
G36*
X20226Y25022D02*
X18724D01*
Y24539D01*
X14809D01*
X14800Y24559D01*
X14664Y24737D01*
X14486Y24873D01*
X14279Y24959D01*
X14057Y24988D01*
X13835Y24959D01*
X13628Y24873D01*
X13450Y24737D01*
X13314Y24559D01*
X13228Y24352D01*
X13199Y24130D01*
X13228Y23908D01*
X13314Y23701D01*
X13450Y23523D01*
X13628Y23387D01*
X13835Y23301D01*
X14057Y23272D01*
X14279Y23301D01*
X14486Y23387D01*
X14664Y23523D01*
X14800Y23701D01*
X14809Y23721D01*
X18724D01*
Y23270D01*
X19050D01*
Y22285D01*
X19081Y22129D01*
X19170Y21996D01*
X19865Y21301D01*
X19998Y21212D01*
X20154Y21181D01*
X24321D01*
X24490Y21013D01*
Y20279D01*
X24177Y19967D01*
X24026D01*
Y20484D01*
X22474D01*
Y18632D01*
X24026D01*
Y19149D01*
X24346D01*
X24503Y19180D01*
X24635Y19269D01*
X25188Y19821D01*
X25276Y19954D01*
X25307Y20110D01*
X25307Y20110D01*
Y21182D01*
X25276Y21339D01*
X25188Y21471D01*
X24780Y21879D01*
X24647Y21968D01*
X24491Y21999D01*
X20324D01*
X19868Y22455D01*
Y23270D01*
X20226D01*
Y25022D01*
D02*
G37*
G36*
X27773Y24996D02*
X27223D01*
Y24496D01*
X27773D01*
Y24996D01*
D02*
G37*
G36*
X27023D02*
X26473D01*
Y24496D01*
X27023D01*
Y24996D01*
D02*
G37*
G36*
X75514Y25173D02*
X74964D01*
Y24423D01*
X75514D01*
Y25173D01*
D02*
G37*
G36*
X74764D02*
X74214D01*
Y24423D01*
X74764D01*
Y25173D01*
D02*
G37*
G36*
X22226Y25022D02*
X20724D01*
Y23270D01*
X22226D01*
Y23737D01*
X24522D01*
Y23595D01*
X25724D01*
Y24697D01*
X24522D01*
Y24555D01*
X22226D01*
Y25022D01*
D02*
G37*
G36*
X99108Y24360D02*
X98233D01*
Y23585D01*
X99108D01*
Y24360D01*
D02*
G37*
G36*
X98033D02*
X97158D01*
Y23585D01*
X98033D01*
Y24360D01*
D02*
G37*
G36*
X86190Y25048D02*
X85968Y25019D01*
X85761Y24933D01*
X85583Y24797D01*
X85447Y24619D01*
X85361Y24412D01*
X85332Y24190D01*
X85361Y23968D01*
X85447Y23761D01*
X85583Y23583D01*
X85761Y23447D01*
X85968Y23361D01*
X86190Y23332D01*
X86412Y23361D01*
X86619Y23447D01*
X86797Y23583D01*
X86933Y23761D01*
X87019Y23968D01*
X87048Y24190D01*
X87019Y24412D01*
X86933Y24619D01*
X86797Y24797D01*
X86619Y24933D01*
X86412Y25019D01*
X86190Y25048D01*
D02*
G37*
G36*
X77664Y23270D02*
X76162D01*
Y22369D01*
X76113D01*
Y21944D01*
X76913D01*
X77713D01*
Y22369D01*
X77664D01*
Y23270D01*
D02*
G37*
G36*
X77713Y21744D02*
X76913D01*
X76113D01*
Y21319D01*
X76162D01*
Y20418D01*
X77664D01*
Y21319D01*
X77713D01*
Y21744D01*
D02*
G37*
G36*
X68183Y23304D02*
X67958Y23260D01*
X67768Y23132D01*
X67640Y22942D01*
X67596Y22717D01*
X67640Y22492D01*
X67768Y22302D01*
X67774Y22297D01*
Y20617D01*
X67582D01*
Y19515D01*
X68784D01*
Y20617D01*
X68592D01*
Y22297D01*
X68598Y22302D01*
X68726Y22492D01*
X68770Y22717D01*
X68726Y22942D01*
X68598Y23132D01*
X68408Y23260D01*
X68183Y23304D01*
D02*
G37*
G36*
X66833Y19716D02*
X66283D01*
Y19216D01*
X66833D01*
Y19716D01*
D02*
G37*
G36*
X66083D02*
X65533D01*
Y19216D01*
X66083D01*
Y19716D01*
D02*
G37*
G36*
X63967Y19966D02*
X63092D01*
Y19191D01*
X63967D01*
Y19966D01*
D02*
G37*
G36*
X62892D02*
X62017D01*
Y19191D01*
X62892D01*
Y19966D01*
D02*
G37*
G36*
X94100Y19873D02*
X93900D01*
Y19065D01*
X94995D01*
X94977Y19200D01*
X94886Y19419D01*
X94742Y19607D01*
X94554Y19751D01*
X94335Y19842D01*
X94100Y19873D01*
D02*
G37*
G36*
X93700D02*
X93500D01*
X93265Y19842D01*
X93046Y19751D01*
X92858Y19607D01*
X92714Y19419D01*
X92623Y19200D01*
X92605Y19065D01*
X93700D01*
Y19873D01*
D02*
G37*
G36*
X66833Y19016D02*
X66283D01*
Y18516D01*
X66833D01*
Y19016D01*
D02*
G37*
G36*
X66083D02*
X65533D01*
Y18516D01*
X66083D01*
Y19016D01*
D02*
G37*
G36*
X97925Y19847D02*
X97275D01*
X97085Y19822D01*
X96909Y19749D01*
X96757Y19633D01*
X96641Y19481D01*
X96568Y19305D01*
X96543Y19115D01*
X96568Y18925D01*
X96641Y18749D01*
X96757Y18597D01*
X96909Y18481D01*
X97085Y18408D01*
X97275Y18383D01*
X97925D01*
X98115Y18408D01*
X98291Y18481D01*
X98443Y18597D01*
X98559Y18749D01*
X98632Y18925D01*
X98657Y19115D01*
X98632Y19305D01*
X98559Y19481D01*
X98443Y19633D01*
X98291Y19749D01*
X98115Y19822D01*
X97925Y19847D01*
D02*
G37*
G36*
X63967Y18991D02*
X63092D01*
Y18216D01*
X63967D01*
Y18991D01*
D02*
G37*
G36*
X62892D02*
X62017D01*
Y18216D01*
X62892D01*
Y18991D01*
D02*
G37*
G36*
X93700Y18865D02*
X92605D01*
X92623Y18730D01*
X92714Y18511D01*
X92858Y18323D01*
X93046Y18179D01*
X93265Y18088D01*
X93500Y18057D01*
X93700D01*
Y18865D01*
D02*
G37*
G36*
X76606Y18122D02*
X76056D01*
Y17372D01*
X76606D01*
Y18122D01*
D02*
G37*
G36*
X75856D02*
X75306D01*
Y17372D01*
X75856D01*
Y18122D01*
D02*
G37*
G36*
X94995Y18865D02*
X93900D01*
Y18057D01*
X94100D01*
X94315Y18086D01*
X94359Y18042D01*
X94395Y17975D01*
X94381Y17955D01*
X94338Y17740D01*
X94381Y17525D01*
X94503Y17343D01*
X94685Y17221D01*
X94900Y17178D01*
X95115Y17221D01*
X95297Y17343D01*
X95419Y17525D01*
X95462Y17740D01*
X95419Y17955D01*
X95297Y18137D01*
X95115Y18259D01*
X94900Y18302D01*
X94883Y18298D01*
X94811Y18414D01*
X94886Y18511D01*
X94977Y18730D01*
X94995Y18865D01*
D02*
G37*
G36*
X94650Y16965D02*
X93900D01*
Y16640D01*
X94650D01*
Y16965D01*
D02*
G37*
G36*
X93700D02*
X92950D01*
Y16640D01*
X93700D01*
Y16965D01*
D02*
G37*
G36*
X74714Y21370D02*
X73212D01*
Y21237D01*
X73152D01*
X72996Y21206D01*
X72863Y21117D01*
X72609Y20863D01*
X72520Y20730D01*
X72489Y20574D01*
Y19597D01*
X72483Y19592D01*
X72355Y19402D01*
X72311Y19177D01*
X72355Y18952D01*
X72483Y18762D01*
X72489Y18757D01*
Y17748D01*
X72520Y17592D01*
X72609Y17459D01*
X73085Y16983D01*
X73218Y16894D01*
X73374Y16863D01*
X73455D01*
Y16471D01*
X74657D01*
Y18073D01*
X73455D01*
Y18065D01*
X73328Y17997D01*
X73307Y18011D01*
Y18757D01*
X73313Y18762D01*
X73441Y18952D01*
X73485Y19177D01*
X73441Y19402D01*
X73313Y19592D01*
X73307Y19597D01*
Y20405D01*
X73320Y20418D01*
X74714D01*
Y21370D01*
D02*
G37*
G36*
X76606Y17172D02*
X76056D01*
Y16422D01*
X76606D01*
Y17172D01*
D02*
G37*
G36*
X75856D02*
X75306D01*
Y16422D01*
X75856D01*
Y17172D01*
D02*
G37*
G36*
X90766Y16078D02*
X90016D01*
Y15528D01*
X90766D01*
Y16078D01*
D02*
G37*
G36*
X89816D02*
X89066D01*
Y15528D01*
X89816D01*
Y16078D01*
D02*
G37*
G36*
X90766Y15328D02*
X90016D01*
Y14778D01*
X90766D01*
Y15328D01*
D02*
G37*
G36*
X89816D02*
X89066D01*
Y14778D01*
X89816D01*
Y15328D01*
D02*
G37*
G36*
X77050Y14173D02*
X76300D01*
Y13623D01*
X77050D01*
Y14173D01*
D02*
G37*
G36*
X76100D02*
X75350D01*
Y13623D01*
X76100D01*
Y14173D01*
D02*
G37*
G36*
X80710Y14342D02*
X79760D01*
X79613Y14313D01*
X79489Y14230D01*
X79406Y14106D01*
X79377Y13959D01*
X79406Y13812D01*
X79489Y13688D01*
X79427Y13576D01*
X79360Y13475D01*
X79347Y13409D01*
X80235D01*
X81123D01*
X81110Y13475D01*
X81043Y13576D01*
X80981Y13688D01*
X81064Y13812D01*
X81093Y13959D01*
X81064Y14106D01*
X80981Y14230D01*
X80857Y14313D01*
X80710Y14342D01*
D02*
G37*
G36*
X77050Y13423D02*
X76300D01*
Y12873D01*
X77050D01*
Y13423D01*
D02*
G37*
G36*
X76100D02*
X75350D01*
Y12873D01*
X76100D01*
Y13423D01*
D02*
G37*
G36*
X81123Y13209D02*
X80235D01*
X79347D01*
X79360Y13143D01*
X79454Y13003D01*
Y12965D01*
X79360Y12825D01*
X79347Y12759D01*
X80235D01*
X81123D01*
X81110Y12825D01*
X81016Y12965D01*
Y13003D01*
X81110Y13143D01*
X81123Y13209D01*
D02*
G37*
G36*
X84935Y13434D02*
X83285D01*
Y11784D01*
X84935D01*
Y13434D01*
D02*
G37*
G36*
X83085D02*
X81435D01*
Y11784D01*
X83085D01*
Y13434D01*
D02*
G37*
G36*
X93700Y12423D02*
X93500D01*
X93265Y12392D01*
X93046Y12301D01*
X92858Y12157D01*
X92714Y11969D01*
X92623Y11750D01*
X92605Y11615D01*
X93700D01*
Y12423D01*
D02*
G37*
G36*
X97925Y12097D02*
X97275D01*
X97085Y12072D01*
X96909Y11999D01*
X96757Y11883D01*
X96641Y11731D01*
X96568Y11555D01*
X96543Y11365D01*
X96568Y11175D01*
X96641Y10999D01*
X96757Y10847D01*
X96909Y10731D01*
X97085Y10658D01*
X97275Y10633D01*
X97925D01*
X98115Y10658D01*
X98291Y10731D01*
X98443Y10847D01*
X98559Y10999D01*
X98632Y11175D01*
X98657Y11365D01*
X98632Y11555D01*
X98559Y11731D01*
X98443Y11883D01*
X98291Y11999D01*
X98115Y12072D01*
X97925Y12097D01*
D02*
G37*
G36*
X94995Y11415D02*
X93900D01*
Y10607D01*
X94100D01*
X94335Y10638D01*
X94554Y10729D01*
X94742Y10873D01*
X94886Y11061D01*
X94977Y11280D01*
X94995Y11415D01*
D02*
G37*
G36*
X93700D02*
X92605D01*
X92623Y11280D01*
X92714Y11061D01*
X92858Y10873D01*
X93046Y10729D01*
X93265Y10638D01*
X93500Y10607D01*
X93700D01*
Y11415D01*
D02*
G37*
G36*
X84935Y11584D02*
X83285D01*
Y9934D01*
X84935D01*
Y11584D01*
D02*
G37*
G36*
X83085D02*
X81435D01*
Y9934D01*
X83085D01*
Y11584D01*
D02*
G37*
G36*
X90766Y14178D02*
X90016D01*
Y13628D01*
X90766D01*
Y14178D01*
D02*
G37*
G36*
X89816D02*
X89066D01*
Y13628D01*
X89816D01*
Y14178D01*
D02*
G37*
G36*
X94650Y13840D02*
X93900D01*
Y13515D01*
X94650D01*
Y13840D01*
D02*
G37*
G36*
X93700D02*
X92950D01*
Y13515D01*
X93700D01*
Y13840D01*
D02*
G37*
G36*
X90766Y13428D02*
X90016D01*
Y12878D01*
X90766D01*
Y13428D01*
D02*
G37*
G36*
X89816D02*
X89066D01*
Y12878D01*
X89816D01*
Y13428D01*
D02*
G37*
G36*
X77050Y11523D02*
X76300D01*
Y10973D01*
X77050D01*
Y11523D01*
D02*
G37*
G36*
X76100D02*
X75350D01*
Y10973D01*
X76100D01*
Y11523D01*
D02*
G37*
%LPD*%
D10*
X11430Y93980D02*
D03*
X88900Y6350D02*
D03*
D11*
X65405Y70830D02*
D03*
Y72680D02*
D03*
X62865Y70830D02*
D03*
Y72680D02*
D03*
X25000Y70925D02*
D03*
Y69075D02*
D03*
Y54075D02*
D03*
Y55925D02*
D03*
Y39075D02*
D03*
Y40925D02*
D03*
X67945Y72680D02*
D03*
Y70830D02*
D03*
D12*
X57286Y96266D02*
D03*
X55236D02*
D03*
X23250Y19558D02*
D03*
X21200D02*
D03*
D13*
X43355Y60075D02*
D03*
Y62125D02*
D03*
D14*
X26645Y28169D02*
D03*
X28595D02*
D03*
D15*
X68326Y29632D02*
D03*
Y31582D02*
D03*
X62992Y19091D02*
D03*
Y21041D02*
D03*
X98133Y24460D02*
D03*
Y26410D02*
D03*
D16*
X70322Y96304D02*
D03*
X65822D02*
D03*
X70322Y88354D02*
D03*
X65822D02*
D03*
D17*
X70432Y25273D02*
D03*
X68252Y24323D02*
D03*
D18*
Y26223D02*
D03*
D19*
X93800Y13940D02*
D03*
Y14590D02*
D03*
Y15890D02*
D03*
Y15240D02*
D03*
Y16540D02*
D03*
D20*
X47293Y84582D02*
D03*
Y83312D02*
D03*
Y82042D02*
D03*
Y80772D02*
D03*
Y79502D02*
D03*
Y78232D02*
D03*
Y76962D02*
D03*
Y75692D02*
D03*
Y74422D02*
D03*
Y73152D02*
D03*
Y71882D02*
D03*
Y70612D02*
D03*
Y69342D02*
D03*
Y68072D02*
D03*
X56593Y84582D02*
D03*
Y83312D02*
D03*
Y82042D02*
D03*
Y80772D02*
D03*
Y79502D02*
D03*
Y78232D02*
D03*
Y76962D02*
D03*
Y75692D02*
D03*
Y74422D02*
D03*
Y73152D02*
D03*
Y71882D02*
D03*
Y70612D02*
D03*
Y69342D02*
D03*
Y68072D02*
D03*
D21*
X74056Y17272D02*
D03*
X75956D02*
D03*
X68392Y77343D02*
D03*
X70292D02*
D03*
X44130Y68072D02*
D03*
X42230D02*
D03*
X72964Y25273D02*
D03*
X74864D02*
D03*
X72456Y31623D02*
D03*
X74356D02*
D03*
X42230Y78232D02*
D03*
X44130D02*
D03*
D22*
X76913Y20894D02*
D03*
Y21844D02*
D03*
Y22794D02*
D03*
X73963D02*
D03*
Y20894D02*
D03*
D23*
X89916Y13528D02*
D03*
Y15428D02*
D03*
X76200Y11623D02*
D03*
Y13523D02*
D03*
X59973Y83202D02*
D03*
Y81302D02*
D03*
D24*
X25000Y76050D02*
D03*
Y73950D02*
D03*
Y61050D02*
D03*
Y58950D02*
D03*
Y46050D02*
D03*
Y43950D02*
D03*
D25*
X4400Y41179D02*
D03*
X2600D02*
D03*
X62823Y92547D02*
D03*
X61023D02*
D03*
X2600Y71190D02*
D03*
X4400D02*
D03*
X2600Y56190D02*
D03*
X4400D02*
D03*
D26*
X78851Y30607D02*
D03*
X76851Y29657D02*
D03*
Y31557D02*
D03*
X27123Y23196D02*
D03*
Y25096D02*
D03*
X25123Y24146D02*
D03*
X29000Y79050D02*
D03*
Y80950D02*
D03*
X27000Y80000D02*
D03*
X29000Y64050D02*
D03*
Y65950D02*
D03*
X27000Y65000D02*
D03*
X29000Y49050D02*
D03*
Y50950D02*
D03*
X27000Y50000D02*
D03*
X66183Y21016D02*
D03*
Y19116D02*
D03*
X68183Y20066D02*
D03*
D27*
X86135Y13959D02*
D03*
Y13309D02*
D03*
Y12659D02*
D03*
Y12009D02*
D03*
Y11359D02*
D03*
Y10709D02*
D03*
Y9409D02*
D03*
Y10059D02*
D03*
X80235Y13959D02*
D03*
Y12659D02*
D03*
Y12009D02*
D03*
Y13309D02*
D03*
Y10709D02*
D03*
Y11359D02*
D03*
Y9409D02*
D03*
Y10059D02*
D03*
D28*
X83185Y11684D02*
D03*
D29*
X19475Y24146D02*
D03*
X21475D02*
D03*
D30*
X47293Y78232D02*
X47418D01*
X44060Y78213D02*
Y78232D01*
X47418D01*
X65975Y69339D02*
X67131D01*
X65405Y69908D02*
X65975Y69339D01*
X67131D02*
X67945Y70153D01*
Y70830D01*
X65405Y69908D02*
Y70830D01*
X62823Y70022D02*
X63503Y69342D01*
X64806D02*
X65278Y69814D01*
X63503Y69342D02*
X64806D01*
X62823Y70022D02*
Y70612D01*
X62592D02*
X62647Y70666D01*
X62823Y70612D02*
Y70793D01*
X61870Y69342D02*
X72898Y58314D01*
Y36830D02*
Y58314D01*
X56468Y69342D02*
X61870D01*
X29106Y2617D02*
Y14069D01*
X28267Y1778D02*
X29106Y2617D01*
Y14069D02*
X46036Y31000D01*
X22878Y4338D02*
X28446Y9906D01*
Y20580D02*
X34866Y27000D01*
X28446Y9906D02*
Y20580D01*
X14478Y1778D02*
X28267D01*
X59235Y29000D02*
X60071Y29836D01*
X54991Y50514D02*
X60071Y45434D01*
Y29836D02*
Y45434D01*
X42180Y29323D02*
Y44156D01*
X47371Y49347D02*
Y50546D01*
X42180Y44156D02*
X47371Y49347D01*
X43039Y43674D02*
X49911Y50546D01*
X43039Y29106D02*
Y43674D01*
X45275Y72593D02*
X45835Y73152D01*
X47293D01*
X38478Y72593D02*
X45275D01*
X34698Y68813D02*
X38478Y72593D01*
X38890Y71148D02*
X45473D01*
X46009Y70612D02*
X47293D01*
X45473Y71148D02*
X46009Y70612D01*
X36195Y68453D02*
X38890Y71148D01*
X59892Y75692D02*
X60071Y75871D01*
X56468Y75692D02*
X59892D01*
X60071Y72898D02*
Y73097D01*
X56468Y73152D02*
X60016D01*
X60071Y73097D01*
X64611Y89565D02*
X65822Y88354D01*
X64611Y89565D02*
Y92547D01*
Y95093D01*
X62823Y92547D02*
X64611D01*
Y95093D02*
X65822Y96304D01*
X57161Y96266D02*
X57199Y96304D01*
X65822D01*
X65822Y85435D02*
Y88354D01*
X70322Y88354D02*
X70342Y88334D01*
X58244Y29000D02*
X59235D01*
X42297Y92964D02*
X44831D01*
X41281Y91948D02*
X42297Y92964D01*
X44831D02*
X50739Y87056D01*
X44749Y91948D02*
X49911Y86786D01*
X44122Y91948D02*
X44749D01*
X45769Y65879D02*
X48244D01*
X49911Y67546D02*
Y73817D01*
X48244Y65879D02*
X49911Y67546D01*
X48168Y58963D02*
Y64841D01*
X52212Y68885D01*
Y81295D01*
X34866Y27000D02*
X36244D01*
X27686Y20846D02*
X35840Y29000D01*
X36244D01*
X27686Y11604D02*
Y20846D01*
X36195Y54514D02*
Y68453D01*
X35400Y49182D02*
X39370Y45212D01*
X34698Y38546D02*
Y68813D01*
X35400Y49182D02*
Y68594D01*
X38688Y71882D01*
X36195Y54514D02*
X36226Y54483D01*
X51116Y31000D02*
Y51360D01*
X50448Y52028D02*
X51116Y51360D01*
X46036Y31000D02*
X51116D01*
X58244D01*
X52451Y44793D02*
Y50546D01*
Y44793D02*
X58244Y39000D01*
X54991Y50514D02*
Y50546D01*
X58244Y31000D02*
X58244Y31000D01*
X36244Y25000D02*
X37857D01*
X36244Y25000D02*
X36244Y25000D01*
X37857D02*
X42180Y29323D01*
X39370Y36126D02*
Y45212D01*
X36244Y33000D02*
X39370Y36126D01*
X36244Y27000D02*
X36244Y27000D01*
X36933Y23000D02*
X43039Y29106D01*
X36244Y23000D02*
X36933D01*
X34698Y38546D02*
X36244Y37000D01*
X20041Y3959D02*
X27686Y11604D01*
X29845Y76750D02*
Y76835D01*
X36322Y83312D01*
X47418D01*
X42230Y69342D02*
X47418D01*
X42230Y68072D02*
Y69342D01*
X58293Y76962D02*
X59973Y78642D01*
Y81302D01*
X56468Y70612D02*
X62592D01*
X56468Y76962D02*
X58293D01*
X68326Y27865D02*
X68326Y27865D01*
X68326Y27865D02*
Y29607D01*
X68326Y27865D02*
X79387D01*
X80199Y28677D01*
Y30269D01*
X79861Y30607D02*
X80199Y30269D01*
X78851Y30607D02*
X79861D01*
X8690Y71190D02*
Y74720D01*
X19187Y85217D02*
X26641D01*
X8690Y74720D02*
X19187Y85217D01*
X8313Y71190D02*
X8690D01*
X4400D02*
X8313D01*
X8690Y59943D02*
X17454Y68707D01*
X21971D01*
X8690Y56190D02*
Y59943D01*
X4400Y56190D02*
X8690D01*
Y45068D02*
X15825Y52204D01*
X8690Y41190D02*
Y45068D01*
X4400Y41179D02*
X8679D01*
X8690Y41190D01*
X15825Y52204D02*
X20066D01*
X24899Y20110D02*
Y21182D01*
X23225Y19558D02*
X24346D01*
X24899Y20110D01*
X20154Y21590D02*
X24491D01*
X24899Y21182D01*
X19459Y22285D02*
X20154Y21590D01*
X27123Y23196D02*
X28046D01*
X28620Y23770D02*
Y28294D01*
X28046Y23196D02*
X28620Y23770D01*
X30093Y28622D02*
X33829Y32358D01*
Y52028D01*
X28620Y28169D02*
X29640D01*
X30093Y28622D01*
X21475Y24146D02*
X25123D01*
X29127Y49050D02*
X30163D01*
X32326Y51213D01*
Y58404D01*
X26169Y50000D02*
X27000D01*
X25000Y46209D02*
Y48831D01*
X26169Y50000D01*
X29000Y64050D02*
X29885D01*
X32326Y66491D01*
Y67503D01*
X32326Y67503D02*
X32326Y67503D01*
X26169Y65000D02*
X26769D01*
X25000Y63831D02*
X26169Y65000D01*
X25000Y61050D02*
Y63831D01*
X47293Y84582D02*
X47418D01*
X35458D02*
X47293D01*
X29000Y79060D02*
X29936D01*
X26010Y80010D02*
X27000D01*
X25000Y79000D02*
X26010Y80010D01*
X25000Y76050D02*
Y79000D01*
X29936Y79060D02*
X35458Y84582D01*
X37387Y82042D02*
X47418D01*
X47412Y80772D02*
X47418Y80778D01*
X27284Y71939D02*
X37387Y82042D01*
X38031Y80772D02*
X47412D01*
X47418D02*
Y80778D01*
X56134Y94361D02*
X57785D01*
X58293Y93853D01*
X97552Y28051D02*
X98133Y27470D01*
X96408Y28051D02*
X97552D01*
X98133Y26435D02*
Y27470D01*
X90051Y28051D02*
X96408D01*
X90000Y28000D02*
X90051Y28051D01*
X73152Y20828D02*
X73897D01*
X73963Y20894D01*
X72898Y20574D02*
X73152Y20828D01*
X72898Y19177D02*
Y20574D01*
Y17748D02*
X73374Y17272D01*
X74056D01*
X72898Y17748D02*
Y19177D01*
X77216Y17272D02*
X77775Y16713D01*
X75956Y17272D02*
X77216D01*
X77775Y14981D02*
Y16713D01*
Y14920D02*
X79386Y13309D01*
X80235D01*
X51308Y53086D02*
Y64542D01*
Y53086D02*
X52451Y51943D01*
Y50546D02*
Y51943D01*
X52014Y53523D02*
Y64115D01*
Y53523D02*
X54991Y50546D01*
X52014Y64115D02*
X54483Y66584D01*
X51308Y64542D02*
X53763Y66997D01*
X61250Y68072D02*
X62992Y66330D01*
Y39971D02*
Y66330D01*
Y26475D02*
Y39971D01*
Y21066D02*
Y26475D01*
X67056Y77724D02*
Y84201D01*
Y77724D02*
X67437Y77343D01*
X68392D01*
X65822Y85435D02*
X67056Y84201D01*
X62754Y19050D02*
X62881Y19177D01*
X25000Y70950D02*
X25000Y70950D01*
X25000Y70950D02*
Y73950D01*
X25000Y55950D02*
X25000Y55950D01*
Y58950D01*
Y41198D02*
Y43858D01*
X90000Y28000D02*
Y53891D01*
X83805Y60086D02*
X90000Y53891D01*
X70739Y73152D02*
X83805Y60086D01*
X12717Y3539D02*
X14478Y1778D01*
X58928Y68072D02*
X61250D01*
X38688Y71882D02*
X47418D01*
X46939Y52028D02*
X50448D01*
X45119Y53848D02*
X46939Y52028D01*
X43355Y55978D02*
Y60100D01*
X39370Y45212D02*
X44704Y50546D01*
X74914Y25273D02*
X74989D01*
X12717Y3539D02*
Y3662D01*
X44704Y50546D02*
X44831D01*
X52212Y81295D02*
X52959Y82042D01*
X49911Y77597D02*
Y86786D01*
X50739Y77413D02*
Y87056D01*
X49018Y75692D02*
X50739Y77413D01*
X47418Y75692D02*
X49018D01*
X49276Y76962D02*
X49911Y77597D01*
X47418Y76962D02*
X49276D01*
X54483Y77600D02*
X55096Y78213D01*
X56449D01*
X56468Y78232D01*
X54483Y66584D02*
Y77600D01*
X53763Y66997D02*
Y77920D01*
X55345Y79502D01*
X56468D01*
X39751Y50546D02*
X48168Y58963D01*
X52959Y82042D02*
X56468D01*
X43465Y60100D02*
X43815Y59750D01*
X43355Y60100D02*
X43465D01*
X43355Y63450D02*
X43643Y63738D01*
Y63754D01*
X43355Y62100D02*
Y63450D01*
X43643Y63754D02*
X45769Y65879D01*
X49306Y74422D02*
X49911Y73817D01*
X47418Y74422D02*
X49306D01*
X57150Y66294D02*
X58928D01*
X56468Y66976D02*
X57150Y66294D01*
X19459Y22285D02*
Y24130D01*
X14057D02*
X19459D01*
X61468Y19050D02*
X62754D01*
X62881Y19177D02*
X62992Y19066D01*
X80235Y12659D02*
Y13309D01*
X51689Y96266D02*
X55361D01*
X89940Y27940D02*
X90000Y28000D01*
X85217Y27940D02*
X89940D01*
X80391Y32766D02*
X85217Y27940D01*
X77216Y32766D02*
X80391D01*
X76851Y32401D02*
X77216Y32766D01*
X76851Y31557D02*
Y32401D01*
X74481Y31623D02*
X76785D01*
X68183Y27924D02*
X68242Y27865D01*
Y26223D02*
Y27865D01*
Y27983D02*
Y29523D01*
X68183Y27924D02*
X68242Y27983D01*
X68183Y20066D02*
Y22717D01*
X68242Y29523D02*
X68326Y29607D01*
X76785Y31623D02*
X76851Y31557D01*
X66133Y21066D02*
X66183Y21016D01*
X62992Y21066D02*
X66133D01*
X66133Y19066D02*
X66183Y19116D01*
X62992Y19066D02*
X66133D01*
X53213Y80772D02*
X56468D01*
Y71882D02*
X58928D01*
X56468Y74422D02*
X60071D01*
X56468Y66976D02*
Y68072D01*
Y84582D02*
Y86661D01*
X55361Y95134D02*
Y96266D01*
Y95134D02*
X56134Y94361D01*
D31*
X65405Y72680D02*
Y73628D01*
X64611Y74422D02*
X65405Y73628D01*
X17460Y3500D02*
X17526Y10414D01*
X58244Y20758D02*
Y23000D01*
Y20758D02*
X66893Y12109D01*
X69931D01*
X70739Y11301D01*
Y20523D01*
X72964Y22748D01*
X61340Y66486D02*
X61976Y65850D01*
Y26732D02*
Y65850D01*
X58244Y23000D02*
X61976Y26732D01*
X64611Y74422D02*
X64855Y74666D01*
X62823Y73602D02*
X63643Y74422D01*
X64611D01*
X64855Y74666D02*
Y81703D01*
X62823Y72882D02*
Y73602D01*
X63230Y83328D02*
X64855Y81703D01*
X58039Y89222D02*
X59973Y87288D01*
Y83202D02*
Y87288D01*
X60023Y83328D02*
X63230D01*
X58039Y89222D02*
Y90563D01*
X56468Y83312D02*
X59437D01*
X80672Y36902D02*
Y38611D01*
Y36603D02*
Y36902D01*
X68342Y31623D02*
Y33477D01*
X69731Y34866D02*
X78636D01*
X68342Y33477D02*
X69731Y34866D01*
X68342Y31623D02*
X72456D01*
X2600Y41179D02*
Y56190D01*
Y71190D01*
X2578Y34713D02*
Y41179D01*
Y34713D02*
X9057Y28234D01*
X31113Y70678D02*
X34614D01*
X25000Y66313D02*
X26748D01*
X31113Y70678D01*
X58039Y90563D02*
X60023Y92547D01*
X61023D01*
X54922Y93345D02*
X58039Y90228D01*
X50673Y93345D02*
X54922D01*
X73010Y22794D02*
X73963D01*
X72964Y22748D02*
X73010Y22794D01*
X72964Y22748D02*
Y25273D01*
X65786Y25527D02*
X66990Y24323D01*
X42598Y65278D02*
X44180Y66860D01*
Y68072D01*
X41572Y65278D02*
X42598D01*
X21590Y62865D02*
X25019Y66294D01*
X21590Y50446D02*
Y62865D01*
Y35433D02*
X23400D01*
X25000Y37033D01*
Y39050D01*
X21590Y35433D02*
Y50446D01*
X21828Y50684D01*
X23915D01*
X25019Y51788D01*
Y53840D01*
X16256Y35433D02*
X21590D01*
X25000Y66313D02*
X25019Y66294D01*
X25000Y66313D02*
Y69050D01*
X9057Y28234D02*
X16256Y35433D01*
X80672Y36603D02*
X85465Y31810D01*
X86190D01*
X78636Y34866D02*
X80672Y36902D01*
X40105Y65278D02*
X41572D01*
X41530Y65236D02*
X41572Y65278D01*
X41530Y54865D02*
Y65236D01*
X37311Y68072D02*
X40105Y65278D01*
X21757Y17740D02*
X26123D01*
X12065Y19558D02*
X14920D01*
Y4000D02*
Y19558D01*
X37211Y50546D02*
X41530Y54865D01*
X14920Y19558D02*
X21225D01*
Y18272D02*
X21757Y17740D01*
X21225Y18272D02*
Y19558D01*
X37211Y50546D02*
X37311Y50446D01*
X49149Y94869D02*
Y96266D01*
X66532Y31607D02*
X68326D01*
X65786Y30861D02*
X66532Y31607D01*
X65786Y25527D02*
Y30861D01*
X9057Y22566D02*
Y24130D01*
Y22566D02*
X12065Y19558D01*
X49149Y94869D02*
X50673Y93345D01*
X9057Y24130D02*
Y28234D01*
D32*
X66990Y24323D02*
X68242D01*
X70442Y25273D02*
X72839D01*
D33*
X25000Y41198D02*
X25019Y41179D01*
D34*
X44255Y68072D02*
X47418D01*
D35*
X36449Y96266D02*
D03*
X38989D02*
D03*
X44069D02*
D03*
X49149D02*
D03*
X46609D02*
D03*
X41529D02*
D03*
X27620Y3500D02*
D03*
X25080D02*
D03*
X20000D02*
D03*
X14920D02*
D03*
X17460D02*
D03*
X22540D02*
D03*
X56174Y58404D02*
D03*
X53634D02*
D03*
X37211Y50546D02*
D03*
X42291D02*
D03*
X47371D02*
D03*
X52451D02*
D03*
X57531D02*
D03*
X54991D02*
D03*
X49911D02*
D03*
X44831D02*
D03*
X39751D02*
D03*
D36*
X51689Y96266D02*
D03*
X12380Y3500D02*
D03*
X58714Y58404D02*
D03*
D37*
X93800Y11515D02*
D03*
Y18965D02*
D03*
D38*
X94900Y12740D02*
D03*
Y17740D02*
D03*
D39*
X97600Y11365D02*
D03*
Y19115D02*
D03*
D40*
X93372Y38611D02*
D03*
X80672D02*
D03*
D41*
X89372Y77221D02*
D03*
X84672Y47251D02*
D03*
D42*
X36244Y41000D02*
D03*
Y39000D02*
D03*
Y37000D02*
D03*
Y25000D02*
D03*
Y27000D02*
D03*
Y29000D02*
D03*
Y31000D02*
D03*
Y33000D02*
D03*
Y35000D02*
D03*
X58244Y41000D02*
D03*
Y39000D02*
D03*
Y37000D02*
D03*
Y25000D02*
D03*
Y27000D02*
D03*
Y29000D02*
D03*
Y31000D02*
D03*
Y33000D02*
D03*
Y35000D02*
D03*
D43*
X36244Y23000D02*
D03*
X58244D02*
D03*
D44*
X12500Y75000D02*
D03*
X8690Y71190D02*
D03*
X12500Y60000D02*
D03*
X8690Y56190D02*
D03*
X12500Y45000D02*
D03*
X8690Y41190D02*
D03*
X90000Y28000D02*
D03*
X86190Y31810D02*
D03*
D45*
X60071Y50546D02*
D03*
D46*
X9057Y24130D02*
D03*
X14057D02*
D03*
D47*
X5000Y5000D02*
D03*
X95000D02*
D03*
Y95000D02*
D03*
X5000D02*
D03*
D48*
X60071Y75946D02*
D03*
Y72898D02*
D03*
Y74422D02*
D03*
X66648Y94473D02*
D03*
X44122Y91948D02*
D03*
X36226Y54483D02*
D03*
X29845Y76750D02*
D03*
X66580Y74473D02*
D03*
X64611Y74422D02*
D03*
X6340Y74473D02*
D03*
X31546Y64267D02*
D03*
X32326Y67503D02*
D03*
X38031Y80772D02*
D03*
X32326Y58404D02*
D03*
X33829Y52028D02*
D03*
X36340Y74473D02*
D03*
X58293Y93853D02*
D03*
X20066Y52204D02*
D03*
X26416Y73660D02*
D03*
X34614Y70678D02*
D03*
X81340Y64473D02*
D03*
X86340Y94473D02*
D03*
X91340Y84473D02*
D03*
X86340Y74473D02*
D03*
X91340Y64473D02*
D03*
X86340Y54473D02*
D03*
X91340Y44473D02*
D03*
X86340Y34473D02*
D03*
X91340Y24473D02*
D03*
X76340Y94473D02*
D03*
X81340Y84473D02*
D03*
X76340Y74473D02*
D03*
Y54473D02*
D03*
X81340Y44473D02*
D03*
Y24473D02*
D03*
X71340Y84473D02*
D03*
Y64473D02*
D03*
X66340Y54473D02*
D03*
X71340Y44473D02*
D03*
X66340Y34473D02*
D03*
Y14473D02*
D03*
X61340Y84473D02*
D03*
Y24473D02*
D03*
X46340Y94473D02*
D03*
Y54473D02*
D03*
Y34473D02*
D03*
X51340Y24473D02*
D03*
X36340Y94473D02*
D03*
X41340Y44473D02*
D03*
Y24473D02*
D03*
X26340Y94473D02*
D03*
Y54473D02*
D03*
X31340Y44473D02*
D03*
X26340Y34473D02*
D03*
Y14473D02*
D03*
X16340Y94473D02*
D03*
Y74473D02*
D03*
X21340Y64473D02*
D03*
X16340Y54473D02*
D03*
Y14473D02*
D03*
X11340Y64473D02*
D03*
X6340Y54473D02*
D03*
Y34473D02*
D03*
X11340Y24473D02*
D03*
X6340Y14473D02*
D03*
X27284Y71939D02*
D03*
X61340Y66486D02*
D03*
X37311Y68072D02*
D03*
X26641Y85217D02*
D03*
X45119Y53848D02*
D03*
X43355Y55978D02*
D03*
X26123Y17740D02*
D03*
X41281Y91948D02*
D03*
X58928Y68072D02*
D03*
Y66294D02*
D03*
X21971Y68707D02*
D03*
X72898Y19177D02*
D03*
Y36830D02*
D03*
X68183Y27924D02*
D03*
Y22717D02*
D03*
X53213Y80772D02*
D03*
X70739Y73152D02*
D03*
X58928Y71882D02*
D03*
X56468Y86661D02*
D03*
D49*
X84285Y12784D02*
D03*
Y11684D02*
D03*
X83185Y12784D02*
D03*
Y11684D02*
D03*
X82085D02*
D03*
X84285Y10584D02*
D03*
X83185D02*
D03*
X82085Y12784D02*
D03*
Y10584D02*
D03*
%TF.MD5,ce8abe6e488117ace793720cc12f2d4c*%
M02*
