%TF.GenerationSoftware,Altium Limited,Altium Designer,22.7.1 (60)*%
G04 Layer_Color=16776960*
%FSLAX43Y43*%
%MOMM*%
%TF.SameCoordinates,2B380584-264C-487A-9C59-0A3591007A03*%
%TF.FilePolarity,Positive*%
%TF.FileFunction,Other,Top_Dims*%
%TF.Part,Single*%
G01*
G75*
%TA.AperFunction,NonConductor*%
%ADD64C,0.254*%
G36*
X-4939Y68465D02*
X-4922D01*
X-4903Y68464D01*
X-4884Y68463D01*
X-4839Y68458D01*
X-4792Y68451D01*
X-4747Y68443D01*
X-4726Y68437D01*
X-4705Y68430D01*
X-4703D01*
X-4700Y68429D01*
X-4695Y68426D01*
X-4688Y68423D01*
X-4678Y68420D01*
X-4668Y68415D01*
X-4644Y68403D01*
X-4619Y68389D01*
X-4590Y68371D01*
X-4565Y68350D01*
X-4541Y68324D01*
Y68323D01*
X-4538Y68322D01*
X-4536Y68317D01*
X-4533Y68312D01*
X-4528Y68305D01*
X-4523Y68298D01*
X-4513Y68276D01*
X-4503Y68251D01*
X-4493Y68222D01*
X-4488Y68186D01*
X-4485Y68148D01*
Y68134D01*
X-4486Y68124D01*
X-4488Y68113D01*
X-4490Y68099D01*
X-4493Y68083D01*
X-4497Y68066D01*
X-4503Y68050D01*
X-4509Y68031D01*
X-4517Y68013D01*
X-4527Y67995D01*
X-4538Y67976D01*
X-4552Y67958D01*
X-4568Y67941D01*
X-4585Y67925D01*
X-4586Y67924D01*
X-4590Y67921D01*
X-4598Y67917D01*
X-4609Y67910D01*
X-4622Y67903D01*
X-4638Y67896D01*
X-4658Y67886D01*
X-4681Y67878D01*
X-4706Y67869D01*
X-4736Y67861D01*
X-4768Y67852D01*
X-4805Y67845D01*
X-4844Y67838D01*
X-4887Y67834D01*
X-4933Y67831D01*
X-4982Y67830D01*
X-4984D01*
X-4989D01*
X-4999D01*
X-5011D01*
X-5026Y67831D01*
X-5043D01*
X-5061Y67832D01*
X-5082Y67834D01*
X-5126Y67838D01*
X-5173Y67845D01*
X-5219Y67854D01*
X-5240Y67859D01*
X-5261Y67865D01*
X-5263D01*
X-5266Y67866D01*
X-5271Y67869D01*
X-5278Y67872D01*
X-5288Y67875D01*
X-5298Y67880D01*
X-5322Y67892D01*
X-5347Y67906D01*
X-5374Y67924D01*
X-5401Y67945D01*
X-5424Y67971D01*
Y67972D01*
X-5426Y67973D01*
X-5429Y67978D01*
X-5432Y67983D01*
X-5438Y67990D01*
X-5442Y67999D01*
X-5453Y68020D01*
X-5463Y68045D01*
X-5473Y68075D01*
X-5479Y68110D01*
X-5481Y68148D01*
Y68161D01*
X-5480Y68176D01*
X-5477Y68195D01*
X-5473Y68216D01*
X-5467Y68238D01*
X-5460Y68262D01*
X-5449Y68285D01*
Y68286D01*
X-5448Y68288D01*
X-5443Y68295D01*
X-5436Y68306D01*
X-5426Y68320D01*
X-5412Y68336D01*
X-5397Y68353D01*
X-5379Y68368D01*
X-5357Y68384D01*
X-5355Y68385D01*
X-5347Y68391D01*
X-5335Y68396D01*
X-5316Y68406D01*
X-5295Y68415D01*
X-5271Y68426D01*
X-5243Y68436D01*
X-5212Y68444D01*
X-5211D01*
X-5208Y68446D01*
X-5204Y68447D01*
X-5197Y68448D01*
X-5188Y68450D01*
X-5178Y68451D01*
X-5166Y68454D01*
X-5152Y68456D01*
X-5136Y68458D01*
X-5119Y68460D01*
X-5099Y68461D01*
X-5080Y68464D01*
X-5057Y68465D01*
X-5035D01*
X-5009Y68467D01*
X-4982D01*
X-4981D01*
X-4975D01*
X-4965D01*
X-4954D01*
X-4939Y68465D01*
D02*
G37*
G36*
X-4502Y67518D02*
X-4638D01*
Y67655D01*
X-4502D01*
Y67518D01*
D02*
G37*
G36*
X-4809Y67338D02*
X-4798Y67336D01*
X-4785Y67335D01*
X-4770Y67332D01*
X-4754Y67329D01*
X-4717Y67321D01*
X-4679Y67307D01*
X-4660Y67298D01*
X-4641Y67287D01*
X-4622Y67276D01*
X-4603Y67262D01*
X-4602Y67260D01*
X-4598Y67257D01*
X-4592Y67252D01*
X-4585Y67245D01*
X-4576Y67235D01*
X-4565Y67223D01*
X-4555Y67209D01*
X-4544Y67194D01*
X-4533Y67177D01*
X-4523Y67157D01*
X-4513Y67136D01*
X-4503Y67113D01*
X-4496Y67090D01*
X-4490Y67063D01*
X-4486Y67035D01*
X-4485Y67005D01*
Y66992D01*
X-4486Y66982D01*
X-4488Y66971D01*
X-4489Y66958D01*
X-4490Y66943D01*
X-4495Y66927D01*
X-4503Y66892D01*
X-4516Y66857D01*
X-4524Y66839D01*
X-4534Y66820D01*
X-4545Y66803D01*
X-4558Y66786D01*
X-4559Y66785D01*
X-4561Y66782D01*
X-4567Y66779D01*
X-4572Y66774D01*
X-4579Y66767D01*
X-4588Y66760D01*
X-4599Y66751D01*
X-4612Y66744D01*
X-4624Y66736D01*
X-4640Y66727D01*
X-4674Y66712D01*
X-4713Y66699D01*
X-4734Y66695D01*
X-4757Y66692D01*
X-4767Y66817D01*
X-4765D01*
X-4762D01*
X-4758Y66819D01*
X-4751Y66820D01*
X-4736Y66825D01*
X-4715Y66830D01*
X-4693Y66839D01*
X-4669Y66850D01*
X-4648Y66864D01*
X-4629Y66881D01*
X-4627Y66884D01*
X-4622Y66889D01*
X-4614Y66901D01*
X-4606Y66916D01*
X-4598Y66933D01*
X-4590Y66954D01*
X-4585Y66978D01*
X-4583Y67005D01*
Y67013D01*
X-4585Y67019D01*
X-4586Y67036D01*
X-4592Y67056D01*
X-4599Y67080D01*
X-4610Y67104D01*
X-4627Y67129D01*
X-4637Y67140D01*
X-4648Y67152D01*
X-4650Y67153D01*
X-4651Y67154D01*
X-4655Y67157D01*
X-4660Y67161D01*
X-4675Y67171D01*
X-4695Y67183D01*
X-4719Y67192D01*
X-4748Y67202D01*
X-4784Y67209D01*
X-4802Y67212D01*
X-4822D01*
X-4823D01*
X-4826D01*
X-4832D01*
X-4839Y67211D01*
X-4847D01*
X-4857Y67209D01*
X-4879Y67205D01*
X-4906Y67198D01*
X-4933Y67188D01*
X-4958Y67174D01*
X-4982Y67154D01*
X-4984D01*
X-4985Y67152D01*
X-4992Y67145D01*
X-5002Y67132D01*
X-5013Y67115D01*
X-5023Y67092D01*
X-5033Y67067D01*
X-5040Y67037D01*
X-5043Y67020D01*
Y66994D01*
X-5042Y66982D01*
X-5040Y66968D01*
X-5036Y66951D01*
X-5032Y66934D01*
X-5025Y66916D01*
X-5016Y66898D01*
X-5015Y66896D01*
X-5012Y66891D01*
X-5005Y66882D01*
X-4998Y66871D01*
X-4988Y66860D01*
X-4975Y66848D01*
X-4963Y66836D01*
X-4947Y66826D01*
X-4963Y66713D01*
X-5464Y66808D01*
Y67293D01*
X-5350D01*
Y66902D01*
X-5087Y66850D01*
X-5088Y66851D01*
X-5090Y66854D01*
X-5092Y66858D01*
X-5097Y66865D01*
X-5101Y66874D01*
X-5106Y66884D01*
X-5118Y66906D01*
X-5129Y66934D01*
X-5139Y66965D01*
X-5146Y66999D01*
X-5149Y67016D01*
Y67047D01*
X-5147Y67056D01*
X-5146Y67067D01*
X-5144Y67080D01*
X-5142Y67094D01*
X-5137Y67109D01*
X-5128Y67143D01*
X-5121Y67161D01*
X-5111Y67180D01*
X-5101Y67198D01*
X-5090Y67216D01*
X-5075Y67233D01*
X-5060Y67250D01*
X-5058Y67252D01*
X-5056Y67254D01*
X-5051Y67259D01*
X-5044Y67264D01*
X-5035Y67271D01*
X-5025Y67278D01*
X-5012Y67287D01*
X-4998Y67295D01*
X-4982Y67302D01*
X-4965Y67311D01*
X-4946Y67318D01*
X-4926Y67325D01*
X-4905Y67331D01*
X-4881Y67335D01*
X-4857Y67338D01*
X-4832Y67339D01*
X-4830D01*
X-4826D01*
X-4819D01*
X-4809Y67338D01*
D02*
G37*
G36*
X-4502Y66265D02*
X-5264D01*
X-5263Y66263D01*
X-5257Y66256D01*
X-5249Y66248D01*
X-5239Y66234D01*
X-5226Y66218D01*
X-5212Y66199D01*
X-5197Y66176D01*
X-5181Y66151D01*
Y66149D01*
X-5180Y66148D01*
X-5174Y66139D01*
X-5167Y66125D01*
X-5159Y66108D01*
X-5149Y66089D01*
X-5139Y66067D01*
X-5129Y66046D01*
X-5121Y66025D01*
X-5236D01*
Y66027D01*
X-5239Y66029D01*
X-5240Y66035D01*
X-5245Y66042D01*
X-5249Y66051D01*
X-5254Y66060D01*
X-5269Y66084D01*
X-5284Y66113D01*
X-5304Y66141D01*
X-5326Y66170D01*
X-5350Y66200D01*
X-5352Y66201D01*
X-5353Y66203D01*
X-5357Y66207D01*
X-5362Y66213D01*
X-5376Y66225D01*
X-5393Y66242D01*
X-5412Y66259D01*
X-5435Y66278D01*
X-5457Y66293D01*
X-5481Y66307D01*
Y66385D01*
X-4502D01*
Y66265D01*
D02*
G37*
G36*
X-4939Y53465D02*
X-4922D01*
X-4903Y53464D01*
X-4884Y53463D01*
X-4839Y53458D01*
X-4792Y53451D01*
X-4747Y53443D01*
X-4726Y53437D01*
X-4705Y53430D01*
X-4703D01*
X-4700Y53429D01*
X-4695Y53426D01*
X-4688Y53423D01*
X-4678Y53420D01*
X-4668Y53415D01*
X-4644Y53403D01*
X-4619Y53389D01*
X-4590Y53371D01*
X-4565Y53350D01*
X-4541Y53324D01*
Y53323D01*
X-4538Y53322D01*
X-4536Y53317D01*
X-4533Y53312D01*
X-4528Y53305D01*
X-4523Y53298D01*
X-4513Y53276D01*
X-4503Y53251D01*
X-4493Y53222D01*
X-4488Y53186D01*
X-4485Y53148D01*
Y53134D01*
X-4486Y53124D01*
X-4488Y53113D01*
X-4490Y53099D01*
X-4493Y53083D01*
X-4497Y53066D01*
X-4503Y53050D01*
X-4509Y53031D01*
X-4517Y53013D01*
X-4527Y52995D01*
X-4538Y52976D01*
X-4552Y52958D01*
X-4568Y52941D01*
X-4585Y52925D01*
X-4586Y52924D01*
X-4590Y52921D01*
X-4598Y52917D01*
X-4609Y52910D01*
X-4622Y52903D01*
X-4638Y52896D01*
X-4658Y52886D01*
X-4681Y52878D01*
X-4706Y52869D01*
X-4736Y52861D01*
X-4768Y52852D01*
X-4805Y52845D01*
X-4844Y52838D01*
X-4887Y52834D01*
X-4933Y52831D01*
X-4982Y52830D01*
X-4984D01*
X-4989D01*
X-4999D01*
X-5011D01*
X-5026Y52831D01*
X-5043D01*
X-5061Y52832D01*
X-5082Y52834D01*
X-5126Y52838D01*
X-5173Y52845D01*
X-5219Y52854D01*
X-5240Y52859D01*
X-5261Y52865D01*
X-5263D01*
X-5266Y52866D01*
X-5271Y52869D01*
X-5278Y52872D01*
X-5288Y52875D01*
X-5298Y52880D01*
X-5322Y52892D01*
X-5347Y52906D01*
X-5374Y52924D01*
X-5401Y52945D01*
X-5424Y52971D01*
Y52972D01*
X-5426Y52973D01*
X-5429Y52978D01*
X-5432Y52983D01*
X-5438Y52990D01*
X-5442Y52999D01*
X-5453Y53020D01*
X-5463Y53045D01*
X-5473Y53075D01*
X-5479Y53110D01*
X-5481Y53148D01*
Y53161D01*
X-5480Y53176D01*
X-5477Y53195D01*
X-5473Y53216D01*
X-5467Y53238D01*
X-5460Y53262D01*
X-5449Y53285D01*
Y53286D01*
X-5448Y53288D01*
X-5443Y53295D01*
X-5436Y53306D01*
X-5426Y53320D01*
X-5412Y53336D01*
X-5397Y53353D01*
X-5379Y53368D01*
X-5357Y53384D01*
X-5355Y53385D01*
X-5347Y53391D01*
X-5335Y53396D01*
X-5316Y53406D01*
X-5295Y53415D01*
X-5271Y53426D01*
X-5243Y53436D01*
X-5212Y53444D01*
X-5211D01*
X-5208Y53446D01*
X-5204Y53447D01*
X-5197Y53448D01*
X-5188Y53450D01*
X-5178Y53451D01*
X-5166Y53454D01*
X-5152Y53456D01*
X-5136Y53458D01*
X-5119Y53460D01*
X-5099Y53461D01*
X-5080Y53464D01*
X-5057Y53465D01*
X-5035D01*
X-5009Y53467D01*
X-4982D01*
X-4981D01*
X-4975D01*
X-4965D01*
X-4954D01*
X-4939Y53465D01*
D02*
G37*
G36*
X-4502Y52518D02*
X-4638D01*
Y52655D01*
X-4502D01*
Y52518D01*
D02*
G37*
G36*
X-4809Y52338D02*
X-4798Y52336D01*
X-4785Y52335D01*
X-4770Y52332D01*
X-4754Y52329D01*
X-4717Y52321D01*
X-4679Y52307D01*
X-4660Y52298D01*
X-4641Y52287D01*
X-4622Y52276D01*
X-4603Y52262D01*
X-4602Y52260D01*
X-4598Y52257D01*
X-4592Y52252D01*
X-4585Y52245D01*
X-4576Y52235D01*
X-4565Y52223D01*
X-4555Y52209D01*
X-4544Y52194D01*
X-4533Y52177D01*
X-4523Y52157D01*
X-4513Y52136D01*
X-4503Y52113D01*
X-4496Y52090D01*
X-4490Y52063D01*
X-4486Y52035D01*
X-4485Y52005D01*
Y51992D01*
X-4486Y51982D01*
X-4488Y51971D01*
X-4489Y51958D01*
X-4490Y51943D01*
X-4495Y51927D01*
X-4503Y51892D01*
X-4516Y51857D01*
X-4524Y51839D01*
X-4534Y51820D01*
X-4545Y51803D01*
X-4558Y51786D01*
X-4559Y51785D01*
X-4561Y51782D01*
X-4567Y51779D01*
X-4572Y51774D01*
X-4579Y51767D01*
X-4588Y51760D01*
X-4599Y51751D01*
X-4612Y51744D01*
X-4624Y51736D01*
X-4640Y51727D01*
X-4674Y51712D01*
X-4713Y51699D01*
X-4734Y51695D01*
X-4757Y51692D01*
X-4767Y51817D01*
X-4765D01*
X-4762D01*
X-4758Y51819D01*
X-4751Y51820D01*
X-4736Y51825D01*
X-4715Y51830D01*
X-4693Y51839D01*
X-4669Y51850D01*
X-4648Y51864D01*
X-4629Y51881D01*
X-4627Y51884D01*
X-4622Y51889D01*
X-4614Y51901D01*
X-4606Y51916D01*
X-4598Y51933D01*
X-4590Y51954D01*
X-4585Y51978D01*
X-4583Y52005D01*
Y52013D01*
X-4585Y52019D01*
X-4586Y52036D01*
X-4592Y52056D01*
X-4599Y52080D01*
X-4610Y52104D01*
X-4627Y52129D01*
X-4637Y52140D01*
X-4648Y52152D01*
X-4650Y52153D01*
X-4651Y52154D01*
X-4655Y52157D01*
X-4660Y52161D01*
X-4675Y52171D01*
X-4695Y52183D01*
X-4719Y52192D01*
X-4748Y52202D01*
X-4784Y52209D01*
X-4802Y52212D01*
X-4822D01*
X-4823D01*
X-4826D01*
X-4832D01*
X-4839Y52211D01*
X-4847D01*
X-4857Y52209D01*
X-4879Y52205D01*
X-4906Y52198D01*
X-4933Y52188D01*
X-4958Y52174D01*
X-4982Y52154D01*
X-4984D01*
X-4985Y52152D01*
X-4992Y52145D01*
X-5002Y52132D01*
X-5013Y52115D01*
X-5023Y52092D01*
X-5033Y52067D01*
X-5040Y52037D01*
X-5043Y52020D01*
Y51994D01*
X-5042Y51982D01*
X-5040Y51968D01*
X-5036Y51951D01*
X-5032Y51934D01*
X-5025Y51916D01*
X-5016Y51898D01*
X-5015Y51896D01*
X-5012Y51891D01*
X-5005Y51882D01*
X-4998Y51871D01*
X-4988Y51860D01*
X-4975Y51848D01*
X-4963Y51836D01*
X-4947Y51826D01*
X-4963Y51713D01*
X-5464Y51808D01*
Y52293D01*
X-5350D01*
Y51902D01*
X-5087Y51850D01*
X-5088Y51851D01*
X-5090Y51854D01*
X-5092Y51858D01*
X-5097Y51865D01*
X-5101Y51874D01*
X-5106Y51884D01*
X-5118Y51906D01*
X-5129Y51934D01*
X-5139Y51965D01*
X-5146Y51999D01*
X-5149Y52016D01*
Y52047D01*
X-5147Y52056D01*
X-5146Y52067D01*
X-5144Y52080D01*
X-5142Y52094D01*
X-5137Y52109D01*
X-5128Y52143D01*
X-5121Y52161D01*
X-5111Y52180D01*
X-5101Y52198D01*
X-5090Y52216D01*
X-5075Y52233D01*
X-5060Y52250D01*
X-5058Y52252D01*
X-5056Y52254D01*
X-5051Y52259D01*
X-5044Y52264D01*
X-5035Y52271D01*
X-5025Y52278D01*
X-5012Y52287D01*
X-4998Y52295D01*
X-4982Y52302D01*
X-4965Y52311D01*
X-4946Y52318D01*
X-4926Y52325D01*
X-4905Y52331D01*
X-4881Y52335D01*
X-4857Y52338D01*
X-4832Y52339D01*
X-4830D01*
X-4826D01*
X-4819D01*
X-4809Y52338D01*
D02*
G37*
G36*
X-4502Y51265D02*
X-5264D01*
X-5263Y51263D01*
X-5257Y51256D01*
X-5249Y51248D01*
X-5239Y51234D01*
X-5226Y51218D01*
X-5212Y51199D01*
X-5197Y51176D01*
X-5181Y51151D01*
Y51149D01*
X-5180Y51148D01*
X-5174Y51139D01*
X-5167Y51125D01*
X-5159Y51108D01*
X-5149Y51089D01*
X-5139Y51067D01*
X-5129Y51046D01*
X-5121Y51025D01*
X-5236D01*
Y51027D01*
X-5239Y51029D01*
X-5240Y51035D01*
X-5245Y51042D01*
X-5249Y51051D01*
X-5254Y51060D01*
X-5269Y51084D01*
X-5284Y51113D01*
X-5304Y51141D01*
X-5326Y51170D01*
X-5350Y51200D01*
X-5352Y51201D01*
X-5353Y51203D01*
X-5357Y51207D01*
X-5362Y51213D01*
X-5376Y51225D01*
X-5393Y51242D01*
X-5412Y51259D01*
X-5435Y51278D01*
X-5457Y51293D01*
X-5481Y51307D01*
Y51385D01*
X-4502D01*
Y51265D01*
D02*
G37*
G36*
X-4939Y23532D02*
X-4922D01*
X-4903Y23530D01*
X-4884Y23529D01*
X-4839Y23525D01*
X-4792Y23518D01*
X-4747Y23509D01*
X-4726Y23503D01*
X-4705Y23496D01*
X-4703D01*
X-4700Y23495D01*
X-4695Y23492D01*
X-4688Y23489D01*
X-4678Y23487D01*
X-4668Y23481D01*
X-4644Y23470D01*
X-4619Y23456D01*
X-4590Y23437D01*
X-4565Y23416D01*
X-4541Y23391D01*
Y23389D01*
X-4538Y23388D01*
X-4536Y23384D01*
X-4533Y23378D01*
X-4528Y23371D01*
X-4523Y23364D01*
X-4513Y23343D01*
X-4503Y23317D01*
X-4493Y23288D01*
X-4488Y23253D01*
X-4485Y23214D01*
Y23200D01*
X-4486Y23191D01*
X-4488Y23179D01*
X-4490Y23165D01*
X-4493Y23150D01*
X-4497Y23133D01*
X-4503Y23116D01*
X-4509Y23097D01*
X-4517Y23079D01*
X-4527Y23061D01*
X-4538Y23042D01*
X-4552Y23024D01*
X-4568Y23007D01*
X-4585Y22992D01*
X-4586Y22990D01*
X-4590Y22987D01*
X-4598Y22983D01*
X-4609Y22976D01*
X-4622Y22969D01*
X-4638Y22962D01*
X-4658Y22952D01*
X-4681Y22944D01*
X-4706Y22935D01*
X-4736Y22927D01*
X-4768Y22918D01*
X-4805Y22911D01*
X-4844Y22904D01*
X-4887Y22900D01*
X-4933Y22897D01*
X-4982Y22896D01*
X-4984D01*
X-4989D01*
X-4999D01*
X-5011D01*
X-5026Y22897D01*
X-5043D01*
X-5061Y22899D01*
X-5082Y22900D01*
X-5126Y22904D01*
X-5173Y22911D01*
X-5219Y22920D01*
X-5240Y22925D01*
X-5261Y22931D01*
X-5263D01*
X-5266Y22933D01*
X-5271Y22935D01*
X-5278Y22938D01*
X-5288Y22941D01*
X-5298Y22947D01*
X-5322Y22958D01*
X-5347Y22972D01*
X-5374Y22990D01*
X-5401Y23011D01*
X-5424Y23037D01*
Y23038D01*
X-5426Y23040D01*
X-5429Y23044D01*
X-5432Y23050D01*
X-5438Y23057D01*
X-5442Y23065D01*
X-5453Y23086D01*
X-5463Y23112D01*
X-5473Y23141D01*
X-5479Y23176D01*
X-5481Y23214D01*
Y23227D01*
X-5480Y23243D01*
X-5477Y23261D01*
X-5473Y23282D01*
X-5467Y23305D01*
X-5460Y23329D01*
X-5449Y23351D01*
Y23353D01*
X-5448Y23354D01*
X-5443Y23361D01*
X-5436Y23372D01*
X-5426Y23386D01*
X-5412Y23402D01*
X-5397Y23419D01*
X-5379Y23434D01*
X-5357Y23450D01*
X-5355Y23451D01*
X-5347Y23457D01*
X-5335Y23463D01*
X-5316Y23472D01*
X-5295Y23481D01*
X-5271Y23492D01*
X-5243Y23502D01*
X-5212Y23510D01*
X-5211D01*
X-5208Y23512D01*
X-5204Y23513D01*
X-5197Y23515D01*
X-5188Y23516D01*
X-5178Y23518D01*
X-5166Y23520D01*
X-5152Y23522D01*
X-5136Y23525D01*
X-5119Y23526D01*
X-5099Y23527D01*
X-5080Y23530D01*
X-5057Y23532D01*
X-5035D01*
X-5009Y23533D01*
X-4982D01*
X-4981D01*
X-4975D01*
X-4965D01*
X-4954D01*
X-4939Y23532D01*
D02*
G37*
G36*
X-4502Y22584D02*
X-4638D01*
Y22721D01*
X-4502D01*
Y22584D01*
D02*
G37*
G36*
X-4809Y22404D02*
X-4798Y22402D01*
X-4785Y22401D01*
X-4770Y22398D01*
X-4754Y22395D01*
X-4717Y22387D01*
X-4679Y22373D01*
X-4660Y22364D01*
X-4641Y22353D01*
X-4622Y22342D01*
X-4603Y22328D01*
X-4602Y22326D01*
X-4598Y22324D01*
X-4592Y22318D01*
X-4585Y22311D01*
X-4576Y22301D01*
X-4565Y22290D01*
X-4555Y22276D01*
X-4544Y22260D01*
X-4533Y22243D01*
X-4523Y22223D01*
X-4513Y22202D01*
X-4503Y22180D01*
X-4496Y22156D01*
X-4490Y22129D01*
X-4486Y22101D01*
X-4485Y22071D01*
Y22059D01*
X-4486Y22049D01*
X-4488Y22037D01*
X-4489Y22025D01*
X-4490Y22009D01*
X-4495Y21994D01*
X-4503Y21958D01*
X-4516Y21923D01*
X-4524Y21905D01*
X-4534Y21887D01*
X-4545Y21870D01*
X-4558Y21853D01*
X-4559Y21851D01*
X-4561Y21848D01*
X-4567Y21846D01*
X-4572Y21840D01*
X-4579Y21833D01*
X-4588Y21826D01*
X-4599Y21817D01*
X-4612Y21810D01*
X-4624Y21802D01*
X-4640Y21793D01*
X-4674Y21778D01*
X-4713Y21765D01*
X-4734Y21761D01*
X-4757Y21758D01*
X-4767Y21884D01*
X-4765D01*
X-4762D01*
X-4758Y21885D01*
X-4751Y21887D01*
X-4736Y21891D01*
X-4715Y21896D01*
X-4693Y21905D01*
X-4669Y21916D01*
X-4648Y21930D01*
X-4629Y21947D01*
X-4627Y21950D01*
X-4622Y21956D01*
X-4614Y21967D01*
X-4606Y21982D01*
X-4598Y21999D01*
X-4590Y22020D01*
X-4585Y22044D01*
X-4583Y22071D01*
Y22080D01*
X-4585Y22085D01*
X-4586Y22102D01*
X-4592Y22122D01*
X-4599Y22146D01*
X-4610Y22170D01*
X-4627Y22195D01*
X-4637Y22207D01*
X-4648Y22218D01*
X-4650Y22219D01*
X-4651Y22221D01*
X-4655Y22223D01*
X-4660Y22228D01*
X-4675Y22238D01*
X-4695Y22249D01*
X-4719Y22259D01*
X-4748Y22269D01*
X-4784Y22276D01*
X-4802Y22278D01*
X-4822D01*
X-4823D01*
X-4826D01*
X-4832D01*
X-4839Y22277D01*
X-4847D01*
X-4857Y22276D01*
X-4879Y22271D01*
X-4906Y22264D01*
X-4933Y22254D01*
X-4958Y22240D01*
X-4982Y22221D01*
X-4984D01*
X-4985Y22218D01*
X-4992Y22211D01*
X-5002Y22198D01*
X-5013Y22181D01*
X-5023Y22159D01*
X-5033Y22133D01*
X-5040Y22104D01*
X-5043Y22087D01*
Y22060D01*
X-5042Y22049D01*
X-5040Y22035D01*
X-5036Y22018D01*
X-5032Y22001D01*
X-5025Y21982D01*
X-5016Y21964D01*
X-5015Y21963D01*
X-5012Y21957D01*
X-5005Y21949D01*
X-4998Y21937D01*
X-4988Y21926D01*
X-4975Y21915D01*
X-4963Y21902D01*
X-4947Y21892D01*
X-4963Y21779D01*
X-5464Y21874D01*
Y22359D01*
X-5350D01*
Y21968D01*
X-5087Y21916D01*
X-5088Y21918D01*
X-5090Y21920D01*
X-5092Y21925D01*
X-5097Y21932D01*
X-5101Y21940D01*
X-5106Y21950D01*
X-5118Y21973D01*
X-5129Y22001D01*
X-5139Y22032D01*
X-5146Y22066D01*
X-5149Y22082D01*
Y22113D01*
X-5147Y22122D01*
X-5146Y22133D01*
X-5144Y22146D01*
X-5142Y22160D01*
X-5137Y22176D01*
X-5128Y22209D01*
X-5121Y22228D01*
X-5111Y22246D01*
X-5101Y22264D01*
X-5090Y22283D01*
X-5075Y22300D01*
X-5060Y22316D01*
X-5058Y22318D01*
X-5056Y22321D01*
X-5051Y22325D01*
X-5044Y22331D01*
X-5035Y22338D01*
X-5025Y22345D01*
X-5012Y22353D01*
X-4998Y22362D01*
X-4982Y22369D01*
X-4965Y22377D01*
X-4946Y22384D01*
X-4926Y22391D01*
X-4905Y22397D01*
X-4881Y22401D01*
X-4857Y22404D01*
X-4832Y22405D01*
X-4830D01*
X-4826D01*
X-4819D01*
X-4809Y22404D01*
D02*
G37*
G36*
X-4736Y21503D02*
X-4502D01*
Y21383D01*
X-4736D01*
Y20959D01*
X-4846D01*
X-5477Y21406D01*
Y21503D01*
X-4846D01*
Y21636D01*
X-4736D01*
Y21503D01*
D02*
G37*
G36*
X-9939Y51345D02*
X-9922D01*
X-9903Y51343D01*
X-9884Y51342D01*
X-9839Y51338D01*
X-9792Y51331D01*
X-9747Y51322D01*
X-9726Y51316D01*
X-9705Y51309D01*
X-9703D01*
X-9700Y51308D01*
X-9695Y51305D01*
X-9688Y51302D01*
X-9678Y51299D01*
X-9668Y51294D01*
X-9644Y51283D01*
X-9619Y51268D01*
X-9590Y51250D01*
X-9565Y51229D01*
X-9541Y51204D01*
Y51202D01*
X-9538Y51201D01*
X-9536Y51197D01*
X-9533Y51191D01*
X-9528Y51184D01*
X-9523Y51177D01*
X-9513Y51156D01*
X-9503Y51130D01*
X-9493Y51101D01*
X-9488Y51065D01*
X-9485Y51027D01*
Y51013D01*
X-9486Y51003D01*
X-9488Y50992D01*
X-9490Y50978D01*
X-9493Y50963D01*
X-9497Y50946D01*
X-9503Y50929D01*
X-9509Y50910D01*
X-9517Y50892D01*
X-9527Y50874D01*
X-9538Y50855D01*
X-9552Y50837D01*
X-9568Y50820D01*
X-9585Y50805D01*
X-9586Y50803D01*
X-9590Y50800D01*
X-9598Y50796D01*
X-9609Y50789D01*
X-9622Y50782D01*
X-9638Y50775D01*
X-9658Y50765D01*
X-9681Y50757D01*
X-9706Y50748D01*
X-9736Y50740D01*
X-9768Y50731D01*
X-9805Y50724D01*
X-9844Y50717D01*
X-9887Y50713D01*
X-9933Y50710D01*
X-9982Y50709D01*
X-9984D01*
X-9989D01*
X-9999D01*
X-10011D01*
X-10026Y50710D01*
X-10043D01*
X-10061Y50712D01*
X-10082Y50713D01*
X-10126Y50717D01*
X-10173Y50724D01*
X-10219Y50733D01*
X-10240Y50738D01*
X-10262Y50744D01*
X-10263D01*
X-10266Y50745D01*
X-10271Y50748D01*
X-10278Y50751D01*
X-10288Y50754D01*
X-10298Y50760D01*
X-10322Y50771D01*
X-10347Y50785D01*
X-10374Y50803D01*
X-10401Y50824D01*
X-10424Y50850D01*
Y50851D01*
X-10426Y50853D01*
X-10429Y50857D01*
X-10432Y50862D01*
X-10438Y50870D01*
X-10442Y50878D01*
X-10453Y50899D01*
X-10463Y50925D01*
X-10473Y50954D01*
X-10479Y50989D01*
X-10481Y51027D01*
Y51040D01*
X-10480Y51056D01*
X-10477Y51074D01*
X-10473Y51095D01*
X-10467Y51118D01*
X-10460Y51142D01*
X-10449Y51164D01*
Y51166D01*
X-10448Y51167D01*
X-10443Y51174D01*
X-10436Y51185D01*
X-10426Y51199D01*
X-10412Y51215D01*
X-10397Y51232D01*
X-10379Y51247D01*
X-10357Y51263D01*
X-10355Y51264D01*
X-10347Y51270D01*
X-10335Y51276D01*
X-10316Y51285D01*
X-10295Y51294D01*
X-10271Y51305D01*
X-10243Y51315D01*
X-10212Y51323D01*
X-10211D01*
X-10208Y51325D01*
X-10204Y51326D01*
X-10197Y51328D01*
X-10188Y51329D01*
X-10178Y51331D01*
X-10166Y51333D01*
X-10152Y51335D01*
X-10136Y51338D01*
X-10119Y51339D01*
X-10099Y51340D01*
X-10080Y51343D01*
X-10057Y51345D01*
X-10035D01*
X-10009Y51346D01*
X-9982D01*
X-9981D01*
X-9975D01*
X-9965D01*
X-9954D01*
X-9939Y51345D01*
D02*
G37*
G36*
X-9502Y50397D02*
X-9638D01*
Y50534D01*
X-9502D01*
Y50397D01*
D02*
G37*
G36*
X-9939Y50207D02*
X-9922D01*
X-9903Y50206D01*
X-9884Y50204D01*
X-9839Y50200D01*
X-9792Y50193D01*
X-9747Y50184D01*
X-9726Y50179D01*
X-9705Y50172D01*
X-9703D01*
X-9700Y50170D01*
X-9695Y50167D01*
X-9688Y50165D01*
X-9678Y50162D01*
X-9668Y50156D01*
X-9644Y50145D01*
X-9619Y50131D01*
X-9590Y50113D01*
X-9565Y50091D01*
X-9541Y50066D01*
Y50065D01*
X-9538Y50063D01*
X-9536Y50059D01*
X-9533Y50053D01*
X-9528Y50046D01*
X-9523Y50039D01*
X-9513Y50018D01*
X-9503Y49993D01*
X-9493Y49963D01*
X-9488Y49928D01*
X-9485Y49890D01*
Y49876D01*
X-9486Y49866D01*
X-9488Y49855D01*
X-9490Y49840D01*
X-9493Y49825D01*
X-9497Y49808D01*
X-9503Y49791D01*
X-9509Y49773D01*
X-9517Y49754D01*
X-9527Y49736D01*
X-9538Y49718D01*
X-9552Y49699D01*
X-9568Y49683D01*
X-9585Y49667D01*
X-9586Y49666D01*
X-9590Y49663D01*
X-9598Y49659D01*
X-9609Y49652D01*
X-9622Y49645D01*
X-9638Y49637D01*
X-9658Y49628D01*
X-9681Y49619D01*
X-9706Y49611D01*
X-9736Y49602D01*
X-9768Y49594D01*
X-9805Y49587D01*
X-9844Y49580D01*
X-9887Y49575D01*
X-9933Y49573D01*
X-9982Y49571D01*
X-9984D01*
X-9989D01*
X-9999D01*
X-10011D01*
X-10026Y49573D01*
X-10043D01*
X-10061Y49574D01*
X-10082Y49575D01*
X-10126Y49580D01*
X-10173Y49587D01*
X-10219Y49595D01*
X-10240Y49601D01*
X-10262Y49606D01*
X-10263D01*
X-10266Y49608D01*
X-10271Y49611D01*
X-10278Y49613D01*
X-10288Y49616D01*
X-10298Y49622D01*
X-10322Y49633D01*
X-10347Y49647D01*
X-10374Y49666D01*
X-10401Y49687D01*
X-10424Y49712D01*
Y49714D01*
X-10426Y49715D01*
X-10429Y49719D01*
X-10432Y49725D01*
X-10438Y49732D01*
X-10442Y49740D01*
X-10453Y49762D01*
X-10463Y49787D01*
X-10473Y49816D01*
X-10479Y49852D01*
X-10481Y49890D01*
Y49902D01*
X-10480Y49918D01*
X-10477Y49936D01*
X-10473Y49957D01*
X-10467Y49980D01*
X-10460Y50004D01*
X-10449Y50027D01*
Y50028D01*
X-10448Y50029D01*
X-10443Y50036D01*
X-10436Y50048D01*
X-10426Y50062D01*
X-10412Y50077D01*
X-10397Y50094D01*
X-10379Y50110D01*
X-10357Y50125D01*
X-10355Y50127D01*
X-10347Y50132D01*
X-10335Y50138D01*
X-10316Y50148D01*
X-10295Y50156D01*
X-10271Y50167D01*
X-10243Y50177D01*
X-10212Y50186D01*
X-10211D01*
X-10208Y50187D01*
X-10204Y50189D01*
X-10197Y50190D01*
X-10188Y50191D01*
X-10178Y50193D01*
X-10166Y50196D01*
X-10152Y50197D01*
X-10136Y50200D01*
X-10119Y50201D01*
X-10099Y50203D01*
X-10080Y50206D01*
X-10057Y50207D01*
X-10035D01*
X-10009Y50208D01*
X-9982D01*
X-9981D01*
X-9975D01*
X-9965D01*
X-9954D01*
X-9939Y50207D01*
D02*
G37*
G36*
Y49449D02*
X-9922D01*
X-9903Y49447D01*
X-9884Y49446D01*
X-9839Y49442D01*
X-9792Y49434D01*
X-9747Y49426D01*
X-9726Y49420D01*
X-9705Y49413D01*
X-9703D01*
X-9700Y49412D01*
X-9695Y49409D01*
X-9688Y49406D01*
X-9678Y49403D01*
X-9668Y49398D01*
X-9644Y49387D01*
X-9619Y49372D01*
X-9590Y49354D01*
X-9565Y49333D01*
X-9541Y49308D01*
Y49306D01*
X-9538Y49305D01*
X-9536Y49301D01*
X-9533Y49295D01*
X-9528Y49288D01*
X-9523Y49281D01*
X-9513Y49260D01*
X-9503Y49234D01*
X-9493Y49205D01*
X-9488Y49169D01*
X-9485Y49131D01*
Y49117D01*
X-9486Y49107D01*
X-9488Y49096D01*
X-9490Y49082D01*
X-9493Y49067D01*
X-9497Y49050D01*
X-9503Y49033D01*
X-9509Y49014D01*
X-9517Y48996D01*
X-9527Y48978D01*
X-9538Y48959D01*
X-9552Y48941D01*
X-9568Y48924D01*
X-9585Y48909D01*
X-9586Y48907D01*
X-9590Y48904D01*
X-9598Y48900D01*
X-9609Y48893D01*
X-9622Y48886D01*
X-9638Y48879D01*
X-9658Y48869D01*
X-9681Y48861D01*
X-9706Y48852D01*
X-9736Y48844D01*
X-9768Y48835D01*
X-9805Y48828D01*
X-9844Y48821D01*
X-9887Y48817D01*
X-9933Y48814D01*
X-9982Y48813D01*
X-9984D01*
X-9989D01*
X-9999D01*
X-10011D01*
X-10026Y48814D01*
X-10043D01*
X-10061Y48816D01*
X-10082Y48817D01*
X-10126Y48821D01*
X-10173Y48828D01*
X-10219Y48837D01*
X-10240Y48842D01*
X-10262Y48848D01*
X-10263D01*
X-10266Y48849D01*
X-10271Y48852D01*
X-10278Y48855D01*
X-10288Y48858D01*
X-10298Y48864D01*
X-10322Y48875D01*
X-10347Y48889D01*
X-10374Y48907D01*
X-10401Y48928D01*
X-10424Y48954D01*
Y48955D01*
X-10426Y48957D01*
X-10429Y48961D01*
X-10432Y48966D01*
X-10438Y48973D01*
X-10442Y48982D01*
X-10453Y49003D01*
X-10463Y49028D01*
X-10473Y49058D01*
X-10479Y49093D01*
X-10481Y49131D01*
Y49144D01*
X-10480Y49160D01*
X-10477Y49178D01*
X-10473Y49199D01*
X-10467Y49222D01*
X-10460Y49246D01*
X-10449Y49268D01*
Y49270D01*
X-10448Y49271D01*
X-10443Y49278D01*
X-10436Y49289D01*
X-10426Y49303D01*
X-10412Y49319D01*
X-10397Y49336D01*
X-10379Y49351D01*
X-10357Y49367D01*
X-10355Y49368D01*
X-10347Y49374D01*
X-10335Y49379D01*
X-10316Y49389D01*
X-10295Y49398D01*
X-10271Y49409D01*
X-10243Y49419D01*
X-10212Y49427D01*
X-10211D01*
X-10208Y49429D01*
X-10204Y49430D01*
X-10197Y49432D01*
X-10188Y49433D01*
X-10178Y49434D01*
X-10166Y49437D01*
X-10152Y49439D01*
X-10136Y49442D01*
X-10119Y49443D01*
X-10099Y49444D01*
X-10080Y49447D01*
X-10057Y49449D01*
X-10035D01*
X-10009Y49450D01*
X-9982D01*
X-9981D01*
X-9975D01*
X-9965D01*
X-9954D01*
X-9939Y49449D01*
D02*
G37*
G36*
X-9502Y48386D02*
X-10264D01*
X-10263Y48384D01*
X-10257Y48377D01*
X-10249Y48369D01*
X-10239Y48355D01*
X-10226Y48339D01*
X-10212Y48319D01*
X-10197Y48297D01*
X-10181Y48271D01*
Y48270D01*
X-10180Y48269D01*
X-10174Y48260D01*
X-10167Y48246D01*
X-10159Y48229D01*
X-10149Y48209D01*
X-10139Y48188D01*
X-10129Y48167D01*
X-10121Y48146D01*
X-10236D01*
Y48147D01*
X-10239Y48150D01*
X-10240Y48156D01*
X-10245Y48163D01*
X-10249Y48171D01*
X-10254Y48181D01*
X-10269Y48205D01*
X-10284Y48233D01*
X-10304Y48262D01*
X-10326Y48291D01*
X-10350Y48321D01*
X-10352Y48322D01*
X-10353Y48324D01*
X-10357Y48328D01*
X-10362Y48333D01*
X-10376Y48346D01*
X-10393Y48363D01*
X-10412Y48380D01*
X-10435Y48398D01*
X-10457Y48414D01*
X-10481Y48428D01*
Y48505D01*
X-9502D01*
Y48386D01*
D02*
G37*
G36*
X105061Y98132D02*
X105078D01*
X105097Y98131D01*
X105116Y98129D01*
X105161Y98125D01*
X105208Y98118D01*
X105253Y98109D01*
X105274Y98104D01*
X105295Y98097D01*
X105297D01*
X105300Y98095D01*
X105305Y98093D01*
X105312Y98090D01*
X105322Y98087D01*
X105332Y98081D01*
X105356Y98070D01*
X105381Y98056D01*
X105410Y98038D01*
X105435Y98016D01*
X105459Y97991D01*
Y97990D01*
X105462Y97988D01*
X105465Y97984D01*
X105467Y97978D01*
X105472Y97971D01*
X105477Y97964D01*
X105487Y97943D01*
X105497Y97918D01*
X105507Y97888D01*
X105512Y97853D01*
X105515Y97815D01*
Y97801D01*
X105514Y97791D01*
X105512Y97780D01*
X105510Y97765D01*
X105507Y97750D01*
X105503Y97733D01*
X105497Y97716D01*
X105491Y97698D01*
X105483Y97679D01*
X105473Y97661D01*
X105462Y97643D01*
X105448Y97624D01*
X105432Y97608D01*
X105415Y97592D01*
X105414Y97591D01*
X105410Y97588D01*
X105402Y97584D01*
X105391Y97577D01*
X105379Y97570D01*
X105362Y97562D01*
X105342Y97553D01*
X105319Y97544D01*
X105294Y97536D01*
X105264Y97527D01*
X105232Y97519D01*
X105195Y97512D01*
X105156Y97505D01*
X105113Y97500D01*
X105067Y97498D01*
X105018Y97496D01*
X105016D01*
X105011D01*
X105001D01*
X104989D01*
X104974Y97498D01*
X104957D01*
X104939Y97499D01*
X104918Y97500D01*
X104874Y97505D01*
X104827Y97512D01*
X104781Y97520D01*
X104760Y97526D01*
X104739Y97531D01*
X104737D01*
X104734Y97533D01*
X104729Y97536D01*
X104722Y97539D01*
X104712Y97541D01*
X104702Y97547D01*
X104678Y97558D01*
X104653Y97572D01*
X104626Y97591D01*
X104599Y97612D01*
X104576Y97637D01*
Y97639D01*
X104574Y97640D01*
X104571Y97644D01*
X104568Y97650D01*
X104562Y97657D01*
X104558Y97665D01*
X104547Y97687D01*
X104537Y97712D01*
X104527Y97742D01*
X104521Y97777D01*
X104519Y97815D01*
Y97827D01*
X104520Y97843D01*
X104523Y97861D01*
X104527Y97882D01*
X104533Y97905D01*
X104540Y97929D01*
X104551Y97952D01*
Y97953D01*
X104552Y97954D01*
X104557Y97961D01*
X104564Y97973D01*
X104574Y97987D01*
X104588Y98002D01*
X104603Y98019D01*
X104621Y98035D01*
X104643Y98050D01*
X104645Y98052D01*
X104653Y98057D01*
X104665Y98063D01*
X104684Y98073D01*
X104705Y98081D01*
X104729Y98093D01*
X104757Y98102D01*
X104788Y98111D01*
X104789D01*
X104792Y98112D01*
X104796Y98114D01*
X104803Y98115D01*
X104812Y98116D01*
X104822Y98118D01*
X104834Y98121D01*
X104848Y98122D01*
X104864Y98125D01*
X104881Y98126D01*
X104901Y98128D01*
X104920Y98131D01*
X104943Y98132D01*
X104965D01*
X104991Y98133D01*
X105018D01*
X105019D01*
X105025D01*
X105035D01*
X105046D01*
X105061Y98132D01*
D02*
G37*
G36*
X105498Y97185D02*
X105362D01*
Y97321D01*
X105498D01*
Y97185D01*
D02*
G37*
G36*
X105191Y97004D02*
X105202Y97003D01*
X105215Y97001D01*
X105230Y96999D01*
X105246Y96996D01*
X105283Y96987D01*
X105321Y96973D01*
X105340Y96965D01*
X105359Y96953D01*
X105379Y96942D01*
X105397Y96928D01*
X105398Y96927D01*
X105402Y96924D01*
X105408Y96918D01*
X105415Y96911D01*
X105424Y96901D01*
X105435Y96890D01*
X105445Y96876D01*
X105456Y96860D01*
X105467Y96844D01*
X105477Y96824D01*
X105487Y96803D01*
X105497Y96780D01*
X105504Y96756D01*
X105510Y96729D01*
X105514Y96701D01*
X105515Y96672D01*
Y96659D01*
X105514Y96649D01*
X105512Y96638D01*
X105511Y96625D01*
X105510Y96610D01*
X105505Y96594D01*
X105497Y96559D01*
X105484Y96524D01*
X105476Y96505D01*
X105466Y96487D01*
X105455Y96470D01*
X105442Y96453D01*
X105441Y96452D01*
X105439Y96449D01*
X105433Y96446D01*
X105428Y96440D01*
X105421Y96433D01*
X105412Y96426D01*
X105401Y96418D01*
X105388Y96411D01*
X105376Y96402D01*
X105360Y96394D01*
X105326Y96378D01*
X105287Y96366D01*
X105266Y96361D01*
X105243Y96359D01*
X105233Y96484D01*
X105235D01*
X105238D01*
X105242Y96485D01*
X105249Y96487D01*
X105264Y96491D01*
X105285Y96497D01*
X105307Y96505D01*
X105331Y96516D01*
X105352Y96531D01*
X105371Y96547D01*
X105373Y96550D01*
X105379Y96556D01*
X105386Y96567D01*
X105394Y96583D01*
X105402Y96600D01*
X105410Y96621D01*
X105415Y96645D01*
X105417Y96672D01*
Y96680D01*
X105415Y96686D01*
X105414Y96703D01*
X105408Y96722D01*
X105401Y96746D01*
X105390Y96770D01*
X105373Y96796D01*
X105363Y96807D01*
X105352Y96818D01*
X105350Y96820D01*
X105349Y96821D01*
X105345Y96824D01*
X105340Y96828D01*
X105325Y96838D01*
X105305Y96849D01*
X105281Y96859D01*
X105252Y96869D01*
X105216Y96876D01*
X105198Y96879D01*
X105178D01*
X105177D01*
X105174D01*
X105168D01*
X105161Y96877D01*
X105153D01*
X105143Y96876D01*
X105121Y96872D01*
X105094Y96865D01*
X105067Y96855D01*
X105042Y96841D01*
X105018Y96821D01*
X105016D01*
X105015Y96818D01*
X105008Y96811D01*
X104998Y96798D01*
X104987Y96782D01*
X104977Y96759D01*
X104967Y96734D01*
X104960Y96704D01*
X104957Y96687D01*
Y96660D01*
X104958Y96649D01*
X104960Y96635D01*
X104964Y96618D01*
X104968Y96601D01*
X104975Y96583D01*
X104984Y96564D01*
X104985Y96563D01*
X104988Y96557D01*
X104995Y96549D01*
X105002Y96538D01*
X105012Y96526D01*
X105025Y96515D01*
X105037Y96502D01*
X105053Y96493D01*
X105037Y96380D01*
X104535Y96474D01*
Y96959D01*
X104650D01*
Y96569D01*
X104913Y96516D01*
X104912Y96518D01*
X104910Y96521D01*
X104908Y96525D01*
X104903Y96532D01*
X104899Y96540D01*
X104894Y96550D01*
X104882Y96573D01*
X104871Y96601D01*
X104861Y96632D01*
X104854Y96666D01*
X104851Y96683D01*
Y96714D01*
X104853Y96722D01*
X104854Y96734D01*
X104856Y96746D01*
X104858Y96760D01*
X104863Y96776D01*
X104872Y96810D01*
X104879Y96828D01*
X104889Y96846D01*
X104899Y96865D01*
X104910Y96883D01*
X104925Y96900D01*
X104940Y96917D01*
X104941Y96918D01*
X104944Y96921D01*
X104949Y96925D01*
X104956Y96931D01*
X104965Y96938D01*
X104975Y96945D01*
X104988Y96953D01*
X105002Y96962D01*
X105018Y96969D01*
X105035Y96977D01*
X105054Y96984D01*
X105074Y96992D01*
X105095Y96997D01*
X105119Y97001D01*
X105143Y97004D01*
X105168Y97006D01*
X105170D01*
X105174D01*
X105181D01*
X105191Y97004D01*
D02*
G37*
G36*
X96959Y105350D02*
X96569D01*
X96516Y105087D01*
X96518Y105088D01*
X96521Y105090D01*
X96525Y105092D01*
X96532Y105097D01*
X96540Y105101D01*
X96550Y105106D01*
X96573Y105118D01*
X96601Y105129D01*
X96632Y105139D01*
X96666Y105146D01*
X96683Y105149D01*
X96714D01*
X96722Y105147D01*
X96734Y105146D01*
X96746Y105145D01*
X96760Y105142D01*
X96776Y105137D01*
X96810Y105128D01*
X96828Y105121D01*
X96846Y105111D01*
X96865Y105101D01*
X96883Y105090D01*
X96900Y105075D01*
X96917Y105060D01*
X96918Y105059D01*
X96921Y105056D01*
X96925Y105051D01*
X96931Y105044D01*
X96938Y105035D01*
X96945Y105025D01*
X96953Y105012D01*
X96962Y104998D01*
X96969Y104982D01*
X96977Y104965D01*
X96984Y104946D01*
X96992Y104926D01*
X96997Y104905D01*
X97001Y104881D01*
X97004Y104857D01*
X97006Y104832D01*
Y104830D01*
Y104826D01*
Y104819D01*
X97004Y104809D01*
X97003Y104798D01*
X97001Y104785D01*
X96999Y104770D01*
X96996Y104754D01*
X96987Y104717D01*
X96973Y104679D01*
X96965Y104660D01*
X96953Y104641D01*
X96942Y104621D01*
X96928Y104603D01*
X96927Y104602D01*
X96924Y104598D01*
X96918Y104592D01*
X96911Y104585D01*
X96901Y104576D01*
X96890Y104565D01*
X96876Y104555D01*
X96860Y104544D01*
X96844Y104533D01*
X96824Y104523D01*
X96803Y104513D01*
X96780Y104503D01*
X96756Y104496D01*
X96729Y104490D01*
X96701Y104486D01*
X96672Y104485D01*
X96659D01*
X96649Y104486D01*
X96638Y104488D01*
X96625Y104489D01*
X96610Y104490D01*
X96594Y104495D01*
X96559Y104503D01*
X96524Y104516D01*
X96505Y104524D01*
X96487Y104534D01*
X96470Y104545D01*
X96453Y104558D01*
X96452Y104559D01*
X96449Y104561D01*
X96446Y104567D01*
X96440Y104572D01*
X96433Y104579D01*
X96426Y104588D01*
X96418Y104599D01*
X96411Y104612D01*
X96402Y104624D01*
X96394Y104640D01*
X96378Y104674D01*
X96366Y104713D01*
X96361Y104734D01*
X96359Y104757D01*
X96484Y104767D01*
Y104765D01*
Y104762D01*
X96485Y104758D01*
X96487Y104751D01*
X96491Y104736D01*
X96497Y104715D01*
X96505Y104693D01*
X96516Y104669D01*
X96531Y104648D01*
X96547Y104629D01*
X96550Y104627D01*
X96556Y104621D01*
X96567Y104614D01*
X96583Y104606D01*
X96600Y104598D01*
X96621Y104590D01*
X96645Y104585D01*
X96672Y104583D01*
X96680D01*
X96686Y104585D01*
X96703Y104586D01*
X96722Y104592D01*
X96746Y104599D01*
X96770Y104610D01*
X96796Y104627D01*
X96807Y104637D01*
X96818Y104648D01*
X96820Y104650D01*
X96821Y104651D01*
X96824Y104655D01*
X96828Y104660D01*
X96838Y104675D01*
X96849Y104695D01*
X96859Y104719D01*
X96869Y104748D01*
X96876Y104784D01*
X96879Y104802D01*
Y104822D01*
Y104823D01*
Y104826D01*
Y104832D01*
X96877Y104839D01*
Y104847D01*
X96876Y104857D01*
X96872Y104879D01*
X96865Y104906D01*
X96855Y104933D01*
X96841Y104958D01*
X96821Y104982D01*
Y104984D01*
X96818Y104985D01*
X96811Y104992D01*
X96798Y105002D01*
X96782Y105013D01*
X96759Y105023D01*
X96734Y105033D01*
X96704Y105040D01*
X96687Y105043D01*
X96660D01*
X96649Y105042D01*
X96635Y105040D01*
X96618Y105036D01*
X96601Y105032D01*
X96583Y105025D01*
X96564Y105016D01*
X96563Y105015D01*
X96557Y105012D01*
X96549Y105005D01*
X96538Y104998D01*
X96526Y104988D01*
X96515Y104975D01*
X96502Y104963D01*
X96493Y104947D01*
X96380Y104963D01*
X96474Y105465D01*
X96959D01*
Y105350D01*
D02*
G37*
G36*
X97321Y104502D02*
X97185D01*
Y104638D01*
X97321D01*
Y104502D01*
D02*
G37*
G36*
X97843Y105480D02*
X97861Y105477D01*
X97882Y105473D01*
X97905Y105467D01*
X97929Y105460D01*
X97952Y105449D01*
X97953D01*
X97954Y105448D01*
X97961Y105443D01*
X97973Y105436D01*
X97987Y105426D01*
X98002Y105412D01*
X98019Y105397D01*
X98035Y105379D01*
X98050Y105357D01*
X98052Y105355D01*
X98057Y105347D01*
X98063Y105335D01*
X98073Y105316D01*
X98081Y105295D01*
X98093Y105271D01*
X98102Y105243D01*
X98111Y105212D01*
Y105211D01*
X98112Y105208D01*
X98114Y105204D01*
X98115Y105197D01*
X98116Y105188D01*
X98118Y105178D01*
X98121Y105166D01*
X98122Y105152D01*
X98125Y105136D01*
X98126Y105119D01*
X98128Y105099D01*
X98131Y105080D01*
X98132Y105057D01*
Y105035D01*
X98133Y105009D01*
Y104982D01*
Y104981D01*
Y104975D01*
Y104965D01*
Y104954D01*
X98132Y104939D01*
Y104922D01*
X98131Y104903D01*
X98129Y104884D01*
X98125Y104839D01*
X98118Y104792D01*
X98109Y104747D01*
X98104Y104726D01*
X98097Y104705D01*
Y104703D01*
X98095Y104700D01*
X98093Y104695D01*
X98090Y104688D01*
X98087Y104678D01*
X98081Y104668D01*
X98070Y104644D01*
X98056Y104619D01*
X98038Y104590D01*
X98016Y104565D01*
X97991Y104541D01*
X97990D01*
X97988Y104538D01*
X97984Y104536D01*
X97978Y104533D01*
X97971Y104528D01*
X97964Y104523D01*
X97943Y104513D01*
X97918Y104503D01*
X97888Y104493D01*
X97853Y104488D01*
X97815Y104485D01*
X97801D01*
X97791Y104486D01*
X97780Y104488D01*
X97765Y104490D01*
X97750Y104493D01*
X97733Y104497D01*
X97716Y104503D01*
X97698Y104509D01*
X97679Y104517D01*
X97661Y104527D01*
X97643Y104538D01*
X97624Y104552D01*
X97608Y104568D01*
X97592Y104585D01*
X97591Y104586D01*
X97588Y104590D01*
X97584Y104598D01*
X97577Y104609D01*
X97570Y104621D01*
X97562Y104638D01*
X97553Y104658D01*
X97544Y104681D01*
X97536Y104706D01*
X97527Y104736D01*
X97519Y104768D01*
X97512Y104805D01*
X97505Y104844D01*
X97500Y104887D01*
X97498Y104933D01*
X97496Y104982D01*
Y104984D01*
Y104989D01*
Y104999D01*
Y105011D01*
X97498Y105026D01*
Y105043D01*
X97499Y105061D01*
X97500Y105082D01*
X97505Y105126D01*
X97512Y105173D01*
X97520Y105219D01*
X97526Y105240D01*
X97531Y105261D01*
Y105263D01*
X97533Y105266D01*
X97536Y105271D01*
X97539Y105278D01*
X97541Y105288D01*
X97547Y105298D01*
X97558Y105322D01*
X97572Y105347D01*
X97591Y105374D01*
X97612Y105401D01*
X97637Y105424D01*
X97639D01*
X97640Y105426D01*
X97644Y105429D01*
X97650Y105432D01*
X97657Y105438D01*
X97665Y105442D01*
X97687Y105453D01*
X97712Y105463D01*
X97742Y105473D01*
X97777Y105479D01*
X97815Y105481D01*
X97827D01*
X97843Y105480D01*
D02*
G37*
G36*
X7175Y105350D02*
X6785D01*
X6733Y105087D01*
X6734Y105088D01*
X6737Y105090D01*
X6741Y105092D01*
X6748Y105097D01*
X6757Y105101D01*
X6766Y105106D01*
X6789Y105118D01*
X6817Y105129D01*
X6848Y105139D01*
X6882Y105146D01*
X6899Y105149D01*
X6930D01*
X6938Y105147D01*
X6950Y105146D01*
X6962Y105145D01*
X6976Y105142D01*
X6992Y105137D01*
X7026Y105128D01*
X7044Y105121D01*
X7062Y105111D01*
X7081Y105101D01*
X7099Y105090D01*
X7116Y105075D01*
X7133Y105060D01*
X7134Y105059D01*
X7137Y105056D01*
X7141Y105051D01*
X7147Y105044D01*
X7154Y105035D01*
X7161Y105025D01*
X7170Y105012D01*
X7178Y104998D01*
X7185Y104982D01*
X7194Y104965D01*
X7201Y104946D01*
X7208Y104926D01*
X7213Y104905D01*
X7218Y104881D01*
X7220Y104857D01*
X7222Y104832D01*
Y104830D01*
Y104826D01*
Y104819D01*
X7220Y104809D01*
X7219Y104798D01*
X7218Y104785D01*
X7215Y104770D01*
X7212Y104754D01*
X7203Y104717D01*
X7189Y104679D01*
X7181Y104660D01*
X7170Y104641D01*
X7158Y104621D01*
X7144Y104603D01*
X7143Y104602D01*
X7140Y104598D01*
X7134Y104592D01*
X7127Y104585D01*
X7117Y104576D01*
X7106Y104565D01*
X7092Y104555D01*
X7077Y104544D01*
X7060Y104533D01*
X7040Y104523D01*
X7019Y104513D01*
X6996Y104503D01*
X6972Y104496D01*
X6945Y104490D01*
X6917Y104486D01*
X6888Y104485D01*
X6875D01*
X6865Y104486D01*
X6854Y104488D01*
X6841Y104489D01*
X6826Y104490D01*
X6810Y104495D01*
X6775Y104503D01*
X6740Y104516D01*
X6721Y104524D01*
X6703Y104534D01*
X6686Y104545D01*
X6669Y104558D01*
X6668Y104559D01*
X6665Y104561D01*
X6662Y104567D01*
X6656Y104572D01*
X6649Y104579D01*
X6642Y104588D01*
X6634Y104599D01*
X6627Y104612D01*
X6618Y104624D01*
X6610Y104640D01*
X6594Y104674D01*
X6582Y104713D01*
X6577Y104734D01*
X6575Y104757D01*
X6700Y104767D01*
Y104765D01*
Y104762D01*
X6702Y104758D01*
X6703Y104751D01*
X6707Y104736D01*
X6713Y104715D01*
X6721Y104693D01*
X6733Y104669D01*
X6747Y104648D01*
X6764Y104629D01*
X6766Y104627D01*
X6772Y104621D01*
X6783Y104614D01*
X6799Y104606D01*
X6816Y104598D01*
X6837Y104590D01*
X6861Y104585D01*
X6888Y104583D01*
X6896D01*
X6902Y104585D01*
X6919Y104586D01*
X6938Y104592D01*
X6962Y104599D01*
X6986Y104610D01*
X7012Y104627D01*
X7023Y104637D01*
X7034Y104648D01*
X7036Y104650D01*
X7037Y104651D01*
X7040Y104655D01*
X7044Y104660D01*
X7054Y104675D01*
X7065Y104695D01*
X7075Y104719D01*
X7085Y104748D01*
X7092Y104784D01*
X7095Y104802D01*
Y104822D01*
Y104823D01*
Y104826D01*
Y104832D01*
X7093Y104839D01*
Y104847D01*
X7092Y104857D01*
X7088Y104879D01*
X7081Y104906D01*
X7071Y104933D01*
X7057Y104958D01*
X7037Y104982D01*
Y104984D01*
X7034Y104985D01*
X7027Y104992D01*
X7015Y105002D01*
X6998Y105013D01*
X6975Y105023D01*
X6950Y105033D01*
X6920Y105040D01*
X6903Y105043D01*
X6876D01*
X6865Y105042D01*
X6851Y105040D01*
X6834Y105036D01*
X6817Y105032D01*
X6799Y105025D01*
X6780Y105016D01*
X6779Y105015D01*
X6773Y105012D01*
X6765Y105005D01*
X6754Y104998D01*
X6742Y104988D01*
X6731Y104975D01*
X6718Y104963D01*
X6709Y104947D01*
X6596Y104963D01*
X6690Y105465D01*
X7175D01*
Y105350D01*
D02*
G37*
G36*
X6400Y104502D02*
X6263D01*
Y104638D01*
X6400D01*
Y104502D01*
D02*
G37*
G36*
X5784Y105480D02*
X5795Y105479D01*
X5809Y105477D01*
X5825Y105474D01*
X5840Y105472D01*
X5877Y105462D01*
X5914Y105448D01*
X5932Y105439D01*
X5950Y105429D01*
X5967Y105417D01*
X5983Y105402D01*
X5984Y105401D01*
X5987Y105400D01*
X5990Y105394D01*
X5995Y105388D01*
X6002Y105381D01*
X6009Y105371D01*
X6016Y105362D01*
X6025Y105349D01*
X6039Y105322D01*
X6053Y105288D01*
X6059Y105271D01*
X6062Y105252D01*
X6064Y105232D01*
X6066Y105211D01*
Y105208D01*
Y105201D01*
X6064Y105190D01*
X6063Y105174D01*
X6060Y105157D01*
X6055Y105137D01*
X6049Y105116D01*
X6040Y105095D01*
X6039Y105092D01*
X6036Y105085D01*
X6031Y105074D01*
X6022Y105059D01*
X6011Y105042D01*
X5997Y105020D01*
X5980Y104999D01*
X5960Y104975D01*
X5957Y104973D01*
X5950Y104964D01*
X5943Y104957D01*
X5936Y104950D01*
X5928Y104941D01*
X5916Y104930D01*
X5905Y104919D01*
X5891Y104906D01*
X5877Y104892D01*
X5860Y104877D01*
X5842Y104861D01*
X5822Y104843D01*
X5799Y104824D01*
X5777Y104805D01*
X5775Y104803D01*
X5773Y104801D01*
X5767Y104796D01*
X5760Y104791D01*
X5751Y104782D01*
X5742Y104774D01*
X5719Y104755D01*
X5695Y104734D01*
X5672Y104713D01*
X5653Y104695D01*
X5644Y104688D01*
X5637Y104681D01*
X5636Y104679D01*
X5632Y104675D01*
X5626Y104669D01*
X5619Y104661D01*
X5612Y104651D01*
X5603Y104641D01*
X5586Y104617D01*
X6067D01*
Y104502D01*
X5420D01*
Y104503D01*
Y104509D01*
Y104517D01*
X5422Y104528D01*
X5423Y104541D01*
X5426Y104555D01*
X5429Y104569D01*
X5434Y104585D01*
Y104586D01*
X5436Y104588D01*
X5438Y104596D01*
X5444Y104609D01*
X5453Y104626D01*
X5464Y104645D01*
X5478Y104668D01*
X5493Y104691D01*
X5513Y104715D01*
Y104716D01*
X5516Y104717D01*
X5523Y104726D01*
X5536Y104739D01*
X5554Y104757D01*
X5575Y104778D01*
X5602Y104803D01*
X5634Y104832D01*
X5670Y104861D01*
X5671Y104863D01*
X5677Y104867D01*
X5685Y104874D01*
X5695Y104882D01*
X5708Y104894D01*
X5723Y104906D01*
X5739Y104920D01*
X5757Y104936D01*
X5792Y104970D01*
X5828Y105004D01*
X5844Y105020D01*
X5860Y105037D01*
X5874Y105053D01*
X5885Y105068D01*
Y105070D01*
X5888Y105071D01*
X5891Y105075D01*
X5894Y105081D01*
X5904Y105097D01*
X5915Y105115D01*
X5925Y105137D01*
X5935Y105161D01*
X5940Y105188D01*
X5943Y105214D01*
Y105215D01*
Y105216D01*
X5942Y105225D01*
X5940Y105239D01*
X5936Y105254D01*
X5930Y105274D01*
X5921Y105294D01*
X5908Y105314D01*
X5891Y105333D01*
X5888Y105336D01*
X5881Y105342D01*
X5871Y105349D01*
X5856Y105359D01*
X5836Y105367D01*
X5813Y105376D01*
X5787Y105381D01*
X5757Y105383D01*
X5749D01*
X5743Y105381D01*
X5726Y105380D01*
X5706Y105376D01*
X5685Y105370D01*
X5661Y105360D01*
X5639Y105347D01*
X5617Y105331D01*
X5615Y105328D01*
X5609Y105321D01*
X5601Y105309D01*
X5592Y105293D01*
X5582Y105273D01*
X5574Y105247D01*
X5568Y105219D01*
X5565Y105187D01*
X5443Y105199D01*
Y105201D01*
X5444Y105205D01*
Y105212D01*
X5446Y105222D01*
X5448Y105233D01*
X5451Y105246D01*
X5455Y105261D01*
X5460Y105277D01*
X5471Y105311D01*
X5488Y105345D01*
X5498Y105362D01*
X5510Y105379D01*
X5523Y105394D01*
X5537Y105408D01*
X5539Y105410D01*
X5541Y105411D01*
X5546Y105415D01*
X5553Y105419D01*
X5561Y105425D01*
X5571Y105431D01*
X5582Y105438D01*
X5596Y105445D01*
X5612Y105452D01*
X5629Y105459D01*
X5647Y105465D01*
X5667Y105470D01*
X5688Y105474D01*
X5711Y105479D01*
X5734Y105480D01*
X5760Y105481D01*
X5774D01*
X5784Y105480D01*
D02*
G37*
G36*
X5130Y104502D02*
X5010D01*
Y105264D01*
X5009Y105263D01*
X5001Y105257D01*
X4993Y105249D01*
X4979Y105239D01*
X4963Y105226D01*
X4944Y105212D01*
X4921Y105197D01*
X4896Y105181D01*
X4894D01*
X4893Y105180D01*
X4884Y105174D01*
X4870Y105167D01*
X4853Y105159D01*
X4834Y105149D01*
X4813Y105139D01*
X4791Y105129D01*
X4770Y105121D01*
Y105236D01*
X4772D01*
X4774Y105239D01*
X4780Y105240D01*
X4787Y105245D01*
X4796Y105249D01*
X4806Y105254D01*
X4829Y105269D01*
X4858Y105284D01*
X4886Y105304D01*
X4915Y105326D01*
X4945Y105350D01*
X4946Y105352D01*
X4948Y105353D01*
X4952Y105357D01*
X4958Y105362D01*
X4970Y105376D01*
X4987Y105393D01*
X5004Y105412D01*
X5023Y105435D01*
X5038Y105457D01*
X5052Y105481D01*
X5130D01*
Y104502D01*
D02*
G37*
G36*
X50534Y-5498D02*
X50397D01*
Y-5362D01*
X50534D01*
Y-5498D01*
D02*
G37*
G36*
X48505D02*
X48386D01*
Y-4736D01*
X48384Y-4737D01*
X48377Y-4743D01*
X48369Y-4751D01*
X48355Y-4761D01*
X48339Y-4774D01*
X48319Y-4788D01*
X48297Y-4803D01*
X48271Y-4819D01*
X48270D01*
X48269Y-4820D01*
X48260Y-4826D01*
X48246Y-4833D01*
X48229Y-4841D01*
X48209Y-4851D01*
X48188Y-4861D01*
X48167Y-4871D01*
X48146Y-4879D01*
Y-4764D01*
X48147D01*
X48150Y-4761D01*
X48156Y-4760D01*
X48163Y-4755D01*
X48171Y-4751D01*
X48181Y-4746D01*
X48205Y-4731D01*
X48233Y-4716D01*
X48262Y-4696D01*
X48291Y-4674D01*
X48321Y-4650D01*
X48322Y-4648D01*
X48324Y-4647D01*
X48328Y-4643D01*
X48333Y-4638D01*
X48346Y-4624D01*
X48363Y-4607D01*
X48380Y-4588D01*
X48398Y-4565D01*
X48414Y-4543D01*
X48428Y-4519D01*
X48505D01*
Y-5498D01*
D02*
G37*
G36*
X51056Y-4520D02*
X51074Y-4523D01*
X51095Y-4527D01*
X51118Y-4533D01*
X51142Y-4540D01*
X51164Y-4551D01*
X51166D01*
X51167Y-4552D01*
X51174Y-4557D01*
X51185Y-4564D01*
X51199Y-4574D01*
X51215Y-4588D01*
X51232Y-4603D01*
X51247Y-4621D01*
X51263Y-4643D01*
X51264Y-4645D01*
X51270Y-4653D01*
X51276Y-4665D01*
X51285Y-4684D01*
X51294Y-4705D01*
X51305Y-4729D01*
X51315Y-4757D01*
X51323Y-4788D01*
Y-4789D01*
X51325Y-4792D01*
X51326Y-4796D01*
X51328Y-4803D01*
X51329Y-4812D01*
X51331Y-4822D01*
X51333Y-4834D01*
X51335Y-4848D01*
X51338Y-4864D01*
X51339Y-4881D01*
X51340Y-4901D01*
X51343Y-4920D01*
X51345Y-4943D01*
Y-4965D01*
X51346Y-4991D01*
Y-5018D01*
Y-5019D01*
Y-5025D01*
Y-5035D01*
Y-5046D01*
X51345Y-5061D01*
Y-5078D01*
X51343Y-5097D01*
X51342Y-5116D01*
X51338Y-5161D01*
X51331Y-5208D01*
X51322Y-5253D01*
X51316Y-5274D01*
X51309Y-5295D01*
Y-5297D01*
X51308Y-5300D01*
X51305Y-5305D01*
X51302Y-5312D01*
X51299Y-5322D01*
X51294Y-5332D01*
X51283Y-5356D01*
X51268Y-5381D01*
X51250Y-5410D01*
X51229Y-5435D01*
X51204Y-5459D01*
X51202D01*
X51201Y-5462D01*
X51197Y-5464D01*
X51191Y-5467D01*
X51184Y-5472D01*
X51177Y-5477D01*
X51156Y-5487D01*
X51130Y-5497D01*
X51101Y-5507D01*
X51065Y-5512D01*
X51027Y-5515D01*
X51013D01*
X51003Y-5514D01*
X50992Y-5512D01*
X50978Y-5510D01*
X50963Y-5507D01*
X50946Y-5503D01*
X50929Y-5497D01*
X50910Y-5491D01*
X50892Y-5483D01*
X50874Y-5473D01*
X50855Y-5462D01*
X50837Y-5448D01*
X50820Y-5432D01*
X50805Y-5415D01*
X50803Y-5414D01*
X50800Y-5410D01*
X50796Y-5402D01*
X50789Y-5391D01*
X50782Y-5378D01*
X50775Y-5362D01*
X50765Y-5342D01*
X50757Y-5319D01*
X50748Y-5294D01*
X50740Y-5264D01*
X50731Y-5232D01*
X50724Y-5195D01*
X50717Y-5156D01*
X50713Y-5113D01*
X50710Y-5067D01*
X50709Y-5018D01*
Y-5016D01*
Y-5011D01*
Y-5001D01*
Y-4989D01*
X50710Y-4974D01*
Y-4957D01*
X50712Y-4939D01*
X50713Y-4918D01*
X50717Y-4874D01*
X50724Y-4827D01*
X50733Y-4781D01*
X50738Y-4760D01*
X50744Y-4739D01*
Y-4737D01*
X50745Y-4734D01*
X50748Y-4729D01*
X50751Y-4722D01*
X50754Y-4712D01*
X50760Y-4702D01*
X50771Y-4678D01*
X50785Y-4653D01*
X50803Y-4626D01*
X50824Y-4599D01*
X50850Y-4576D01*
X50851D01*
X50853Y-4574D01*
X50857Y-4571D01*
X50862Y-4568D01*
X50870Y-4562D01*
X50878Y-4558D01*
X50899Y-4547D01*
X50925Y-4537D01*
X50954Y-4527D01*
X50989Y-4521D01*
X51027Y-4519D01*
X51040D01*
X51056Y-4520D01*
D02*
G37*
G36*
X49918D02*
X49936Y-4523D01*
X49957Y-4527D01*
X49980Y-4533D01*
X50004Y-4540D01*
X50027Y-4551D01*
X50028D01*
X50029Y-4552D01*
X50036Y-4557D01*
X50048Y-4564D01*
X50062Y-4574D01*
X50077Y-4588D01*
X50094Y-4603D01*
X50110Y-4621D01*
X50125Y-4643D01*
X50127Y-4645D01*
X50132Y-4653D01*
X50138Y-4665D01*
X50148Y-4684D01*
X50156Y-4705D01*
X50167Y-4729D01*
X50177Y-4757D01*
X50186Y-4788D01*
Y-4789D01*
X50187Y-4792D01*
X50189Y-4796D01*
X50190Y-4803D01*
X50191Y-4812D01*
X50193Y-4822D01*
X50196Y-4834D01*
X50197Y-4848D01*
X50200Y-4864D01*
X50201Y-4881D01*
X50203Y-4901D01*
X50206Y-4920D01*
X50207Y-4943D01*
Y-4965D01*
X50208Y-4991D01*
Y-5018D01*
Y-5019D01*
Y-5025D01*
Y-5035D01*
Y-5046D01*
X50207Y-5061D01*
Y-5078D01*
X50206Y-5097D01*
X50204Y-5116D01*
X50200Y-5161D01*
X50193Y-5208D01*
X50184Y-5253D01*
X50179Y-5274D01*
X50172Y-5295D01*
Y-5297D01*
X50170Y-5300D01*
X50167Y-5305D01*
X50165Y-5312D01*
X50162Y-5322D01*
X50156Y-5332D01*
X50145Y-5356D01*
X50131Y-5381D01*
X50113Y-5410D01*
X50091Y-5435D01*
X50066Y-5459D01*
X50065D01*
X50063Y-5462D01*
X50059Y-5464D01*
X50053Y-5467D01*
X50046Y-5472D01*
X50039Y-5477D01*
X50018Y-5487D01*
X49993Y-5497D01*
X49963Y-5507D01*
X49928Y-5512D01*
X49890Y-5515D01*
X49876D01*
X49866Y-5514D01*
X49855Y-5512D01*
X49840Y-5510D01*
X49825Y-5507D01*
X49808Y-5503D01*
X49791Y-5497D01*
X49773Y-5491D01*
X49754Y-5483D01*
X49736Y-5473D01*
X49718Y-5462D01*
X49699Y-5448D01*
X49683Y-5432D01*
X49667Y-5415D01*
X49666Y-5414D01*
X49663Y-5410D01*
X49659Y-5402D01*
X49652Y-5391D01*
X49645Y-5378D01*
X49637Y-5362D01*
X49628Y-5342D01*
X49619Y-5319D01*
X49611Y-5294D01*
X49602Y-5264D01*
X49594Y-5232D01*
X49587Y-5195D01*
X49580Y-5156D01*
X49575Y-5113D01*
X49573Y-5067D01*
X49571Y-5018D01*
Y-5016D01*
Y-5011D01*
Y-5001D01*
Y-4989D01*
X49573Y-4974D01*
Y-4957D01*
X49574Y-4939D01*
X49575Y-4918D01*
X49580Y-4874D01*
X49587Y-4827D01*
X49595Y-4781D01*
X49601Y-4760D01*
X49606Y-4739D01*
Y-4737D01*
X49608Y-4734D01*
X49611Y-4729D01*
X49613Y-4722D01*
X49616Y-4712D01*
X49622Y-4702D01*
X49633Y-4678D01*
X49647Y-4653D01*
X49666Y-4626D01*
X49687Y-4599D01*
X49712Y-4576D01*
X49714D01*
X49715Y-4574D01*
X49719Y-4571D01*
X49725Y-4568D01*
X49732Y-4562D01*
X49740Y-4558D01*
X49762Y-4547D01*
X49787Y-4537D01*
X49816Y-4527D01*
X49852Y-4521D01*
X49890Y-4519D01*
X49902D01*
X49918Y-4520D01*
D02*
G37*
G36*
X49160D02*
X49178Y-4523D01*
X49199Y-4527D01*
X49222Y-4533D01*
X49246Y-4540D01*
X49268Y-4551D01*
X49270D01*
X49271Y-4552D01*
X49278Y-4557D01*
X49289Y-4564D01*
X49303Y-4574D01*
X49319Y-4588D01*
X49336Y-4603D01*
X49351Y-4621D01*
X49367Y-4643D01*
X49368Y-4645D01*
X49374Y-4653D01*
X49379Y-4665D01*
X49389Y-4684D01*
X49398Y-4705D01*
X49409Y-4729D01*
X49419Y-4757D01*
X49427Y-4788D01*
Y-4789D01*
X49429Y-4792D01*
X49430Y-4796D01*
X49432Y-4803D01*
X49433Y-4812D01*
X49434Y-4822D01*
X49437Y-4834D01*
X49439Y-4848D01*
X49442Y-4864D01*
X49443Y-4881D01*
X49444Y-4901D01*
X49447Y-4920D01*
X49449Y-4943D01*
Y-4965D01*
X49450Y-4991D01*
Y-5018D01*
Y-5019D01*
Y-5025D01*
Y-5035D01*
Y-5046D01*
X49449Y-5061D01*
Y-5078D01*
X49447Y-5097D01*
X49446Y-5116D01*
X49442Y-5161D01*
X49434Y-5208D01*
X49426Y-5253D01*
X49420Y-5274D01*
X49413Y-5295D01*
Y-5297D01*
X49412Y-5300D01*
X49409Y-5305D01*
X49406Y-5312D01*
X49403Y-5322D01*
X49398Y-5332D01*
X49387Y-5356D01*
X49372Y-5381D01*
X49354Y-5410D01*
X49333Y-5435D01*
X49308Y-5459D01*
X49306D01*
X49305Y-5462D01*
X49301Y-5464D01*
X49295Y-5467D01*
X49288Y-5472D01*
X49281Y-5477D01*
X49260Y-5487D01*
X49234Y-5497D01*
X49205Y-5507D01*
X49169Y-5512D01*
X49131Y-5515D01*
X49117D01*
X49107Y-5514D01*
X49096Y-5512D01*
X49082Y-5510D01*
X49067Y-5507D01*
X49050Y-5503D01*
X49033Y-5497D01*
X49014Y-5491D01*
X48996Y-5483D01*
X48978Y-5473D01*
X48959Y-5462D01*
X48941Y-5448D01*
X48924Y-5432D01*
X48909Y-5415D01*
X48907Y-5414D01*
X48904Y-5410D01*
X48900Y-5402D01*
X48893Y-5391D01*
X48886Y-5378D01*
X48879Y-5362D01*
X48869Y-5342D01*
X48861Y-5319D01*
X48852Y-5294D01*
X48844Y-5264D01*
X48835Y-5232D01*
X48828Y-5195D01*
X48821Y-5156D01*
X48817Y-5113D01*
X48814Y-5067D01*
X48813Y-5018D01*
Y-5016D01*
Y-5011D01*
Y-5001D01*
Y-4989D01*
X48814Y-4974D01*
Y-4957D01*
X48816Y-4939D01*
X48817Y-4918D01*
X48821Y-4874D01*
X48828Y-4827D01*
X48837Y-4781D01*
X48842Y-4760D01*
X48848Y-4739D01*
Y-4737D01*
X48849Y-4734D01*
X48852Y-4729D01*
X48855Y-4722D01*
X48858Y-4712D01*
X48864Y-4702D01*
X48875Y-4678D01*
X48889Y-4653D01*
X48907Y-4626D01*
X48928Y-4599D01*
X48954Y-4576D01*
X48955D01*
X48957Y-4574D01*
X48961Y-4571D01*
X48966Y-4568D01*
X48973Y-4562D01*
X48982Y-4558D01*
X49003Y-4547D01*
X49028Y-4537D01*
X49058Y-4527D01*
X49093Y-4521D01*
X49131Y-4519D01*
X49144D01*
X49160Y-4520D01*
D02*
G37*
%LPC*%
G36*
X-4939Y68344D02*
X-4982D01*
X-4984D01*
X-4985D01*
X-4992D01*
X-5005D01*
X-5022Y68343D01*
X-5040D01*
X-5063Y68341D01*
X-5087Y68340D01*
X-5113Y68337D01*
X-5167Y68330D01*
X-5194Y68326D01*
X-5219Y68320D01*
X-5243Y68315D01*
X-5266Y68306D01*
X-5285Y68298D01*
X-5302Y68288D01*
X-5304D01*
X-5305Y68285D01*
X-5309Y68282D01*
X-5315Y68278D01*
X-5328Y68265D01*
X-5343Y68250D01*
X-5357Y68229D01*
X-5370Y68205D01*
X-5376Y68192D01*
X-5380Y68178D01*
X-5381Y68162D01*
X-5383Y68147D01*
Y68138D01*
X-5381Y68133D01*
X-5379Y68117D01*
X-5374Y68099D01*
X-5366Y68078D01*
X-5353Y68055D01*
X-5345Y68044D01*
X-5336Y68033D01*
X-5325Y68023D01*
X-5312Y68013D01*
X-5311D01*
X-5308Y68010D01*
X-5302Y68007D01*
X-5295Y68003D01*
X-5284Y67999D01*
X-5271Y67993D01*
X-5256Y67989D01*
X-5238Y67983D01*
X-5216Y67978D01*
X-5192Y67972D01*
X-5166Y67966D01*
X-5136Y67962D01*
X-5102Y67958D01*
X-5066Y67955D01*
X-5026Y67954D01*
X-4982Y67952D01*
X-4980D01*
X-4973D01*
X-4960D01*
X-4943Y67954D01*
X-4925D01*
X-4902Y67955D01*
X-4878Y67956D01*
X-4853Y67959D01*
X-4798Y67966D01*
X-4771Y67971D01*
X-4746Y67976D01*
X-4722Y67982D01*
X-4699Y67990D01*
X-4679Y67999D01*
X-4662Y68009D01*
X-4661D01*
X-4660Y68011D01*
X-4650Y68019D01*
X-4637Y68031D01*
X-4623Y68047D01*
X-4609Y68068D01*
X-4596Y68092D01*
X-4586Y68119D01*
X-4585Y68133D01*
X-4583Y68148D01*
Y68157D01*
X-4585Y68162D01*
X-4588Y68176D01*
X-4593Y68196D01*
X-4603Y68217D01*
X-4617Y68241D01*
X-4626Y68253D01*
X-4637Y68264D01*
X-4648Y68275D01*
X-4662Y68286D01*
X-4664D01*
X-4667Y68289D01*
X-4671Y68292D01*
X-4678Y68295D01*
X-4688Y68300D01*
X-4700Y68305D01*
X-4715Y68310D01*
X-4731Y68316D01*
X-4753Y68320D01*
X-4775Y68326D01*
X-4802Y68331D01*
X-4830Y68336D01*
X-4864Y68339D01*
X-4899Y68341D01*
X-4939Y68344D01*
D02*
G37*
G36*
Y53344D02*
X-4982D01*
X-4984D01*
X-4985D01*
X-4992D01*
X-5005D01*
X-5022Y53343D01*
X-5040D01*
X-5063Y53341D01*
X-5087Y53340D01*
X-5113Y53337D01*
X-5167Y53330D01*
X-5194Y53326D01*
X-5219Y53320D01*
X-5243Y53315D01*
X-5266Y53306D01*
X-5285Y53298D01*
X-5302Y53288D01*
X-5304D01*
X-5305Y53285D01*
X-5309Y53282D01*
X-5315Y53278D01*
X-5328Y53265D01*
X-5343Y53250D01*
X-5357Y53229D01*
X-5370Y53205D01*
X-5376Y53192D01*
X-5380Y53178D01*
X-5381Y53162D01*
X-5383Y53147D01*
Y53138D01*
X-5381Y53133D01*
X-5379Y53117D01*
X-5374Y53099D01*
X-5366Y53078D01*
X-5353Y53055D01*
X-5345Y53044D01*
X-5336Y53033D01*
X-5325Y53023D01*
X-5312Y53013D01*
X-5311D01*
X-5308Y53010D01*
X-5302Y53007D01*
X-5295Y53003D01*
X-5284Y52999D01*
X-5271Y52993D01*
X-5256Y52989D01*
X-5238Y52983D01*
X-5216Y52978D01*
X-5192Y52972D01*
X-5166Y52966D01*
X-5136Y52962D01*
X-5102Y52958D01*
X-5066Y52955D01*
X-5026Y52954D01*
X-4982Y52952D01*
X-4980D01*
X-4973D01*
X-4960D01*
X-4943Y52954D01*
X-4925D01*
X-4902Y52955D01*
X-4878Y52956D01*
X-4853Y52959D01*
X-4798Y52966D01*
X-4771Y52971D01*
X-4746Y52976D01*
X-4722Y52982D01*
X-4699Y52990D01*
X-4679Y52999D01*
X-4662Y53009D01*
X-4661D01*
X-4660Y53011D01*
X-4650Y53019D01*
X-4637Y53031D01*
X-4623Y53047D01*
X-4609Y53068D01*
X-4596Y53092D01*
X-4586Y53119D01*
X-4585Y53133D01*
X-4583Y53148D01*
Y53157D01*
X-4585Y53162D01*
X-4588Y53176D01*
X-4593Y53196D01*
X-4603Y53217D01*
X-4617Y53241D01*
X-4626Y53253D01*
X-4637Y53264D01*
X-4648Y53275D01*
X-4662Y53286D01*
X-4664D01*
X-4667Y53289D01*
X-4671Y53292D01*
X-4678Y53295D01*
X-4688Y53300D01*
X-4700Y53305D01*
X-4715Y53310D01*
X-4731Y53316D01*
X-4753Y53320D01*
X-4775Y53326D01*
X-4802Y53331D01*
X-4830Y53336D01*
X-4864Y53339D01*
X-4899Y53341D01*
X-4939Y53344D01*
D02*
G37*
G36*
Y23410D02*
X-4982D01*
X-4984D01*
X-4985D01*
X-4992D01*
X-5005D01*
X-5022Y23409D01*
X-5040D01*
X-5063Y23408D01*
X-5087Y23406D01*
X-5113Y23403D01*
X-5167Y23396D01*
X-5194Y23392D01*
X-5219Y23386D01*
X-5243Y23381D01*
X-5266Y23372D01*
X-5285Y23364D01*
X-5302Y23354D01*
X-5304D01*
X-5305Y23351D01*
X-5309Y23348D01*
X-5315Y23344D01*
X-5328Y23331D01*
X-5343Y23316D01*
X-5357Y23295D01*
X-5370Y23271D01*
X-5376Y23258D01*
X-5380Y23244D01*
X-5381Y23229D01*
X-5383Y23213D01*
Y23205D01*
X-5381Y23199D01*
X-5379Y23183D01*
X-5374Y23165D01*
X-5366Y23144D01*
X-5353Y23121D01*
X-5345Y23110D01*
X-5336Y23099D01*
X-5325Y23089D01*
X-5312Y23079D01*
X-5311D01*
X-5308Y23076D01*
X-5302Y23073D01*
X-5295Y23069D01*
X-5284Y23065D01*
X-5271Y23059D01*
X-5256Y23055D01*
X-5238Y23050D01*
X-5216Y23044D01*
X-5192Y23038D01*
X-5166Y23033D01*
X-5136Y23028D01*
X-5102Y23024D01*
X-5066Y23021D01*
X-5026Y23020D01*
X-4982Y23019D01*
X-4980D01*
X-4973D01*
X-4960D01*
X-4943Y23020D01*
X-4925D01*
X-4902Y23021D01*
X-4878Y23023D01*
X-4853Y23026D01*
X-4798Y23033D01*
X-4771Y23037D01*
X-4746Y23042D01*
X-4722Y23048D01*
X-4699Y23057D01*
X-4679Y23065D01*
X-4662Y23075D01*
X-4661D01*
X-4660Y23078D01*
X-4650Y23085D01*
X-4637Y23097D01*
X-4623Y23113D01*
X-4609Y23134D01*
X-4596Y23158D01*
X-4586Y23185D01*
X-4585Y23199D01*
X-4583Y23214D01*
Y23223D01*
X-4585Y23229D01*
X-4588Y23243D01*
X-4593Y23262D01*
X-4603Y23284D01*
X-4617Y23308D01*
X-4626Y23319D01*
X-4637Y23330D01*
X-4648Y23341D01*
X-4662Y23353D01*
X-4664D01*
X-4667Y23355D01*
X-4671Y23358D01*
X-4678Y23361D01*
X-4688Y23367D01*
X-4700Y23371D01*
X-4715Y23377D01*
X-4731Y23382D01*
X-4753Y23386D01*
X-4775Y23392D01*
X-4802Y23398D01*
X-4830Y23402D01*
X-4864Y23405D01*
X-4899Y23408D01*
X-4939Y23410D01*
D02*
G37*
G36*
X-4846Y21383D02*
X-5283D01*
X-4846Y21076D01*
Y21383D01*
D02*
G37*
G36*
X-9939Y51223D02*
X-9982D01*
X-9984D01*
X-9985D01*
X-9992D01*
X-10005D01*
X-10022Y51222D01*
X-10040D01*
X-10063Y51221D01*
X-10087Y51219D01*
X-10113Y51216D01*
X-10167Y51209D01*
X-10194Y51205D01*
X-10219Y51199D01*
X-10243Y51194D01*
X-10266Y51185D01*
X-10285Y51177D01*
X-10302Y51167D01*
X-10304D01*
X-10305Y51164D01*
X-10309Y51161D01*
X-10315Y51157D01*
X-10328Y51144D01*
X-10343Y51129D01*
X-10357Y51108D01*
X-10370Y51084D01*
X-10376Y51071D01*
X-10380Y51057D01*
X-10381Y51042D01*
X-10383Y51026D01*
Y51018D01*
X-10381Y51012D01*
X-10379Y50996D01*
X-10374Y50978D01*
X-10366Y50957D01*
X-10353Y50934D01*
X-10345Y50923D01*
X-10336Y50912D01*
X-10325Y50902D01*
X-10312Y50892D01*
X-10311D01*
X-10308Y50889D01*
X-10302Y50886D01*
X-10295Y50882D01*
X-10284Y50878D01*
X-10271Y50872D01*
X-10256Y50868D01*
X-10238Y50862D01*
X-10216Y50857D01*
X-10192Y50851D01*
X-10166Y50846D01*
X-10136Y50841D01*
X-10102Y50837D01*
X-10066Y50834D01*
X-10026Y50833D01*
X-9982Y50831D01*
X-9980D01*
X-9973D01*
X-9960D01*
X-9943Y50833D01*
X-9925D01*
X-9902Y50834D01*
X-9878Y50836D01*
X-9853Y50839D01*
X-9798Y50846D01*
X-9771Y50850D01*
X-9746Y50855D01*
X-9722Y50861D01*
X-9699Y50870D01*
X-9679Y50878D01*
X-9662Y50888D01*
X-9661D01*
X-9660Y50891D01*
X-9650Y50898D01*
X-9637Y50910D01*
X-9623Y50926D01*
X-9609Y50947D01*
X-9596Y50971D01*
X-9586Y50998D01*
X-9585Y51012D01*
X-9583Y51027D01*
Y51036D01*
X-9585Y51042D01*
X-9588Y51056D01*
X-9593Y51075D01*
X-9603Y51096D01*
X-9617Y51120D01*
X-9626Y51132D01*
X-9637Y51143D01*
X-9648Y51154D01*
X-9662Y51166D01*
X-9664D01*
X-9667Y51168D01*
X-9671Y51171D01*
X-9678Y51174D01*
X-9688Y51180D01*
X-9700Y51184D01*
X-9715Y51190D01*
X-9731Y51195D01*
X-9753Y51199D01*
X-9775Y51205D01*
X-9802Y51211D01*
X-9830Y51215D01*
X-9864Y51218D01*
X-9899Y51221D01*
X-9939Y51223D01*
D02*
G37*
G36*
Y50086D02*
X-9982D01*
X-9984D01*
X-9985D01*
X-9992D01*
X-10005D01*
X-10022Y50084D01*
X-10040D01*
X-10063Y50083D01*
X-10087Y50082D01*
X-10113Y50079D01*
X-10167Y50072D01*
X-10194Y50067D01*
X-10219Y50062D01*
X-10243Y50056D01*
X-10266Y50048D01*
X-10285Y50039D01*
X-10302Y50029D01*
X-10304D01*
X-10305Y50027D01*
X-10309Y50024D01*
X-10315Y50019D01*
X-10328Y50007D01*
X-10343Y49991D01*
X-10357Y49970D01*
X-10370Y49946D01*
X-10376Y49933D01*
X-10380Y49919D01*
X-10381Y49904D01*
X-10383Y49888D01*
Y49880D01*
X-10381Y49874D01*
X-10379Y49859D01*
X-10374Y49840D01*
X-10366Y49819D01*
X-10353Y49797D01*
X-10345Y49785D01*
X-10336Y49774D01*
X-10325Y49764D01*
X-10312Y49754D01*
X-10311D01*
X-10308Y49752D01*
X-10302Y49749D01*
X-10295Y49745D01*
X-10284Y49740D01*
X-10271Y49735D01*
X-10256Y49730D01*
X-10238Y49725D01*
X-10216Y49719D01*
X-10192Y49714D01*
X-10166Y49708D01*
X-10136Y49704D01*
X-10102Y49699D01*
X-10066Y49697D01*
X-10026Y49695D01*
X-9982Y49694D01*
X-9980D01*
X-9973D01*
X-9960D01*
X-9943Y49695D01*
X-9925D01*
X-9902Y49697D01*
X-9878Y49698D01*
X-9853Y49701D01*
X-9798Y49708D01*
X-9771Y49712D01*
X-9746Y49718D01*
X-9722Y49723D01*
X-9699Y49732D01*
X-9679Y49740D01*
X-9662Y49750D01*
X-9661D01*
X-9660Y49753D01*
X-9650Y49760D01*
X-9637Y49773D01*
X-9623Y49788D01*
X-9609Y49809D01*
X-9596Y49833D01*
X-9586Y49860D01*
X-9585Y49874D01*
X-9583Y49890D01*
Y49898D01*
X-9585Y49904D01*
X-9588Y49918D01*
X-9593Y49938D01*
X-9603Y49959D01*
X-9617Y49983D01*
X-9626Y49994D01*
X-9637Y50005D01*
X-9648Y50017D01*
X-9662Y50028D01*
X-9664D01*
X-9667Y50031D01*
X-9671Y50034D01*
X-9678Y50036D01*
X-9688Y50042D01*
X-9700Y50046D01*
X-9715Y50052D01*
X-9731Y50058D01*
X-9753Y50062D01*
X-9775Y50067D01*
X-9802Y50073D01*
X-9830Y50077D01*
X-9864Y50080D01*
X-9899Y50083D01*
X-9939Y50086D01*
D02*
G37*
G36*
Y49327D02*
X-9982D01*
X-9984D01*
X-9985D01*
X-9992D01*
X-10005D01*
X-10022Y49326D01*
X-10040D01*
X-10063Y49325D01*
X-10087Y49323D01*
X-10113Y49320D01*
X-10167Y49313D01*
X-10194Y49309D01*
X-10219Y49303D01*
X-10243Y49298D01*
X-10266Y49289D01*
X-10285Y49281D01*
X-10302Y49271D01*
X-10304D01*
X-10305Y49268D01*
X-10309Y49265D01*
X-10315Y49261D01*
X-10328Y49248D01*
X-10343Y49233D01*
X-10357Y49212D01*
X-10370Y49188D01*
X-10376Y49175D01*
X-10380Y49161D01*
X-10381Y49145D01*
X-10383Y49130D01*
Y49121D01*
X-10381Y49116D01*
X-10379Y49100D01*
X-10374Y49082D01*
X-10366Y49061D01*
X-10353Y49038D01*
X-10345Y49027D01*
X-10336Y49016D01*
X-10325Y49006D01*
X-10312Y48996D01*
X-10311D01*
X-10308Y48993D01*
X-10302Y48990D01*
X-10295Y48986D01*
X-10284Y48982D01*
X-10271Y48976D01*
X-10256Y48972D01*
X-10238Y48966D01*
X-10216Y48961D01*
X-10192Y48955D01*
X-10166Y48950D01*
X-10136Y48945D01*
X-10102Y48941D01*
X-10066Y48938D01*
X-10026Y48937D01*
X-9982Y48935D01*
X-9980D01*
X-9973D01*
X-9960D01*
X-9943Y48937D01*
X-9925D01*
X-9902Y48938D01*
X-9878Y48940D01*
X-9853Y48942D01*
X-9798Y48950D01*
X-9771Y48954D01*
X-9746Y48959D01*
X-9722Y48965D01*
X-9699Y48973D01*
X-9679Y48982D01*
X-9662Y48992D01*
X-9661D01*
X-9660Y48995D01*
X-9650Y49002D01*
X-9637Y49014D01*
X-9623Y49030D01*
X-9609Y49051D01*
X-9596Y49075D01*
X-9586Y49102D01*
X-9585Y49116D01*
X-9583Y49131D01*
Y49140D01*
X-9585Y49145D01*
X-9588Y49160D01*
X-9593Y49179D01*
X-9603Y49200D01*
X-9617Y49224D01*
X-9626Y49236D01*
X-9637Y49247D01*
X-9648Y49258D01*
X-9662Y49270D01*
X-9664D01*
X-9667Y49272D01*
X-9671Y49275D01*
X-9678Y49278D01*
X-9688Y49284D01*
X-9700Y49288D01*
X-9715Y49293D01*
X-9731Y49299D01*
X-9753Y49303D01*
X-9775Y49309D01*
X-9802Y49315D01*
X-9830Y49319D01*
X-9864Y49322D01*
X-9899Y49325D01*
X-9939Y49327D01*
D02*
G37*
G36*
X105061Y98011D02*
X105018D01*
X105016D01*
X105015D01*
X105008D01*
X104995D01*
X104978Y98009D01*
X104960D01*
X104937Y98008D01*
X104913Y98007D01*
X104887Y98004D01*
X104833Y97997D01*
X104806Y97992D01*
X104781Y97987D01*
X104757Y97981D01*
X104734Y97973D01*
X104715Y97964D01*
X104698Y97954D01*
X104696D01*
X104695Y97952D01*
X104691Y97949D01*
X104685Y97945D01*
X104672Y97932D01*
X104657Y97916D01*
X104643Y97895D01*
X104630Y97871D01*
X104624Y97859D01*
X104620Y97844D01*
X104619Y97829D01*
X104617Y97813D01*
Y97805D01*
X104619Y97799D01*
X104621Y97784D01*
X104626Y97765D01*
X104634Y97744D01*
X104647Y97722D01*
X104655Y97711D01*
X104664Y97699D01*
X104675Y97689D01*
X104688Y97679D01*
X104689D01*
X104692Y97677D01*
X104698Y97674D01*
X104705Y97670D01*
X104716Y97665D01*
X104729Y97660D01*
X104744Y97656D01*
X104762Y97650D01*
X104784Y97644D01*
X104808Y97639D01*
X104834Y97633D01*
X104864Y97629D01*
X104898Y97624D01*
X104934Y97622D01*
X104974Y97620D01*
X105018Y97619D01*
X105020D01*
X105027D01*
X105040D01*
X105057Y97620D01*
X105075D01*
X105098Y97622D01*
X105122Y97623D01*
X105147Y97626D01*
X105202Y97633D01*
X105229Y97637D01*
X105254Y97643D01*
X105278Y97648D01*
X105301Y97657D01*
X105321Y97665D01*
X105338Y97675D01*
X105339D01*
X105340Y97678D01*
X105350Y97685D01*
X105363Y97698D01*
X105377Y97713D01*
X105391Y97734D01*
X105404Y97758D01*
X105414Y97785D01*
X105415Y97799D01*
X105417Y97815D01*
Y97823D01*
X105415Y97829D01*
X105412Y97843D01*
X105407Y97863D01*
X105397Y97884D01*
X105383Y97908D01*
X105374Y97919D01*
X105363Y97930D01*
X105352Y97942D01*
X105338Y97953D01*
X105336D01*
X105333Y97956D01*
X105329Y97959D01*
X105322Y97961D01*
X105312Y97967D01*
X105300Y97971D01*
X105285Y97977D01*
X105269Y97983D01*
X105247Y97987D01*
X105225Y97992D01*
X105198Y97998D01*
X105170Y98002D01*
X105136Y98005D01*
X105101Y98008D01*
X105061Y98011D01*
D02*
G37*
G36*
X97813Y105383D02*
X97805D01*
X97799Y105381D01*
X97784Y105379D01*
X97765Y105374D01*
X97744Y105366D01*
X97722Y105353D01*
X97710Y105345D01*
X97699Y105336D01*
X97689Y105325D01*
X97679Y105312D01*
Y105311D01*
X97677Y105308D01*
X97674Y105302D01*
X97670Y105295D01*
X97665Y105284D01*
X97660Y105271D01*
X97656Y105256D01*
X97650Y105238D01*
X97644Y105216D01*
X97639Y105192D01*
X97633Y105166D01*
X97629Y105136D01*
X97624Y105102D01*
X97622Y105066D01*
X97620Y105026D01*
X97619Y104982D01*
Y104980D01*
Y104973D01*
Y104960D01*
X97620Y104943D01*
Y104925D01*
X97622Y104902D01*
X97623Y104878D01*
X97626Y104853D01*
X97633Y104798D01*
X97637Y104771D01*
X97643Y104746D01*
X97648Y104722D01*
X97657Y104699D01*
X97665Y104679D01*
X97675Y104662D01*
Y104661D01*
X97678Y104660D01*
X97685Y104650D01*
X97698Y104637D01*
X97713Y104623D01*
X97734Y104609D01*
X97758Y104596D01*
X97785Y104586D01*
X97799Y104585D01*
X97815Y104583D01*
X97823D01*
X97829Y104585D01*
X97843Y104588D01*
X97863Y104593D01*
X97884Y104603D01*
X97908Y104617D01*
X97919Y104626D01*
X97930Y104637D01*
X97942Y104648D01*
X97953Y104662D01*
Y104664D01*
X97956Y104667D01*
X97959Y104671D01*
X97961Y104678D01*
X97967Y104688D01*
X97971Y104700D01*
X97977Y104715D01*
X97983Y104731D01*
X97987Y104753D01*
X97992Y104775D01*
X97998Y104802D01*
X98002Y104830D01*
X98005Y104864D01*
X98008Y104899D01*
X98011Y104939D01*
Y104982D01*
Y104984D01*
Y104985D01*
Y104992D01*
Y105005D01*
X98009Y105022D01*
Y105040D01*
X98008Y105063D01*
X98007Y105087D01*
X98004Y105113D01*
X97997Y105167D01*
X97992Y105194D01*
X97987Y105219D01*
X97981Y105243D01*
X97973Y105266D01*
X97964Y105285D01*
X97954Y105302D01*
Y105304D01*
X97952Y105305D01*
X97949Y105309D01*
X97945Y105315D01*
X97932Y105328D01*
X97916Y105343D01*
X97895Y105357D01*
X97871Y105370D01*
X97859Y105376D01*
X97844Y105380D01*
X97829Y105381D01*
X97813Y105383D01*
D02*
G37*
G36*
X51026Y-4617D02*
X51018D01*
X51012Y-4619D01*
X50996Y-4621D01*
X50978Y-4626D01*
X50957Y-4634D01*
X50934Y-4647D01*
X50923Y-4655D01*
X50912Y-4664D01*
X50902Y-4675D01*
X50892Y-4688D01*
Y-4689D01*
X50889Y-4692D01*
X50886Y-4698D01*
X50882Y-4705D01*
X50878Y-4716D01*
X50872Y-4729D01*
X50868Y-4744D01*
X50862Y-4762D01*
X50857Y-4784D01*
X50851Y-4808D01*
X50846Y-4834D01*
X50841Y-4864D01*
X50837Y-4898D01*
X50834Y-4934D01*
X50833Y-4974D01*
X50831Y-5018D01*
Y-5020D01*
Y-5027D01*
Y-5040D01*
X50833Y-5057D01*
Y-5075D01*
X50834Y-5098D01*
X50836Y-5122D01*
X50839Y-5147D01*
X50846Y-5202D01*
X50850Y-5229D01*
X50855Y-5254D01*
X50861Y-5278D01*
X50870Y-5301D01*
X50878Y-5321D01*
X50888Y-5338D01*
Y-5339D01*
X50891Y-5340D01*
X50898Y-5350D01*
X50910Y-5363D01*
X50926Y-5377D01*
X50947Y-5391D01*
X50971Y-5404D01*
X50998Y-5414D01*
X51012Y-5415D01*
X51027Y-5417D01*
X51036D01*
X51042Y-5415D01*
X51056Y-5412D01*
X51075Y-5407D01*
X51096Y-5397D01*
X51120Y-5383D01*
X51132Y-5374D01*
X51143Y-5363D01*
X51154Y-5352D01*
X51166Y-5338D01*
Y-5336D01*
X51168Y-5333D01*
X51171Y-5329D01*
X51174Y-5322D01*
X51180Y-5312D01*
X51184Y-5300D01*
X51190Y-5285D01*
X51195Y-5269D01*
X51199Y-5247D01*
X51205Y-5225D01*
X51211Y-5198D01*
X51215Y-5170D01*
X51218Y-5136D01*
X51221Y-5101D01*
X51223Y-5061D01*
Y-5018D01*
Y-5016D01*
Y-5015D01*
Y-5008D01*
Y-4995D01*
X51222Y-4978D01*
Y-4960D01*
X51221Y-4937D01*
X51219Y-4913D01*
X51216Y-4887D01*
X51209Y-4833D01*
X51205Y-4806D01*
X51199Y-4781D01*
X51194Y-4757D01*
X51185Y-4734D01*
X51177Y-4715D01*
X51167Y-4698D01*
Y-4696D01*
X51164Y-4695D01*
X51161Y-4691D01*
X51157Y-4685D01*
X51144Y-4672D01*
X51129Y-4657D01*
X51108Y-4643D01*
X51084Y-4630D01*
X51071Y-4624D01*
X51057Y-4620D01*
X51042Y-4619D01*
X51026Y-4617D01*
D02*
G37*
G36*
X49888D02*
X49880D01*
X49874Y-4619D01*
X49859Y-4621D01*
X49840Y-4626D01*
X49819Y-4634D01*
X49797Y-4647D01*
X49785Y-4655D01*
X49774Y-4664D01*
X49764Y-4675D01*
X49754Y-4688D01*
Y-4689D01*
X49752Y-4692D01*
X49749Y-4698D01*
X49745Y-4705D01*
X49740Y-4716D01*
X49735Y-4729D01*
X49730Y-4744D01*
X49725Y-4762D01*
X49719Y-4784D01*
X49714Y-4808D01*
X49708Y-4834D01*
X49704Y-4864D01*
X49699Y-4898D01*
X49697Y-4934D01*
X49695Y-4974D01*
X49694Y-5018D01*
Y-5020D01*
Y-5027D01*
Y-5040D01*
X49695Y-5057D01*
Y-5075D01*
X49697Y-5098D01*
X49698Y-5122D01*
X49701Y-5147D01*
X49708Y-5202D01*
X49712Y-5229D01*
X49718Y-5254D01*
X49723Y-5278D01*
X49732Y-5301D01*
X49740Y-5321D01*
X49750Y-5338D01*
Y-5339D01*
X49753Y-5340D01*
X49760Y-5350D01*
X49773Y-5363D01*
X49788Y-5377D01*
X49809Y-5391D01*
X49833Y-5404D01*
X49860Y-5414D01*
X49874Y-5415D01*
X49890Y-5417D01*
X49898D01*
X49904Y-5415D01*
X49918Y-5412D01*
X49938Y-5407D01*
X49959Y-5397D01*
X49983Y-5383D01*
X49994Y-5374D01*
X50005Y-5363D01*
X50017Y-5352D01*
X50028Y-5338D01*
Y-5336D01*
X50031Y-5333D01*
X50034Y-5329D01*
X50036Y-5322D01*
X50042Y-5312D01*
X50046Y-5300D01*
X50052Y-5285D01*
X50058Y-5269D01*
X50062Y-5247D01*
X50067Y-5225D01*
X50073Y-5198D01*
X50077Y-5170D01*
X50080Y-5136D01*
X50083Y-5101D01*
X50086Y-5061D01*
Y-5018D01*
Y-5016D01*
Y-5015D01*
Y-5008D01*
Y-4995D01*
X50084Y-4978D01*
Y-4960D01*
X50083Y-4937D01*
X50082Y-4913D01*
X50079Y-4887D01*
X50072Y-4833D01*
X50067Y-4806D01*
X50062Y-4781D01*
X50056Y-4757D01*
X50048Y-4734D01*
X50039Y-4715D01*
X50029Y-4698D01*
Y-4696D01*
X50027Y-4695D01*
X50024Y-4691D01*
X50019Y-4685D01*
X50007Y-4672D01*
X49991Y-4657D01*
X49970Y-4643D01*
X49946Y-4630D01*
X49933Y-4624D01*
X49919Y-4620D01*
X49904Y-4619D01*
X49888Y-4617D01*
D02*
G37*
G36*
X49130D02*
X49121D01*
X49116Y-4619D01*
X49100Y-4621D01*
X49082Y-4626D01*
X49061Y-4634D01*
X49038Y-4647D01*
X49027Y-4655D01*
X49016Y-4664D01*
X49006Y-4675D01*
X48996Y-4688D01*
Y-4689D01*
X48993Y-4692D01*
X48990Y-4698D01*
X48986Y-4705D01*
X48982Y-4716D01*
X48976Y-4729D01*
X48972Y-4744D01*
X48966Y-4762D01*
X48961Y-4784D01*
X48955Y-4808D01*
X48950Y-4834D01*
X48945Y-4864D01*
X48941Y-4898D01*
X48938Y-4934D01*
X48937Y-4974D01*
X48935Y-5018D01*
Y-5020D01*
Y-5027D01*
Y-5040D01*
X48937Y-5057D01*
Y-5075D01*
X48938Y-5098D01*
X48940Y-5122D01*
X48942Y-5147D01*
X48950Y-5202D01*
X48954Y-5229D01*
X48959Y-5254D01*
X48965Y-5278D01*
X48973Y-5301D01*
X48982Y-5321D01*
X48992Y-5338D01*
Y-5339D01*
X48995Y-5340D01*
X49002Y-5350D01*
X49014Y-5363D01*
X49030Y-5377D01*
X49051Y-5391D01*
X49075Y-5404D01*
X49102Y-5414D01*
X49116Y-5415D01*
X49131Y-5417D01*
X49140D01*
X49145Y-5415D01*
X49160Y-5412D01*
X49179Y-5407D01*
X49200Y-5397D01*
X49224Y-5383D01*
X49236Y-5374D01*
X49247Y-5363D01*
X49258Y-5352D01*
X49270Y-5338D01*
Y-5336D01*
X49272Y-5333D01*
X49275Y-5329D01*
X49278Y-5322D01*
X49284Y-5312D01*
X49288Y-5300D01*
X49293Y-5285D01*
X49299Y-5269D01*
X49303Y-5247D01*
X49309Y-5225D01*
X49315Y-5198D01*
X49319Y-5170D01*
X49322Y-5136D01*
X49325Y-5101D01*
X49327Y-5061D01*
Y-5018D01*
Y-5016D01*
Y-5015D01*
Y-5008D01*
Y-4995D01*
X49326Y-4978D01*
Y-4960D01*
X49325Y-4937D01*
X49323Y-4913D01*
X49320Y-4887D01*
X49313Y-4833D01*
X49309Y-4806D01*
X49303Y-4781D01*
X49298Y-4757D01*
X49289Y-4734D01*
X49281Y-4715D01*
X49271Y-4698D01*
Y-4696D01*
X49268Y-4695D01*
X49265Y-4691D01*
X49261Y-4685D01*
X49248Y-4672D01*
X49233Y-4657D01*
X49212Y-4643D01*
X49188Y-4630D01*
X49175Y-4624D01*
X49161Y-4620D01*
X49145Y-4619D01*
X49130Y-4617D01*
D02*
G37*
%LPD*%
D64*
X-5508Y61524D02*
X-5000Y60000D01*
X-4492Y61524D01*
X-5000Y75000D02*
X-4492Y73476D01*
X-5508D02*
X-5000Y75000D01*
Y60000D02*
Y65771D01*
Y68721D02*
Y75000D01*
X-5254Y60000D02*
X12500D01*
X-5254Y75000D02*
X12500D01*
X-5508Y46524D02*
X-5000Y45000D01*
X-4492Y46524D01*
X-5000Y60000D02*
X-4492Y58476D01*
X-5508D02*
X-5000Y60000D01*
Y45000D02*
Y50771D01*
Y53721D02*
Y60000D01*
X-5254Y45000D02*
X12500D01*
X-5254Y60000D02*
X12500D01*
X-5508Y1524D02*
X-5000Y0D01*
X-4492Y1524D01*
X-5000Y45000D02*
X-4492Y43476D01*
X-5508D02*
X-5000Y45000D01*
Y0D02*
Y20705D01*
Y23787D02*
Y45000D01*
X-5254Y0D02*
X-381D01*
X-5254Y45000D02*
X12500D01*
X-10508Y1524D02*
X-10000Y0D01*
X-9492Y1524D01*
X-10000Y100000D02*
X-9492Y98476D01*
X-10508D02*
X-10000Y100000D01*
Y0D02*
Y47892D01*
Y51600D02*
Y100000D01*
X-10254Y0D02*
X-381D01*
X-10254Y100000D02*
X-381D01*
X104492Y96524D02*
X105000Y95000D01*
X105508Y96524D01*
X105000Y100000D02*
X105508Y98476D01*
X104492D02*
X105000Y100000D01*
Y95000D02*
Y96105D01*
Y98387D02*
Y100000D01*
X95000Y95000D02*
X105254D01*
X100381Y100000D02*
X105254D01*
X98476Y104492D02*
X100000Y105000D01*
X98476Y105508D02*
X100000Y105000D01*
X95000D02*
X96524Y105508D01*
X95000Y105000D02*
X96524Y104492D01*
X98387Y105000D02*
X100000D01*
X95000D02*
X96105D01*
X100000Y100381D02*
Y105254D01*
X95000Y95000D02*
Y105254D01*
X-0Y105000D02*
X1524Y105508D01*
X-0Y105000D02*
X1524Y104492D01*
X10976D02*
X12500Y105000D01*
X10976Y105508D02*
X12500Y105000D01*
X-0D02*
X4516D01*
X7476D02*
X12500D01*
X-0Y100381D02*
Y105254D01*
X12500Y45000D02*
Y105254D01*
X0Y-5000D02*
X1524Y-4492D01*
X0Y-5000D02*
X1524Y-5508D01*
X98476D02*
X100000Y-5000D01*
X98476Y-4492D02*
X100000Y-5000D01*
X0D02*
X47892D01*
X51600D02*
X100000D01*
X0Y-5254D02*
Y-381D01*
X100000Y-5254D02*
Y-381D01*
%TF.MD5,2e8cad08eaad17e36148edd02f13c5e8*%
M02*
