%TF.GenerationSoftware,Altium Limited,Altium Designer,22.7.1 (60)*%
G04 Layer_Color=65535*
%FSLAX43Y43*%
%MOMM*%
%TF.SameCoordinates,2B380584-264C-487A-9C59-0A3591007A03*%
%TF.FilePolarity,Positive*%
%TF.FileFunction,Legend,Top*%
%TF.Part,Single*%
G01*
G75*
%TA.AperFunction,NonConductor*%
%ADD64C,0.254*%
%ADD65C,0.102*%
%ADD66C,0.600*%
%ADD67C,0.250*%
%ADD68C,0.200*%
%ADD69C,0.127*%
%ADD70C,0.100*%
%ADD71C,0.152*%
%ADD72R,1.200X0.200*%
G36*
X20726Y90881D02*
Y90678D01*
Y90475D01*
Y90272D01*
Y90068D01*
Y89865D01*
Y89662D01*
Y89459D01*
Y89256D01*
Y89052D01*
Y88849D01*
Y88646D01*
X19914D01*
Y88849D01*
Y89052D01*
Y89256D01*
Y89459D01*
Y89662D01*
Y89865D01*
Y90068D01*
Y90272D01*
X17069D01*
Y90068D01*
Y89865D01*
Y89662D01*
Y89459D01*
Y89256D01*
Y89052D01*
Y88849D01*
Y88646D01*
X16256D01*
Y88849D01*
Y89052D01*
Y89256D01*
Y89459D01*
Y89662D01*
Y89865D01*
Y90068D01*
Y90272D01*
Y90475D01*
Y90678D01*
Y90881D01*
Y91084D01*
X20726D01*
Y90881D01*
D02*
G37*
G36*
X15240Y89052D02*
Y88849D01*
Y88646D01*
X12598D01*
Y88849D01*
Y89052D01*
Y89256D01*
X15240D01*
Y89052D01*
D02*
G37*
G36*
X25197Y90881D02*
X25603D01*
Y90678D01*
X25806D01*
Y90475D01*
X26010D01*
Y90272D01*
Y90068D01*
Y89865D01*
Y89662D01*
X26213D01*
Y89459D01*
Y89256D01*
Y89052D01*
Y88849D01*
Y88646D01*
Y88443D01*
Y88240D01*
Y88036D01*
Y87833D01*
Y87630D01*
Y87427D01*
Y87224D01*
Y87020D01*
Y86817D01*
X25400D01*
Y87020D01*
Y87224D01*
Y87427D01*
Y87630D01*
Y87833D01*
Y88036D01*
Y88240D01*
Y88443D01*
Y88646D01*
Y88849D01*
Y89052D01*
Y89256D01*
Y89459D01*
Y89662D01*
X25197D01*
Y89865D01*
Y90068D01*
X24994D01*
Y90272D01*
X22555D01*
Y90068D01*
Y89865D01*
Y89662D01*
Y89459D01*
Y89256D01*
Y89052D01*
Y88849D01*
Y88646D01*
Y88443D01*
Y88240D01*
Y88036D01*
Y87833D01*
Y87630D01*
Y87427D01*
Y87224D01*
Y87020D01*
Y86817D01*
X21742D01*
Y87020D01*
Y87224D01*
Y87427D01*
Y87630D01*
Y87833D01*
Y88036D01*
Y88240D01*
Y88443D01*
Y88646D01*
Y88849D01*
Y89052D01*
Y89256D01*
Y89459D01*
Y89662D01*
Y89865D01*
Y90068D01*
Y90272D01*
Y90475D01*
Y90678D01*
Y90881D01*
Y91084D01*
X25197D01*
Y90881D01*
D02*
G37*
G36*
X24181Y89052D02*
X24384D01*
Y88849D01*
Y88646D01*
Y88443D01*
Y88240D01*
Y88036D01*
Y87833D01*
Y87630D01*
Y87427D01*
Y87224D01*
Y87020D01*
Y86817D01*
X23571D01*
Y87020D01*
Y87224D01*
Y87427D01*
Y87630D01*
Y87833D01*
Y88036D01*
Y88240D01*
Y88443D01*
Y88646D01*
Y88849D01*
Y89052D01*
Y89256D01*
X24181D01*
Y89052D01*
D02*
G37*
G36*
X18898D02*
Y88849D01*
Y88646D01*
Y88443D01*
Y88240D01*
Y88036D01*
Y87833D01*
Y87630D01*
Y87427D01*
Y87224D01*
Y87020D01*
Y86817D01*
X18085D01*
Y87020D01*
Y87224D01*
Y87427D01*
Y87630D01*
Y87833D01*
Y88036D01*
Y88240D01*
Y88443D01*
Y88646D01*
Y88849D01*
Y89052D01*
Y89256D01*
X18898D01*
Y89052D01*
D02*
G37*
G36*
X15240Y90881D02*
Y90678D01*
Y90475D01*
Y90272D01*
X11582D01*
Y90068D01*
Y89865D01*
Y89662D01*
Y89459D01*
Y89256D01*
Y89052D01*
Y88849D01*
Y88646D01*
Y88443D01*
Y88240D01*
Y88036D01*
X11786D01*
Y87833D01*
X11989D01*
Y87630D01*
X15240D01*
Y87427D01*
Y87224D01*
Y87020D01*
Y86817D01*
X11786D01*
Y87020D01*
X11379D01*
Y87224D01*
X11176D01*
Y87427D01*
X10973D01*
Y87630D01*
X10770D01*
Y87833D01*
Y88036D01*
Y88240D01*
Y88443D01*
X10566D01*
Y88646D01*
Y88849D01*
Y89052D01*
Y89256D01*
Y89459D01*
Y89662D01*
Y89865D01*
Y90068D01*
Y90272D01*
Y90475D01*
Y90678D01*
Y90881D01*
Y91084D01*
X15240D01*
Y90881D01*
D02*
G37*
G36*
X42875D02*
Y90678D01*
Y90475D01*
Y90272D01*
X38811D01*
Y90475D01*
X39014D01*
Y90678D01*
Y90881D01*
X39421D01*
Y91084D01*
X42875D01*
Y90881D01*
D02*
G37*
G36*
X37795Y89052D02*
Y88849D01*
Y88646D01*
X35154D01*
Y88849D01*
Y89052D01*
Y89256D01*
X37795D01*
Y89052D01*
D02*
G37*
G36*
X32512D02*
Y88849D01*
Y88646D01*
Y88443D01*
X30480D01*
Y88646D01*
Y88849D01*
Y89052D01*
Y89256D01*
X32512D01*
Y89052D01*
D02*
G37*
G36*
X42875Y89256D02*
Y89052D01*
Y88849D01*
Y88646D01*
Y88443D01*
Y88240D01*
Y88036D01*
Y87833D01*
Y87630D01*
Y87427D01*
Y87224D01*
X42672D01*
Y87020D01*
X42469D01*
Y86817D01*
X38811D01*
Y87020D01*
Y87224D01*
Y87427D01*
Y87630D01*
X42062D01*
Y87833D01*
Y88036D01*
Y88240D01*
Y88443D01*
Y88646D01*
X38811D01*
Y88849D01*
Y89052D01*
Y89256D01*
Y89459D01*
X42875D01*
Y89256D01*
D02*
G37*
G36*
X37795Y90881D02*
Y90678D01*
Y90475D01*
Y90272D01*
X34138D01*
Y90068D01*
Y89865D01*
Y89662D01*
Y89459D01*
Y89256D01*
Y89052D01*
Y88849D01*
Y88646D01*
Y88443D01*
Y88240D01*
X34341D01*
Y88036D01*
Y87833D01*
X34747D01*
Y87630D01*
X37795D01*
Y87427D01*
Y87224D01*
Y87020D01*
Y86817D01*
X34341D01*
Y87020D01*
X33934D01*
Y87224D01*
X33731D01*
Y87427D01*
Y87630D01*
X33528D01*
Y87833D01*
Y88036D01*
Y88240D01*
X33325D01*
Y88443D01*
Y88646D01*
Y88849D01*
Y89052D01*
Y89256D01*
Y89459D01*
Y89662D01*
Y89865D01*
Y90068D01*
Y90272D01*
Y90475D01*
Y90678D01*
Y90881D01*
Y91084D01*
X37795D01*
Y90881D01*
D02*
G37*
G36*
X27432D02*
Y90678D01*
Y90475D01*
Y90272D01*
Y90068D01*
Y89865D01*
Y89662D01*
Y89459D01*
Y89256D01*
Y89052D01*
Y88849D01*
Y88646D01*
Y88443D01*
Y88240D01*
X27635D01*
Y88036D01*
Y87833D01*
X27838D01*
Y87630D01*
X30074D01*
Y87427D01*
Y87224D01*
Y87020D01*
Y86817D01*
X27229D01*
Y87020D01*
X27026D01*
Y87224D01*
X26822D01*
Y87427D01*
Y87630D01*
Y87833D01*
X26619D01*
Y88036D01*
Y88240D01*
Y88443D01*
Y88646D01*
Y88849D01*
Y89052D01*
Y89256D01*
Y89459D01*
Y89662D01*
Y89865D01*
Y90068D01*
Y90272D01*
Y90475D01*
Y90678D01*
Y90881D01*
Y91084D01*
X27432D01*
Y90881D01*
D02*
G37*
D64*
X93670Y13120D02*
G03*
X93670Y13120I-120J0D01*
G01*
X17526Y24130D02*
G03*
X17526Y24130I-5969J0D01*
G01*
X6000Y81500D02*
X19000D01*
X6000Y68500D02*
X19000D01*
Y81500D01*
X6000Y68500D02*
Y81500D01*
Y66500D02*
X19000D01*
X6000Y53500D02*
X19000D01*
Y66500D01*
X6000Y53500D02*
Y66500D01*
Y51500D02*
X19000D01*
X6000Y38500D02*
X19000D01*
Y51500D01*
X6000Y38500D02*
Y51500D01*
X96500Y21500D02*
Y34500D01*
X83500Y21500D02*
Y34500D01*
Y21500D02*
X96500D01*
X83500Y34500D02*
X96500D01*
X10342Y97858D02*
X9543D01*
Y97258D01*
X9943D01*
X9543D01*
Y96658D01*
X10742Y96458D02*
X11542D01*
X11942Y97858D02*
X12742D01*
X12342D01*
Y96658D01*
X13141Y97858D02*
Y96658D01*
X13941D01*
X87574Y3853D02*
X86775D01*
Y3253D01*
X87174D01*
X86775D01*
Y2653D01*
X87974Y2453D02*
X88774D01*
X89174Y3853D02*
Y2653D01*
X89774D01*
X89974Y2853D01*
Y3053D01*
X89774Y3253D01*
X89174D01*
X89774D01*
X89974Y3453D01*
Y3653D01*
X89774Y3853D01*
X89174D01*
X90373Y2653D02*
Y3853D01*
X90973D01*
X91173Y3653D01*
Y3253D01*
X90973Y3053D01*
X90373D01*
X90773D02*
X91173Y2653D01*
X63297Y74244D02*
Y75444D01*
X63897D01*
X64097Y75244D01*
Y74844D01*
X63897Y74644D01*
X63297D01*
X63697D02*
X64097Y74244D01*
X64496D02*
X64896D01*
X64696D01*
Y75444D01*
X64496Y75244D01*
X65496D02*
X65696Y75444D01*
X66096D01*
X66296Y75244D01*
Y74444D01*
X66096Y74244D01*
X65696D01*
X65496Y74444D01*
Y75244D01*
X67495Y75444D02*
X66696D01*
Y74844D01*
X67096Y75044D01*
X67296D01*
X67495Y74844D01*
Y74444D01*
X67296Y74244D01*
X66896D01*
X66696Y74444D01*
X78099Y22344D02*
Y21344D01*
X78299Y21144D01*
X78699D01*
X78899Y21344D01*
Y22344D01*
X79299Y21144D02*
X79699D01*
X79499D01*
Y22344D01*
X79299Y22144D01*
X80299D02*
X80499Y22344D01*
X80898D01*
X81098Y22144D01*
Y21344D01*
X80898Y21144D01*
X80499D01*
X80299Y21344D01*
Y22144D01*
X81498D02*
X81698Y22344D01*
X82098D01*
X82298Y22144D01*
Y21344D01*
X82098Y21144D01*
X81698D01*
X81498Y21344D01*
Y22144D01*
X84620Y20591D02*
X84420Y20791D01*
X84020D01*
X83820Y20591D01*
Y20391D01*
X84020Y20191D01*
X84420D01*
X84620Y19991D01*
Y19791D01*
X84420Y19592D01*
X84020D01*
X83820Y19791D01*
X85020Y20791D02*
Y19592D01*
X85419Y19991D01*
X85819Y19592D01*
Y20791D01*
X86219Y19592D02*
X86619D01*
X86419D01*
Y20791D01*
X86219Y20591D01*
X87219D02*
X87419Y20791D01*
X87819D01*
X88019Y20591D01*
Y19791D01*
X87819Y19592D01*
X87419D01*
X87219Y19791D01*
Y20591D01*
X88419D02*
X88618Y20791D01*
X89018D01*
X89218Y20591D01*
Y19791D01*
X89018Y19592D01*
X88618D01*
X88419Y19791D01*
Y20591D01*
X92873Y10090D02*
X93673Y8890D01*
Y10090D02*
X92873Y8890D01*
X94073D02*
X94472D01*
X94273D01*
Y10090D01*
X94073Y9890D01*
X95072D02*
X95272Y10090D01*
X95672D01*
X95872Y9890D01*
Y9090D01*
X95672Y8890D01*
X95272D01*
X95072Y9090D01*
Y9890D01*
X96272D02*
X96472Y10090D01*
X96872D01*
X97072Y9890D01*
Y9090D01*
X96872Y8890D01*
X96472D01*
X96272Y9090D01*
Y9890D01*
X81123Y8185D02*
Y7185D01*
X81323Y6985D01*
X81723D01*
X81923Y7185D01*
Y8185D01*
X82323Y6985D02*
X82723D01*
X82523D01*
Y8185D01*
X82323Y7985D01*
X83323D02*
X83523Y8185D01*
X83923D01*
X84122Y7985D01*
Y7185D01*
X83923Y6985D01*
X83523D01*
X83323Y7185D01*
Y7985D01*
X84522Y6985D02*
X84922D01*
X84722D01*
Y8185D01*
X84522Y7985D01*
X72968Y38372D02*
X74168D01*
Y38972D01*
X73968Y39172D01*
X73768D01*
X73568Y38972D01*
Y38372D01*
Y38972D01*
X73368Y39172D01*
X73168D01*
X72968Y38972D01*
Y38372D01*
Y39572D02*
Y40371D01*
Y39972D01*
X74168D01*
Y40771D02*
Y41171D01*
Y40971D01*
X72968D01*
X73168Y40771D01*
Y41771D02*
X72968Y41971D01*
Y42371D01*
X73168Y42571D01*
X73968D01*
X74168Y42371D01*
Y41971D01*
X73968Y41771D01*
X73168D01*
Y42971D02*
X72968Y43171D01*
Y43570D01*
X73168Y43770D01*
X73968D01*
X74168Y43570D01*
Y43171D01*
X73968Y42971D01*
X73168D01*
X72140Y34054D02*
X71940Y34254D01*
X71540D01*
X71340Y34054D01*
Y33254D01*
X71540Y33054D01*
X71940D01*
X72140Y33254D01*
X72540Y33054D02*
X72939D01*
X72740D01*
Y34254D01*
X72540Y34054D01*
X73539D02*
X73739Y34254D01*
X74139D01*
X74339Y34054D01*
Y33254D01*
X74139Y33054D01*
X73739D01*
X73539Y33254D01*
Y34054D01*
X74739D02*
X74939Y34254D01*
X75339D01*
X75539Y34054D01*
Y33254D01*
X75339Y33054D01*
X74939D01*
X74739Y33254D01*
Y34054D01*
X72656Y27732D02*
X72456Y27932D01*
X72056D01*
X71856Y27732D01*
Y26932D01*
X72056Y26732D01*
X72456D01*
X72656Y26932D01*
X73056Y26732D02*
X73455D01*
X73256D01*
Y27932D01*
X73056Y27732D01*
X74055D02*
X74255Y27932D01*
X74655D01*
X74855Y27732D01*
Y26932D01*
X74655Y26732D01*
X74255D01*
X74055Y26932D01*
Y27732D01*
X75255Y26732D02*
X75655D01*
X75455D01*
Y27932D01*
X75255Y27732D01*
X78063Y17713D02*
X77863Y17913D01*
X77463D01*
X77263Y17713D01*
Y16913D01*
X77463Y16713D01*
X77863D01*
X78063Y16913D01*
X78463Y16713D02*
X78863D01*
X78663D01*
Y17913D01*
X78463Y17713D01*
X79463D02*
X79663Y17913D01*
X80063D01*
X80263Y17713D01*
Y16913D01*
X80063Y16713D01*
X79663D01*
X79463Y16913D01*
Y17713D01*
X81462Y16713D02*
X80662D01*
X81462Y17513D01*
Y17713D01*
X81262Y17913D01*
X80862D01*
X80662Y17713D01*
X71539Y13067D02*
X71339Y13267D01*
X70939D01*
X70739Y13067D01*
Y12267D01*
X70939Y12068D01*
X71339D01*
X71539Y12267D01*
X71939Y12068D02*
X72338D01*
X72139D01*
Y13267D01*
X71939Y13067D01*
X72938D02*
X73138Y13267D01*
X73538D01*
X73738Y13067D01*
Y12267D01*
X73538Y12068D01*
X73138D01*
X72938Y12267D01*
Y13067D01*
X74138D02*
X74338Y13267D01*
X74738D01*
X74938Y13067D01*
Y12867D01*
X74738Y12667D01*
X74538D01*
X74738D01*
X74938Y12467D01*
Y12267D01*
X74738Y12068D01*
X74338D01*
X74138Y12267D01*
X87418Y17540D02*
X87218Y17740D01*
X86819D01*
X86619Y17540D01*
Y16740D01*
X86819Y16540D01*
X87218D01*
X87418Y16740D01*
X87818Y16540D02*
X88218D01*
X88018D01*
Y17740D01*
X87818Y17540D01*
X88818D02*
X89018Y17740D01*
X89418D01*
X89618Y17540D01*
Y16740D01*
X89418Y16540D01*
X89018D01*
X88818Y16740D01*
Y17540D01*
X90617Y16540D02*
Y17740D01*
X90018Y17140D01*
X90817D01*
X63792Y25132D02*
Y25932D01*
X63592Y26132D01*
X63192D01*
X62992Y25932D01*
Y25132D01*
X63192Y24932D01*
X63592D01*
X63392Y25332D02*
X63792Y24932D01*
X63592D02*
X63792Y25132D01*
X64192Y24932D02*
X64591D01*
X64392D01*
Y26132D01*
X64192Y25932D01*
X65191D02*
X65391Y26132D01*
X65791D01*
X65991Y25932D01*
Y25132D01*
X65791Y24932D01*
X65391D01*
X65191Y25132D01*
Y25932D01*
X66391D02*
X66591Y26132D01*
X66991D01*
X67191Y25932D01*
Y25132D01*
X66991Y24932D01*
X66591D01*
X66391Y25132D01*
Y25932D01*
X77713Y27396D02*
Y28195D01*
X77513Y28395D01*
X77113D01*
X76913Y28195D01*
Y27396D01*
X77113Y27196D01*
X77513D01*
X77313Y27596D02*
X77713Y27196D01*
X77513D02*
X77713Y27396D01*
X78113Y27196D02*
X78512D01*
X78313D01*
Y28395D01*
X78113Y28195D01*
X79112D02*
X79312Y28395D01*
X79712D01*
X79912Y28195D01*
Y27396D01*
X79712Y27196D01*
X79312D01*
X79112Y27396D01*
Y28195D01*
X80312Y27196D02*
X80712D01*
X80512D01*
Y28395D01*
X80312Y28195D01*
X66586Y16913D02*
Y17713D01*
X66386Y17913D01*
X65986D01*
X65786Y17713D01*
Y16913D01*
X65986Y16713D01*
X66386D01*
X66186Y17113D02*
X66586Y16713D01*
X66386D02*
X66586Y16913D01*
X66986Y16713D02*
X67385D01*
X67186D01*
Y17913D01*
X66986Y17713D01*
X67985D02*
X68185Y17913D01*
X68585D01*
X68785Y17713D01*
Y16913D01*
X68585Y16713D01*
X68185D01*
X67985Y16913D01*
Y17713D01*
X69985Y16713D02*
X69185D01*
X69985Y17513D01*
Y17713D01*
X69785Y17913D01*
X69385D01*
X69185Y17713D01*
X62754Y30057D02*
Y31257D01*
X63354D01*
X63554Y31057D01*
Y30657D01*
X63354Y30457D01*
X62754D01*
X63154D02*
X63554Y30057D01*
X63954D02*
X64353D01*
X64154D01*
Y31257D01*
X63954Y31057D01*
X64953D02*
X65153Y31257D01*
X65553D01*
X65753Y31057D01*
Y30257D01*
X65553Y30057D01*
X65153D01*
X64953Y30257D01*
Y31057D01*
X66153D02*
X66353Y31257D01*
X66753D01*
X66953Y31057D01*
Y30257D01*
X66753Y30057D01*
X66353D01*
X66153Y30257D01*
Y31057D01*
X99060Y28339D02*
X97860D01*
Y28939D01*
X98060Y29139D01*
X98460D01*
X98660Y28939D01*
Y28339D01*
Y28739D02*
X99060Y29139D01*
Y29539D02*
Y29939D01*
Y29739D01*
X97860D01*
X98060Y29539D01*
Y30539D02*
X97860Y30739D01*
Y31138D01*
X98060Y31338D01*
X98860D01*
X99060Y31138D01*
Y30739D01*
X98860Y30539D01*
X98060D01*
X99060Y31738D02*
Y32138D01*
Y31938D01*
X97860D01*
X98060Y31738D01*
X59690Y16422D02*
Y17622D01*
X60290D01*
X60490Y17422D01*
Y17022D01*
X60290Y16822D01*
X59690D01*
X60090D02*
X60490Y16422D01*
X60890D02*
X61289D01*
X61090D01*
Y17622D01*
X60890Y17422D01*
X61889D02*
X62089Y17622D01*
X62489D01*
X62689Y17422D01*
Y16622D01*
X62489Y16422D01*
X62089D01*
X61889Y16622D01*
Y17422D01*
X63889Y16422D02*
X63089D01*
X63889Y17222D01*
Y17422D01*
X63689Y17622D01*
X63289D01*
X63089Y17422D01*
X60337Y68490D02*
Y69690D01*
X60937D01*
X61137Y69490D01*
Y69090D01*
X60937Y68890D01*
X60337D01*
X60737D02*
X61137Y68490D01*
X61537D02*
X61937D01*
X61737D01*
Y69690D01*
X61537Y69490D01*
X62537D02*
X62737Y69690D01*
X63136D01*
X63336Y69490D01*
Y68690D01*
X63136Y68490D01*
X62737D01*
X62537Y68690D01*
Y69490D01*
X63736D02*
X63936Y69690D01*
X64336D01*
X64536Y69490D01*
Y69290D01*
X64336Y69090D01*
X64136D01*
X64336D01*
X64536Y68890D01*
Y68690D01*
X64336Y68490D01*
X63936D01*
X63736Y68690D01*
X65822Y68481D02*
Y69680D01*
X66422D01*
X66622Y69481D01*
Y69081D01*
X66422Y68881D01*
X65822D01*
X66222D02*
X66622Y68481D01*
X67022D02*
X67421D01*
X67222D01*
Y69680D01*
X67022Y69481D01*
X68021D02*
X68221Y69680D01*
X68621D01*
X68821Y69481D01*
Y68681D01*
X68621Y68481D01*
X68221D01*
X68021Y68681D01*
Y69481D01*
X69821Y68481D02*
Y69680D01*
X69221Y69081D01*
X70021D01*
X42164Y26289D02*
Y27489D01*
X42564Y27089D01*
X42964Y27489D01*
Y26289D01*
X43963Y27489D02*
X43564D01*
X43364Y27289D01*
Y26489D01*
X43564Y26289D01*
X43963D01*
X44163Y26489D01*
Y27289D01*
X43963Y27489D01*
X44563D02*
Y26289D01*
X45163D01*
X45363Y26489D01*
Y27289D01*
X45163Y27489D01*
X44563D01*
X45763D02*
Y26489D01*
X45963Y26289D01*
X46363D01*
X46563Y26489D01*
Y27489D01*
X46962D02*
Y26289D01*
X47762D01*
X48962Y27489D02*
X48162D01*
Y26289D01*
X48962D01*
X48162Y26889D02*
X48562D01*
X50561Y26289D02*
Y27489D01*
X51161D01*
X51361Y27289D01*
Y26889D01*
X51161Y26689D01*
X50561D01*
X50961D02*
X51361Y26289D01*
X52561Y27489D02*
X51761D01*
Y26889D01*
X52161D01*
X51761D01*
Y26289D01*
X11684Y83820D02*
X12151D01*
X11917D01*
Y85220D01*
X11684Y84986D01*
X12850Y85220D02*
X13783D01*
Y84986D01*
X12850Y84053D01*
Y83820D01*
X14250Y84986D02*
X14483Y85220D01*
X14950D01*
X15183Y84986D01*
Y84753D01*
X14950Y84520D01*
X14716D01*
X14950D01*
X15183Y84287D01*
Y84053D01*
X14950Y83820D01*
X14483D01*
X14250Y84053D01*
X15649Y84986D02*
X15883Y85220D01*
X16349D01*
X16582Y84986D01*
Y84053D01*
X16349Y83820D01*
X15883D01*
X15649Y84053D01*
Y84986D01*
X17049D02*
X17282Y85220D01*
X17749D01*
X17982Y84986D01*
Y84053D01*
X17749Y83820D01*
X17282D01*
X17049Y84053D01*
Y84986D01*
X19382D02*
X19148Y85220D01*
X18682D01*
X18448Y84986D01*
Y84053D01*
X18682Y83820D01*
X19148D01*
X19382Y84053D01*
X22181Y84986D02*
X21947Y85220D01*
X21481D01*
X21248Y84986D01*
Y84753D01*
X21481Y84520D01*
X21947D01*
X22181Y84287D01*
Y84053D01*
X21947Y83820D01*
X21481D01*
X21248Y84053D01*
X23580Y84986D02*
X23347Y85220D01*
X22880D01*
X22647Y84986D01*
Y84053D01*
X22880Y83820D01*
X23347D01*
X23580Y84053D01*
X24047Y83820D02*
Y84753D01*
X24513Y85220D01*
X24980Y84753D01*
Y83820D01*
Y84520D01*
X24047D01*
X25446Y83820D02*
X26379Y84753D01*
X27779Y85220D02*
X27312D01*
X27546D01*
Y84053D01*
X27312Y83820D01*
X27079D01*
X26846Y84053D01*
X28245Y83820D02*
Y85220D01*
X28712Y84753D01*
X29178Y85220D01*
Y83820D01*
X30345Y85220D02*
X29878D01*
X29645Y84986D01*
Y84053D01*
X29878Y83820D01*
X30345D01*
X30578Y84053D01*
Y84986D01*
X30345Y85220D01*
X32444Y84986D02*
X32677Y85220D01*
X33144D01*
X33377Y84986D01*
Y84053D01*
X33144Y83820D01*
X32677D01*
X32444Y84053D01*
Y84986D01*
X34777Y83820D02*
X33843D01*
X34777Y84753D01*
Y84986D01*
X34543Y85220D01*
X34077D01*
X33843Y84986D01*
X35243Y83820D02*
Y84053D01*
X35476D01*
Y83820D01*
X35243D01*
X37342D02*
X36409D01*
X37342Y84753D01*
Y84986D01*
X37109Y85220D01*
X36643D01*
X36409Y84986D01*
X37809D02*
X38042Y85220D01*
X38509D01*
X38742Y84986D01*
Y84053D01*
X38509Y83820D01*
X38042D01*
X37809Y84053D01*
Y84986D01*
X40141Y83820D02*
X39208D01*
X40141Y84753D01*
Y84986D01*
X39908Y85220D01*
X39442D01*
X39208Y84986D01*
X40608D02*
X40841Y85220D01*
X41308D01*
X41541Y84986D01*
Y84753D01*
X41308Y84520D01*
X41075D01*
X41308D01*
X41541Y84287D01*
Y84053D01*
X41308Y83820D01*
X40841D01*
X40608Y84053D01*
X30251Y96866D02*
X31050Y95666D01*
Y96866D02*
X30251Y95666D01*
X32250D02*
X31450D01*
X32250Y96466D01*
Y96666D01*
X32050Y96866D01*
X31650D01*
X31450Y96666D01*
X32650D02*
X32850Y96866D01*
X33250D01*
X33450Y96666D01*
Y95866D01*
X33250Y95666D01*
X32850D01*
X32650Y95866D01*
Y96666D01*
X33849Y95666D02*
X34249D01*
X34049D01*
Y96866D01*
X33849Y96666D01*
X17801Y6600D02*
X18600Y5400D01*
Y6600D02*
X17801Y5400D01*
X19800D02*
X19000D01*
X19800Y6200D01*
Y6400D01*
X19600Y6600D01*
X19200D01*
X19000Y6400D01*
X20200D02*
X20400Y6600D01*
X20800D01*
X21000Y6400D01*
Y5600D01*
X20800Y5400D01*
X20400D01*
X20200Y5600D01*
Y6400D01*
X22199Y5400D02*
X21400D01*
X22199Y6200D01*
Y6400D01*
X21999Y6600D01*
X21599D01*
X21400Y6400D01*
X34379Y44583D02*
X33979D01*
X34179D01*
Y43583D01*
X33979Y43383D01*
X33779D01*
X33579Y43583D01*
X35578Y43383D02*
X34778D01*
X35578Y44183D01*
Y44383D01*
X35378Y44583D01*
X34978D01*
X34778Y44383D01*
X35978D02*
X36178Y44583D01*
X36578D01*
X36778Y44383D01*
Y43583D01*
X36578Y43383D01*
X36178D01*
X35978Y43583D01*
Y44383D01*
X37178Y43383D02*
X37577D01*
X37378D01*
Y44583D01*
X37178Y44383D01*
X56197Y44583D02*
X55797D01*
X55997D01*
Y43583D01*
X55797Y43383D01*
X55597D01*
X55397Y43583D01*
X57397Y43383D02*
X56597D01*
X57397Y44183D01*
Y44383D01*
X57197Y44583D01*
X56797D01*
X56597Y44383D01*
X57797D02*
X57997Y44583D01*
X58396D01*
X58596Y44383D01*
Y43583D01*
X58396Y43383D01*
X57997D01*
X57797Y43583D01*
Y44383D01*
X58996D02*
X59196Y44583D01*
X59596D01*
X59796Y44383D01*
Y43583D01*
X59596Y43383D01*
X59196D01*
X58996Y43583D01*
Y44383D01*
X44704Y60350D02*
Y61550D01*
X45304D01*
X45504Y61350D01*
Y60950D01*
X45304Y60750D01*
X44704D01*
X45104D02*
X45504Y60350D01*
X46703D02*
X45904D01*
X46703Y61150D01*
Y61350D01*
X46503Y61550D01*
X46104D01*
X45904Y61350D01*
X47103D02*
X47303Y61550D01*
X47703D01*
X47903Y61350D01*
Y60550D01*
X47703Y60350D01*
X47303D01*
X47103Y60550D01*
Y61350D01*
X48303D02*
X48503Y61550D01*
X48903D01*
X49103Y61350D01*
Y61150D01*
X48903Y60950D01*
X48703D01*
X48903D01*
X49103Y60750D01*
Y60550D01*
X48903Y60350D01*
X48503D01*
X48303Y60550D01*
X56593Y53696D02*
X57393Y52496D01*
Y53696D02*
X56593Y52496D01*
X58592D02*
X57793D01*
X58592Y53296D01*
Y53496D01*
X58392Y53696D01*
X57993D01*
X57793Y53496D01*
X58992D02*
X59192Y53696D01*
X59592D01*
X59792Y53496D01*
Y52696D01*
X59592Y52496D01*
X59192D01*
X58992Y52696D01*
Y53496D01*
X60792Y52496D02*
Y53696D01*
X60192Y53096D01*
X60992D01*
X18415Y25696D02*
Y26896D01*
X19015D01*
X19215Y26696D01*
Y26296D01*
X19015Y26096D01*
X18415D01*
X18815D02*
X19215Y25696D01*
X20414D02*
X19615D01*
X20414Y26496D01*
Y26696D01*
X20214Y26896D01*
X19815D01*
X19615Y26696D01*
X20814D02*
X21014Y26896D01*
X21414D01*
X21614Y26696D01*
Y25896D01*
X21414Y25696D01*
X21014D01*
X20814Y25896D01*
Y26696D01*
X22014D02*
X22214Y26896D01*
X22614D01*
X22814Y26696D01*
Y26496D01*
X22614Y26296D01*
X22814Y26096D01*
Y25896D01*
X22614Y25696D01*
X22214D01*
X22014Y25896D01*
Y26096D01*
X22214Y26296D01*
X22014Y26496D01*
Y26696D01*
X22214Y26296D02*
X22614D01*
X26340Y45673D02*
Y44473D01*
X26940D01*
X27140Y44673D01*
Y45473D01*
X26940Y45673D01*
X26340D01*
X28339Y44473D02*
X27540D01*
X28339Y45273D01*
Y45473D01*
X28139Y45673D01*
X27740D01*
X27540Y45473D01*
X28739D02*
X28939Y45673D01*
X29339D01*
X29539Y45473D01*
Y44673D01*
X29339Y44473D01*
X28939D01*
X28739Y44673D01*
Y45473D01*
X29939D02*
X30139Y45673D01*
X30539D01*
X30739Y45473D01*
Y44673D01*
X30539Y44473D01*
X30139D01*
X29939Y44673D01*
Y45473D01*
X19935Y69342D02*
X19735Y69142D01*
Y68742D01*
X19935Y68542D01*
X20135D01*
X20335Y68742D01*
Y69142D01*
X20535Y69342D01*
X20734D01*
X20934Y69142D01*
Y68742D01*
X20734Y68542D01*
X19735Y69742D02*
X20934D01*
X20535Y70142D01*
X20934Y70542D01*
X19735D01*
X20934Y71741D02*
Y70942D01*
X20135Y71741D01*
X19935D01*
X19735Y71541D01*
Y71142D01*
X19935Y70942D01*
Y72141D02*
X19735Y72341D01*
Y72741D01*
X19935Y72941D01*
X20734D01*
X20934Y72741D01*
Y72341D01*
X20734Y72141D01*
X19935D01*
X20934Y74141D02*
Y73341D01*
X20135Y74141D01*
X19935D01*
X19735Y73941D01*
Y73541D01*
X19935Y73341D01*
X40905Y76692D02*
X40705Y76892D01*
X40305D01*
X40105Y76692D01*
Y75892D01*
X40305Y75692D01*
X40705D01*
X40905Y75892D01*
X42104Y75692D02*
X41304D01*
X42104Y76492D01*
Y76692D01*
X41904Y76892D01*
X41504D01*
X41304Y76692D01*
X42504D02*
X42704Y76892D01*
X43104D01*
X43304Y76692D01*
Y75892D01*
X43104Y75692D01*
X42704D01*
X42504Y75892D01*
Y76692D01*
X43704D02*
X43904Y76892D01*
X44303D01*
X44503Y76692D01*
Y75892D01*
X44303Y75692D01*
X43904D01*
X43704Y75892D01*
Y76692D01*
X41229Y70342D02*
X41029Y70542D01*
X40629D01*
X40429Y70342D01*
Y69542D01*
X40629Y69342D01*
X41029D01*
X41229Y69542D01*
X42429Y69342D02*
X41629D01*
X42429Y70142D01*
Y70342D01*
X42229Y70542D01*
X41829D01*
X41629Y70342D01*
X42828D02*
X43028Y70542D01*
X43428D01*
X43628Y70342D01*
Y69542D01*
X43428Y69342D01*
X43028D01*
X42828Y69542D01*
Y70342D01*
X44028Y69342D02*
X44428D01*
X44228D01*
Y70542D01*
X44028Y70342D01*
X62050Y82703D02*
X61850Y82903D01*
X61450D01*
X61250Y82703D01*
Y81903D01*
X61450Y81703D01*
X61850D01*
X62050Y81903D01*
X63250Y81703D02*
X62450D01*
X63250Y82503D01*
Y82703D01*
X63050Y82903D01*
X62650D01*
X62450Y82703D01*
X63650D02*
X63850Y82903D01*
X64249D01*
X64449Y82703D01*
Y81903D01*
X64249Y81703D01*
X63850D01*
X63650Y81903D01*
Y82703D01*
X65649Y81703D02*
X64849D01*
X65649Y82503D01*
Y82703D01*
X65449Y82903D01*
X65049D01*
X64849Y82703D01*
X68237Y79747D02*
X68037Y79947D01*
X67637D01*
X67437Y79747D01*
Y78948D01*
X67637Y78748D01*
X68037D01*
X68237Y78948D01*
X69436Y78748D02*
X68637D01*
X69436Y79547D01*
Y79747D01*
X69236Y79947D01*
X68837D01*
X68637Y79747D01*
X69836D02*
X70036Y79947D01*
X70436D01*
X70636Y79747D01*
Y78948D01*
X70436Y78748D01*
X70036D01*
X69836Y78948D01*
Y79747D01*
X71036D02*
X71236Y79947D01*
X71636D01*
X71836Y79747D01*
Y79547D01*
X71636Y79348D01*
X71436D01*
X71636D01*
X71836Y79148D01*
Y78948D01*
X71636Y78748D01*
X71236D01*
X71036Y78948D01*
X26340Y60670D02*
Y59470D01*
X26940D01*
X27140Y59670D01*
Y60470D01*
X26940Y60670D01*
X26340D01*
X28339Y59470D02*
X27540D01*
X28339Y60270D01*
Y60470D01*
X28139Y60670D01*
X27740D01*
X27540Y60470D01*
X28739D02*
X28939Y60670D01*
X29339D01*
X29539Y60470D01*
Y59670D01*
X29339Y59470D01*
X28939D01*
X28739Y59670D01*
Y60470D01*
X29939Y59470D02*
X30339D01*
X30139D01*
Y60670D01*
X29939Y60470D01*
X26340Y75751D02*
Y74552D01*
X26940D01*
X27140Y74751D01*
Y75551D01*
X26940Y75751D01*
X26340D01*
X28339Y74552D02*
X27540D01*
X28339Y75351D01*
Y75551D01*
X28139Y75751D01*
X27740D01*
X27540Y75551D01*
X28739D02*
X28939Y75751D01*
X29339D01*
X29539Y75551D01*
Y74751D01*
X29339Y74552D01*
X28939D01*
X28739Y74751D01*
Y75551D01*
X30739Y74552D02*
X29939D01*
X30739Y75351D01*
Y75551D01*
X30539Y75751D01*
X30139D01*
X29939Y75551D01*
X55118Y61398D02*
X55918Y60198D01*
Y61398D02*
X55118Y60198D01*
X57118D02*
X56318D01*
X57118Y60998D01*
Y61198D01*
X56918Y61398D01*
X56518D01*
X56318Y61198D01*
X57518D02*
X57718Y61398D01*
X58117D01*
X58317Y61198D01*
Y60398D01*
X58117Y60198D01*
X57718D01*
X57518Y60398D01*
Y61198D01*
X58717D02*
X58917Y61398D01*
X59317D01*
X59517Y61198D01*
Y60998D01*
X59317Y60798D01*
X59117D01*
X59317D01*
X59517Y60598D01*
Y60398D01*
X59317Y60198D01*
X58917D01*
X58717Y60398D01*
X30794Y49658D02*
Y50458D01*
X30594Y50657D01*
X30194D01*
X29994Y50458D01*
Y49658D01*
X30194Y49458D01*
X30594D01*
X30394Y49858D02*
X30794Y49458D01*
X30594D02*
X30794Y49658D01*
X31994Y49458D02*
X31194D01*
X31994Y50258D01*
Y50458D01*
X31794Y50657D01*
X31394D01*
X31194Y50458D01*
X32394D02*
X32593Y50657D01*
X32993D01*
X33193Y50458D01*
Y49658D01*
X32993Y49458D01*
X32593D01*
X32394Y49658D01*
Y50458D01*
X33593D02*
X33793Y50657D01*
X34193D01*
X34393Y50458D01*
Y49658D01*
X34193Y49458D01*
X33793D01*
X33593Y49658D01*
Y50458D01*
X30794Y65200D02*
Y66000D01*
X30594Y66200D01*
X30194D01*
X29994Y66000D01*
Y65200D01*
X30194Y65000D01*
X30594D01*
X30394Y65400D02*
X30794Y65000D01*
X30594D02*
X30794Y65200D01*
X31994Y65000D02*
X31194D01*
X31994Y65800D01*
Y66000D01*
X31794Y66200D01*
X31394D01*
X31194Y66000D01*
X32394D02*
X32593Y66200D01*
X32993D01*
X33193Y66000D01*
Y65200D01*
X32993Y65000D01*
X32593D01*
X32394Y65200D01*
Y66000D01*
X33593Y65000D02*
X33993D01*
X33793D01*
Y66200D01*
X33593Y66000D01*
X30841Y79702D02*
Y80502D01*
X30641Y80702D01*
X30241D01*
X30041Y80502D01*
Y79702D01*
X30241Y79502D01*
X30641D01*
X30441Y79902D02*
X30841Y79502D01*
X30641D02*
X30841Y79702D01*
X32041Y79502D02*
X31241D01*
X32041Y80302D01*
Y80502D01*
X31841Y80702D01*
X31441D01*
X31241Y80502D01*
X32440D02*
X32640Y80702D01*
X33040D01*
X33240Y80502D01*
Y79702D01*
X33040Y79502D01*
X32640D01*
X32440Y79702D01*
Y80502D01*
X34440Y79502D02*
X33640D01*
X34440Y80302D01*
Y80502D01*
X34240Y80702D01*
X33840D01*
X33640Y80502D01*
X29012Y24139D02*
Y24938D01*
X28812Y25138D01*
X28412D01*
X28212Y24938D01*
Y24139D01*
X28412Y23939D01*
X28812D01*
X28612Y24339D02*
X29012Y23939D01*
X28812D02*
X29012Y24139D01*
X30212Y23939D02*
X29412D01*
X30212Y24738D01*
Y24938D01*
X30012Y25138D01*
X29612D01*
X29412Y24938D01*
X30611D02*
X30811Y25138D01*
X31211D01*
X31411Y24938D01*
Y24139D01*
X31211Y23939D01*
X30811D01*
X30611Y24139D01*
Y24938D01*
X31811D02*
X32011Y25138D01*
X32411D01*
X32611Y24938D01*
Y24738D01*
X32411Y24539D01*
X32211D01*
X32411D01*
X32611Y24339D01*
Y24139D01*
X32411Y23939D01*
X32011D01*
X31811Y24139D01*
X26340Y39378D02*
Y40578D01*
X26940D01*
X27140Y40378D01*
Y39978D01*
X26940Y39778D01*
X26340D01*
X26740D02*
X27140Y39378D01*
X28339D02*
X27540D01*
X28339Y40178D01*
Y40378D01*
X28139Y40578D01*
X27740D01*
X27540Y40378D01*
X28739D02*
X28939Y40578D01*
X29339D01*
X29539Y40378D01*
Y39578D01*
X29339Y39378D01*
X28939D01*
X28739Y39578D01*
Y40378D01*
X29939D02*
X30139Y40578D01*
X30539D01*
X30739Y40378D01*
Y39578D01*
X30539Y39378D01*
X30139D01*
X29939Y39578D01*
Y40378D01*
X26416Y54263D02*
Y55462D01*
X27016D01*
X27216Y55262D01*
Y54862D01*
X27016Y54662D01*
X26416D01*
X26816D02*
X27216Y54263D01*
X28415D02*
X27616D01*
X28415Y55062D01*
Y55262D01*
X28215Y55462D01*
X27816D01*
X27616Y55262D01*
X28815D02*
X29015Y55462D01*
X29415D01*
X29615Y55262D01*
Y54462D01*
X29415Y54263D01*
X29015D01*
X28815Y54462D01*
Y55262D01*
X30015Y54263D02*
X30415D01*
X30215D01*
Y55462D01*
X30015Y55262D01*
X26340Y69442D02*
Y70642D01*
X26940D01*
X27140Y70442D01*
Y70042D01*
X26940Y69842D01*
X26340D01*
X26740D02*
X27140Y69442D01*
X28339D02*
X27540D01*
X28339Y70242D01*
Y70442D01*
X28139Y70642D01*
X27740D01*
X27540Y70442D01*
X28739D02*
X28939Y70642D01*
X29339D01*
X29539Y70442D01*
Y69642D01*
X29339Y69442D01*
X28939D01*
X28739Y69642D01*
Y70442D01*
X30739Y69442D02*
X29939D01*
X30739Y70242D01*
Y70442D01*
X30539Y70642D01*
X30139D01*
X29939Y70442D01*
X19866Y20872D02*
Y22072D01*
X20466D01*
X20666Y21872D01*
Y21472D01*
X20466Y21272D01*
X19866D01*
X20266D02*
X20666Y20872D01*
X21865D02*
X21066D01*
X21865Y21672D01*
Y21872D01*
X21665Y22072D01*
X21265D01*
X21066Y21872D01*
X22265D02*
X22465Y22072D01*
X22865D01*
X23065Y21872D01*
Y21072D01*
X22865Y20872D01*
X22465D01*
X22265Y21072D01*
Y21872D01*
X24065Y20872D02*
Y22072D01*
X23465Y21472D01*
X24264D01*
X635Y42545D02*
Y43745D01*
X1235D01*
X1435Y43545D01*
Y43145D01*
X1235Y42945D01*
X635D01*
X1035D02*
X1435Y42545D01*
X2634D02*
X1835D01*
X2634Y43345D01*
Y43545D01*
X2434Y43745D01*
X2035D01*
X1835Y43545D01*
X3034D02*
X3234Y43745D01*
X3634D01*
X3834Y43545D01*
Y42745D01*
X3634Y42545D01*
X3234D01*
X3034Y42745D01*
Y43545D01*
X5034Y43745D02*
X4234D01*
Y43145D01*
X4634Y43345D01*
X4834D01*
X5034Y43145D01*
Y42745D01*
X4834Y42545D01*
X4434D01*
X4234Y42745D01*
X635Y57785D02*
Y58985D01*
X1235D01*
X1435Y58785D01*
Y58385D01*
X1235Y58185D01*
X635D01*
X1035D02*
X1435Y57785D01*
X2634D02*
X1835D01*
X2634Y58585D01*
Y58785D01*
X2434Y58985D01*
X2035D01*
X1835Y58785D01*
X3034D02*
X3234Y58985D01*
X3634D01*
X3834Y58785D01*
Y57985D01*
X3634Y57785D01*
X3234D01*
X3034Y57985D01*
Y58785D01*
X5034Y58985D02*
X4634Y58785D01*
X4234Y58385D01*
Y57985D01*
X4434Y57785D01*
X4834D01*
X5034Y57985D01*
Y58185D01*
X4834Y58385D01*
X4234D01*
X635Y72390D02*
Y73590D01*
X1235D01*
X1435Y73390D01*
Y72990D01*
X1235Y72790D01*
X635D01*
X1035D02*
X1435Y72390D01*
X2634D02*
X1835D01*
X2634Y73190D01*
Y73390D01*
X2434Y73590D01*
X2035D01*
X1835Y73390D01*
X3034D02*
X3234Y73590D01*
X3634D01*
X3834Y73390D01*
Y72590D01*
X3634Y72390D01*
X3234D01*
X3034Y72590D01*
Y73390D01*
X4234Y73590D02*
X5034D01*
Y73390D01*
X4234Y72590D01*
Y72390D01*
X25656Y29845D02*
Y31045D01*
X26255D01*
X26455Y30845D01*
Y30445D01*
X26255Y30245D01*
X25656D01*
X26055D02*
X26455Y29845D01*
X27655D02*
X26855D01*
X27655Y30645D01*
Y30845D01*
X27455Y31045D01*
X27055D01*
X26855Y30845D01*
X28055D02*
X28255Y31045D01*
X28655D01*
X28855Y30845D01*
Y30045D01*
X28655Y29845D01*
X28255D01*
X28055Y30045D01*
Y30845D01*
X29254Y30045D02*
X29454Y29845D01*
X29854D01*
X30054Y30045D01*
Y30845D01*
X29854Y31045D01*
X29454D01*
X29254Y30845D01*
Y30645D01*
X29454Y30445D01*
X30054D01*
X59723Y93980D02*
Y95180D01*
X60323D01*
X60523Y94980D01*
Y94580D01*
X60323Y94380D01*
X59723D01*
X60123D02*
X60523Y93980D01*
X61723D02*
X60923D01*
X61723Y94780D01*
Y94980D01*
X61523Y95180D01*
X61123D01*
X60923Y94980D01*
X62123Y93980D02*
X62523D01*
X62323D01*
Y95180D01*
X62123Y94980D01*
X63122D02*
X63322Y95180D01*
X63722D01*
X63922Y94980D01*
Y94180D01*
X63722Y93980D01*
X63322D01*
X63122Y94180D01*
Y94980D01*
X19935Y39346D02*
X19735Y39146D01*
Y38746D01*
X19935Y38546D01*
X20135D01*
X20335Y38746D01*
Y39146D01*
X20535Y39346D01*
X20734D01*
X20934Y39146D01*
Y38746D01*
X20734Y38546D01*
X19735Y39746D02*
X20934D01*
X20535Y40146D01*
X20934Y40545D01*
X19735D01*
X20934Y41745D02*
Y40945D01*
X20135Y41745D01*
X19935D01*
X19735Y41545D01*
Y41145D01*
X19935Y40945D01*
Y42145D02*
X19735Y42345D01*
Y42745D01*
X19935Y42945D01*
X20734D01*
X20934Y42745D01*
Y42345D01*
X20734Y42145D01*
X19935D01*
Y43345D02*
X19735Y43544D01*
Y43944D01*
X19935Y44144D01*
X20734D01*
X20934Y43944D01*
Y43544D01*
X20734Y43345D01*
X19935D01*
Y54140D02*
X19735Y53940D01*
Y53540D01*
X19935Y53340D01*
X20135D01*
X20335Y53540D01*
Y53940D01*
X20535Y54140D01*
X20734D01*
X20934Y53940D01*
Y53540D01*
X20734Y53340D01*
X19735Y54540D02*
X20934D01*
X20535Y54939D01*
X20934Y55339D01*
X19735D01*
X20934Y56539D02*
Y55739D01*
X20135Y56539D01*
X19935D01*
X19735Y56339D01*
Y55939D01*
X19935Y55739D01*
Y56939D02*
X19735Y57139D01*
Y57539D01*
X19935Y57739D01*
X20734D01*
X20934Y57539D01*
Y57139D01*
X20734Y56939D01*
X19935D01*
X20934Y58138D02*
Y58538D01*
Y58338D01*
X19735D01*
X19935Y58138D01*
X7493Y31934D02*
Y30934D01*
X7693Y30734D01*
X8093D01*
X8293Y30934D01*
Y31934D01*
X9492Y30734D02*
X8693D01*
X9492Y31534D01*
Y31734D01*
X9292Y31934D01*
X8893D01*
X8693Y31734D01*
X9892D02*
X10092Y31934D01*
X10492D01*
X10692Y31734D01*
Y30934D01*
X10492Y30734D01*
X10092D01*
X9892Y30934D01*
Y31734D01*
X11092Y30734D02*
X11492D01*
X11292D01*
Y31934D01*
X11092Y31734D01*
X54483Y97656D02*
Y98856D01*
X55083D01*
X55283Y98656D01*
Y98256D01*
X55083Y98056D01*
X54483D01*
X54883D02*
X55283Y97656D01*
X56482D02*
X55683D01*
X56482Y98456D01*
Y98656D01*
X56282Y98856D01*
X55883D01*
X55683Y98656D01*
X56882Y97656D02*
X57282D01*
X57082D01*
Y98856D01*
X56882Y98656D01*
X57882Y97656D02*
X58282D01*
X58082D01*
Y98856D01*
X57882Y98656D01*
X66214Y86435D02*
X66014Y86635D01*
X65614D01*
X65414Y86435D01*
Y86235D01*
X65614Y86035D01*
X66014D01*
X66214Y85835D01*
Y85635D01*
X66014Y85435D01*
X65614D01*
X65414Y85635D01*
X66614Y86635D02*
Y85435D01*
X67014Y85835D01*
X67414Y85435D01*
Y86635D01*
X68613Y85435D02*
X67813D01*
X68613Y86235D01*
Y86435D01*
X68413Y86635D01*
X68013D01*
X67813Y86435D01*
X69013D02*
X69213Y86635D01*
X69613D01*
X69813Y86435D01*
Y85635D01*
X69613Y85435D01*
X69213D01*
X69013Y85635D01*
Y86435D01*
X70213D02*
X70413Y86635D01*
X70812D01*
X71012Y86435D01*
Y86235D01*
X70812Y86035D01*
X70612D01*
X70812D01*
X71012Y85835D01*
Y85635D01*
X70812Y85435D01*
X70413D01*
X70213Y85635D01*
X48768Y87433D02*
Y86433D01*
X48968Y86233D01*
X49368D01*
X49568Y86433D01*
Y87433D01*
X50767Y86233D02*
X49968D01*
X50767Y87033D01*
Y87233D01*
X50567Y87433D01*
X50168D01*
X49968Y87233D01*
X51167D02*
X51367Y87433D01*
X51767D01*
X51967Y87233D01*
Y86433D01*
X51767Y86233D01*
X51367D01*
X51167Y86433D01*
Y87233D01*
X52367D02*
X52567Y87433D01*
X52967D01*
X53167Y87233D01*
Y86433D01*
X52967Y86233D01*
X52567D01*
X52367Y86433D01*
Y87233D01*
D65*
X99128Y12489D02*
G03*
X99388Y12696I-22J294D01*
G01*
Y13267D02*
G03*
X99128Y13475I-282J-86D01*
G01*
X99388Y12696D02*
G03*
X99388Y13267I-931J286D01*
G01*
X99128Y17005D02*
G03*
X99388Y17213I-22J294D01*
G01*
X99388Y17213D02*
G03*
X99388Y17784I-931J286D01*
G01*
X99388Y17784D02*
G03*
X99128Y17991I-282J-86D01*
G01*
X96377Y12281D02*
Y12489D01*
Y16745D02*
X99128Y17005D01*
X96377Y17991D02*
Y18199D01*
X99128Y17991D01*
X96377Y12489D02*
X98765Y12748D01*
X96377Y13527D02*
X98765Y13267D01*
Y12748D02*
Y13267D01*
X96377Y12281D02*
X99128Y12489D01*
X96377Y16745D02*
Y16953D01*
Y13527D02*
Y13735D01*
Y16953D02*
X98765Y17213D01*
X96377Y17991D02*
X98765Y17732D01*
X96377Y13735D02*
X99128Y13475D01*
X98765Y17213D02*
Y17732D01*
D66*
X54318Y68377D02*
G03*
X54318Y68377I-300J0D01*
G01*
D67*
X56718Y67172D02*
G03*
X56718Y67172I-125J0D01*
G01*
X77038Y20019D02*
G03*
X77038Y20019I-125J0D01*
G01*
X76976Y32507D02*
G03*
X76976Y32507I-125J0D01*
G01*
X86260Y8634D02*
G03*
X86260Y8634I-125J0D01*
G01*
X27248Y22246D02*
G03*
X27248Y22246I-125J0D01*
G01*
X29125Y78100D02*
G03*
X29125Y78100I-125J0D01*
G01*
Y63100D02*
G03*
X29125Y63100I-125J0D01*
G01*
Y48100D02*
G03*
X29125Y48100I-125J0D01*
G01*
X66308Y21966D02*
G03*
X66308Y21966I-125J0D01*
G01*
D68*
X64780Y71655D02*
Y71855D01*
X66030Y71655D02*
Y71855D01*
X62240Y71655D02*
Y71855D01*
X63490Y71655D02*
Y71855D01*
X56161Y95591D02*
X56361D01*
X56161Y96941D02*
X56361D01*
X22125Y18883D02*
X22325D01*
X22125Y20233D02*
X22325D01*
X42680Y61000D02*
Y61200D01*
X44030Y61000D02*
Y61200D01*
X64972Y89429D02*
Y95229D01*
X66772Y89229D02*
X69372D01*
X71172Y89429D02*
Y95229D01*
X66772Y95429D02*
X69372D01*
X35029Y97611D02*
X53109D01*
Y94921D02*
Y97611D01*
X35029Y94921D02*
X53109D01*
X35029D02*
Y97611D01*
X10960Y2155D02*
X29040D01*
X10960D02*
Y4845D01*
X29040D01*
Y2155D02*
Y4845D01*
X70042Y26003D02*
Y26733D01*
X69342D02*
X70042D01*
Y23813D02*
Y24543D01*
X69342Y23813D02*
X70042D01*
X34919Y21600D02*
Y42400D01*
X37569D01*
Y21600D02*
Y42400D01*
X34919Y21600D02*
X37569D01*
X56919D02*
Y42400D01*
X59569D01*
Y21600D02*
Y42400D01*
X56919Y21600D02*
X59569D01*
X48868Y85277D02*
X55018D01*
X48868Y67377D02*
X55018D01*
X48868D02*
Y85277D01*
X55018Y67377D02*
Y85277D01*
X74938Y20294D02*
X75938D01*
X74938Y23394D02*
X75938D01*
Y20294D02*
Y23394D01*
X74938Y20294D02*
Y23394D01*
X52214Y57059D02*
Y59749D01*
Y57059D02*
X60134D01*
Y59749D01*
X52214D02*
X60134D01*
X25625Y69900D02*
Y70100D01*
X24375Y69900D02*
Y70100D01*
Y54900D02*
Y55100D01*
X25625Y54900D02*
Y55100D01*
X24375Y39900D02*
Y40100D01*
X25625Y39900D02*
Y40100D01*
X68570Y71655D02*
Y71855D01*
X67320Y71655D02*
Y71855D01*
X35941Y49276D02*
X61341D01*
X35941D02*
Y51816D01*
X61341D01*
Y49276D02*
Y51816D01*
X3400Y41754D02*
X3600D01*
X3400Y40604D02*
X3600D01*
X78551Y31407D02*
Y32157D01*
X77651D02*
X78551D01*
Y29057D02*
Y29807D01*
X77651Y29057D02*
X78551D01*
X81335Y14234D02*
X85035D01*
X81335Y9134D02*
X85035D01*
X25423Y25696D02*
X26323D01*
X25423Y24946D02*
Y25696D01*
Y22596D02*
X26323D01*
X25423D02*
Y23346D01*
X27300Y81550D02*
X28200D01*
X27300Y80800D02*
Y81550D01*
Y78450D02*
X28200D01*
X27300D02*
Y79200D01*
Y66550D02*
X28200D01*
X27300Y65800D02*
Y66550D01*
Y63450D02*
X28200D01*
X27300D02*
Y64200D01*
Y51550D02*
X28200D01*
X27300Y50800D02*
Y51550D01*
Y48450D02*
X28200D01*
X27300D02*
Y49200D01*
X66983Y18516D02*
X67883D01*
Y19266D01*
X66983Y21616D02*
X67883D01*
Y20866D02*
Y21616D01*
X61823Y93122D02*
X62023D01*
X61823Y91972D02*
X62023D01*
X3400Y70615D02*
X3600D01*
X3400Y71765D02*
X3600D01*
X3400Y55615D02*
X3600D01*
X3400Y56765D02*
X3600D01*
X20375Y23521D02*
X20575D01*
X20375Y24771D02*
X20575D01*
X14500Y750D02*
Y1750D01*
X14833Y1416D01*
X15166Y1750D01*
Y750D01*
X16000Y1750D02*
X15666D01*
X15500Y1583D01*
Y917D01*
X15666Y750D01*
X16000D01*
X16166Y917D01*
Y1583D01*
X16000Y1750D01*
X16499D02*
Y750D01*
X16999D01*
X17166Y917D01*
Y1583D01*
X16999Y1750D01*
X16499D01*
X17499D02*
Y917D01*
X17666Y750D01*
X17999D01*
X18165Y917D01*
Y1750D01*
X18499D02*
Y750D01*
X19165D01*
X20165Y1750D02*
X19498D01*
Y750D01*
X20165D01*
X19498Y1250D02*
X19832D01*
X21498Y1750D02*
Y750D01*
X21998D01*
X22164Y917D01*
Y1583D01*
X21998Y1750D01*
X21498D01*
X23164D02*
X22497D01*
Y750D01*
X23164D01*
X22497Y1250D02*
X22831D01*
X23497Y1750D02*
Y750D01*
X23997D01*
X24164Y917D01*
Y1083D01*
X23997Y1250D01*
X23497D01*
X23997D01*
X24164Y1416D01*
Y1583D01*
X23997Y1750D01*
X23497D01*
X24497D02*
Y917D01*
X24663Y750D01*
X24997D01*
X25163Y917D01*
Y1750D01*
X26163Y1583D02*
X25996Y1750D01*
X25663D01*
X25496Y1583D01*
Y917D01*
X25663Y750D01*
X25996D01*
X26163Y917D01*
Y1250D01*
X25830D01*
X60071Y47498D02*
X60404D01*
X60238D01*
Y48498D01*
X60071Y48331D01*
X35560Y19685D02*
X35893D01*
X35727D01*
Y20685D01*
X35560Y20518D01*
X36393Y19685D02*
X36726D01*
X36560D01*
Y20685D01*
X36393Y20518D01*
X58420Y19685D02*
X58753D01*
X58587D01*
Y20685D01*
X58420Y20518D01*
X58674Y55626D02*
X59007D01*
X58841D01*
Y56626D01*
X58674Y56459D01*
X39207Y99298D02*
Y98298D01*
Y98798D01*
X39874D01*
Y99298D01*
Y98298D01*
X40707Y99298D02*
X40374D01*
X40207Y99131D01*
Y98465D01*
X40374Y98298D01*
X40707D01*
X40873Y98465D01*
Y99131D01*
X40707Y99298D01*
X41873Y99131D02*
X41706Y99298D01*
X41373D01*
X41207Y99131D01*
Y98964D01*
X41373Y98798D01*
X41706D01*
X41873Y98631D01*
Y98465D01*
X41706Y98298D01*
X41373D01*
X41207Y98465D01*
X42206Y99298D02*
X42873D01*
X42539D01*
Y98298D01*
X44206Y99298D02*
Y98298D01*
X44705D01*
X44872Y98465D01*
Y99131D01*
X44705Y99298D01*
X44206D01*
X45872D02*
X45205D01*
Y98298D01*
X45872D01*
X45205Y98798D02*
X45539D01*
X46205Y99298D02*
Y98298D01*
X46705D01*
X46871Y98465D01*
Y98631D01*
X46705Y98798D01*
X46205D01*
X46705D01*
X46871Y98964D01*
Y99131D01*
X46705Y99298D01*
X46205D01*
X47205D02*
Y98465D01*
X47371Y98298D01*
X47704D01*
X47871Y98465D01*
Y99298D01*
X48871Y99131D02*
X48704Y99298D01*
X48371D01*
X48204Y99131D01*
Y98465D01*
X48371Y98298D01*
X48704D01*
X48871Y98465D01*
Y98798D01*
X48538D01*
X65786Y98044D02*
Y99044D01*
X66286D01*
X66452Y98877D01*
Y98544D01*
X66286Y98377D01*
X65786D01*
X66119D02*
X66452Y98044D01*
X67452Y99044D02*
X66786D01*
Y98044D01*
X67452D01*
X66786Y98544D02*
X67119D01*
X68452Y98877D02*
X68285Y99044D01*
X67952D01*
X67785Y98877D01*
Y98710D01*
X67952Y98544D01*
X68285D01*
X68452Y98377D01*
Y98211D01*
X68285Y98044D01*
X67952D01*
X67785Y98211D01*
X69451Y99044D02*
X68785D01*
Y98044D01*
X69451D01*
X68785Y98544D02*
X69118D01*
X69785Y99044D02*
X70451D01*
X70118D01*
Y98044D01*
D69*
X92900Y11240D02*
Y19240D01*
Y11240D02*
X100000D01*
X92900Y19240D02*
X100000D01*
Y11240D02*
Y19240D01*
X49403Y91914D02*
Y92914D01*
X49736Y92581D01*
X50069Y92914D01*
Y91914D01*
X51069Y92747D02*
X50903Y92914D01*
X50569D01*
X50403Y92747D01*
Y92081D01*
X50569Y91914D01*
X50903D01*
X51069Y92081D01*
X51402Y92914D02*
Y91914D01*
X52069D01*
X52402D02*
Y92914D01*
X52902D01*
X53068Y92747D01*
Y92414D01*
X52902Y92248D01*
X52402D01*
X52735D02*
X53068Y91914D01*
D70*
X74727Y88726D02*
X99317D01*
X74727Y35746D02*
Y88726D01*
Y35746D02*
X99317D01*
Y88726D01*
D71*
X51689Y93345D02*
X52028D01*
X51858D01*
Y94361D01*
X51689Y94191D01*
X12380Y5500D02*
X12719D01*
X12549D01*
Y6516D01*
X12380Y6346D01*
X34544Y40200D02*
Y40539D01*
Y40369D01*
X33528D01*
X33698Y40200D01*
Y41046D02*
X33528Y41216D01*
Y41554D01*
X33698Y41724D01*
X34375D01*
X34544Y41554D01*
Y41216D01*
X34375Y41046D01*
X33698D01*
X34544Y22800D02*
Y23139D01*
Y22969D01*
X33528D01*
X33698Y22800D01*
X56544Y40200D02*
Y40539D01*
Y40369D01*
X55528D01*
X55698Y40200D01*
Y41046D02*
X55528Y41216D01*
Y41554D01*
X55698Y41724D01*
X56375D01*
X56544Y41554D01*
Y41216D01*
X56375Y41046D01*
X55698D01*
X56544Y22800D02*
Y23139D01*
Y22969D01*
X55528D01*
X55698Y22800D01*
D72*
X25001Y76900D02*
D03*
X25001Y61900D02*
D03*
X25001Y46900D02*
D03*
%TF.MD5,66ca572903332030b1c0cb943cb547ae*%
M02*
